<svg width="397" height="658" viewBox="0 0 397 658" fill="none" xmlns="http://www.w3.org/2000/svg">
<g filter="url(#filter0_bd_4_11110)">
<path d="M74.9368 147.386L77.7827 146.891L80.0836 149.311C80.634 149.89 80.3172 150.848 79.5303 150.985L74.6742 151.83C73.8873 151.966 73.2654 151.171 73.588 150.44L74.9368 147.386Z" fill="white"/>
<path d="M113.604 64.1256C119.908 100.375 103.694 140.176 75.9918 144.994C48.2892 149.812 19.5886 117.823 13.2838 81.5743C6.97893 45.3252 25.4574 18.5427 53.1599 13.7244C80.8625 8.90603 107.299 27.8765 113.604 64.1256Z" fill="white"/>
<circle cx="76.1747" cy="146.057" r="2.16651" transform="rotate(-9.86681 76.1747 146.057)" fill="white"/>
</g>
<g filter="url(#filter1_bd_4_11110)">
<path d="M217.353 440.762L219.001 440.46L219.802 441.288C220.357 441.862 220.049 442.823 219.263 442.967L217.995 443.199C217.21 443.343 216.581 442.553 216.897 441.819L217.353 440.762Z" fill="white"/>
<path d="M239.355 392.28C243.195 413.27 233.992 436.435 217.95 439.369C201.909 442.303 185.102 423.896 181.263 402.905C177.423 381.915 188.004 366.289 204.046 363.355C220.088 360.42 235.516 371.289 239.355 392.28Z" fill="white"/>
<circle cx="218.066" cy="439.989" r="1.25652" transform="rotate(-10.3656 218.066 439.989)" fill="white"/>
</g>
<g filter="url(#filter2_bd_4_11110)">
<path d="M123.598 338.065L125.709 338.359L126.567 340.138C126.914 340.858 126.319 341.673 125.528 341.563L122.895 341.196C122.104 341.085 121.755 340.138 122.286 339.541L123.598 338.065Z" fill="white"/>
<path d="M169.555 288.289C165.804 315.182 145.429 339.488 124.876 336.622C104.324 333.755 91.377 304.801 95.1279 277.908C98.8789 251.015 117.907 236.366 138.46 239.233C159.012 242.099 173.306 261.395 169.555 288.289Z" fill="white"/>
<circle cx="124.768" cy="337.416" r="1.59889" transform="rotate(7.94019 124.768 337.416)" fill="white"/>
</g>
<g filter="url(#filter3_bd_4_11110)">
<path d="M334.289 117.2L336.556 117.517L337.536 119.55C337.883 120.269 337.288 121.085 336.497 120.974L333.399 120.542C332.608 120.432 332.259 119.485 332.79 118.888L334.289 117.2Z" fill="white"/>
<path d="M383.622 63.7674C379.596 92.637 357.723 118.73 335.66 115.653C313.597 112.575 299.699 81.4932 303.725 52.6236C307.752 23.754 328.179 8.02928 350.241 11.1065C372.304 14.1838 387.649 34.8978 383.622 63.7674Z" fill="white"/>
<circle cx="335.545" cy="116.507" r="1.71639" transform="rotate(7.94019 335.545 116.507)" fill="white"/>
</g>
<g filter="url(#filter4_bd_4_11110)">
<path d="M306.22 235.513L309.011 234.67L311.626 236.825C312.242 237.333 312.043 238.322 311.279 238.554L306.483 240.003C305.718 240.234 305.005 239.52 305.236 238.756L306.22 235.513Z" fill="white"/>
<path d="M341.414 169.286C349.626 196.455 334.15 224.782 306.981 232.993C279.811 241.204 251.237 226.19 243.026 199.021C234.814 171.852 250.076 142.816 277.245 134.604C304.414 126.393 333.203 142.116 341.414 169.286Z" fill="white"/>
<circle cx="307.305" cy="234.044" r="2.18689" transform="rotate(-16.8162 307.305 234.044)" fill="white"/>
</g>
<g filter="url(#filter5_bd_4_11110)">
<path d="M267.214 534.1L269.999 534.963L270.959 538.213C271.185 538.979 270.466 539.688 269.703 539.451L264.918 537.967C264.155 537.73 263.964 536.739 264.584 536.235L267.214 534.1Z" fill="white"/>
<path d="M333.454 498.929C325.046 526.038 296.364 540.845 269.255 532.437C242.146 524.029 226.876 495.591 235.284 468.482C243.692 441.373 272.593 425.858 299.702 434.266C326.812 442.674 341.862 471.82 333.454 498.929Z" fill="white"/>
<circle cx="268.935" cy="533.49" r="2.18689" transform="rotate(17.2312 268.935 533.49)" fill="white"/>
</g>
<g filter="url(#filter6_bd_4_11110)">
<path d="M91.4975 545.694L93.6864 545.426L95.0595 547.024C95.58 547.63 95.2153 548.572 94.4225 548.669L91.5651 549.018C90.7723 549.115 90.1913 548.29 90.5504 547.576L91.4975 545.694Z" fill="white"/>
<path d="M126.286 500.902C128.894 522.209 113.701 541.317 92.3941 543.925C71.0872 546.533 51.7346 531.652 49.1269 510.345C46.5191 489.039 61.6437 469.374 82.9506 466.766C104.257 464.158 123.678 479.595 126.286 500.902Z" fill="white"/>
<circle cx="92.4969" cy="544.746" r="1.65393" transform="rotate(-6.9777 92.4969 544.746)" fill="white"/>
</g>
<path d="M39.8206 564.282C38.0428 557.656 39.0988 545.216 44.155 543.859C49.2111 542.503 56.3527 552.743 58.1305 559.369C59.9083 565.994 56.9315 571.276 51.8753 572.632C46.8192 573.989 41.5984 570.907 39.8206 564.282Z" fill="#D9EC00"/>
<path d="M50.166 568.879L51.4739 568.528L53.5565 576.29C53.6661 576.699 53.4946 577.099 53.1736 577.185L53.0283 577.224C52.7073 577.311 52.3582 577.049 52.2487 576.641L50.166 568.879Z" fill="#D9EC00"/>
<path d="M44.0776 546.192C44.0488 546.085 44.1425 545.966 44.287 545.927L45.0717 545.717C45.2161 545.678 45.3566 545.734 45.3855 545.841L52.124 570.955C52.1529 571.063 52.0592 571.181 51.9147 571.22L51.13 571.43C50.9855 571.469 50.845 571.414 50.8162 571.306L44.0776 546.192Z" fill="#EBFF00"/>
<path d="M41.7374 548.74C41.565 548.599 41.5397 548.345 41.6808 548.172L41.8086 548.016C41.9497 547.844 42.2039 547.819 42.3762 547.96L46.5893 551.409L45.9505 552.19L41.7374 548.74Z" fill="#EBFF00"/>
<path d="M41.2183 553.26C41.046 553.119 41.0207 552.865 41.1618 552.693L41.2896 552.537C41.4307 552.364 41.6848 552.339 41.8572 552.48L48.2934 557.75L47.6545 558.53L41.2183 553.26Z" fill="#EBFF00"/>
<path d="M40.2755 557.481C40.1031 557.34 40.0778 557.085 40.2189 556.913L40.3467 556.757C40.4878 556.585 40.7419 556.559 40.9143 556.7L50.0084 564.147L49.3696 564.927L40.2755 557.481Z" fill="#EBFF00"/>
<path d="M41.9483 563.714C41.776 563.572 41.7506 563.318 41.8918 563.146L42.0195 562.99C42.1607 562.818 42.4148 562.792 42.5872 562.933L51.6813 570.38L51.0424 571.16L41.9483 563.714Z" fill="#EBFF00"/>
<path d="M53.575 553.303C53.6536 553.095 53.8863 552.989 54.0947 553.068L54.2834 553.139C54.4919 553.218 54.5972 553.45 54.5186 553.659L50.3735 564.657L49.43 564.302L53.575 553.303Z" fill="#EBFF00"/>
<path d="M55.2503 559.536C55.3289 559.328 55.5616 559.222 55.77 559.301L55.9587 559.372C56.1672 559.451 56.2725 559.683 56.1939 559.892L52.0488 570.89L51.1052 570.535L55.2503 559.536Z" fill="#EBFF00"/>
<path d="M50.6454 550.116C50.7239 549.907 50.9566 549.802 51.165 549.881L51.3538 549.952C51.5622 550.03 51.6675 550.263 51.5889 550.471L48.6553 558.255L47.7117 557.9L50.6454 550.116Z" fill="#EBFF00"/>
<path d="M47.9295 546.459C48.0081 546.251 48.2408 546.145 48.4492 546.224L48.6379 546.295C48.8464 546.373 48.9517 546.606 48.8731 546.815L46.9528 551.91L46.0092 551.554L47.9295 546.459Z" fill="#EBFF00"/>
<path d="M245.821 641.922C244.043 635.297 245.099 622.857 250.155 621.5C255.211 620.143 262.353 630.384 264.131 637.009C265.908 643.635 262.931 648.916 257.875 650.273C252.819 651.63 247.598 648.548 245.821 641.922Z" fill="#D9EC00"/>
<path d="M256.166 646.52L257.474 646.169L259.557 653.931C259.666 654.339 259.495 654.74 259.174 654.826L259.028 654.865C258.707 654.951 258.358 654.69 258.249 654.282L256.166 646.52Z" fill="#D9EC00"/>
<path d="M250.078 623.833C250.049 623.725 250.142 623.607 250.287 623.568L251.072 623.357C251.216 623.319 251.357 623.374 251.385 623.482L258.124 648.596C258.153 648.703 258.059 648.822 257.915 648.861L257.13 649.071C256.986 649.11 256.845 649.054 256.816 648.947L250.078 623.833Z" fill="#EBFF00"/>
<path d="M247.737 626.381C247.565 626.239 247.539 625.985 247.68 625.813L247.808 625.657C247.949 625.485 248.203 625.459 248.376 625.6L252.589 629.05L251.95 629.83L247.737 626.381Z" fill="#EBFF00"/>
<path d="M247.218 630.901C247.046 630.76 247.021 630.506 247.162 630.333L247.29 630.177C247.431 630.005 247.685 629.98 247.857 630.121L254.293 635.391L253.655 636.171L247.218 630.901Z" fill="#EBFF00"/>
<path d="M246.275 635.121C246.103 634.98 246.077 634.726 246.218 634.554L246.346 634.398C246.487 634.225 246.741 634.2 246.914 634.341L256.008 641.787L255.369 642.568L246.275 635.121Z" fill="#EBFF00"/>
<path d="M247.948 641.354C247.775 641.213 247.75 640.959 247.891 640.787L248.019 640.631C248.16 640.458 248.414 640.433 248.587 640.574L257.681 648.02L257.042 648.801L247.948 641.354Z" fill="#EBFF00"/>
<path d="M259.575 630.944C259.653 630.735 259.886 630.63 260.094 630.709L260.283 630.78C260.491 630.858 260.597 631.091 260.518 631.299L256.373 642.298L255.429 641.942L259.575 630.944Z" fill="#EBFF00"/>
<path d="M261.25 637.177C261.329 636.968 261.562 636.863 261.77 636.942L261.959 637.013C262.167 637.091 262.272 637.324 262.194 637.532L258.049 648.531L257.105 648.175L261.25 637.177Z" fill="#EBFF00"/>
<path d="M256.646 627.756C256.724 627.548 256.957 627.443 257.166 627.521L257.354 627.592C257.563 627.671 257.668 627.904 257.589 628.112L254.656 635.896L253.712 635.54L256.646 627.756Z" fill="#EBFF00"/>
<path d="M253.93 624.1C254.009 623.891 254.241 623.786 254.45 623.864L254.638 623.936C254.847 624.014 254.952 624.247 254.874 624.455L252.953 629.551L252.01 629.195L253.93 624.1Z" fill="#EBFF00"/>
<path d="M355.821 156.922C354.043 150.297 355.099 137.857 360.155 136.5C365.211 135.143 372.353 145.384 374.131 152.009C375.908 158.635 372.931 163.916 367.875 165.273C362.819 166.63 357.598 163.548 355.821 156.922Z" fill="#D9EC00"/>
<path d="M366.166 161.52L367.474 161.169L369.557 168.931C369.666 169.339 369.495 169.74 369.174 169.826L369.028 169.865C368.707 169.951 368.358 169.69 368.249 169.282L366.166 161.52Z" fill="#D9EC00"/>
<path d="M360.078 138.833C360.049 138.725 360.142 138.607 360.287 138.568L361.072 138.357C361.216 138.319 361.357 138.374 361.385 138.482L368.124 163.596C368.153 163.703 368.059 163.822 367.915 163.861L367.13 164.071C366.986 164.11 366.845 164.054 366.816 163.947L360.078 138.833Z" fill="#EBFF00"/>
<path d="M357.737 141.381C357.565 141.239 357.539 140.985 357.68 140.813L357.808 140.657C357.949 140.485 358.203 140.459 358.376 140.6L362.589 144.05L361.95 144.83L357.737 141.381Z" fill="#EBFF00"/>
<path d="M357.218 145.901C357.046 145.76 357.021 145.506 357.162 145.333L357.29 145.177C357.431 145.005 357.685 144.98 357.857 145.121L364.293 150.391L363.655 151.171L357.218 145.901Z" fill="#EBFF00"/>
<path d="M356.275 150.121C356.103 149.98 356.077 149.726 356.218 149.554L356.346 149.398C356.487 149.225 356.741 149.2 356.914 149.341L366.008 156.787L365.369 157.568L356.275 150.121Z" fill="#EBFF00"/>
<path d="M357.948 156.354C357.775 156.213 357.75 155.959 357.891 155.787L358.019 155.631C358.16 155.458 358.414 155.433 358.587 155.574L367.681 163.02L367.042 163.801L357.948 156.354Z" fill="#EBFF00"/>
<path d="M369.575 145.944C369.653 145.735 369.886 145.63 370.094 145.709L370.283 145.78C370.491 145.858 370.597 146.091 370.518 146.299L366.373 157.298L365.429 156.942L369.575 145.944Z" fill="#EBFF00"/>
<path d="M371.25 152.177C371.329 151.968 371.562 151.863 371.77 151.942L371.959 152.013C372.167 152.091 372.272 152.324 372.194 152.532L368.049 163.531L367.105 163.175L371.25 152.177Z" fill="#EBFF00"/>
<path d="M366.646 142.756C366.724 142.548 366.957 142.443 367.166 142.521L367.354 142.592C367.563 142.671 367.668 142.904 367.589 143.112L364.656 150.896L363.712 150.54L366.646 142.756Z" fill="#EBFF00"/>
<path d="M363.93 139.1C364.009 138.891 364.241 138.786 364.45 138.864L364.638 138.936C364.847 139.014 364.952 139.247 364.874 139.455L362.953 144.551L362.01 144.195L363.93 139.1Z" fill="#EBFF00"/>
<path d="M59.86 249.929C63.6746 243.333 74.2842 234.402 79.3181 237.313C84.3519 240.224 81.9038 253.874 78.0891 260.471C74.2745 267.067 67.7865 268.87 62.7526 265.959C57.7188 263.048 56.0454 256.525 59.86 249.929Z" fill="#D9EC00"/>
<path d="M64.3574 261.681L65.6595 262.434L61.1908 270.162C60.9557 270.568 60.5061 270.748 60.1865 270.563L60.0418 270.479C59.7222 270.295 59.6536 269.815 59.8887 269.409L64.3574 261.681Z" fill="#D9EC00"/>
<path d="M77.4221 239.088C77.484 238.981 77.6508 238.961 77.7946 239.045L78.5758 239.496C78.7197 239.58 78.7861 239.734 78.7242 239.841L64.2653 264.844C64.2034 264.951 64.0367 264.97 63.8928 264.887L63.1116 264.435C62.9678 264.352 62.9014 264.198 62.9633 264.091L77.4221 239.088Z" fill="#EBFF00"/>
<path d="M73.583 239.238C73.5587 238.992 73.7387 238.772 73.9849 238.748L74.2079 238.726C74.4541 238.702 74.6734 238.882 74.6977 239.128L75.291 245.147L74.1763 245.257L73.583 239.238Z" fill="#EBFF00"/>
<path d="M69.624 242.379C69.5998 242.133 69.7797 241.913 70.026 241.889L70.2489 241.867C70.4951 241.843 70.7144 242.023 70.7387 242.269L71.645 251.465L70.5303 251.575L69.624 242.379Z" fill="#EBFF00"/>
<path d="M65.5605 244.951C65.5363 244.705 65.7162 244.486 65.9625 244.461L66.1854 244.439C66.4317 244.415 66.651 244.595 66.6752 244.841L67.9558 257.834L66.8411 257.944L65.5605 244.951Z" fill="#EBFF00"/>
<path d="M61.9707 251.157C61.9464 250.911 62.1264 250.691 62.3726 250.667L62.5956 250.645C62.8418 250.621 63.0611 250.801 63.0854 251.047L64.366 264.04L63.2513 264.15L61.9707 251.157Z" fill="#EBFF00"/>
<path d="M79.2791 252.136C79.5047 252.034 79.77 252.134 79.8718 252.36L79.964 252.564C80.0657 252.79 79.9654 253.055 79.7399 253.157L67.8398 258.527L67.379 257.507L79.2791 252.136Z" fill="#EBFF00"/>
<path d="M75.6912 258.331C75.9168 258.229 76.1821 258.33 76.2839 258.555L76.3761 258.76C76.4778 258.985 76.3775 259.25 76.152 259.352L64.2519 264.723L63.7911 263.702L75.6912 258.331Z" fill="#EBFF00"/>
<path d="M79.4871 247.328C79.7127 247.227 79.978 247.327 80.0798 247.552L80.172 247.757C80.2737 247.982 80.1734 248.247 79.9479 248.349L71.5258 252.15L71.065 251.129L79.4871 247.328Z" fill="#EBFF00"/>
<path d="M80.2313 242.324C80.4568 242.223 80.7222 242.323 80.8239 242.549L80.9161 242.753C81.0179 242.978 80.9176 243.244 80.692 243.345L75.179 245.833L74.7182 244.812L80.2313 242.324Z" fill="#EBFF00"/>
<path d="M129.376 113.89C127.359 106.415 128.531 92.3723 134.235 90.8328C139.94 89.2932 148.017 100.84 150.035 108.315C152.052 115.79 148.701 121.756 142.996 123.295C137.292 124.835 131.394 121.365 129.376 113.89Z" fill="#D9EC00"/>
<path d="M141.062 119.068L142.538 118.67L144.901 127.427C145.026 127.888 144.833 128.341 144.471 128.438L144.307 128.483C143.945 128.58 143.55 128.286 143.426 127.826L141.062 119.068Z" fill="#D9EC00"/>
<path d="M134.155 93.4692C134.122 93.3479 134.228 93.2139 134.391 93.1699L135.276 92.9309C135.439 92.8869 135.598 92.9496 135.631 93.0709L143.277 121.405C143.31 121.527 143.205 121.661 143.042 121.705L142.156 121.944C141.993 121.988 141.835 121.925 141.802 121.804L134.155 93.4692Z" fill="#EBFF00"/>
<path d="M131.518 96.3445C131.323 96.1855 131.294 95.8987 131.453 95.704L131.597 95.5276C131.756 95.3329 132.043 95.3039 132.237 95.4629L136.998 99.3496L136.279 100.231L131.518 96.3445Z" fill="#EBFF00"/>
<path d="M130.937 101.446C130.742 101.287 130.713 101 130.872 100.806L131.016 100.629C131.175 100.434 131.462 100.405 131.656 100.564L138.93 106.502L138.21 107.384L130.937 101.446Z" fill="#EBFF00"/>
<path d="M129.878 106.211C129.683 106.052 129.654 105.765 129.813 105.571L129.957 105.394C130.116 105.2 130.403 105.171 130.598 105.33L140.874 113.719L140.155 114.601L129.878 106.211Z" fill="#EBFF00"/>
<path d="M131.776 113.246C131.582 113.087 131.553 112.8 131.712 112.605L131.856 112.429C132.015 112.234 132.301 112.205 132.496 112.364L142.773 120.754L142.053 121.636L131.776 113.246Z" fill="#EBFF00"/>
<path d="M144.885 101.477C144.973 101.242 145.236 101.122 145.471 101.211L145.684 101.291C145.92 101.379 146.039 101.641 145.951 101.877L141.29 114.298L140.225 113.898L144.885 101.477Z" fill="#EBFF00"/>
<path d="M146.78 108.509C146.868 108.274 147.13 108.155 147.366 108.243L147.579 108.323C147.814 108.411 147.933 108.674 147.845 108.909L143.185 121.33L142.119 120.93L146.78 108.509Z" fill="#EBFF00"/>
<path d="M141.574 97.8891C141.663 97.6537 141.925 97.5345 142.161 97.6228L142.374 97.7028C142.609 97.7911 142.728 98.0536 142.64 98.289L139.342 107.08L138.276 106.68L141.574 97.8891Z" fill="#EBFF00"/>
<path d="M138.5 93.7607C138.589 93.5253 138.851 93.4061 139.086 93.4944L139.3 93.5744C139.535 93.6627 139.654 93.9251 139.566 94.1605L137.407 99.9148L136.341 99.515L138.5 93.7607Z" fill="#EBFF00"/>
<defs>
<filter id="filter0_bd_4_11110" x="0.046875" y="2.98535" width="126.913" height="162.86" filterUnits="userSpaceOnUse" color-interpolation-filters="sRGB">
<feFlood flood-opacity="0" result="BackgroundImageFix"/>
<feGaussianBlur in="BackgroundImageFix" stdDeviation="4"/>
<feComposite in2="SourceAlpha" operator="in" result="effect1_backgroundBlur_4_11110"/>
<feColorMatrix in="SourceAlpha" type="matrix" values="0 0 0 0 0 0 0 0 0 0 0 0 0 0 0 0 0 0 127 0" result="hardAlpha"/>
<feOffset dy="2"/>
<feGaussianBlur stdDeviation="6"/>
<feComposite in2="hardAlpha" operator="out"/>
<feColorMatrix type="matrix" values="0 0 0 0 0 0 0 0 0 0 0 0 0 0 0 0 0 0 0.15 0"/>
<feBlend mode="normal" in2="effect1_backgroundBlur_4_11110" result="effect2_dropShadow_4_11110"/>
<feBlend mode="normal" in="SourceGraphic" in2="effect2_dropShadow_4_11110" result="shape"/>
</filter>
<filter id="filter1_bd_4_11110" x="168.474" y="352.882" width="83.75" height="104.333" filterUnits="userSpaceOnUse" color-interpolation-filters="sRGB">
<feFlood flood-opacity="0" result="BackgroundImageFix"/>
<feGaussianBlur in="BackgroundImageFix" stdDeviation="4"/>
<feComposite in2="SourceAlpha" operator="in" result="effect1_backgroundBlur_4_11110"/>
<feColorMatrix in="SourceAlpha" type="matrix" values="0 0 0 0 0 0 0 0 0 0 0 0 0 0 0 0 0 0 127 0" result="hardAlpha"/>
<feOffset dy="2"/>
<feGaussianBlur stdDeviation="6"/>
<feComposite in2="hardAlpha" operator="out"/>
<feColorMatrix type="matrix" values="0 0 0 0 0 0 0 0 0 0 0 0 0 0 0 0 0 0 0.15 0"/>
<feBlend mode="normal" in2="effect1_backgroundBlur_4_11110" result="effect2_dropShadow_4_11110"/>
<feBlend mode="normal" in="SourceGraphic" in2="effect2_dropShadow_4_11110" result="shape"/>
</filter>
<filter id="filter2_bd_4_11110" x="82.4824" y="228.878" width="99.6719" height="126.695" filterUnits="userSpaceOnUse" color-interpolation-filters="sRGB">
<feFlood flood-opacity="0" result="BackgroundImageFix"/>
<feGaussianBlur in="BackgroundImageFix" stdDeviation="4"/>
<feComposite in2="SourceAlpha" operator="in" result="effect1_backgroundBlur_4_11110"/>
<feColorMatrix in="SourceAlpha" type="matrix" values="0 0 0 0 0 0 0 0 0 0 0 0 0 0 0 0 0 0 127 0" result="hardAlpha"/>
<feOffset dy="2"/>
<feGaussianBlur stdDeviation="6"/>
<feComposite in2="hardAlpha" operator="out"/>
<feColorMatrix type="matrix" values="0 0 0 0 0 0 0 0 0 0 0 0 0 0 0 0 0 0 0.15 0"/>
<feBlend mode="normal" in2="effect1_backgroundBlur_4_11110" result="effect2_dropShadow_4_11110"/>
<feBlend mode="normal" in="SourceGraphic" in2="effect2_dropShadow_4_11110" result="shape"/>
</filter>
<filter id="filter3_bd_4_11110" x="291.032" y="0.725586" width="105.232" height="134.259" filterUnits="userSpaceOnUse" color-interpolation-filters="sRGB">
<feFlood flood-opacity="0" result="BackgroundImageFix"/>
<feGaussianBlur in="BackgroundImageFix" stdDeviation="4"/>
<feComposite in2="SourceAlpha" operator="in" result="effect1_backgroundBlur_4_11110"/>
<feColorMatrix in="SourceAlpha" type="matrix" values="0 0 0 0 0 0 0 0 0 0 0 0 0 0 0 0 0 0 127 0" result="hardAlpha"/>
<feOffset dy="2"/>
<feGaussianBlur stdDeviation="6"/>
<feComposite in2="hardAlpha" operator="out"/>
<feColorMatrix type="matrix" values="0 0 0 0 0 0 0 0 0 0 0 0 0 0 0 0 0 0 0.15 0"/>
<feBlend mode="normal" in2="effect1_backgroundBlur_4_11110" result="effect2_dropShadow_4_11110"/>
<feBlend mode="normal" in="SourceGraphic" in2="effect2_dropShadow_4_11110" result="shape"/>
</filter>
<filter id="filter4_bd_4_11110" x="228.805" y="122.424" width="126.812" height="131.624" filterUnits="userSpaceOnUse" color-interpolation-filters="sRGB">
<feFlood flood-opacity="0" result="BackgroundImageFix"/>
<feGaussianBlur in="BackgroundImageFix" stdDeviation="4"/>
<feComposite in2="SourceAlpha" operator="in" result="effect1_backgroundBlur_4_11110"/>
<feColorMatrix in="SourceAlpha" type="matrix" values="0 0 0 0 0 0 0 0 0 0 0 0 0 0 0 0 0 0 127 0" result="hardAlpha"/>
<feOffset dy="2"/>
<feGaussianBlur stdDeviation="6"/>
<feComposite in2="hardAlpha" operator="out"/>
<feColorMatrix type="matrix" values="0 0 0 0 0 0 0 0 0 0 0 0 0 0 0 0 0 0 0.15 0"/>
<feBlend mode="normal" in2="effect1_backgroundBlur_4_11110" result="effect2_dropShadow_4_11110"/>
<feBlend mode="normal" in="SourceGraphic" in2="effect2_dropShadow_4_11110" result="shape"/>
</filter>
<filter id="filter5_bd_4_11110" x="220.974" y="421.978" width="126.811" height="131.52" filterUnits="userSpaceOnUse" color-interpolation-filters="sRGB">
<feFlood flood-opacity="0" result="BackgroundImageFix"/>
<feGaussianBlur in="BackgroundImageFix" stdDeviation="4"/>
<feComposite in2="SourceAlpha" operator="in" result="effect1_backgroundBlur_4_11110"/>
<feColorMatrix in="SourceAlpha" type="matrix" values="0 0 0 0 0 0 0 0 0 0 0 0 0 0 0 0 0 0 127 0" result="hardAlpha"/>
<feOffset dy="2"/>
<feGaussianBlur stdDeviation="6"/>
<feComposite in2="hardAlpha" operator="out"/>
<feColorMatrix type="matrix" values="0 0 0 0 0 0 0 0 0 0 0 0 0 0 0 0 0 0 0.15 0"/>
<feBlend mode="normal" in2="effect1_backgroundBlur_4_11110" result="effect2_dropShadow_4_11110"/>
<feBlend mode="normal" in="SourceGraphic" in2="effect2_dropShadow_4_11110" result="shape"/>
</filter>
<filter id="filter6_bd_4_11110" x="36.8345" y="456.479" width="101.743" height="106.547" filterUnits="userSpaceOnUse" color-interpolation-filters="sRGB">
<feFlood flood-opacity="0" result="BackgroundImageFix"/>
<feGaussianBlur in="BackgroundImageFix" stdDeviation="4"/>
<feComposite in2="SourceAlpha" operator="in" result="effect1_backgroundBlur_4_11110"/>
<feColorMatrix in="SourceAlpha" type="matrix" values="0 0 0 0 0 0 0 0 0 0 0 0 0 0 0 0 0 0 127 0" result="hardAlpha"/>
<feOffset dy="2"/>
<feGaussianBlur stdDeviation="6"/>
<feComposite in2="hardAlpha" operator="out"/>
<feColorMatrix type="matrix" values="0 0 0 0 0 0 0 0 0 0 0 0 0 0 0 0 0 0 0.15 0"/>
<feBlend mode="normal" in2="effect1_backgroundBlur_4_11110" result="effect2_dropShadow_4_11110"/>
<feBlend mode="normal" in="SourceGraphic" in2="effect2_dropShadow_4_11110" result="shape"/>
</filter>
</defs>
</svg>
