<svg width="365" height="806" viewBox="0 0 365 806" fill="none" xmlns="http://www.w3.org/2000/svg">
<g filter="url(#filter0_bd_4_11111)">
<path d="M223.745 390.916L225.402 391.163L225.892 392.206C226.232 392.928 225.629 393.738 224.839 393.62L223.564 393.43C222.774 393.312 222.435 392.361 222.971 391.769L223.745 390.916Z" fill="white"/>
<path d="M260.243 352.153C257.088 373.258 240.889 392.202 224.761 389.791C208.632 387.381 198.681 364.528 201.835 343.423C204.99 322.318 220.055 310.954 236.184 313.365C252.313 315.775 263.397 331.049 260.243 352.153Z" fill="white"/>
<circle cx="224.669" cy="390.415" r="1.25652" transform="rotate(8.50109 224.669 390.415)" fill="white"/>
</g>
<g filter="url(#filter1_bd_4_11111)">
<path d="M195.518 695.167L198.017 695.541L199.16 697.972C199.5 698.694 198.898 699.504 198.108 699.386L194.307 698.818C193.517 698.7 193.178 697.749 193.714 697.158L195.518 695.167Z" fill="white"/>
<path d="M250.556 636.71C245.799 668.537 221.371 697.106 197.048 693.471C172.725 689.835 157.718 655.372 162.475 623.545C167.232 591.718 189.952 574.58 214.275 578.215C238.598 581.851 255.314 604.884 250.556 636.71Z" fill="white"/>
<circle cx="196.913" cy="694.405" r="1.89489" transform="rotate(8.50109 196.913 694.405)" fill="white"/>
</g>
<g filter="url(#filter2_bd_4_11111)">
<path d="M256.641 139.759L259.387 140.169L260.722 143.008C261.062 143.73 260.459 144.54 259.669 144.422L255.127 143.743C254.337 143.625 253.997 142.675 254.534 142.083L256.641 139.759Z" fill="white"/>
<path d="M317.126 75.5174C311.898 110.494 285.052 141.889 258.322 137.894C231.592 133.899 215.1 96.0254 220.328 61.0491C225.556 26.0727 250.524 7.23836 277.254 11.2337C303.984 15.229 322.354 40.5411 317.126 75.5174Z" fill="white"/>
<circle cx="258.175" cy="138.921" r="2.0824" transform="rotate(8.50109 258.175 138.921)" fill="white"/>
</g>
<g filter="url(#filter3_bd_4_11111)">
<path d="M52.7041 175.226L54.5215 174.893L55.5383 175.944C56.0937 176.518 55.7852 177.479 54.9995 177.623L53.2234 177.948C52.4377 178.092 51.8089 177.302 52.1252 176.568L52.7041 175.226Z" fill="white"/>
<path d="M76.9697 121.757C81.2038 144.906 71.0556 170.451 53.365 173.687C35.6743 176.923 17.1405 156.624 12.9063 133.475C8.67214 110.327 20.3411 93.0951 38.0317 89.8592C55.7223 86.6233 72.7355 98.6089 76.9697 121.757Z" fill="white"/>
<circle cx="53.4903" cy="174.372" r="1.38566" transform="rotate(-10.3656 53.4903 174.372)" fill="white"/>
</g>
<g filter="url(#filter4_bd_4_11111)">
<path d="M306.078 486.808L308.972 486.451L311.183 489.018C311.704 489.624 311.34 490.566 310.548 490.663L305.575 491.277C304.782 491.375 304.2 490.55 304.559 489.836L306.078 486.808Z" fill="white"/>
<path d="M352.008 427.519C355.487 455.688 335.425 480.975 307.256 484.453C279.087 487.931 253.477 468.283 249.999 440.114C246.521 411.945 266.492 385.922 294.661 382.444C322.83 378.966 348.53 399.35 352.008 427.519Z" fill="white"/>
<circle cx="307.397" cy="485.544" r="2.18689" transform="rotate(-7.03878 307.397 485.544)" fill="white"/>
</g>
<g filter="url(#filter5_bd_4_11111)">
<path d="M106.593 273.15L109.664 274.103L110.777 277.87C111.003 278.636 110.285 279.345 109.522 279.109L103.877 277.358C103.114 277.122 102.923 276.13 103.543 275.627L106.593 273.15Z" fill="white"/>
<path d="M179.64 234.363C170.368 264.258 138.738 280.586 108.842 271.314C78.947 262.042 62.1075 230.681 71.3795 200.786C80.6516 170.89 112.524 153.782 142.419 163.054C172.315 172.326 188.912 204.467 179.64 234.363Z" fill="white"/>
<circle cx="108.491" cy="272.476" r="2.41166" transform="rotate(17.2312 108.491 272.476)" fill="white"/>
</g>
<g filter="url(#filter6_bd_4_11111)">
<path d="M124.126 602.651L126.315 602.383L127.688 603.981C128.209 604.587 127.844 605.529 127.051 605.626L124.194 605.975C123.401 606.072 122.82 605.247 123.179 604.533L124.126 602.651Z" fill="white"/>
<path d="M158.915 557.859C161.523 579.166 146.33 598.274 125.023 600.882C103.716 603.49 84.3635 588.609 81.7558 567.302C79.148 545.996 94.2726 526.331 115.58 523.723C136.886 521.115 156.307 536.552 158.915 557.859Z" fill="white"/>
<circle cx="125.126" cy="601.703" r="1.65393" transform="rotate(-6.9777 125.126 601.703)" fill="white"/>
</g>
<path d="M103.47 109.847C101.453 102.372 102.624 88.3294 108.329 86.7898C114.033 85.2502 122.111 96.7966 124.128 104.272C126.146 111.747 122.794 117.713 117.09 119.252C111.385 120.792 105.488 117.322 103.47 109.847Z" fill="#D9EC00"/>
<path d="M115.156 115.025L116.632 114.627L118.995 123.384C119.12 123.845 118.927 124.298 118.565 124.395L118.401 124.44C118.038 124.537 117.644 124.243 117.52 123.783L115.156 115.025Z" fill="#D9EC00"/>
<path d="M108.249 89.4262C108.216 89.3049 108.322 89.1709 108.485 89.1269L109.37 88.888C109.533 88.844 109.692 88.9067 109.724 89.028L117.371 117.362C117.404 117.484 117.298 117.618 117.135 117.662L116.25 117.901C116.087 117.945 115.928 117.882 115.896 117.761L108.249 89.4262Z" fill="#EBFF00"/>
<path d="M105.611 92.3016C105.417 92.1426 105.388 91.8558 105.547 91.661L105.691 91.4847C105.85 91.2899 106.136 91.2609 106.331 91.4199L111.092 95.3067L110.372 96.1883L105.611 92.3016Z" fill="#EBFF00"/>
<path d="M105.03 97.4031C104.836 97.2441 104.807 96.9573 104.966 96.7626L105.11 96.5862C105.269 96.3915 105.555 96.3625 105.75 96.5215L113.023 102.459L112.304 103.341L105.03 97.4031Z" fill="#EBFF00"/>
<path d="M103.972 102.168C103.777 102.009 103.748 101.722 103.907 101.528L104.051 101.351C104.21 101.157 104.497 101.128 104.692 101.287L114.968 109.676L114.248 110.558L103.972 102.168Z" fill="#EBFF00"/>
<path d="M105.87 109.203C105.675 109.044 105.646 108.757 105.805 108.562L105.949 108.386C106.108 108.191 106.395 108.162 106.59 108.321L116.867 116.711L116.147 117.593L105.87 109.203Z" fill="#EBFF00"/>
<path d="M118.979 97.4341C119.067 97.1986 119.33 97.0794 119.565 97.1677L119.778 97.2477C120.013 97.336 120.133 97.5985 120.044 97.8339L115.384 110.255L114.318 109.855L118.979 97.4341Z" fill="#EBFF00"/>
<path d="M120.873 104.466C120.962 104.231 121.224 104.112 121.459 104.2L121.673 104.28C121.908 104.368 122.027 104.631 121.939 104.866L117.278 117.287L116.213 116.887L120.873 104.466Z" fill="#EBFF00"/>
<path d="M115.668 93.8462C115.757 93.6108 116.019 93.4915 116.254 93.5799L116.467 93.6598C116.703 93.7481 116.822 94.0106 116.734 94.246L113.435 103.037L112.37 102.637L115.668 93.8462Z" fill="#EBFF00"/>
<path d="M112.594 89.7177C112.682 89.4823 112.945 89.3631 113.18 89.4514L113.393 89.5314C113.629 89.6197 113.748 89.8822 113.66 90.1176L111.501 95.8718L110.435 95.472L112.594 89.7177Z" fill="#EBFF00"/>
<path d="M304.47 787.847C302.453 780.372 303.624 766.329 309.329 764.79C315.033 763.25 323.111 774.797 325.128 782.272C327.146 789.747 323.794 795.713 318.09 797.252C312.385 798.792 306.488 795.322 304.47 787.847Z" fill="#D9EC00"/>
<path d="M316.156 793.025L317.632 792.627L319.995 801.384C320.12 801.845 319.927 802.298 319.565 802.395L319.401 802.44C319.038 802.537 318.644 802.243 318.52 801.783L316.156 793.025Z" fill="#D9EC00"/>
<path d="M309.249 767.426C309.216 767.305 309.322 767.171 309.485 767.127L310.37 766.888C310.533 766.844 310.692 766.907 310.724 767.028L318.371 795.362C318.404 795.484 318.298 795.618 318.135 795.662L317.25 795.901C317.087 795.945 316.928 795.882 316.896 795.761L309.249 767.426Z" fill="#EBFF00"/>
<path d="M306.611 770.302C306.417 770.143 306.388 769.856 306.547 769.661L306.691 769.485C306.85 769.29 307.136 769.261 307.331 769.42L312.092 773.307L311.372 774.188L306.611 770.302Z" fill="#EBFF00"/>
<path d="M306.03 775.403C305.836 775.244 305.807 774.957 305.966 774.763L306.11 774.586C306.269 774.391 306.555 774.362 306.75 774.521L314.023 780.459L313.304 781.341L306.03 775.403Z" fill="#EBFF00"/>
<path d="M304.972 780.168C304.777 780.009 304.748 779.722 304.907 779.528L305.051 779.351C305.21 779.157 305.497 779.128 305.692 779.287L315.968 787.676L315.248 788.558L304.972 780.168Z" fill="#EBFF00"/>
<path d="M306.87 787.203C306.675 787.044 306.646 786.757 306.805 786.562L306.949 786.386C307.108 786.191 307.395 786.162 307.59 786.321L317.867 794.711L317.147 795.593L306.87 787.203Z" fill="#EBFF00"/>
<path d="M319.979 775.434C320.067 775.199 320.33 775.079 320.565 775.168L320.778 775.248C321.013 775.336 321.133 775.598 321.044 775.834L316.384 788.255L315.318 787.855L319.979 775.434Z" fill="#EBFF00"/>
<path d="M321.873 782.466C321.962 782.231 322.224 782.112 322.459 782.2L322.673 782.28C322.908 782.368 323.027 782.631 322.939 782.866L318.278 795.287L317.213 794.887L321.873 782.466Z" fill="#EBFF00"/>
<path d="M316.668 771.846C316.757 771.611 317.019 771.492 317.254 771.58L317.467 771.66C317.703 771.748 317.822 772.011 317.734 772.246L314.435 781.037L313.37 780.637L316.668 771.846Z" fill="#EBFF00"/>
<path d="M313.594 767.718C313.682 767.482 313.945 767.363 314.18 767.451L314.393 767.531C314.629 767.62 314.748 767.882 314.66 768.118L312.501 773.872L311.435 773.472L313.594 767.718Z" fill="#EBFF00"/>
<path d="M284.308 166.383C286.164 158.865 293.99 147.148 299.727 148.564C305.463 149.98 306.937 163.994 305.082 171.511C303.226 179.028 297.404 182.624 291.668 181.208C285.931 179.792 282.452 173.9 284.308 166.383Z" fill="#D9EC00"/>
<path d="M292.023 176.573L293.507 176.939L291.333 185.745C291.219 186.208 290.831 186.511 290.467 186.421L290.302 186.38C289.938 186.29 289.735 185.842 289.849 185.379L292.023 176.573Z" fill="#D9EC00"/>
<path d="M298.379 150.831C298.409 150.709 298.566 150.643 298.73 150.683L299.621 150.903C299.785 150.943 299.893 151.075 299.863 151.197L292.829 179.69C292.799 179.812 292.642 179.878 292.478 179.837L291.587 179.618C291.423 179.577 291.315 179.446 291.345 179.324L298.379 150.831Z" fill="#EBFF00"/>
<path d="M294.68 152.069C294.586 151.836 294.7 151.571 294.933 151.477L295.145 151.393C295.378 151.299 295.643 151.413 295.737 151.646L298.019 157.353L296.962 157.776L294.68 152.069Z" fill="#EBFF00"/>
<path d="M291.7 156.251C291.607 156.017 291.72 155.752 291.954 155.659L292.165 155.575C292.399 155.481 292.664 155.595 292.757 155.828L296.244 164.546L295.187 164.968L291.7 156.251Z" fill="#EBFF00"/>
<path d="M288.467 159.907C288.374 159.674 288.487 159.409 288.721 159.315L288.932 159.231C289.165 159.137 289.43 159.251 289.524 159.484L294.451 171.802L293.394 172.224L288.467 159.907Z" fill="#EBFF00"/>
<path d="M286.72 166.981C286.626 166.747 286.74 166.482 286.973 166.389L287.185 166.304C287.418 166.211 287.683 166.325 287.777 166.558L292.704 178.875L291.647 179.298L286.72 166.981Z" fill="#EBFF00"/>
<path d="M303.888 163.034C304.079 162.871 304.367 162.893 304.53 163.085L304.678 163.258C304.841 163.449 304.818 163.736 304.627 163.9L294.533 172.509L293.795 171.643L303.888 163.034Z" fill="#EBFF00"/>
<path d="M302.14 170.104C302.331 169.941 302.619 169.964 302.782 170.155L302.929 170.328C303.093 170.519 303.07 170.807 302.879 170.97L292.785 179.579L292.047 178.713L302.14 170.104Z" fill="#EBFF00"/>
<path d="M302.729 158.292C302.92 158.128 303.207 158.151 303.371 158.342L303.518 158.516C303.682 158.707 303.659 158.994 303.467 159.157L296.324 165.251L295.585 164.385L302.729 158.292Z" fill="#EBFF00"/>
<path d="M302.039 153.191C302.231 153.028 302.518 153.051 302.681 153.242L302.829 153.415C302.992 153.606 302.969 153.894 302.778 154.057L298.102 158.045L297.363 157.179L302.039 153.191Z" fill="#EBFF00"/>
<path d="M117.308 649.383C119.164 641.865 126.99 630.148 132.727 631.564C138.463 632.98 139.937 646.994 138.082 654.511C136.226 662.028 130.404 665.624 124.668 664.208C118.931 662.792 115.452 656.9 117.308 649.383Z" fill="#D9EC00"/>
<path d="M125.023 659.573L126.507 659.939L124.333 668.745C124.219 669.208 123.831 669.511 123.467 669.421L123.302 669.38C122.938 669.29 122.735 668.842 122.849 668.379L125.023 659.573Z" fill="#D9EC00"/>
<path d="M131.379 633.831C131.409 633.709 131.566 633.643 131.73 633.683L132.621 633.903C132.785 633.943 132.893 634.075 132.863 634.197L125.829 662.69C125.799 662.812 125.642 662.878 125.478 662.837L124.587 662.618C124.423 662.577 124.315 662.446 124.345 662.324L131.379 633.831Z" fill="#EBFF00"/>
<path d="M127.68 635.069C127.586 634.836 127.7 634.571 127.933 634.477L128.145 634.393C128.378 634.299 128.643 634.413 128.737 634.646L131.019 640.353L129.962 640.776L127.68 635.069Z" fill="#EBFF00"/>
<path d="M124.7 639.251C124.607 639.017 124.72 638.752 124.954 638.659L125.165 638.575C125.399 638.481 125.664 638.595 125.757 638.828L129.244 647.546L128.187 647.968L124.7 639.251Z" fill="#EBFF00"/>
<path d="M121.467 642.907C121.374 642.674 121.487 642.409 121.721 642.315L121.932 642.231C122.165 642.137 122.43 642.251 122.524 642.484L127.451 654.802L126.394 655.224L121.467 642.907Z" fill="#EBFF00"/>
<path d="M119.72 649.981C119.626 649.747 119.74 649.482 119.973 649.389L120.185 649.304C120.418 649.211 120.683 649.325 120.777 649.558L125.704 661.875L124.647 662.298L119.72 649.981Z" fill="#EBFF00"/>
<path d="M136.888 646.034C137.079 645.871 137.367 645.893 137.53 646.085L137.678 646.258C137.841 646.449 137.818 646.736 137.627 646.9L127.533 655.509L126.795 654.643L136.888 646.034Z" fill="#EBFF00"/>
<path d="M135.14 653.104C135.331 652.941 135.619 652.964 135.782 653.155L135.929 653.328C136.093 653.519 136.07 653.807 135.879 653.97L125.785 662.579L125.047 661.713L135.14 653.104Z" fill="#EBFF00"/>
<path d="M135.729 641.292C135.92 641.128 136.207 641.151 136.371 641.342L136.518 641.516C136.682 641.707 136.659 641.994 136.467 642.157L129.324 648.251L128.585 647.385L135.729 641.292Z" fill="#EBFF00"/>
<path d="M135.039 636.191C135.231 636.028 135.518 636.051 135.681 636.242L135.829 636.415C135.992 636.606 135.969 636.894 135.778 637.057L131.102 641.045L130.363 640.179L135.039 636.191Z" fill="#EBFF00"/>
<path d="M157.407 347.193C156.15 339.553 158.726 325.699 164.556 324.74C170.387 323.781 177.264 336.08 178.521 343.72C179.777 351.36 175.844 356.959 170.014 357.918C164.183 358.877 158.664 354.833 157.407 347.193Z" fill="#D9EC00"/>
<path d="M168.515 353.518L170.023 353.27L171.495 362.22C171.572 362.691 171.335 363.122 170.965 363.182L170.797 363.21C170.427 363.271 170.064 362.939 169.987 362.468L168.515 353.518Z" fill="#D9EC00"/>
<path d="M164.212 327.354C164.191 327.23 164.31 327.108 164.476 327.08L165.381 326.931C165.548 326.904 165.699 326.982 165.72 327.106L170.483 356.065C170.503 356.189 170.385 356.312 170.218 356.339L169.313 356.488C169.147 356.516 168.995 356.437 168.975 356.313L164.212 327.354Z" fill="#EBFF00"/>
<path d="M161.3 329.95C161.122 329.773 161.122 329.484 161.299 329.306L161.46 329.145C161.638 328.968 161.926 328.968 162.104 329.145L166.451 333.491L165.646 334.295L161.3 329.95Z" fill="#EBFF00"/>
<path d="M160.209 334.968C160.031 334.79 160.031 334.502 160.209 334.324L160.37 334.163C160.547 333.985 160.836 333.985 161.013 334.163L167.653 340.801L166.849 341.606L160.209 334.968Z" fill="#EBFF00"/>
<path d="M158.677 339.603C158.5 339.425 158.5 339.137 158.677 338.959L158.838 338.798C159.016 338.62 159.304 338.62 159.482 338.798L168.864 348.177L168.06 348.982L158.677 339.603Z" fill="#EBFF00"/>
<path d="M159.86 346.793C159.682 346.615 159.682 346.327 159.86 346.149L160.021 345.988C160.199 345.81 160.487 345.81 160.665 345.988L170.047 355.367L169.242 356.172L159.86 346.793Z" fill="#EBFF00"/>
<path d="M174.084 336.399C174.196 336.174 174.469 336.082 174.694 336.193L174.898 336.294C175.124 336.406 175.216 336.679 175.104 336.904L169.22 348.794L168.2 348.289L174.084 336.399Z" fill="#EBFF00"/>
<path d="M175.263 343.586C175.374 343.361 175.648 343.269 175.873 343.38L176.077 343.481C176.302 343.593 176.395 343.866 176.283 344.091L170.399 355.981L169.379 355.476L175.263 343.586Z" fill="#EBFF00"/>
<path d="M171.15 332.497C171.261 332.272 171.534 332.179 171.76 332.291L171.964 332.392C172.189 332.503 172.281 332.776 172.17 333.002L168.005 341.417L166.985 340.912L171.15 332.497Z" fill="#EBFF00"/>
<path d="M168.506 328.081C168.618 327.856 168.891 327.763 169.116 327.875L169.32 327.976C169.545 328.087 169.638 328.36 169.526 328.586L166.8 334.094L165.78 333.589L168.506 328.081Z" fill="#EBFF00"/>
<defs>
<filter id="filter0_bd_4_11111" x="189.253" y="303.045" width="83.5273" height="104.586" filterUnits="userSpaceOnUse" color-interpolation-filters="sRGB">
<feFlood flood-opacity="0" result="BackgroundImageFix"/>
<feGaussianBlur in="BackgroundImageFix" stdDeviation="4"/>
<feComposite in2="SourceAlpha" operator="in" result="effect1_backgroundBlur_4_11111"/>
<feColorMatrix in="SourceAlpha" type="matrix" values="0 0 0 0 0 0 0 0 0 0 0 0 0 0 0 0 0 0 127 0" result="hardAlpha"/>
<feOffset dy="2"/>
<feGaussianBlur stdDeviation="6"/>
<feComposite in2="hardAlpha" operator="out"/>
<feColorMatrix type="matrix" values="0 0 0 0 0 0 0 0 0 0 0 0 0 0 0 0 0 0 0.15 0"/>
<feBlend mode="normal" in2="effect1_backgroundBlur_4_11111" result="effect2_dropShadow_4_11111"/>
<feBlend mode="normal" in="SourceGraphic" in2="effect2_dropShadow_4_11111" result="shape"/>
</filter>
<filter id="filter1_bd_4_11111" x="149.597" y="567.734" width="113.771" height="145.664" filterUnits="userSpaceOnUse" color-interpolation-filters="sRGB">
<feFlood flood-opacity="0" result="BackgroundImageFix"/>
<feGaussianBlur in="BackgroundImageFix" stdDeviation="4"/>
<feComposite in2="SourceAlpha" operator="in" result="effect1_backgroundBlur_4_11111"/>
<feColorMatrix in="SourceAlpha" type="matrix" values="0 0 0 0 0 0 0 0 0 0 0 0 0 0 0 0 0 0 127 0" result="hardAlpha"/>
<feOffset dy="2"/>
<feGaussianBlur stdDeviation="6"/>
<feComposite in2="hardAlpha" operator="out"/>
<feColorMatrix type="matrix" values="0 0 0 0 0 0 0 0 0 0 0 0 0 0 0 0 0 0 0.15 0"/>
<feBlend mode="normal" in2="effect1_backgroundBlur_4_11111" result="effect2_dropShadow_4_11111"/>
<feBlend mode="normal" in="SourceGraphic" in2="effect2_dropShadow_4_11111" result="shape"/>
</filter>
<filter id="filter2_bd_4_11111" x="207.363" y="0.70459" width="122.653" height="157.729" filterUnits="userSpaceOnUse" color-interpolation-filters="sRGB">
<feFlood flood-opacity="0" result="BackgroundImageFix"/>
<feGaussianBlur in="BackgroundImageFix" stdDeviation="4"/>
<feComposite in2="SourceAlpha" operator="in" result="effect1_backgroundBlur_4_11111"/>
<feColorMatrix in="SourceAlpha" type="matrix" values="0 0 0 0 0 0 0 0 0 0 0 0 0 0 0 0 0 0 127 0" result="hardAlpha"/>
<feOffset dy="2"/>
<feGaussianBlur stdDeviation="6"/>
<feComposite in2="hardAlpha" operator="out"/>
<feColorMatrix type="matrix" values="0 0 0 0 0 0 0 0 0 0 0 0 0 0 0 0 0 0 0.15 0"/>
<feBlend mode="normal" in2="effect1_backgroundBlur_4_11111" result="effect2_dropShadow_4_11111"/>
<feBlend mode="normal" in="SourceGraphic" in2="effect2_dropShadow_4_11111" result="shape"/>
</filter>
<filter id="filter3_bd_4_11111" x="0.0361328" y="79.3384" width="89.8916" height="112.626" filterUnits="userSpaceOnUse" color-interpolation-filters="sRGB">
<feFlood flood-opacity="0" result="BackgroundImageFix"/>
<feGaussianBlur in="BackgroundImageFix" stdDeviation="4"/>
<feComposite in2="SourceAlpha" operator="in" result="effect1_backgroundBlur_4_11111"/>
<feColorMatrix in="SourceAlpha" type="matrix" values="0 0 0 0 0 0 0 0 0 0 0 0 0 0 0 0 0 0 127 0" result="hardAlpha"/>
<feOffset dy="2"/>
<feGaussianBlur stdDeviation="6"/>
<feComposite in2="hardAlpha" operator="out"/>
<feColorMatrix type="matrix" values="0 0 0 0 0 0 0 0 0 0 0 0 0 0 0 0 0 0 0.15 0"/>
<feBlend mode="normal" in2="effect1_backgroundBlur_4_11111" result="effect2_dropShadow_4_11111"/>
<feBlend mode="normal" in="SourceGraphic" in2="effect2_dropShadow_4_11111" result="shape"/>
</filter>
<filter id="filter4_bd_4_11111" x="237.605" y="372.058" width="126.795" height="133.228" filterUnits="userSpaceOnUse" color-interpolation-filters="sRGB">
<feFlood flood-opacity="0" result="BackgroundImageFix"/>
<feGaussianBlur in="BackgroundImageFix" stdDeviation="4"/>
<feComposite in2="SourceAlpha" operator="in" result="effect1_backgroundBlur_4_11111"/>
<feColorMatrix in="SourceAlpha" type="matrix" values="0 0 0 0 0 0 0 0 0 0 0 0 0 0 0 0 0 0 127 0" result="hardAlpha"/>
<feOffset dy="2"/>
<feGaussianBlur stdDeviation="6"/>
<feComposite in2="hardAlpha" operator="out"/>
<feColorMatrix type="matrix" values="0 0 0 0 0 0 0 0 0 0 0 0 0 0 0 0 0 0 0.15 0"/>
<feBlend mode="normal" in2="effect1_backgroundBlur_4_11111" result="effect2_dropShadow_4_11111"/>
<feBlend mode="normal" in="SourceGraphic" in2="effect2_dropShadow_4_11111" result="shape"/>
</filter>
<filter id="filter5_bd_4_11111" x="56.832" y="150.53" width="137.378" height="142.625" filterUnits="userSpaceOnUse" color-interpolation-filters="sRGB">
<feFlood flood-opacity="0" result="BackgroundImageFix"/>
<feGaussianBlur in="BackgroundImageFix" stdDeviation="4"/>
<feComposite in2="SourceAlpha" operator="in" result="effect1_backgroundBlur_4_11111"/>
<feColorMatrix in="SourceAlpha" type="matrix" values="0 0 0 0 0 0 0 0 0 0 0 0 0 0 0 0 0 0 127 0" result="hardAlpha"/>
<feOffset dy="2"/>
<feGaussianBlur stdDeviation="6"/>
<feComposite in2="hardAlpha" operator="out"/>
<feColorMatrix type="matrix" values="0 0 0 0 0 0 0 0 0 0 0 0 0 0 0 0 0 0 0.15 0"/>
<feBlend mode="normal" in2="effect1_backgroundBlur_4_11111" result="effect2_dropShadow_4_11111"/>
<feBlend mode="normal" in="SourceGraphic" in2="effect2_dropShadow_4_11111" result="shape"/>
</filter>
<filter id="filter6_bd_4_11111" x="69.4639" y="513.436" width="101.742" height="106.547" filterUnits="userSpaceOnUse" color-interpolation-filters="sRGB">
<feFlood flood-opacity="0" result="BackgroundImageFix"/>
<feGaussianBlur in="BackgroundImageFix" stdDeviation="4"/>
<feComposite in2="SourceAlpha" operator="in" result="effect1_backgroundBlur_4_11111"/>
<feColorMatrix in="SourceAlpha" type="matrix" values="0 0 0 0 0 0 0 0 0 0 0 0 0 0 0 0 0 0 127 0" result="hardAlpha"/>
<feOffset dy="2"/>
<feGaussianBlur stdDeviation="6"/>
<feComposite in2="hardAlpha" operator="out"/>
<feColorMatrix type="matrix" values="0 0 0 0 0 0 0 0 0 0 0 0 0 0 0 0 0 0 0.15 0"/>
<feBlend mode="normal" in2="effect1_backgroundBlur_4_11111" result="effect2_dropShadow_4_11111"/>
<feBlend mode="normal" in="SourceGraphic" in2="effect2_dropShadow_4_11111" result="shape"/>
</filter>
</defs>
</svg>
