<svg width="789" height="699" viewBox="0 0 789 699" fill="none" xmlns="http://www.w3.org/2000/svg">
<path d="M414.648 565.6C409.652 583.264 419.921 601.634 437.585 606.63C455.249 611.626 473.619 601.357 478.615 583.693L414.648 565.6Z" fill="#231F20"/>
<path d="M377.238 575.735C380.236 565.137 391.258 558.976 401.856 561.974L396.428 581.163L377.238 575.735Z" fill="#231F20"/>
<path d="M478.614 583.696C475.616 594.294 464.595 600.455 453.997 597.457L459.425 578.268L478.614 583.696Z" fill="#231F20"/>
<path d="M454.002 597.459L459.429 578.269L401.858 561.989L396.432 581.179L454.002 597.459Z" fill="#231F20"/>
<path d="M440.673 592.034C437.182 602.481 425.884 608.119 415.438 604.628L421.759 585.714L440.673 592.034Z" fill="#231F20"/>
<path d="M427.337 588.855C423.846 599.302 412.548 604.94 402.102 601.45L408.423 582.535L427.337 588.855Z" fill="#6E00FF"/>
<path d="M415.845 584.481C412.354 594.928 401.056 600.566 390.61 597.075L396.931 578.161L415.845 584.481Z" fill="#231F20"/>
<path d="M402.5 581.163C399.009 591.61 387.711 597.248 377.265 593.758L383.586 574.843L402.5 581.163Z" fill="#6E00FF"/>
<path d="M430.721 555.752C425.364 574.693 436.375 594.39 455.316 599.747C474.256 605.104 493.954 594.093 499.311 575.152L430.721 555.752Z" fill="#231F20"/>
<path d="M390.611 566.622C393.825 555.258 405.643 548.652 417.008 551.866L411.187 572.443L390.611 566.622Z" fill="#231F20"/>
<path d="M499.312 575.151C496.098 586.515 484.28 593.122 472.915 589.907L478.736 569.331L499.312 575.151Z" fill="#231F20"/>
<path d="M472.924 589.905L478.743 569.328L417.012 551.871L411.193 572.448L472.924 589.905Z" fill="#231F20"/>
<path d="M458.632 584.091C454.889 595.293 442.774 601.338 431.573 597.596L438.351 577.314L458.632 584.091Z" fill="#231F20"/>
<path d="M444.328 580.672C440.584 591.873 428.47 597.919 417.269 594.176L424.046 573.894L444.328 580.672Z" fill="#C7EAFB"/>
<path d="M432.007 575.982C428.264 587.184 416.149 593.23 404.948 589.487L411.726 569.205L432.007 575.982Z" fill="#231F20"/>
<path d="M417.694 572.433C413.95 583.634 401.836 589.68 390.635 585.937L397.412 565.656L417.694 572.433Z" fill="#C7EAFB"/>
<path d="M335.623 578.037C345.806 593.311 341.681 613.948 326.407 624.131C311.134 634.314 290.497 630.189 280.314 614.915L335.623 578.037Z" fill="#231F20"/>
<path d="M374.34 576.192C368.23 567.028 355.848 564.553 346.684 570.663L357.748 587.256L374.34 576.192Z" fill="#231F20"/>
<path d="M280.318 614.913C286.429 624.076 298.81 626.552 307.974 620.441L296.911 603.849L280.318 614.913Z" fill="#231F20"/>
<path d="M357.746 587.249L346.684 570.656L296.904 603.843L307.966 620.436L357.746 587.249Z" fill="#231F20"/>
<path d="M318.981 611.178C325.514 620.045 337.998 621.938 346.865 615.406L335.037 599.35L318.981 611.178Z" fill="#231F20"/>
<path d="M330.7 604.042C337.233 612.91 349.717 614.802 358.584 608.27L346.756 592.214L330.7 604.042Z" fill="#6E00FF"/>
<path d="M340.283 596.35C346.816 605.218 359.3 607.11 368.167 600.578L356.339 584.522L340.283 596.35Z" fill="#231F20"/>
<path d="M351.968 589.103C358.501 597.97 370.985 599.863 379.853 593.331L368.025 577.275L351.968 589.103Z" fill="#6E00FF"/>
<path d="M317.303 573.584C328.223 589.962 323.799 612.09 307.422 623.01C291.044 633.929 268.916 629.505 257.997 613.128L317.303 573.584Z" fill="#231F20"/>
<path d="M358.82 571.603C352.268 561.777 338.991 559.123 329.165 565.675L341.028 583.466L358.82 571.603Z" fill="#231F20"/>
<path d="M257.997 613.132C264.549 622.958 277.826 625.613 287.652 619.061L275.789 601.269L257.997 613.132Z" fill="#231F20"/>
<path d="M341.018 583.467L329.156 565.675L275.779 601.26L287.64 619.053L341.018 583.467Z" fill="#231F20"/>
<path d="M299.458 609.131C306.463 618.64 319.849 620.669 329.358 613.665L316.675 596.448L299.458 609.131Z" fill="#231F20"/>
<path d="M312.02 601.476C319.025 610.985 332.411 613.014 341.919 606.01L329.236 588.793L312.02 601.476Z" fill="#C7EAFB"/>
<path d="M322.293 593.228C329.298 602.737 342.684 604.766 352.193 597.762L339.51 580.545L322.293 593.228Z" fill="#231F20"/>
<path d="M334.817 585.462C341.823 594.971 355.209 597 364.717 589.996L352.034 572.779L334.817 585.462Z" fill="#C7EAFB"/>
<path fill-rule="evenodd" clip-rule="evenodd" d="M382.477 616.087C382.383 616.102 382.288 616.118 382.193 616.133C382.099 616.148 382.004 616.162 381.909 616.176L357.12 620.08C353.464 620.656 350.033 618.159 349.457 614.503L345.65 590.332C345.594 590.03 345.542 589.726 345.494 589.42C342.736 571.909 354.695 555.478 372.206 552.72C389.717 549.962 406.148 561.922 408.906 579.433C408.929 579.58 408.951 579.726 408.972 579.873C408.99 579.915 409.003 579.961 409.011 580.009L412.871 604.515C413.446 608.172 410.949 611.603 407.293 612.178L382.477 616.087Z" fill="#2D2D2D"/>
<path d="M363.309 583.771C368.197 583.001 371.536 578.414 370.766 573.526C369.996 568.638 365.409 565.3 360.521 566.07C355.633 566.839 352.295 571.426 353.065 576.314C353.835 581.202 358.421 584.54 363.309 583.771Z" fill="white"/>
<path d="M362.611 579.343C365.055 578.958 366.724 576.665 366.339 574.221C365.954 571.776 363.661 570.107 361.217 570.492C358.772 570.877 357.103 573.17 357.488 575.615C357.873 578.059 360.166 579.728 362.611 579.343Z" fill="#231F20"/>
<path d="M358.803 574.803C360.728 574.5 362.043 572.694 361.74 570.769C361.437 568.844 359.63 567.529 357.705 567.832C355.78 568.135 354.466 569.942 354.769 571.867C355.072 573.792 356.878 575.106 358.803 574.803Z" fill="white"/>
<path d="M362.507 604.772C369.673 603.643 374.566 596.92 373.438 589.754C372.309 582.589 365.586 577.695 358.42 578.824C351.255 579.952 346.361 586.676 347.49 593.841C348.618 601.007 355.342 605.9 362.507 604.772Z" fill="#2D2D2D"/>
<path d="M390.266 579.521C395.154 578.751 398.493 574.165 397.723 569.277C396.953 564.389 392.366 561.05 387.478 561.82C382.59 562.59 379.252 567.176 380.022 572.064C380.792 576.952 385.378 580.291 390.266 579.521Z" fill="white"/>
<path d="M389.568 575.094C392.012 574.709 393.681 572.415 393.296 569.971C392.911 567.527 390.618 565.857 388.174 566.242C385.729 566.627 384.06 568.921 384.445 571.365C384.83 573.809 387.124 575.479 389.568 575.094Z" fill="#231F20"/>
<path d="M385.76 570.554C387.685 570.25 389 568.444 388.697 566.519C388.394 564.594 386.587 563.279 384.662 563.582C382.737 563.886 381.423 565.692 381.726 567.617C382.029 569.542 383.835 570.857 385.76 570.554Z" fill="white"/>
<path d="M397.478 599.258C404.643 598.129 409.537 591.406 408.409 584.24C407.28 577.075 400.557 572.181 393.391 573.31C386.226 574.438 381.332 581.162 382.46 588.327C383.589 595.492 390.312 600.386 397.478 599.258Z" fill="#2D2D2D"/>
<path d="M376.391 579.27C368.68 580.484 363.338 587.239 364.459 594.357L382.198 616.133L376.392 579.27L376.391 579.27Z" fill="#C7EAFB"/>
<path d="M392.387 589.961C391.266 582.844 384.106 578.058 376.395 579.272L382.2 616.136L392.387 589.961L392.387 589.961Z" fill="#6E00FF"/>
<path d="M404.972 562.744L401.651 563.267C401.591 563.277 401.534 563.292 401.477 563.309C398.577 558.841 393.307 556.238 387.812 557.103C380.658 558.23 375.671 564.835 376.278 572.099C375.439 572.05 374.599 572.204 373.832 572.546C372.201 565.415 365.408 560.632 358.234 561.762C352.745 562.626 348.532 566.716 347.142 571.852L343.957 572.354C343.275 572.461 342.81 573.115 342.92 573.812C343.03 574.51 343.673 574.989 344.355 574.882L346.689 574.514C346.61 575.591 346.651 576.693 346.826 577.806C348.033 585.473 355.116 590.749 362.614 589.568C369.529 588.479 374.418 582.272 374.19 575.301C374.902 574.703 375.864 574.501 376.752 574.754C378.627 581.535 385.23 586.006 392.191 584.91C399.689 583.729 404.806 576.531 403.599 568.865C403.424 567.752 403.124 566.69 402.718 565.69L405.37 565.272C406.053 565.165 406.517 564.511 406.408 563.814C406.298 563.116 405.655 562.637 404.972 562.744ZM362.215 587.04C356.081 588.006 350.287 583.689 349.299 577.417C348.311 571.145 352.498 565.256 358.632 564.29C364.767 563.324 370.561 567.64 371.549 573.913C372.537 580.185 368.35 586.074 362.215 587.04ZM391.794 582.382C385.659 583.348 379.865 579.031 378.877 572.759C377.889 566.486 382.076 560.597 388.211 559.631C394.345 558.665 400.139 562.982 401.127 569.254C402.115 575.527 397.928 581.415 391.794 582.382Z" fill="#EBFF00"/>
<path d="M416.681 350.613C418.574 364.777 431.63 374.718 445.842 372.816C460.054 370.914 470.04 357.891 468.147 343.728L416.681 350.613Z" fill="#231F20"/>
<path d="M393.013 369.4C391.877 360.904 397.867 353.092 406.392 351.951L408.448 367.335L393.013 369.4Z" fill="#231F20"/>
<path d="M468.143 343.746C469.279 352.242 463.289 360.054 454.764 361.194L452.708 345.811L468.143 343.746Z" fill="#231F20"/>
<path d="M454.786 361.171L452.723 345.812L406.389 351.987L408.452 367.346L454.786 361.171Z" fill="#231F20"/>
<path d="M443.539 361.431C444.282 369.972 437.937 377.489 429.367 378.222L428.019 362.758L443.539 361.431Z" fill="#231F20"/>
<path d="M432.985 363.274C433.729 371.815 427.384 379.333 418.813 380.066L417.466 364.601L432.985 363.274Z" fill="#6E00FF"/>
<path d="M423.394 363.697C424.138 372.238 417.793 379.756 409.222 380.489L407.875 365.024L423.394 363.697Z" fill="#231F20"/>
<path d="M412.805 365.456C413.549 373.997 407.204 381.515 398.633 382.248L397.286 366.783L412.805 365.456Z" fill="#6E00FF"/>
<path d="M425.137 338.606C427.167 353.793 441.166 364.452 456.405 362.413C471.644 360.374 482.353 346.409 480.322 331.222L425.137 338.606Z" fill="#231F20"/>
<path d="M399.758 358.75C398.541 349.64 404.964 341.263 414.105 340.04L416.309 356.536L399.758 358.75Z" fill="#231F20"/>
<path d="M480.319 331.242C481.536 340.352 475.113 348.729 465.972 349.952L463.768 333.457L480.319 331.242Z" fill="#231F20"/>
<path d="M465.996 349.926L463.784 333.457L414.102 340.078L416.314 356.547L465.996 349.926Z" fill="#231F20"/>
<path d="M453.935 350.205C454.733 359.363 447.929 367.424 438.739 368.21L437.294 351.628L453.935 350.205Z" fill="#231F20"/>
<path d="M442.619 352.181C443.416 361.34 436.613 369.401 427.422 370.187L425.978 353.604L442.619 352.181Z" fill="#C7EAFB"/>
<path d="M432.333 352.635C433.131 361.793 426.327 369.854 417.137 370.64L415.693 354.058L432.333 352.635Z" fill="#231F20"/>
<path d="M420.98 354.521C421.777 363.679 414.974 371.74 405.784 372.526L404.339 355.944L420.98 354.521Z" fill="#C7EAFB"/>
<path d="M365.731 343.766C360.173 356.93 344.959 363.08 331.75 357.5C318.542 351.92 312.34 336.726 317.899 323.562L365.731 343.766Z" fill="#231F20"/>
<path d="M383.612 368.126C386.946 360.229 383.227 351.115 375.304 347.768L369.267 362.066L383.612 368.126Z" fill="#231F20"/>
<path d="M317.896 323.581C314.562 331.478 318.282 340.592 326.205 343.938L332.242 329.64L317.896 323.581Z" fill="#231F20"/>
<path d="M369.269 362.065L375.307 347.792L332.238 329.627L326.2 343.899L369.269 362.065Z" fill="#231F20"/>
<path d="M336.972 347.123C334.004 355.166 338.144 364.09 346.218 367.056L351.593 352.493L336.972 347.123Z" fill="#231F20"/>
<path d="M346.667 351.682C343.699 359.726 347.839 368.649 355.914 371.615L361.288 357.052L346.667 351.682Z" fill="#6E00FF"/>
<path d="M355.808 354.618C352.84 362.661 356.98 371.585 365.054 374.55L370.429 359.988L355.808 354.618Z" fill="#231F20"/>
<path d="M365.559 359.105C362.591 367.149 366.731 376.072 374.805 379.038L380.18 364.475L365.559 359.105Z" fill="#6E00FF"/>
<path d="M360.739 329.954C354.779 344.069 338.466 350.663 324.302 344.68C310.139 338.697 303.489 322.405 309.45 308.289L360.739 329.954Z" fill="#231F20"/>
<path d="M379.913 356.074C383.488 347.607 379.5 337.834 371.004 334.245L364.531 349.576L379.913 356.074Z" fill="#231F20"/>
<path d="M309.448 308.31C305.873 316.777 309.861 326.55 318.357 330.138L324.83 314.807L309.448 308.31Z" fill="#231F20"/>
<path d="M364.533 349.575L371.007 334.271L324.825 314.792L318.351 330.096L364.533 349.575Z" fill="#231F20"/>
<path d="M329.901 333.553C326.718 342.178 331.157 351.747 339.816 354.927L345.579 339.311L329.901 333.553Z" fill="#231F20"/>
<path d="M340.297 338.442C337.114 347.067 341.553 356.635 350.211 359.815L355.974 344.2L340.297 338.442Z" fill="#C7EAFB"/>
<path d="M350.098 341.59C346.916 350.214 351.355 359.783 360.013 362.963L365.776 347.348L350.098 341.59Z" fill="#231F20"/>
<path d="M360.554 346.402C357.372 355.026 361.811 364.595 370.469 367.775L376.232 352.16L360.554 346.402Z" fill="#C7EAFB"/>
<path fill-rule="evenodd" clip-rule="evenodd" d="M386.409 385.086C386.335 385.077 386.26 385.067 386.186 385.057C386.112 385.047 386.037 385.037 385.963 385.027L381.167 384.383C370.219 382.915 362.535 372.85 364.003 361.902L364.572 357.661C364.573 357.655 364.573 357.649 364.574 357.643C364.598 357.418 364.626 357.192 364.656 356.967C366.49 343.293 379.103 333.701 392.827 335.542C406.552 337.383 416.191 349.959 414.357 363.633C414.333 363.815 414.306 363.997 414.278 364.179C414.282 364.227 414.281 364.277 414.274 364.327L413.705 368.568C412.237 379.516 402.171 387.201 391.224 385.732L386.409 385.086Z" fill="#2D2D2D"/>
<path d="M379.239 356.727C383.07 357.241 386.591 354.563 387.103 350.746C387.615 346.93 384.924 343.419 381.093 342.905C377.262 342.391 373.741 345.069 373.229 348.886C372.717 352.702 375.408 356.213 379.239 356.727Z" fill="white"/>
<path d="M379.703 353.272C381.619 353.529 383.379 352.19 383.635 350.281C383.891 348.373 382.546 346.617 380.63 346.36C378.714 346.103 376.954 347.442 376.698 349.351C376.442 351.259 377.787 353.015 379.703 353.272Z" fill="#231F20"/>
<path d="M377.864 349.043C379.373 349.246 380.759 348.191 380.961 346.688C381.163 345.185 380.103 343.802 378.594 343.6C377.085 343.398 375.699 344.452 375.497 345.955C375.296 347.459 376.355 348.841 377.864 349.043Z" fill="white"/>
<path d="M373.967 372.204C379.583 372.957 384.744 369.032 385.494 363.437C386.245 357.842 382.301 352.696 376.684 351.942C371.068 351.189 365.907 355.114 365.157 360.709C364.406 366.304 368.351 371.451 373.967 372.204Z" fill="#2D2D2D"/>
<path d="M400.369 359.561C404.2 360.075 407.721 357.397 408.233 353.58C408.745 349.764 406.054 346.253 402.223 345.739C398.392 345.225 394.871 347.903 394.359 351.719C393.847 355.536 396.538 359.047 400.369 359.561Z" fill="white"/>
<path d="M400.833 356.106C402.748 356.363 404.509 355.024 404.765 353.115C405.021 351.207 403.675 349.451 401.76 349.194C399.844 348.937 398.083 350.276 397.828 352.185C397.572 354.093 398.917 355.849 400.833 356.106Z" fill="#231F20"/>
<path d="M398.995 351.878C400.504 352.08 401.89 351.025 402.092 349.522C402.294 348.019 401.234 346.637 399.725 346.434C398.216 346.232 396.83 347.286 396.628 348.789C396.426 350.293 397.486 351.675 398.995 351.878Z" fill="white"/>
<path d="M401.377 375.88C406.993 376.634 412.154 372.709 412.905 367.114C413.655 361.518 409.711 356.372 404.095 355.619C398.479 354.866 393.317 358.791 392.567 364.386C391.817 369.981 395.761 375.127 401.377 375.88Z" fill="#2D2D2D"/>
<path d="M390.046 356.275C384.002 355.465 378.498 359.313 377.753 364.871L386.186 385.06L390.046 356.275L390.046 356.275Z" fill="#C7EAFB"/>
<path d="M399.64 367.807C400.386 362.249 396.091 357.086 390.047 356.275L386.186 385.06L399.641 367.807L399.64 367.807Z" fill="#6E00FF"/>
<path d="M415.182 350.2L412.579 349.851C412.532 349.845 412.485 349.843 412.439 349.844C411.263 345.866 407.896 342.751 403.59 342.174C397.983 341.422 392.778 345.238 391.615 350.79C390.998 350.567 390.335 350.495 389.684 350.579C390.051 344.898 386.03 339.819 380.407 339.064C376.105 338.487 372.04 340.6 369.856 344.121L367.359 343.786C366.825 343.714 366.331 344.098 366.258 344.643C366.185 345.188 366.56 345.689 367.095 345.76L368.923 346.006C368.625 346.791 368.41 347.622 368.293 348.491C367.491 354.478 371.618 359.989 377.495 360.777C382.915 361.504 387.958 357.964 389.339 352.714C390.005 352.426 390.77 352.49 391.379 352.876C391.273 358.351 395.221 363.155 400.677 363.887C406.554 364.675 411.988 360.446 412.791 354.46C412.907 353.59 412.919 352.732 412.838 351.896L414.917 352.174C415.452 352.246 415.945 351.862 416.018 351.317C416.091 350.773 415.717 350.272 415.182 350.2ZM377.76 358.803C372.952 358.158 369.575 353.649 370.231 348.751C370.888 343.854 375.334 340.394 380.142 341.039C384.951 341.683 388.328 346.193 387.671 351.09C387.014 355.988 382.568 359.448 377.76 358.803ZM400.943 361.913C396.134 361.268 392.757 356.759 393.414 351.861C394.071 346.963 398.517 343.503 403.325 344.148C408.133 344.793 411.51 349.302 410.853 354.2C410.197 359.098 405.751 362.557 400.943 361.913Z" fill="#EBFF00"/>
<g filter="url(#filter0_dd_4_11113)">
<path fill-rule="evenodd" clip-rule="evenodd" d="M764.778 103.198C766.308 83.6012 751.605 66.3874 731.715 64.1345C728.004 44.7981 711.365 29.4703 690.295 27.8252C679.94 27.0168 670.131 29.6386 662.039 34.7128C652.986 27.7073 641.778 23.1558 629.408 22.1901C606.647 20.413 585.886 31.2402 574.337 48.6671C564.784 40.1436 552.359 34.5387 538.47 33.4543C521.059 32.095 504.819 38.1105 492.977 48.8134C482.391 34.0563 465.374 23.8407 445.55 22.2929C427.53 20.886 410.69 26.9139 398.2 37.7375C390.34 33.3406 381.389 30.5255 371.768 29.7744C337.022 27.0617 306.713 52.2997 304.07 86.145C302.369 107.94 312.555 127.989 329.303 140.228C320.242 149.585 314.292 161.92 313.211 175.77C310.696 207.979 335.463 236.181 368.528 238.763C390.903 240.51 411.344 230.077 423.003 213.168C431.041 219.248 440.922 223.193 451.806 224.042C460.98 224.759 469.793 223.192 477.656 219.832C487.597 230.428 501.517 237.528 517.336 238.763C538.139 240.387 557.271 231.482 569.227 216.632C577.915 222.808 588.4 226.797 599.887 227.694C616.536 228.993 632.113 223.55 643.799 213.714C649.411 231.286 665.539 244.66 685.495 246.218C711.61 248.257 734.391 229.288 736.377 203.85C736.657 200.268 736.509 196.749 735.976 193.34C746.103 186.16 753.049 174.858 754.076 161.714C754.927 150.806 751.555 140.519 745.302 132.383C756.09 126.727 763.778 116.003 764.778 103.198Z" fill="white" fill-opacity="0.7" shape-rendering="crispEdges"/>
</g>
<path d="M99.791 45.6411C94.3114 47.7521 91.4489 53.5641 93.3975 58.6221L109.884 71.8369L99.7916 45.6409L99.791 45.6411Z" fill="#C7EAFB"/>
<path d="M118.713 52.9286C117.46 47.6551 111.813 44.48 106.1 45.8372L112.588 73.1499L118.713 52.9286Z" fill="#6E00FF"/>
<path d="M124.6 44.5091C119.069 42.536 113.108 45.0754 111.287 50.1806L115.168 70.95L124.6 44.5093L124.6 44.5091Z" fill="#C7EAFB"/>
<path d="M135.895 64.09C139.227 59.8142 138.173 53.4218 133.541 49.8123L116.285 71.9554L135.895 64.09Z" fill="#6E00FF"/>
<path d="M140.36 97.9581L81.7588 89.4279L77.4937 118.728L136.095 127.258L140.36 97.9581Z" fill="#2D2D2D"/>
<path d="M106.794 122.995C122.976 125.351 138.003 114.142 140.359 97.96C142.714 81.7779 131.506 66.7502 115.324 64.3947C99.1416 62.0392 84.1139 73.2478 81.7584 89.4298C79.4028 105.612 90.6115 120.64 106.794 122.995Z" fill="#2D2D2D"/>
<path d="M76.0932 104.881C90.8816 101.755 100.336 87.2334 97.2113 72.4451C94.0856 57.6567 79.5642 48.202 64.7759 51.327L76.0939 104.881L76.0932 104.881Z" fill="#231F20"/>
<path d="M97.8205 128.262C88.9478 130.137 80.2343 124.464 78.3592 115.592L94.4254 112.197L97.8204 128.263L97.8205 128.262Z" fill="#231F20"/>
<path d="M64.7743 51.3208C73.647 49.4457 82.3604 55.1185 84.2356 63.9912L68.1694 67.3863L64.7744 51.3201L64.7743 51.3208Z" fill="#C7EAFB"/>
<path d="M94.4059 112.191L78.3398 115.588L68.1497 67.3907L84.2158 63.9939L94.4059 112.191Z" fill="#231F20"/>
<path d="M139.93 114.867C126.193 107.655 120.904 90.6716 128.116 76.9343C135.329 63.197 152.312 57.9081 166.049 65.1206L139.93 114.867Z" fill="#231F20"/>
<path d="M111.944 131.904C120.187 136.232 130.376 133.058 134.703 124.816L119.779 116.98L111.943 131.904L111.944 131.904Z" fill="#231F20"/>
<path d="M166.047 65.1181C157.805 60.7906 147.615 63.9642 143.288 72.2066L158.212 80.0424L166.048 65.1182L166.047 65.1181Z" fill="#C7EAFB"/>
<path d="M143.288 72.2075L158.212 80.0432L134.705 124.814L119.781 116.979L143.288 72.2075Z" fill="#231F20"/>
<path d="M152.093 120.053C139.12 111.208 135.772 93.5207 144.618 80.5468C153.463 67.5735 171.151 64.2263 184.125 73.0723L152.094 120.053L152.093 120.053Z" fill="#231F20"/>
<path d="M121.985 133.935C129.769 139.242 140.381 137.234 145.689 129.45L131.594 119.84L121.985 133.935Z" fill="#231F20"/>
<path d="M184.124 73.069C176.34 67.7617 165.727 69.7694 160.42 77.5537L174.514 87.1633L184.124 73.069Z" fill="#6E00FF"/>
<path d="M160.425 77.5693L174.521 87.178L145.695 129.463L131.6 119.854L160.425 77.5693Z" fill="#231F20"/>
<path d="M150.256 125.133C141.008 111.052 144.926 92.1392 159.006 82.8908C173.087 73.6419 192 77.5601 201.248 91.6403L150.256 125.133L150.256 125.133Z" fill="#231F20"/>
<path d="M114.712 126.581C120.261 135.03 131.608 137.381 140.057 131.831L130.01 116.533L114.712 126.581L114.712 126.581Z" fill="#231F20"/>
<path d="M201.248 91.6447C195.698 83.1961 184.351 80.8454 175.903 86.395L185.95 101.693L201.248 91.6454L201.248 91.6447Z" fill="#C7EAFB"/>
<path d="M175.899 86.3954L185.946 101.693L140.054 131.836L130.006 116.539L175.899 86.3954Z" fill="#231F20"/>
<path d="M149.497 131.361C143.888 115.383 152.293 97.8831 168.27 92.2738C184.248 86.6644 201.748 95.0696 207.357 111.047L149.497 131.361L149.497 131.361Z" fill="#231F20"/>
<path d="M114.47 124.159C117.835 133.745 128.335 138.788 137.922 135.422L131.827 118.065L114.47 124.159Z" fill="#231F20"/>
<path d="M207.356 111.047C203.99 101.46 193.49 96.4168 183.903 99.7828L189.998 117.141L207.356 111.047Z" fill="#6E00FF"/>
<path d="M183.892 99.7885L189.987 117.146L137.914 135.431L131.819 118.073L183.892 99.7885Z" fill="#231F20"/>
<path d="M59.9654 106.192C74.9219 101.413 83.1727 85.4137 78.3926 70.4563C73.6131 55.4998 57.6138 47.249 42.6564 52.0291L59.9646 106.192L59.9654 106.192Z" fill="#231F20"/>
<path d="M84.867 128.079C75.8928 130.947 66.2932 125.997 63.4254 117.023L79.6744 111.83L84.867 128.079Z" fill="#231F20"/>
<path d="M42.6557 52.0284C51.63 49.1606 61.2296 54.1105 64.0974 63.0847L47.8484 68.2774L42.6557 52.0284Z" fill="#6E00FF"/>
<path d="M79.689 111.831L63.4395 117.022L47.8651 68.2741L64.1147 63.0826L79.689 111.831Z" fill="#231F20"/>
<path d="M59.7258 111.963C72.6053 101.103 74.2415 81.8583 63.3821 68.9796C52.522 56.1001 33.2773 54.464 20.3986 65.3233L59.7265 111.963L59.7258 111.963Z" fill="#231F20"/>
<path d="M93.383 123.484C85.6551 130 74.1089 129.018 67.593 121.29L81.5846 109.492L93.3831 123.483L93.383 123.484Z" fill="#231F20"/>
<path d="M20.3981 65.3222C28.126 58.8064 39.6722 59.7882 46.1881 67.516L32.1966 79.3145L20.398 65.323L20.3981 65.3222Z" fill="#C7EAFB"/>
<path d="M81.5876 109.492L67.5957 121.29L32.2013 79.3139L46.1932 67.5158L81.5876 109.492Z" fill="#231F20"/>
<path d="M58.6803 118.148C68.612 104.433 65.5445 85.263 51.829 75.3313C38.1135 65.3997 18.9439 68.4671 9.01221 82.1827L58.6802 118.149L58.6803 118.148Z" fill="#231F20"/>
<path d="M94.3023 121.225C88.343 129.454 76.8412 131.295 68.6123 125.335L79.402 110.435L94.3023 121.225Z" fill="#231F20"/>
<path d="M9.01498 82.1768C14.9742 73.9479 26.476 72.1071 34.705 78.0663L23.9152 92.9666L9.01498 82.1768Z" fill="#6E00FF"/>
<path d="M79.4124 110.436L68.6221 125.335L23.9225 92.9639L34.7129 78.0643L79.4124 110.436Z" fill="#231F20"/>
<path d="M102.944 150.103C119.137 152.46 134.16 141.34 136.5 125.265C138.84 109.19 127.61 94.2484 111.417 91.8913C95.2246 89.5342 80.2008 100.654 77.8609 116.729C75.521 132.804 86.751 147.746 102.944 150.103Z" fill="#2D2D2D"/>
<path d="M93.4452 126.594C97.9623 127.251 102.157 124.122 102.815 119.605C103.472 115.088 100.343 110.893 95.8263 110.236C91.3093 109.578 87.1144 112.707 86.4569 117.224C85.7994 121.741 88.9282 125.936 93.4452 126.594Z" fill="white"/>
<path d="M94.0417 122.503C96.3005 122.832 98.3981 121.268 98.7269 119.009C99.0557 116.75 97.4911 114.652 95.2324 114.324C92.9737 113.995 90.876 115.559 90.5472 117.818C90.2185 120.077 91.783 122.174 94.0417 122.503Z" fill="#231F20"/>
<path d="M91.9298 117.469C93.7088 117.728 95.3608 116.496 95.6198 114.717C95.8787 112.938 94.6465 111.286 92.8676 111.027C91.0886 110.768 89.4366 112 89.1776 113.779C88.9187 115.558 90.1509 117.21 91.9298 117.469Z" fill="white"/>
<path d="M87.0616 144.44C93.6832 145.404 99.8325 140.818 100.796 134.196C101.76 127.574 97.1737 121.425 90.5521 120.461C83.9304 119.497 77.7811 124.084 76.8172 130.706C75.8534 137.327 80.4399 143.476 87.0616 144.44Z" fill="#2D2D2D"/>
<path d="M90.2614 139.657C95.9349 140.483 101.204 136.554 102.029 130.88C102.855 125.207 98.9255 119.938 93.2521 119.112C87.5787 118.286 82.31 122.216 81.4842 127.89C80.6583 133.563 84.588 138.832 90.2614 139.657Z" fill="#2D2D2D"/>
<path d="M118.357 130.212C122.874 130.87 127.069 127.741 127.727 123.224C128.384 118.707 125.256 114.512 120.738 113.854C116.221 113.197 112.027 116.326 111.369 120.843C110.711 125.36 113.84 129.555 118.357 130.212Z" fill="white"/>
<path d="M118.954 126.122C121.213 126.451 123.31 124.886 123.639 122.627C123.968 120.369 122.403 118.271 120.145 117.942C117.886 117.613 115.788 119.178 115.459 121.437C115.131 123.695 116.695 125.793 118.954 126.122Z" fill="#231F20"/>
<path d="M116.842 121.088C118.621 121.347 120.273 120.115 120.532 118.336C120.791 116.557 119.559 114.905 117.78 114.646C116.001 114.387 114.349 115.619 114.09 117.398C113.831 119.177 115.063 120.829 116.842 121.088Z" fill="white"/>
<path d="M119.382 149.14C126.004 150.104 132.153 145.518 133.117 138.896C134.081 132.274 129.494 126.125 122.872 125.161C116.251 124.197 110.101 128.784 109.138 135.405C108.174 142.027 112.76 148.176 119.382 149.14Z" fill="#2D2D2D"/>
<path d="M117.658 143.647C123.331 144.473 128.6 140.543 129.426 134.87C130.252 129.197 126.322 123.928 120.649 123.102C114.975 122.276 109.706 126.206 108.881 131.879C108.055 137.553 111.985 142.822 117.658 143.647Z" fill="#2D2D2D"/>
<path d="M106.404 124.795C99.2778 123.758 92.7248 128.249 91.7673 134.827L101.446 158.861L106.404 124.795L106.404 124.795Z" fill="#C7EAFB"/>
<path d="M117.573 138.581C118.531 132.004 113.53 125.83 106.404 124.793L101.445 158.859L117.574 138.582L117.573 138.581Z" fill="#6E00FF"/>
<path d="M133.621 118.851L130.815 118.443C130.764 118.435 130.714 118.433 130.664 118.433C129.436 114.165 125.834 110.791 121.192 110.115C115.146 109.235 109.488 113.243 108.174 119.161C107.51 118.915 106.795 118.829 106.092 118.91C106.547 112.843 102.26 107.359 96.1975 106.477C91.5591 105.802 87.1489 108.004 84.7534 111.738L82.0622 111.346C81.4856 111.262 80.9489 111.666 80.8642 112.247C80.7796 112.829 81.179 113.368 81.7556 113.452L83.7273 113.739C83.3967 114.575 83.1561 115.46 83.0211 116.388C82.0914 122.775 86.4896 128.721 92.8253 129.643C98.6687 130.494 104.15 126.778 105.696 121.186C106.418 120.888 107.244 120.966 107.897 121.387C107.725 127.237 111.936 132.425 117.819 133.282C124.155 134.204 130.066 129.758 130.995 123.371C131.13 122.444 131.152 121.526 131.073 120.631L133.315 120.958C133.891 121.042 134.428 120.638 134.513 120.057C134.597 119.475 134.198 118.935 133.621 118.851ZM93.1319 127.537C87.9481 126.783 84.3498 121.917 85.1105 116.692C85.8712 111.466 90.7071 107.829 95.8909 108.583C101.075 109.338 104.673 114.203 103.912 119.429C103.152 124.654 98.3158 128.292 93.1319 127.537ZM118.126 131.175C112.942 130.421 109.344 125.556 110.105 120.33C110.865 115.104 115.701 111.467 120.885 112.222C126.069 112.976 129.667 117.841 128.907 123.067C128.146 128.293 123.31 131.93 118.126 131.175Z" fill="#EBFF00"/>
<ellipse cx="249.269" cy="161.6" rx="19.288" ry="4.85921" transform="rotate(136.001 249.269 161.6)" fill="#C9D5DB"/>
<ellipse cx="243.039" cy="157.046" rx="19.2298" ry="5.2255" transform="rotate(115.134 243.039 157.046)" fill="#C9D5DB"/>
<ellipse cx="19.288" cy="4.85921" rx="19.288" ry="4.85921" transform="matrix(0.58541 -0.810737 -0.810737 -0.58541 216.669 209.193)" fill="#C9D5DB"/>
<ellipse cx="19.2298" cy="5.2255" rx="19.2298" ry="5.2255" transform="matrix(0.835795 -0.549042 -0.549042 -0.835795 205.427 200.114)" fill="#C9D5DB"/>
<ellipse cx="241.951" cy="180.642" rx="1.2148" ry="2.02467" transform="rotate(130.916 241.951 180.642)" fill="#C0C7D0"/>
<g filter="url(#filter1_bd_4_11113)">
<path fill-rule="evenodd" clip-rule="evenodd" d="M239.82 178.793C239.567 177.957 239.736 177.014 240.35 176.305C241.302 175.206 242.964 175.088 244.063 176.04C245.161 176.992 245.28 178.654 244.328 179.753C243.714 180.461 242.804 180.762 241.941 180.631C242.193 181.467 242.025 182.41 241.41 183.119C240.458 184.217 238.796 184.336 237.698 183.384C236.599 182.432 236.48 180.769 237.433 179.671C238.047 178.962 238.956 178.661 239.82 178.793Z" fill="#C9D5DB"/>
</g>
<g filter="url(#filter2_bd_4_11113)">
<path fill-rule="evenodd" clip-rule="evenodd" d="M234.638 175.975C234.818 176.782 235.41 177.716 236.311 178.497C237.832 179.815 239.658 180.199 240.391 179.354C241.123 178.509 240.484 176.755 238.963 175.437C238.062 174.656 237.054 174.203 236.229 174.139L236.16 174.079C236.008 173.651 235.334 172.851 234.413 172.031L234.414 172.03L234.261 171.898L207.792 148.956C207.116 148.371 206.093 148.444 205.507 149.12C204.921 149.796 204.994 150.818 205.67 151.404L232.139 174.345L232.292 174.478L232.293 174.477C233.236 175.273 234.123 175.826 234.569 175.915L234.638 175.975Z" fill="#C9D5DB"/>
</g>
<ellipse cx="524.159" cy="628.527" rx="19.288" ry="4.85921" transform="rotate(50.4908 524.159 628.527)" fill="#C9D5DB"/>
<ellipse cx="519.131" cy="634.382" rx="19.2298" ry="5.2255" transform="rotate(29.6241 519.131 634.382)" fill="#C9D5DB"/>
<ellipse cx="19.288" cy="4.85921" rx="19.288" ry="4.85921" transform="matrix(-0.762422 -0.64708 -0.64708 0.762422 569.054 664.753)" fill="#C9D5DB"/>
<ellipse cx="19.2298" cy="5.2255" rx="19.2298" ry="5.2255" transform="matrix(-0.481929 -0.876211 -0.876211 0.481929 559.123 675.25)" fill="#C9D5DB"/>
<ellipse cx="542.569" cy="637.313" rx="1.2148" ry="2.02467" transform="rotate(45.4063 542.569 637.313)" fill="#C0C7D0"/>
<g filter="url(#filter3_bd_4_11113)">
<path fill-rule="evenodd" clip-rule="evenodd" d="M540.559 639.293C539.706 639.479 538.779 639.238 538.121 638.57C537.1 637.535 537.112 635.868 538.147 634.848C539.182 633.827 540.849 633.839 541.869 634.874C542.528 635.542 542.756 636.472 542.558 637.323C543.411 637.136 544.338 637.378 544.997 638.046C546.017 639.081 546.005 640.747 544.97 641.768C543.935 642.789 542.269 642.777 541.248 641.742C540.59 641.074 540.361 640.143 540.559 639.293Z" fill="#C9D5DB"/>
</g>
<g filter="url(#filter4_bd_4_11113)">
<path fill-rule="evenodd" clip-rule="evenodd" d="M537.345 644.239C538.164 644.123 539.141 643.606 539.99 642.769C541.423 641.356 541.949 639.565 541.164 638.768C540.379 637.972 538.58 638.472 537.147 639.885C536.298 640.722 535.767 641.692 535.639 642.509L535.574 642.573C535.135 642.692 534.285 643.3 533.395 644.155L533.394 644.154L533.25 644.296L508.307 668.887C507.67 669.515 507.663 670.541 508.291 671.178C508.919 671.815 509.945 671.822 510.582 671.194L535.524 646.603L535.669 646.461L535.668 646.46C536.535 645.582 537.155 644.74 537.28 644.303L537.345 644.239Z" fill="#C9D5DB"/>
</g>
<ellipse cx="295.178" cy="515.878" rx="14.5626" ry="3.66876" transform="rotate(-12.3625 295.178 515.878)" fill="#C9D5DB"/>
<ellipse cx="297.38" cy="521.268" rx="14.5188" ry="3.94532" transform="rotate(-33.2293 297.38 521.268)" fill="#C9D5DB"/>
<ellipse cx="14.5626" cy="3.66876" rx="14.5626" ry="3.66876" transform="matrix(-0.923669 0.383193 0.383193 0.923669 334.982 498.195)" fill="#C9D5DB"/>
<ellipse cx="14.5188" cy="3.94531" rx="14.5188" ry="3.94531" transform="matrix(-0.999578 0.0290525 0.0290525 0.999578 338.613 508.484)" fill="#C9D5DB"/>
<ellipse cx="307.422" cy="506.531" rx="0.917191" ry="1.52865" transform="rotate(-17.4471 307.422 506.531)" fill="#C0C7D0"/>
<g filter="url(#filter5_bd_4_11113)">
<path fill-rule="evenodd" clip-rule="evenodd" d="M308.061 508.567C307.892 509.203 307.411 509.742 306.736 509.954C305.689 510.283 304.573 509.701 304.244 508.654C303.915 507.607 304.497 506.491 305.544 506.162C306.22 505.95 306.925 506.117 307.428 506.544C307.597 505.908 308.079 505.369 308.754 505.157C309.801 504.828 310.916 505.41 311.245 506.457C311.574 507.504 310.992 508.619 309.945 508.949C309.269 509.161 308.565 508.994 308.061 508.567Z" fill="#C9D5DB"/>
</g>
<g filter="url(#filter6_bd_4_11113)">
<path fill-rule="evenodd" clip-rule="evenodd" d="M310.274 512.43C310.478 511.84 310.468 511.005 310.198 510.146C309.742 508.697 308.72 507.727 307.914 507.98C307.109 508.233 306.825 509.613 307.281 511.063C307.551 511.922 308.02 512.612 308.524 512.98L308.545 513.047C308.469 513.4 308.602 514.249 308.902 515.202C308.926 515.279 308.951 515.355 308.976 515.43L316.832 540.428C317.035 541.072 317.721 541.43 318.366 541.228C319.01 541.025 319.368 540.339 319.166 539.694L311.191 514.319L311.187 514.321C310.897 513.439 310.547 512.735 310.296 512.5L310.274 512.43Z" fill="#C9D5DB"/>
</g>
<path fill-rule="evenodd" clip-rule="evenodd" d="M548.791 345.423C549.01 345.332 549.262 345.436 549.353 345.655L552.677 353.627L560.46 356.417L560.17 357.225L552.03 354.308L548.56 345.985C548.469 345.766 548.572 345.515 548.791 345.423Z" fill="#C9D5DB"/>
<path fill-rule="evenodd" clip-rule="evenodd" d="M548.694 345.189C549.045 345.042 549.448 345.208 549.595 345.559L552.875 353.426L560.794 356.265L560.329 357.561L551.837 354.518L548.323 346.089C548.177 345.738 548.343 345.335 548.694 345.189ZM549.116 345.759C549.08 345.672 548.98 345.631 548.894 345.667C548.807 345.703 548.766 345.803 548.802 345.89L552.228 354.107L560.016 356.898L560.131 356.578L552.484 353.837L549.116 345.759Z" fill="#C9D5DB"/>
<path fill-rule="evenodd" clip-rule="evenodd" d="M546.451 355.555C546.605 355.375 546.876 355.354 547.056 355.508L551.927 359.685L560.216 359.469L560.238 360.328L551.619 360.553L546.497 356.16C546.317 356.006 546.296 355.735 546.451 355.555Z" fill="#C9D5DB"/>
<path fill-rule="evenodd" clip-rule="evenodd" d="M546.249 355.38C546.497 355.092 546.932 355.058 547.22 355.306L552.015 359.418L560.464 359.198L560.5 360.575L551.521 360.809L546.324 356.351C546.035 356.104 546.002 355.669 546.249 355.38ZM546.883 355.699C546.812 355.638 546.704 355.646 546.643 355.718C546.582 355.789 546.59 355.897 546.661 355.958L551.707 360.286L559.968 360.07L559.959 359.73L551.829 359.942L546.883 355.699Z" fill="#C9D5DB"/>
<path fill-rule="evenodd" clip-rule="evenodd" d="M551.865 365.263L560.231 363.065L560.45 363.895L552.457 365.996L549.327 372.169C549.219 372.381 548.961 372.465 548.749 372.358C548.538 372.251 548.453 371.992 548.56 371.781L551.865 365.263Z" fill="#C9D5DB"/>
<path fill-rule="evenodd" clip-rule="evenodd" d="M551.694 365.032L560.424 362.738L560.774 364.07L552.643 366.207L549.565 372.277C549.393 372.616 548.979 372.752 548.639 372.58C548.3 372.408 548.165 371.993 548.337 371.654L551.694 365.032ZM552.051 365.474L548.799 371.888C548.756 371.972 548.79 372.075 548.874 372.117C548.958 372.16 549.06 372.126 549.103 372.042L552.286 365.765L560.141 363.701L560.054 363.371L552.051 365.474Z" fill="#C9D5DB"/>
<path fill-rule="evenodd" clip-rule="evenodd" d="M553.777 374.591L558.664 367.452L559.373 367.937L554.705 374.756L556.827 383.116C556.885 383.345 556.746 383.579 556.516 383.637C556.286 383.696 556.052 383.557 555.994 383.327L553.777 374.591Z" fill="#C9D5DB"/>
<path fill-rule="evenodd" clip-rule="evenodd" d="M553.497 374.542L558.596 367.092L559.733 367.87L554.985 374.806L557.078 383.052C557.171 383.421 556.948 383.796 556.58 383.889C556.211 383.983 555.837 383.76 555.743 383.391L553.497 374.542ZM554.057 374.641L556.245 383.264C556.268 383.355 556.361 383.41 556.452 383.387C556.544 383.364 556.599 383.271 556.576 383.18L554.425 374.707L559.012 368.005L558.731 367.813L554.057 374.641Z" fill="#C9D5DB"/>
<path fill-rule="evenodd" clip-rule="evenodd" d="M574.173 338.987C573.937 339.011 573.765 339.222 573.789 339.458L574.669 348.051L569.159 354.214L569.799 354.787L575.563 348.341L574.644 339.371C574.62 339.135 574.409 338.963 574.173 338.987Z" fill="#C9D5DB"/>
<path fill-rule="evenodd" clip-rule="evenodd" d="M574.142 338.728C573.763 338.767 573.488 339.105 573.527 339.484L574.395 347.963L568.788 354.234L569.814 355.152L575.827 348.427L574.897 339.343C574.858 338.965 574.52 338.69 574.142 338.728ZM574.042 339.431C574.033 339.337 574.101 339.254 574.194 339.244C574.288 339.235 574.372 339.303 574.381 339.396L575.288 348.252L569.774 354.42L569.52 354.193L574.934 348.137L574.042 339.431Z" fill="#C9D5DB"/>
<path fill-rule="evenodd" clip-rule="evenodd" d="M581.059 346.771C580.838 346.686 580.59 346.797 580.505 347.019L578.216 353.013L570.827 356.776L571.217 357.541L578.9 353.628L581.307 347.325C581.392 347.103 581.281 346.855 581.059 346.771Z" fill="#C9D5DB"/>
<path fill-rule="evenodd" clip-rule="evenodd" d="M581.154 346.53C580.799 346.394 580.401 346.572 580.265 346.928L578.012 352.829L570.481 356.664L571.106 357.891L579.109 353.815L581.552 347.419C581.687 347.064 581.509 346.666 581.154 346.53ZM580.749 347.113C580.783 347.025 580.881 346.981 580.969 347.014C581.057 347.048 581.101 347.146 581.068 347.234L578.696 353.444L571.332 357.194L571.178 356.89L578.425 353.2L580.749 347.113Z" fill="#C9D5DB"/>
<path fill-rule="evenodd" clip-rule="evenodd" d="M580.924 357.891L572.521 359.948L572.726 360.783L580.753 358.818L586.448 362.751C586.643 362.886 586.911 362.837 587.046 362.642C587.181 362.447 587.132 362.179 586.936 362.045L580.924 357.891Z" fill="#C9D5DB"/>
<path fill-rule="evenodd" clip-rule="evenodd" d="M580.976 357.611L572.209 359.757L572.536 361.095L580.702 359.096L586.302 362.963C586.615 363.18 587.044 363.101 587.26 362.788C587.476 362.475 587.398 362.046 587.085 361.83L580.976 357.611ZM580.873 358.17L586.79 362.257C586.867 362.31 586.887 362.416 586.833 362.494C586.78 362.571 586.674 362.59 586.596 362.537L580.805 358.537L572.917 360.468L572.836 360.137L580.873 358.17Z" fill="#C9D5DB"/>
<path fill-rule="evenodd" clip-rule="evenodd" d="M583.698 367.006L575.998 363.062L575.606 363.826L582.96 367.594L585.082 375.953C585.14 376.183 585.374 376.322 585.604 376.264C585.834 376.206 585.973 375.972 585.914 375.742L583.698 367.006Z" fill="#C9D5DB"/>
<path fill-rule="evenodd" clip-rule="evenodd" d="M583.919 366.821L575.885 362.705L575.257 363.93L582.737 367.763L584.83 376.009C584.923 376.378 585.298 376.601 585.667 376.507C586.035 376.414 586.258 376.039 586.165 375.67L583.919 366.821ZM583.475 367.175L585.662 375.798C585.686 375.889 585.63 375.982 585.539 376.005C585.448 376.028 585.355 375.973 585.332 375.882L583.182 367.408L575.954 363.705L576.11 363.402L583.475 367.175Z" fill="#C9D5DB"/>
<path d="M562.976 351.005C563.19 351.848 563.135 352.413 562.905 352.471C562.675 352.53 562.357 352.059 562.143 351.216C561.929 350.373 561.9 349.477 562.13 349.419C562.36 349.36 562.762 350.162 562.976 351.005Z" fill="#BCC2CB"/>
<path d="M565.199 350.456C565.413 351.299 565.357 351.864 565.128 351.923C564.898 351.981 564.58 351.511 564.366 350.668C564.152 349.825 564.123 348.928 564.353 348.87C564.583 348.811 564.985 349.613 565.199 350.456Z" fill="#BCC2CB"/>
<path d="M570.087 355.748C570.903 358.967 569.23 361.495 566.548 362.175C563.866 362.856 561.19 361.432 560.373 358.213C559.556 354.995 560.908 351.2 563.59 350.519C566.272 349.839 569.27 352.53 570.087 355.748Z" fill="#C7D3D9"/>
<g filter="url(#filter7_bd_4_11113)">
<path d="M578.759 365.458C580.568 372.585 576.895 378.174 570.994 379.671C565.093 381.169 559.199 378.008 557.39 370.881C555.581 363.754 558.542 355.359 564.443 353.862C570.344 352.364 576.95 358.33 578.759 365.458Z" fill="#C9D5DB"/>
</g>
<defs>
<filter id="filter0_dd_4_11113" x="279.886" y="0" width="509.002" height="272.369" filterUnits="userSpaceOnUse" color-interpolation-filters="sRGB">
<feFlood flood-opacity="0" result="BackgroundImageFix"/>
<feColorMatrix in="SourceAlpha" type="matrix" values="0 0 0 0 0 0 0 0 0 0 0 0 0 0 0 0 0 0 127 0" result="hardAlpha"/>
<feOffset dy="2"/>
<feGaussianBlur stdDeviation="12"/>
<feComposite in2="hardAlpha" operator="out"/>
<feColorMatrix type="matrix" values="0 0 0 0 0 0 0 0 0 0 0 0 0 0 0 0 0 0 0.15 0"/>
<feBlend mode="normal" in2="BackgroundImageFix" result="effect1_dropShadow_4_11113"/>
<feColorMatrix in="SourceAlpha" type="matrix" values="0 0 0 0 0 0 0 0 0 0 0 0 0 0 0 0 0 0 127 0" result="hardAlpha"/>
<feOffset dy="2"/>
<feGaussianBlur stdDeviation="3"/>
<feComposite in2="hardAlpha" operator="out"/>
<feColorMatrix type="matrix" values="0 0 0 0 0 0 0 0 0 0 0 0 0 0 0 0 0 0 0.1 0"/>
<feBlend mode="normal" in2="effect1_dropShadow_4_11113" result="effect2_dropShadow_4_11113"/>
<feBlend mode="normal" in="SourceGraphic" in2="effect2_dropShadow_4_11113" result="shape"/>
</filter>
<filter id="filter1_bd_4_11113" x="224.789" y="165.397" width="32.1816" height="32.6302" filterUnits="userSpaceOnUse" color-interpolation-filters="sRGB">
<feFlood flood-opacity="0" result="BackgroundImageFix"/>
<feGaussianBlur in="BackgroundImageFix" stdDeviation="4"/>
<feComposite in2="SourceAlpha" operator="in" result="effect1_backgroundBlur_4_11113"/>
<feColorMatrix in="SourceAlpha" type="matrix" values="0 0 0 0 0 0 0 0 0 0 0 0 0 0 0 0 0 0 127 0" result="hardAlpha"/>
<feOffset dy="2"/>
<feGaussianBlur stdDeviation="6"/>
<feComposite in2="hardAlpha" operator="out"/>
<feColorMatrix type="matrix" values="0 0 0 0 0 0 0 0 0 0 0 0 0 0 0 0 0 0 0.15 0"/>
<feBlend mode="normal" in2="effect1_backgroundBlur_4_11113" result="effect2_dropShadow_4_11113"/>
<feBlend mode="normal" in="SourceGraphic" in2="effect2_dropShadow_4_11113" result="shape"/>
</filter>
<filter id="filter2_bd_4_11113" x="193.111" y="138.561" width="59.583" height="55.2419" filterUnits="userSpaceOnUse" color-interpolation-filters="sRGB">
<feFlood flood-opacity="0" result="BackgroundImageFix"/>
<feGaussianBlur in="BackgroundImageFix" stdDeviation="4"/>
<feComposite in2="SourceAlpha" operator="in" result="effect1_backgroundBlur_4_11113"/>
<feColorMatrix in="SourceAlpha" type="matrix" values="0 0 0 0 0 0 0 0 0 0 0 0 0 0 0 0 0 0 127 0" result="hardAlpha"/>
<feOffset dy="2"/>
<feGaussianBlur stdDeviation="6"/>
<feComposite in2="hardAlpha" operator="out"/>
<feColorMatrix type="matrix" values="0 0 0 0 0 0 0 0 0 0 0 0 0 0 0 0 0 0 0.15 0"/>
<feBlend mode="normal" in2="effect1_backgroundBlur_4_11113" result="effect2_dropShadow_4_11113"/>
<feBlend mode="normal" in="SourceGraphic" in2="effect2_dropShadow_4_11113" result="shape"/>
</filter>
<filter id="filter3_bd_4_11113" x="525.363" y="624.09" width="32.3916" height="32.436" filterUnits="userSpaceOnUse" color-interpolation-filters="sRGB">
<feFlood flood-opacity="0" result="BackgroundImageFix"/>
<feGaussianBlur in="BackgroundImageFix" stdDeviation="4"/>
<feComposite in2="SourceAlpha" operator="in" result="effect1_backgroundBlur_4_11113"/>
<feColorMatrix in="SourceAlpha" type="matrix" values="0 0 0 0 0 0 0 0 0 0 0 0 0 0 0 0 0 0 127 0" result="hardAlpha"/>
<feOffset dy="2"/>
<feGaussianBlur stdDeviation="6"/>
<feComposite in2="hardAlpha" operator="out"/>
<feColorMatrix type="matrix" values="0 0 0 0 0 0 0 0 0 0 0 0 0 0 0 0 0 0 0.15 0"/>
<feBlend mode="normal" in2="effect1_backgroundBlur_4_11113" result="effect2_dropShadow_4_11113"/>
<feBlend mode="normal" in="SourceGraphic" in2="effect2_dropShadow_4_11113" result="shape"/>
</filter>
<filter id="filter4_bd_4_11113" x="495.825" y="628.39" width="57.7031" height="57.2709" filterUnits="userSpaceOnUse" color-interpolation-filters="sRGB">
<feFlood flood-opacity="0" result="BackgroundImageFix"/>
<feGaussianBlur in="BackgroundImageFix" stdDeviation="4"/>
<feComposite in2="SourceAlpha" operator="in" result="effect1_backgroundBlur_4_11113"/>
<feColorMatrix in="SourceAlpha" type="matrix" values="0 0 0 0 0 0 0 0 0 0 0 0 0 0 0 0 0 0 127 0" result="hardAlpha"/>
<feOffset dy="2"/>
<feGaussianBlur stdDeviation="6"/>
<feComposite in2="hardAlpha" operator="out"/>
<feColorMatrix type="matrix" values="0 0 0 0 0 0 0 0 0 0 0 0 0 0 0 0 0 0 0.15 0"/>
<feBlend mode="normal" in2="effect1_backgroundBlur_4_11113" result="effect2_dropShadow_4_11113"/>
<feBlend mode="normal" in="SourceGraphic" in2="effect2_dropShadow_4_11113" result="shape"/>
</filter>
<filter id="filter5_bd_4_11113" x="292.152" y="495.065" width="31.1846" height="28.981" filterUnits="userSpaceOnUse" color-interpolation-filters="sRGB">
<feFlood flood-opacity="0" result="BackgroundImageFix"/>
<feGaussianBlur in="BackgroundImageFix" stdDeviation="4"/>
<feComposite in2="SourceAlpha" operator="in" result="effect1_backgroundBlur_4_11113"/>
<feColorMatrix in="SourceAlpha" type="matrix" values="0 0 0 0 0 0 0 0 0 0 0 0 0 0 0 0 0 0 127 0" result="hardAlpha"/>
<feOffset dy="2"/>
<feGaussianBlur stdDeviation="6"/>
<feComposite in2="hardAlpha" operator="out"/>
<feColorMatrix type="matrix" values="0 0 0 0 0 0 0 0 0 0 0 0 0 0 0 0 0 0 0.15 0"/>
<feBlend mode="normal" in2="effect1_backgroundBlur_4_11113" result="effect2_dropShadow_4_11113"/>
<feBlend mode="normal" in="SourceGraphic" in2="effect2_dropShadow_4_11113" result="shape"/>
</filter>
<filter id="filter6_bd_4_11113" x="295.063" y="497.939" width="36.1592" height="57.3446" filterUnits="userSpaceOnUse" color-interpolation-filters="sRGB">
<feFlood flood-opacity="0" result="BackgroundImageFix"/>
<feGaussianBlur in="BackgroundImageFix" stdDeviation="4"/>
<feComposite in2="SourceAlpha" operator="in" result="effect1_backgroundBlur_4_11113"/>
<feColorMatrix in="SourceAlpha" type="matrix" values="0 0 0 0 0 0 0 0 0 0 0 0 0 0 0 0 0 0 127 0" result="hardAlpha"/>
<feOffset dy="2"/>
<feGaussianBlur stdDeviation="6"/>
<feComposite in2="hardAlpha" operator="out"/>
<feColorMatrix type="matrix" values="0 0 0 0 0 0 0 0 0 0 0 0 0 0 0 0 0 0 0.15 0"/>
<feBlend mode="normal" in2="effect1_backgroundBlur_4_11113" result="effect2_dropShadow_4_11113"/>
<feBlend mode="normal" in="SourceGraphic" in2="effect2_dropShadow_4_11113" result="shape"/>
</filter>
<filter id="filter7_bd_4_11113" x="544.862" y="343.629" width="46.3604" height="50.4059" filterUnits="userSpaceOnUse" color-interpolation-filters="sRGB">
<feFlood flood-opacity="0" result="BackgroundImageFix"/>
<feGaussianBlur in="BackgroundImageFix" stdDeviation="4"/>
<feComposite in2="SourceAlpha" operator="in" result="effect1_backgroundBlur_4_11113"/>
<feColorMatrix in="SourceAlpha" type="matrix" values="0 0 0 0 0 0 0 0 0 0 0 0 0 0 0 0 0 0 127 0" result="hardAlpha"/>
<feOffset dy="2"/>
<feGaussianBlur stdDeviation="6"/>
<feComposite in2="hardAlpha" operator="out"/>
<feColorMatrix type="matrix" values="0 0 0 0 0 0 0 0 0 0 0 0 0 0 0 0 0 0 0.15 0"/>
<feBlend mode="normal" in2="effect1_backgroundBlur_4_11113" result="effect2_dropShadow_4_11113"/>
<feBlend mode="normal" in="SourceGraphic" in2="effect2_dropShadow_4_11113" result="shape"/>
</filter>
</defs>
</svg>
