<svg width="575" height="539" viewBox="0 0 575 539" fill="none" xmlns="http://www.w3.org/2000/svg">
<path d="M408.368 55.5134C403.696 72.0335 413.299 89.2136 429.819 93.8859C446.34 98.5582 463.52 88.9544 468.192 72.4344L408.368 55.5134Z" fill="#231F20"/>
<path d="M373.382 65.0031C376.186 55.0912 386.493 49.329 396.405 52.1327L391.329 70.0796L373.382 65.0031Z" fill="#231F20"/>
<path d="M468.192 72.4343C465.389 82.3462 455.081 88.1084 445.169 85.3047L450.246 67.3579L468.192 72.4343Z" fill="#231F20"/>
<path d="M445.177 85.3137L450.252 67.3667L396.41 52.1413L391.335 70.0884L445.177 85.3137Z" fill="#231F20"/>
<path d="M432.707 80.2347C429.442 90.0046 418.876 95.2776 409.106 92.0132L415.017 74.3236L432.707 80.2347Z" fill="#231F20"/>
<path d="M420.229 77.2552C416.964 87.0251 406.398 92.2981 396.629 89.0337L402.54 71.3442L420.229 77.2552Z" fill="#6E00FF"/>
<path d="M409.484 73.16C406.219 82.9299 395.653 88.2029 385.884 84.9385L391.795 67.2489L409.484 73.16Z" fill="#231F20"/>
<path d="M397.007 70.0688C393.742 79.8387 383.175 85.1117 373.406 81.8474L379.317 64.1578L397.007 70.0688Z" fill="#6E00FF"/>
<path d="M423.402 46.2998C418.392 64.0138 428.69 82.4356 446.404 87.4456C464.118 92.4556 482.539 82.1577 487.549 64.4437L423.402 46.2998Z" fill="#231F20"/>
<path d="M385.885 56.4705C388.891 45.8422 399.944 39.6635 410.572 42.6699L405.129 61.9139L385.885 56.4705Z" fill="#231F20"/>
<path d="M487.548 64.4415C484.541 75.0697 473.488 81.2484 462.86 78.2421L468.304 58.9981L487.548 64.4415Z" fill="#231F20"/>
<path d="M462.872 78.2532L468.313 59.009L410.58 42.6833L405.138 61.9274L462.872 78.2532Z" fill="#231F20"/>
<path d="M449.498 72.7987C445.997 83.2748 434.667 88.9288 424.192 85.4285L430.53 66.4604L449.498 72.7987Z" fill="#231F20"/>
<path d="M436.118 69.6018C432.617 80.0778 421.287 85.7319 410.812 82.2316L417.15 63.2635L436.118 69.6018Z" fill="#C7EAFB"/>
<path d="M424.599 65.2135C421.098 75.6896 409.768 81.3436 399.292 77.8433L405.631 58.8752L424.599 65.2135Z" fill="#231F20"/>
<path d="M411.22 61.8988C407.719 72.3749 396.389 78.029 385.913 74.5286L392.252 55.5605L411.22 61.8988Z" fill="#C7EAFB"/>
<path d="M334.465 67.1423C343.988 81.4265 340.13 100.727 325.846 110.251C311.562 119.774 292.261 115.916 282.737 101.632L334.465 67.1423Z" fill="#231F20"/>
<path d="M370.675 65.418C364.96 56.8477 353.381 54.5326 344.81 60.2471L355.157 75.7649L370.675 65.418Z" fill="#231F20"/>
<path d="M282.738 101.631C288.453 110.201 300.032 112.516 308.603 106.802L298.256 91.284L282.738 101.631Z" fill="#231F20"/>
<path d="M355.149 75.7616L344.804 60.2432L298.248 91.2805L308.594 106.799L355.149 75.7616Z" fill="#231F20"/>
<path d="M318.899 98.1412C325.009 106.435 336.685 108.205 344.978 102.096L333.916 87.0791L318.899 98.1412Z" fill="#231F20"/>
<path d="M329.86 91.4702C335.97 99.7636 347.645 101.534 355.939 95.4246L344.877 80.4081L329.86 91.4702Z" fill="#6E00FF"/>
<path d="M338.824 84.277C344.934 92.5705 356.609 94.3406 364.903 88.2314L353.84 73.215L338.824 84.277Z" fill="#231F20"/>
<path d="M349.747 77.5006C355.857 85.794 367.532 87.5641 375.825 81.4549L364.763 66.4385L349.747 77.5006Z" fill="#6E00FF"/>
<path d="M317.326 62.988C327.538 78.3046 323.401 98.9999 308.084 109.212C292.767 119.424 272.072 115.287 261.86 99.9703L317.326 62.988Z" fill="#231F20"/>
<path d="M356.153 61.1388C350.025 51.949 337.609 49.4666 328.419 55.5942L339.514 72.2335L356.153 61.1388Z" fill="#231F20"/>
<path d="M261.861 99.9714C267.989 109.161 280.405 111.644 289.595 105.516L278.5 88.8767L261.861 99.9714Z" fill="#231F20"/>
<path d="M339.505 72.2309L328.412 55.5909L278.491 88.8715L289.585 105.512L339.505 72.2309Z" fill="#231F20"/>
<path d="M300.637 96.2275C307.188 105.12 319.707 107.018 328.6 100.468L316.738 84.3659L300.637 96.2275Z" fill="#231F20"/>
<path d="M312.386 89.0729C318.937 97.9658 331.456 99.8638 340.349 93.3131L328.487 77.2114L312.386 89.0729Z" fill="#C7EAFB"/>
<path d="M321.999 81.3564C328.55 90.2492 341.07 92.1472 349.962 85.5966L338.101 69.4948L321.999 81.3564Z" fill="#231F20"/>
<path d="M333.712 74.0898C340.263 82.9826 352.782 84.8806 361.675 78.33L349.814 62.2282L333.712 74.0898Z" fill="#C7EAFB"/>
<path fill-rule="evenodd" clip-rule="evenodd" d="M378.28 102.727C378.192 102.742 378.103 102.756 378.015 102.77C377.926 102.784 377.838 102.798 377.749 102.811L354.565 106.462C351.146 107.001 347.937 104.665 347.399 101.246L343.838 78.6407C343.786 78.3579 343.737 78.0735 343.692 77.7875C341.112 61.4107 352.298 46.0438 368.674 43.4645C385.051 40.8853 400.418 52.0704 402.997 68.4472C403.019 68.5844 403.04 68.7215 403.059 68.8585C403.076 68.8984 403.088 68.9411 403.095 68.9858L406.705 91.9054C407.244 95.3249 404.908 98.5335 401.489 99.072L378.28 102.727Z" fill="#2D2D2D"/>
<path d="M360.343 72.511C364.914 71.7911 368.036 67.5015 367.316 62.9301C366.596 58.3586 362.307 55.2364 357.735 55.9564C353.164 56.6764 350.042 60.9659 350.762 65.5373C351.482 70.1088 355.771 73.231 360.343 72.511Z" fill="white"/>
<path d="M359.691 68.3701C361.977 68.0101 363.538 65.8651 363.178 63.5792C362.818 61.2933 360.673 59.732 358.387 60.092C356.101 60.452 354.54 62.597 354.9 64.8829C355.26 67.1689 357.405 68.7301 359.691 68.3701Z" fill="#231F20"/>
<path d="M356.133 64.1295C357.934 63.8459 359.163 62.1566 358.88 60.3562C358.596 58.5558 356.907 57.3262 355.107 57.6098C353.306 57.8933 352.077 59.5827 352.36 61.383C352.644 63.1834 354.333 64.413 356.133 64.1295Z" fill="white"/>
<path d="M359.597 92.1473C366.298 91.0919 370.875 84.8038 369.819 78.1024C368.764 71.401 362.476 66.8241 355.774 67.8795C349.073 68.9349 344.496 75.2231 345.552 81.9244C346.607 88.6258 352.895 93.2027 359.597 92.1473Z" fill="#2D2D2D"/>
<path d="M385.557 68.5398C390.129 67.8199 393.251 63.5303 392.531 58.9589C391.811 54.3874 387.522 51.2652 382.95 51.9852C378.379 52.7052 375.257 56.9947 375.976 61.5661C376.696 66.1376 380.986 69.2598 385.557 68.5398Z" fill="white"/>
<path d="M384.906 64.3989C387.192 64.0389 388.753 61.8939 388.393 59.608C388.033 57.3221 385.888 55.7608 383.602 56.1208C381.316 56.4809 379.755 58.6258 380.115 60.9118C380.475 63.1977 382.62 64.7589 384.906 64.3989Z" fill="#231F20"/>
<path d="M381.348 60.1583C383.149 59.8747 384.378 58.1854 384.095 56.385C383.811 54.5847 382.122 53.355 380.321 53.6386C378.521 53.9221 377.291 55.6115 377.575 57.4118C377.858 59.2122 379.548 60.4418 381.348 60.1583Z" fill="white"/>
<path d="M392.305 86.996C399.006 85.9406 403.583 79.6525 402.527 72.9511C401.472 66.2498 395.184 61.6729 388.483 62.7283C381.781 63.7837 377.204 70.0718 378.26 76.7732C379.315 83.4745 385.603 88.0514 392.305 86.996Z" fill="#2D2D2D"/>
<path d="M372.586 68.2953C365.375 69.431 360.378 75.7485 361.427 82.4052L378.017 102.771L372.587 68.2951L372.586 68.2953Z" fill="#C7EAFB"/>
<path d="M387.545 78.2918C386.497 71.6351 379.8 67.1591 372.589 68.2949L378.019 102.771L387.546 78.2916L387.545 78.2918Z" fill="#6E00FF"/>
<path d="M399.32 52.8462L396.215 53.3353C396.158 53.3442 396.104 53.3583 396.052 53.3747C393.34 49.1955 388.41 46.7613 383.272 47.5705C376.581 48.6243 371.917 54.8019 372.484 61.595C371.7 61.5497 370.915 61.6936 370.197 62.0134C368.672 55.3437 362.319 50.8706 355.609 51.9272C350.476 52.7358 346.536 56.5604 345.235 61.3642L342.257 61.8333C341.619 61.9338 341.184 62.5451 341.287 63.1976C341.39 63.8502 341.991 64.2983 342.629 64.1978L344.811 63.8541C344.738 64.8608 344.776 65.8918 344.94 66.933C346.069 74.1027 352.693 79.0374 359.705 77.933C366.172 76.9144 370.745 71.1098 370.532 64.5897C371.197 64.031 372.097 63.8416 372.928 64.0783C374.682 70.4203 380.856 74.6018 387.367 73.5764C394.379 72.472 399.165 65.7405 398.036 58.5707C397.872 57.5295 397.592 56.5366 397.212 55.6013L399.693 55.2106C400.331 55.1101 400.765 54.4989 400.663 53.8463C400.56 53.1937 399.959 52.7457 399.32 52.8462ZM359.333 75.5685C353.595 76.4721 348.176 72.435 347.253 66.5688C346.329 60.7026 350.244 55.1953 355.982 54.2917C361.719 53.3881 367.138 57.4253 368.062 63.2914C368.986 69.1576 365.07 74.6649 359.333 75.5685ZM386.995 71.2118C381.258 72.1154 375.839 68.0783 374.915 62.2121C373.991 56.3459 377.907 50.8386 383.644 49.935C389.382 49.0314 394.8 53.0686 395.724 58.9348C396.648 64.8009 392.732 70.3083 386.995 71.2118Z" fill="#EBFF00"/>
<g filter="url(#filter0_dd_4_11112)">
<path fill-rule="evenodd" clip-rule="evenodd" d="M243.332 167.854C235.625 155.01 221.81 145.914 205.461 144.638C187.906 143.267 171.837 151.257 162.41 164.314C154.128 156.417 143.074 151.19 130.641 150.219C110.925 148.68 92.9726 158.253 83.2546 173.549C79.2546 171.966 74.9437 170.944 70.4162 170.591C46.6578 168.736 25.9331 185.993 24.1263 209.135C23.2326 220.582 27.1347 231.325 34.1821 239.484C28.7375 246.416 25.2257 254.918 24.4943 264.286C22.4802 290.083 42.3171 312.673 68.8014 314.741C83.3405 315.876 96.8604 310.59 106.432 301.324C113.644 310.101 124.412 316.075 136.801 317.042C149.298 318.018 160.956 313.705 169.463 306.03C177.112 312.845 187.054 317.326 198.167 318.194C211.092 319.203 223.212 315.138 232.468 307.712C238.841 311.613 246.243 314.115 254.253 314.741C265.813 315.643 276.729 312.487 285.528 306.498C290.249 314.726 298.966 320.587 309.318 321.395C324.26 322.562 337.468 312.802 340.686 298.99C341.965 299.21 343.265 299.372 344.585 299.475C367.218 301.243 386.961 284.803 388.682 262.757C389.768 248.856 383.429 236.046 372.924 228.034C373.237 226.673 373.453 225.272 373.565 223.84C374.815 207.829 362.538 193.804 346.122 192.457C345.277 178.095 333.638 166.162 318.516 164.981C311.163 164.407 304.228 166.473 298.692 170.363C291.518 164.94 282.701 161.423 272.99 160.664C262.128 159.816 251.835 162.552 243.332 167.854Z" fill="#F9FBFD" fill-opacity="0.7" shape-rendering="crispEdges"/>
</g>
<path d="M452.605 356.369C447.642 359.508 445.969 365.767 448.866 370.348L467.614 380.092L452.605 356.368L452.605 356.369Z" fill="#C7EAFB"/>
<path d="M472.585 359.825C470.327 354.897 464.169 352.885 458.83 355.33L470.522 380.853L472.585 359.825Z" fill="#6E00FF"/>
<path d="M476.716 350.418C470.907 349.562 465.557 353.216 464.766 358.578L472.624 378.191L476.717 350.419L476.716 350.418Z" fill="#C7EAFB"/>
<path d="M491.615 367.42C494.048 362.576 491.768 356.512 486.521 353.875L473.916 378.96L491.615 367.42Z" fill="#6E00FF"/>
<path d="M502.601 399.766L443.462 402.832L444.995 432.401L504.134 429.335L502.601 399.766Z" fill="#2D2D2D"/>
<path d="M474.564 430.87C490.895 430.024 503.447 416.099 502.6 399.768C501.754 383.437 487.829 370.885 471.498 371.732C455.167 372.578 442.615 386.503 443.462 402.834C444.308 419.165 458.233 431.717 474.564 430.87Z" fill="#2D2D2D"/>
<path d="M440.918 419.093C454.813 413.142 461.253 397.056 455.303 383.161C449.352 369.267 433.266 362.826 419.371 368.776L440.919 419.093L440.918 419.093Z" fill="#231F20"/>
<path d="M466.79 437.787C458.453 441.357 448.801 437.493 445.231 429.156L460.326 422.692L466.79 437.787L466.79 437.787Z" fill="#231F20"/>
<path d="M419.368 368.771C427.705 365.2 437.357 369.064 440.927 377.401L425.832 383.865L419.368 368.77L419.368 368.771Z" fill="#C7EAFB"/>
<path d="M460.307 422.691L445.212 429.156L425.815 383.873L440.91 377.407L460.307 422.691Z" fill="#231F20"/>
<path d="M505.477 416.434C490.597 412.04 482.097 396.415 486.491 381.535C490.885 366.654 506.509 358.154 521.39 362.548L505.477 416.434Z" fill="#231F20"/>
<path d="M481.353 438.604C490.281 441.24 499.656 436.14 502.292 427.211L486.126 422.438L481.352 438.604L481.353 438.604Z" fill="#231F20"/>
<path d="M521.387 362.546C512.459 359.909 503.084 365.01 500.448 373.938L516.614 378.712L521.388 362.546L521.387 362.546Z" fill="#C7EAFB"/>
<path d="M500.449 373.939L516.614 378.713L502.293 427.21L486.127 422.436L500.449 373.939Z" fill="#231F20"/>
<path d="M518.419 419.148C503.969 413.003 497.236 396.309 503.381 381.858C509.525 367.409 526.219 360.675 540.67 366.82L518.419 419.148L518.419 419.148Z" fill="#231F20"/>
<path d="M491.597 438.636C500.267 442.323 510.284 438.283 513.97 429.613L498.272 422.938L491.597 438.636Z" fill="#231F20"/>
<path d="M540.668 366.817C531.998 363.131 521.981 367.17 518.294 375.84L533.993 382.516L540.668 366.817Z" fill="#6E00FF"/>
<path d="M518.303 375.855L534.002 382.529L513.98 429.625L498.281 422.951L518.303 375.855Z" fill="#231F20"/>
<path d="M517.609 424.488C505.79 412.482 505.944 393.168 517.949 381.351C529.955 369.532 549.269 369.686 561.086 381.691L517.608 424.488L517.609 424.488Z" fill="#231F20"/>
<path d="M483.03 432.843C490.121 440.046 501.709 440.138 508.912 433.047L496.074 420.004L483.03 432.842L483.03 432.843Z" fill="#231F20"/>
<path d="M561.087 381.696C553.996 374.492 542.409 374.4 535.205 381.491L548.044 394.535L561.088 381.696L561.087 381.696Z" fill="#C7EAFB"/>
<path d="M535.201 381.492L548.04 394.536L508.91 433.053L496.071 420.009L535.201 381.492Z" fill="#231F20"/>
<path d="M518.077 430.744C509.459 416.168 514.289 397.365 528.865 388.746C543.441 380.128 562.245 384.957 570.863 399.534L518.077 430.745L518.077 430.744Z" fill="#231F20"/>
<path d="M482.318 430.514C487.49 439.26 498.771 442.158 507.517 436.986L498.154 421.151L482.318 430.514Z" fill="#231F20"/>
<path d="M570.861 399.533C565.689 390.788 554.408 387.89 545.662 393.061L555.025 408.897L570.861 399.533Z" fill="#6E00FF"/>
<path d="M545.653 393.069L555.017 408.904L507.511 436.996L498.147 421.161L545.653 393.069Z" fill="#231F20"/>
<path d="M425.356 423.526C439.093 415.921 444.064 398.619 436.458 384.882C428.852 371.145 411.551 366.174 397.813 373.78L425.355 423.526L425.356 423.526Z" fill="#231F20"/>
<path d="M454.049 440.135C445.807 444.698 435.426 441.716 430.862 433.474L445.786 425.211L454.049 440.135Z" fill="#231F20"/>
<path d="M397.813 373.78C406.055 369.216 416.436 372.198 420.999 380.44L406.076 388.703L397.813 373.78Z" fill="#6E00FF"/>
<path d="M445.801 425.208L430.876 433.47L406.091 388.697L421.015 380.435L445.801 425.208Z" fill="#231F20"/>
<path d="M426.247 429.233C436.76 416.069 434.611 396.874 421.448 386.362C408.284 375.848 389.089 377.998 378.577 391.161L426.248 429.233L426.247 429.233Z" fill="#231F20"/>
<path d="M461.505 433.966C455.197 441.865 443.681 443.154 435.783 436.846L447.204 422.545L461.505 433.966L461.505 433.966Z" fill="#231F20"/>
<path d="M378.577 391.16C384.885 383.262 396.401 381.972 404.3 388.28L392.879 402.582L378.577 391.161L378.577 391.16Z" fill="#C7EAFB"/>
<path d="M447.208 422.543L435.786 436.844L392.883 402.58L404.304 388.279L447.208 422.543Z" fill="#231F20"/>
<path d="M426.428 435.503C433.493 420.113 426.745 401.91 411.355 394.845C395.966 387.78 377.763 394.528 370.698 409.918L426.428 435.504L426.428 435.503Z" fill="#231F20"/>
<path d="M461.965 431.571C457.726 440.804 446.804 444.854 437.571 440.614L445.247 423.895L461.965 431.571Z" fill="#231F20"/>
<path d="M370.699 409.912C374.938 400.678 385.86 396.629 395.093 400.868L387.418 417.587L370.699 409.912Z" fill="#6E00FF"/>
<path d="M445.257 423.894L437.581 440.612L387.425 417.583L395.101 400.865L445.257 423.894Z" fill="#231F20"/>
<path d="M476.076 458.208C492.417 457.361 504.983 443.523 504.142 427.301C503.301 411.079 489.372 398.615 473.03 399.462C456.689 400.309 444.123 414.147 444.964 430.369C445.805 446.591 459.734 459.055 476.076 458.208Z" fill="#2D2D2D"/>
<path d="M462.173 437.004C466.732 436.767 470.236 432.88 469.999 428.322C469.763 423.763 465.876 420.259 461.317 420.496C456.759 420.732 453.255 424.619 453.491 429.178C453.728 433.736 457.615 437.24 462.173 437.004Z" fill="white"/>
<path d="M461.961 432.876C464.24 432.757 465.992 430.814 465.874 428.534C465.756 426.255 463.812 424.503 461.533 424.621C459.253 424.739 457.501 426.683 457.619 428.962C457.737 431.242 459.681 432.994 461.961 432.876Z" fill="#231F20"/>
<path d="M458.907 428.351C460.702 428.257 462.082 426.727 461.989 424.931C461.896 423.136 460.365 421.756 458.57 421.849C456.775 421.942 455.395 423.473 455.488 425.268C455.581 427.064 457.112 428.444 458.907 428.351Z" fill="white"/>
<path d="M459.394 455.753C466.077 455.406 471.213 449.708 470.867 443.026C470.52 436.343 464.822 431.207 458.14 431.554C451.457 431.9 446.321 437.598 446.667 444.28C447.014 450.963 452.712 456.099 459.394 455.753Z" fill="#2D2D2D"/>
<path d="M461.599 450.438C467.325 450.141 471.725 445.259 471.429 439.533C471.132 433.808 466.25 429.407 460.524 429.704C454.799 430.001 450.398 434.883 450.695 440.608C450.991 446.334 455.874 450.735 461.599 450.438Z" fill="#2D2D2D"/>
<path d="M487.313 435.693C491.871 435.456 495.375 431.569 495.139 427.011C494.903 422.452 491.016 418.948 486.457 419.185C481.899 419.421 478.395 423.308 478.631 427.867C478.867 432.425 482.754 435.929 487.313 435.693Z" fill="white"/>
<path d="M487.1 431.565C489.38 431.446 491.132 429.503 491.014 427.223C490.895 424.944 488.952 423.192 486.672 423.31C484.393 423.428 482.641 425.372 482.759 427.651C482.877 429.931 484.821 431.683 487.1 431.565Z" fill="#231F20"/>
<path d="M484.047 427.039C485.842 426.946 487.222 425.416 487.129 423.62C487.036 421.825 485.505 420.445 483.71 420.538C481.914 420.631 480.534 422.162 480.628 423.957C480.721 425.753 482.251 427.133 484.047 427.039Z" fill="white"/>
<path d="M492.01 454.057C498.693 453.711 503.829 448.013 503.483 441.33C503.136 434.648 497.438 429.512 490.756 429.858C484.073 430.204 478.937 435.902 479.284 442.585C479.63 449.267 485.328 454.404 492.01 454.057Z" fill="#2D2D2D"/>
<path d="M489.247 449.006C494.973 448.71 499.374 443.828 499.077 438.102C498.78 432.376 493.898 427.976 488.173 428.272C482.447 428.569 478.046 433.451 478.343 439.177C478.64 444.902 483.522 449.303 489.247 449.006Z" fill="#2D2D2D"/>
<path d="M474.532 432.712C467.341 433.084 461.79 438.768 462.134 445.406L476.315 467.09L474.533 432.712L474.532 432.712Z" fill="#C7EAFB"/>
<path d="M488.177 444.054C487.832 437.416 481.724 432.337 474.532 432.71L476.314 467.089L488.177 444.054L488.177 444.054Z" fill="#6E00FF"/>
<path d="M500.067 421.572L497.235 421.719C497.183 421.722 497.134 421.729 497.085 421.739C495.048 417.793 490.857 415.186 486.172 415.429C480.071 415.745 475.303 420.78 475.169 426.841C474.469 426.729 473.751 426.784 473.078 427.001C472.341 420.961 467.066 416.42 460.948 416.737C456.267 416.98 452.371 420 450.75 424.129L448.034 424.27C447.452 424.3 447.005 424.801 447.035 425.387C447.065 425.974 447.562 426.426 448.144 426.396L450.134 426.292C449.973 427.176 449.91 428.092 449.958 429.028C450.292 435.473 455.766 440.447 462.16 440.116C468.057 439.81 472.708 435.097 473.134 429.31C473.784 428.877 474.609 428.793 475.331 429.078C476.304 434.849 481.447 439.116 487.383 438.808C493.777 438.477 498.707 432.963 498.373 426.518C498.324 425.582 498.167 424.678 497.915 423.815L500.177 423.698C500.759 423.668 501.206 423.167 501.176 422.581C501.146 421.994 500.649 421.542 500.067 421.572ZM462.05 437.99C456.818 438.261 452.34 434.192 452.067 428.918C451.793 423.645 455.827 419.134 461.058 418.862C466.29 418.591 470.768 422.661 471.041 427.935C471.315 433.208 467.281 437.719 462.05 437.99ZM487.274 436.683C482.042 436.954 477.564 432.884 477.29 427.611C477.017 422.337 481.051 417.826 486.282 417.555C491.513 417.284 495.992 421.353 496.265 426.627C496.538 431.901 492.505 436.411 487.274 436.683Z" fill="#EBFF00"/>
<ellipse cx="216.742" cy="30.6982" rx="19.288" ry="4.85921" transform="rotate(-5.70211 216.742 30.6982)" fill="#C9D5DB"/>
<ellipse cx="218.81" cy="38.133" rx="19.2298" ry="5.2255" transform="rotate(-26.5689 218.81 38.133)" fill="#C9D5DB"/>
<ellipse cx="19.288" cy="4.85921" rx="19.288" ry="4.85921" transform="matrix(-0.961879 0.273475 0.273475 0.961879 271.821 13.55)" fill="#C9D5DB"/>
<ellipse cx="19.2298" cy="5.2255" rx="19.2298" ry="5.2255" transform="matrix(-0.996201 -0.0870794 -0.0870794 0.996201 275.019 27.6423)" fill="#C9D5DB"/>
<ellipse cx="234.286" cy="20.289" rx="1.2148" ry="2.02467" transform="rotate(-10.7866 234.286 20.289)" fill="#C0C7D0"/>
<g filter="url(#filter1_bd_4_11112)">
<path fill-rule="evenodd" clip-rule="evenodd" d="M234.813 23.061C234.493 23.8735 233.776 24.5093 232.855 24.6848C231.427 24.9568 230.049 24.0198 229.777 22.5918C229.505 21.1638 230.442 19.7857 231.87 19.5136C232.791 19.3381 233.691 19.6658 234.287 20.3038C234.607 19.4913 235.324 18.8555 236.245 18.68C237.673 18.4079 239.051 19.345 239.323 20.773C239.596 22.2009 238.658 23.5791 237.231 23.8511C236.309 24.0266 235.409 23.699 234.813 23.061Z" fill="#C9D5DB"/>
</g>
<g filter="url(#filter2_bd_4_11112)">
<path fill-rule="evenodd" clip-rule="evenodd" d="M237.134 28.4839C237.492 27.7387 237.607 26.6393 237.383 25.468C237.007 23.4909 235.811 22.0577 234.713 22.267C233.614 22.4762 233.029 24.2487 233.406 26.2259C233.629 27.3971 234.139 28.3775 234.747 28.9386L234.764 29.0285C234.618 29.4589 234.651 30.5038 234.866 31.7188L234.864 31.719L234.902 31.9179L241.458 66.3258C241.625 67.2046 242.473 67.7812 243.352 67.6138C244.231 67.4464 244.807 66.5983 244.64 65.7196L238.085 31.3116L238.047 31.1127L238.045 31.113C237.799 29.9041 237.445 28.9204 237.151 28.5738L237.134 28.4839Z" fill="#C9D5DB"/>
</g>
<ellipse cx="294.601" cy="478.757" rx="19.288" ry="4.85921" transform="rotate(27.3993 294.601 478.757)" fill="#C9D5DB"/>
<ellipse cx="292.273" cy="486.115" rx="19.2298" ry="5.2255" transform="rotate(6.53256 292.273 486.115)" fill="#C9D5DB"/>
<ellipse cx="19.288" cy="4.85921" rx="19.288" ry="4.85921" transform="matrix(-0.955122 -0.296213 -0.296213 0.955122 350.107 494.473)" fill="#C9D5DB"/>
<ellipse cx="19.2298" cy="5.2255" rx="19.2298" ry="5.2255" transform="matrix(-0.786967 -0.616995 -0.616995 0.786967 345.089 508.024)" fill="#C9D5DB"/>
<ellipse cx="314.983" cy="479.619" rx="1.2148" ry="2.02467" transform="rotate(22.3148 314.983 479.619)" fill="#C0C7D0"/>
<g filter="url(#filter3_bd_4_11112)">
<path fill-rule="evenodd" clip-rule="evenodd" d="M313.91 482.228C313.199 482.734 312.251 482.876 311.383 482.519C310.039 481.968 309.396 480.43 309.948 479.085C310.5 477.74 312.037 477.098 313.382 477.65C314.25 478.006 314.825 478.772 314.976 479.632C315.688 479.126 316.635 478.985 317.503 479.341C318.848 479.893 319.49 481.43 318.939 482.775C318.387 484.12 316.849 484.763 315.504 484.211C314.637 483.855 314.061 483.088 313.91 482.228Z" fill="#C9D5DB"/>
</g>
<g filter="url(#filter4_bd_4_11112)">
<path fill-rule="evenodd" clip-rule="evenodd" d="M312.894 488.039C313.601 487.61 314.297 486.752 314.75 485.649C315.514 483.787 315.295 481.933 314.261 481.509C313.226 481.084 311.768 482.249 311.004 484.111C310.551 485.214 310.444 486.314 310.646 487.116L310.611 487.201C310.254 487.482 309.711 488.375 309.227 489.51L309.226 489.51L309.149 489.697L295.85 522.101C295.51 522.928 295.905 523.874 296.733 524.214C297.561 524.554 298.507 524.158 298.847 523.331L312.146 490.927L312.223 490.74L312.222 490.739C312.675 489.592 312.916 488.574 312.859 488.124L312.894 488.039Z" fill="#C9D5DB"/>
</g>
<path fill-rule="evenodd" clip-rule="evenodd" d="M456.222 111.198C456.428 111.112 456.664 111.21 456.75 111.415L459.874 118.908L467.189 121.53L466.916 122.29L459.266 119.548L456.005 111.726C455.919 111.52 456.016 111.284 456.222 111.198Z" fill="#C9D5DB"/>
<path fill-rule="evenodd" clip-rule="evenodd" d="M456.13 110.977C456.46 110.839 456.839 110.995 456.977 111.325L460.059 118.719L467.502 121.386L467.066 122.605L459.085 119.744L455.782 111.823C455.644 111.493 455.8 111.114 456.13 110.977ZM456.527 111.512C456.493 111.431 456.399 111.392 456.318 111.426C456.236 111.46 456.198 111.554 456.232 111.636L459.452 119.358L466.771 121.982L466.879 121.681L459.693 119.105L456.527 111.512Z" fill="#C9D5DB"/>
<path fill-rule="evenodd" clip-rule="evenodd" d="M454.018 120.717C454.164 120.547 454.418 120.528 454.588 120.673L459.165 124.599L466.956 124.396L466.977 125.203L458.875 125.414L454.062 121.286C453.893 121.141 453.873 120.886 454.018 120.717Z" fill="#C9D5DB"/>
<path fill-rule="evenodd" clip-rule="evenodd" d="M453.831 120.555C454.064 120.283 454.473 120.252 454.744 120.485L459.25 124.35L467.191 124.143L467.224 125.437L458.786 125.657L453.901 121.467C453.63 121.235 453.599 120.826 453.831 120.555ZM454.427 120.854C454.36 120.797 454.259 120.805 454.201 120.872C454.144 120.939 454.151 121.04 454.219 121.097L458.961 125.165L466.725 124.962L466.716 124.642L459.076 124.841L454.427 120.854Z" fill="#C9D5DB"/>
<path fill-rule="evenodd" clip-rule="evenodd" d="M459.111 129.845L466.974 127.779L467.179 128.56L459.667 130.534L456.725 136.336C456.625 136.535 456.382 136.614 456.183 136.513C455.984 136.413 455.905 136.17 456.005 135.971L459.111 129.845Z" fill="#C9D5DB"/>
<path fill-rule="evenodd" clip-rule="evenodd" d="M458.946 129.628L467.151 127.472L467.48 128.724L459.838 130.732L456.946 136.437C456.784 136.756 456.395 136.883 456.076 136.721C455.757 136.56 455.629 136.17 455.791 135.851L458.946 129.628ZM459.282 130.044L456.226 136.072C456.186 136.151 456.217 136.247 456.296 136.287C456.375 136.327 456.471 136.295 456.511 136.217L459.502 130.317L466.885 128.377L466.804 128.067L459.282 130.044Z" fill="#C9D5DB"/>
<path fill-rule="evenodd" clip-rule="evenodd" d="M460.905 138.61L465.498 131.901L466.165 132.357L461.778 138.765L463.772 146.622C463.827 146.838 463.696 147.058 463.48 147.113C463.264 147.168 463.044 147.037 462.989 146.821L460.905 138.61Z" fill="#C9D5DB"/>
<path fill-rule="evenodd" clip-rule="evenodd" d="M460.644 138.564L465.437 131.563L466.505 132.294L462.042 138.813L464.01 146.563C464.098 146.909 463.888 147.262 463.542 147.349C463.195 147.437 462.843 147.228 462.755 146.881L460.644 138.564ZM461.17 138.658L463.227 146.762C463.249 146.847 463.336 146.899 463.422 146.877C463.507 146.856 463.559 146.768 463.537 146.683L461.516 138.719L465.828 132.421L465.564 132.24L461.17 138.658Z" fill="#C9D5DB"/>
<path fill-rule="evenodd" clip-rule="evenodd" d="M480.074 105.146C479.852 105.169 479.691 105.367 479.714 105.588L480.541 113.664L475.361 119.457L475.963 119.995L481.38 113.937L480.517 105.506C480.494 105.284 480.296 105.123 480.074 105.146Z" fill="#C9D5DB"/>
<path fill-rule="evenodd" clip-rule="evenodd" d="M480.046 104.905C479.69 104.942 479.432 105.259 479.468 105.615L480.284 113.584L475.014 119.478L475.979 120.341L481.63 114.021L480.756 105.483C480.719 105.128 480.402 104.869 480.046 104.905ZM479.953 105.565C479.944 105.477 480.008 105.399 480.096 105.39C480.184 105.381 480.262 105.445 480.271 105.533L481.124 113.856L475.941 119.653L475.702 119.44L480.791 113.748L479.953 105.565Z" fill="#C9D5DB"/>
<path fill-rule="evenodd" clip-rule="evenodd" d="M486.549 112.465C486.34 112.385 486.107 112.49 486.028 112.698L483.876 118.332L476.932 121.868L477.298 122.588L484.52 118.91L486.782 112.986C486.861 112.778 486.757 112.545 486.549 112.465Z" fill="#C9D5DB"/>
<path fill-rule="evenodd" clip-rule="evenodd" d="M486.637 112.233C486.303 112.106 485.929 112.273 485.801 112.607L483.683 118.153L476.605 121.758L477.192 122.911L484.715 119.08L487.01 113.069C487.138 112.735 486.971 112.361 486.637 112.233ZM486.256 112.781C486.288 112.698 486.38 112.657 486.463 112.689C486.545 112.72 486.587 112.813 486.555 112.895L484.327 118.731L477.406 122.256L477.26 121.971L484.071 118.502L486.256 112.781Z" fill="#C9D5DB"/>
<path fill-rule="evenodd" clip-rule="evenodd" d="M486.421 122.914L478.524 124.847L478.716 125.631L486.26 123.784L491.613 127.481C491.796 127.608 492.048 127.562 492.174 127.379C492.301 127.195 492.255 126.944 492.072 126.817L486.421 122.914Z" fill="#C9D5DB"/>
<path fill-rule="evenodd" clip-rule="evenodd" d="M486.469 122.65L478.229 124.667L478.537 125.924L486.212 124.045L491.474 127.68C491.768 127.883 492.171 127.81 492.375 127.516C492.578 127.221 492.504 126.818 492.21 126.615L486.469 122.65ZM486.372 123.175L491.933 127.016C492.006 127.066 492.024 127.166 491.974 127.239C491.923 127.311 491.824 127.33 491.751 127.279L486.308 123.52L478.894 125.335L478.818 125.024L486.372 123.175Z" fill="#C9D5DB"/>
<path fill-rule="evenodd" clip-rule="evenodd" d="M489.025 131.483L481.788 127.775L481.42 128.494L488.332 132.035L490.326 139.892C490.381 140.108 490.6 140.239 490.816 140.184C491.032 140.129 491.163 139.909 491.108 139.693L489.025 131.483Z" fill="#C9D5DB"/>
<path fill-rule="evenodd" clip-rule="evenodd" d="M489.236 131.308L481.685 127.44L481.094 128.592L488.125 132.193L490.092 139.944C490.18 140.29 490.532 140.5 490.878 140.412C491.225 140.324 491.434 139.972 491.347 139.625L489.236 131.308ZM488.818 131.641L490.874 139.745C490.896 139.831 490.844 139.918 490.759 139.94C490.673 139.962 490.586 139.91 490.564 139.824L488.543 131.86L481.75 128.38L481.896 128.095L488.818 131.641Z" fill="#C9D5DB"/>
<path d="M469.551 116.444C469.752 117.236 469.701 117.767 469.485 117.822C469.269 117.877 468.97 117.435 468.769 116.643C468.568 115.85 468.54 115.008 468.756 114.953C468.973 114.898 469.35 115.652 469.551 116.444Z" fill="#BCC2CB"/>
<path d="M471.641 115.925C471.842 116.717 471.791 117.248 471.574 117.303C471.358 117.357 471.06 116.916 470.859 116.123C470.658 115.331 470.63 114.488 470.846 114.433C471.062 114.379 471.44 115.132 471.641 115.925Z" fill="#BCC2CB"/>
<path d="M476.237 120.902C477.004 123.927 475.432 126.303 472.911 126.943C470.39 127.583 467.875 126.244 467.108 123.219C466.34 120.194 467.61 116.628 470.131 115.988C472.652 115.348 475.469 117.877 476.237 120.902Z" fill="#C7D3D9"/>
<g filter="url(#filter5_bd_4_11112)">
<path d="M484.385 130.022C486.085 136.721 482.633 141.974 477.087 143.381C471.541 144.789 466.001 141.818 464.301 135.119C462.601 128.421 465.385 120.531 470.931 119.124C476.477 117.716 482.685 123.324 484.385 130.022Z" fill="#C9D5DB"/>
</g>
<path fill-rule="evenodd" clip-rule="evenodd" d="M223.288 376.864C223.164 377.073 222.894 377.141 222.685 377.017L215.077 372.488L206.968 374.948L206.713 374.106L215.194 371.532L223.135 376.26C223.344 376.385 223.413 376.655 223.288 376.864Z" fill="#C9D5DB"/>
<path fill-rule="evenodd" clip-rule="evenodd" d="M223.518 377.003C223.318 377.338 222.885 377.448 222.55 377.248L215.044 372.779L206.792 375.283L206.382 373.932L215.23 371.247L223.272 376.035C223.607 376.235 223.717 376.668 223.518 377.003ZM222.822 376.792C222.905 376.841 223.012 376.814 223.061 376.731C223.11 376.648 223.083 376.541 223 376.492L215.16 371.824L207.045 374.286L207.146 374.62L215.114 372.202L222.822 376.792Z" fill="#C9D5DB"/>
<path fill-rule="evenodd" clip-rule="evenodd" d="M219.038 367.107C219.021 367.349 218.81 367.532 218.568 367.515L212.007 367.054L205.318 372.297L204.775 371.604L211.731 366.152L218.63 366.637C218.872 366.654 219.055 366.864 219.038 367.107Z" fill="#C9D5DB"/>
<path fill-rule="evenodd" clip-rule="evenodd" d="M219.302 367.121C219.275 367.51 218.937 367.803 218.549 367.775L212.09 367.321L205.273 372.665L204.402 371.554L211.647 365.875L218.648 366.367C219.036 366.394 219.33 366.732 219.302 367.121ZM218.586 367.245C218.682 367.252 218.765 367.18 218.772 367.083C218.779 366.987 218.706 366.904 218.61 366.897L211.814 366.419L205.148 371.645L205.363 371.92L211.923 366.777L218.586 367.245Z" fill="#C9D5DB"/>
<path fill-rule="evenodd" clip-rule="evenodd" d="M208.642 362.427L203.101 369.349L202.413 368.799L207.707 362.186L206.51 355.193C206.469 354.953 206.63 354.726 206.87 354.685C207.109 354.644 207.337 354.805 207.378 355.044L208.642 362.427Z" fill="#C9D5DB"/>
<path fill-rule="evenodd" clip-rule="evenodd" d="M208.925 362.507L203.144 369.73L202.042 368.847L207.427 362.12L206.25 355.245C206.184 354.861 206.442 354.496 206.827 354.43C207.211 354.364 207.576 354.623 207.641 355.007L208.925 362.507ZM208.361 362.362L207.118 355.096C207.101 355.001 207.011 354.938 206.916 354.954C206.821 354.97 206.757 355.06 206.774 355.155L207.991 362.266L202.788 368.765L203.061 368.983L208.361 362.362Z" fill="#C9D5DB"/>
<path fill-rule="evenodd" clip-rule="evenodd" d="M201.376 355.913L201.717 364.774L200.837 364.808L200.511 356.344L193.656 350.762C193.468 350.608 193.44 350.331 193.593 350.143C193.747 349.954 194.024 349.926 194.212 350.079L201.376 355.913Z" fill="#C9D5DB"/>
<path fill-rule="evenodd" clip-rule="evenodd" d="M201.632 355.781L201.987 365.027L200.577 365.081L200.245 356.472L193.484 350.966C193.182 350.72 193.136 350.275 193.382 349.973C193.628 349.67 194.073 349.625 194.375 349.871L201.632 355.781ZM201.11 356.041L194.04 350.283C193.965 350.222 193.855 350.233 193.794 350.308C193.733 350.383 193.745 350.493 193.819 350.554L200.767 356.212L201.087 364.53L201.436 364.517L201.11 356.041Z" fill="#C9D5DB"/>
<path fill-rule="evenodd" clip-rule="evenodd" d="M206.351 397.671C206.53 397.507 206.543 397.229 206.379 397.05L200.404 390.516L201.172 382.077L200.295 381.997L199.492 390.824L205.729 397.644C205.893 397.823 206.172 397.836 206.351 397.671Z" fill="#C9D5DB"/>
<path fill-rule="evenodd" clip-rule="evenodd" d="M206.521 397.868C206.809 397.605 206.829 397.159 206.566 396.871L200.67 390.424L201.452 381.837L200.046 381.709L199.207 390.917L205.524 397.824C205.787 398.111 206.234 398.131 206.521 397.868ZM206.174 397.23C206.239 397.301 206.234 397.411 206.163 397.476C206.092 397.541 205.981 397.536 205.916 397.465L199.758 390.732L200.527 382.287L200.874 382.318L200.119 390.61L206.174 397.23Z" fill="#C9D5DB"/>
<path fill-rule="evenodd" clip-rule="evenodd" d="M195.923 395.484C196.157 395.418 196.293 395.175 196.228 394.941L194.448 388.61L198.229 380.998L197.441 380.607L193.509 388.522L195.38 395.18C195.446 395.414 195.689 395.55 195.923 395.484Z" fill="#C9D5DB"/>
<path fill-rule="evenodd" clip-rule="evenodd" d="M195.995 395.74C196.37 395.635 196.589 395.245 196.483 394.87L194.732 388.637L198.585 380.879L197.321 380.251L193.225 388.496L195.124 395.252C195.23 395.627 195.619 395.846 195.995 395.74ZM195.972 395.014C195.998 395.106 195.944 395.203 195.851 395.229C195.758 395.255 195.662 395.201 195.636 395.108L193.792 388.549L197.56 380.963L197.873 381.118L194.165 388.584L195.972 395.014Z" fill="#C9D5DB"/>
<path fill-rule="evenodd" clip-rule="evenodd" d="M189.241 386.253L194.898 379.426L194.22 378.864L188.815 385.387L181.725 385.63C181.482 385.638 181.292 385.842 181.3 386.085C181.308 386.328 181.512 386.518 181.755 386.51L189.241 386.253Z" fill="#C9D5DB"/>
<path fill-rule="evenodd" clip-rule="evenodd" d="M189.368 386.504L195.271 379.38L194.184 378.479L188.686 385.114L181.715 385.353C181.325 385.367 181.02 385.693 181.034 386.083C181.047 386.473 181.374 386.778 181.763 386.764L189.368 386.504ZM189.112 385.981L181.745 386.233C181.649 386.237 181.568 386.161 181.565 386.065C181.561 385.968 181.637 385.888 181.733 385.884L188.943 385.637L194.254 379.227L194.523 379.45L189.112 385.981Z" fill="#C9D5DB"/>
<path fill-rule="evenodd" clip-rule="evenodd" d="M181.393 380.439L190.14 378.98L189.995 378.111L181.641 379.505L174.786 373.922C174.598 373.769 174.321 373.797 174.167 373.986C174.013 374.174 174.042 374.451 174.23 374.605L181.393 380.439Z" fill="#C9D5DB"/>
<path fill-rule="evenodd" clip-rule="evenodd" d="M181.316 380.733L190.443 379.21L190.211 377.818L181.713 379.236L174.952 373.729C174.649 373.482 174.205 373.528 173.959 373.83C173.713 374.132 173.758 374.577 174.06 374.823L181.316 380.733ZM181.465 380.17L174.396 374.411C174.321 374.35 174.31 374.24 174.371 374.166C174.432 374.091 174.541 374.08 174.616 374.141L181.564 379.799L189.774 378.429L189.832 378.774L181.465 380.17Z" fill="#C9D5DB"/>
<path d="M208.205 380.937C207.514 380.374 207.214 379.876 207.367 379.687C207.521 379.499 208.07 379.692 208.761 380.255C209.452 380.817 210.024 381.537 209.87 381.726C209.717 381.914 208.896 381.5 208.205 380.937Z" fill="#BCC2CB"/>
<path d="M206.731 382.763C206.04 382.2 205.74 381.701 205.894 381.513C206.047 381.324 206.596 381.517 207.287 382.08C207.978 382.643 208.55 383.363 208.397 383.552C208.243 383.74 207.422 383.326 206.731 382.763Z" fill="#BCC2CB"/>
<path d="M199.459 381.383C196.819 379.234 196.651 376.131 198.443 373.932C200.234 371.733 203.306 371.269 205.945 373.419C208.584 375.568 209.791 379.517 208 381.716C206.209 383.915 202.098 383.533 199.459 381.383Z" fill="#C7D3D9"/>
<g filter="url(#filter6_bd_4_11112)">
<path d="M186.4 378.703C180.556 373.943 180.163 367.099 184.104 362.261C188.045 357.422 194.826 356.422 200.67 361.181C206.514 365.941 209.207 374.658 205.266 379.497C201.325 384.335 192.243 383.462 186.4 378.703Z" fill="#C9D5DB"/>
</g>
<defs>
<filter id="filter0_dd_4_11112" x="0" y="122.485" width="412.803" height="225.005" filterUnits="userSpaceOnUse" color-interpolation-filters="sRGB">
<feFlood flood-opacity="0" result="BackgroundImageFix"/>
<feColorMatrix in="SourceAlpha" type="matrix" values="0 0 0 0 0 0 0 0 0 0 0 0 0 0 0 0 0 0 127 0" result="hardAlpha"/>
<feOffset dy="2"/>
<feGaussianBlur stdDeviation="12"/>
<feComposite in2="hardAlpha" operator="out"/>
<feColorMatrix type="matrix" values="0 0 0 0 0 0 0 0 0 0 0 0 0 0 0 0 0 0 0.15 0"/>
<feBlend mode="normal" in2="BackgroundImageFix" result="effect1_dropShadow_4_11112"/>
<feColorMatrix in="SourceAlpha" type="matrix" values="0 0 0 0 0 0 0 0 0 0 0 0 0 0 0 0 0 0 127 0" result="hardAlpha"/>
<feOffset dy="2"/>
<feGaussianBlur stdDeviation="3"/>
<feComposite in2="hardAlpha" operator="out"/>
<feColorMatrix type="matrix" values="0 0 0 0 0 0 0 0 0 0 0 0 0 0 0 0 0 0 0.1 0"/>
<feBlend mode="normal" in2="effect1_dropShadow_4_11112" result="effect2_dropShadow_4_11112"/>
<feBlend mode="normal" in="SourceGraphic" in2="effect2_dropShadow_4_11112" result="shape"/>
</filter>
<filter id="filter1_bd_4_11112" x="217.729" y="8.63306" width="33.6406" height="30.0986" filterUnits="userSpaceOnUse" color-interpolation-filters="sRGB">
<feFlood flood-opacity="0" result="BackgroundImageFix"/>
<feGaussianBlur in="BackgroundImageFix" stdDeviation="4"/>
<feComposite in2="SourceAlpha" operator="in" result="effect1_backgroundBlur_4_11112"/>
<feColorMatrix in="SourceAlpha" type="matrix" values="0 0 0 0 0 0 0 0 0 0 0 0 0 0 0 0 0 0 127 0" result="hardAlpha"/>
<feOffset dy="2"/>
<feGaussianBlur stdDeviation="6"/>
<feComposite in2="hardAlpha" operator="out"/>
<feColorMatrix type="matrix" values="0 0 0 0 0 0 0 0 0 0 0 0 0 0 0 0 0 0 0.15 0"/>
<feBlend mode="normal" in2="effect1_backgroundBlur_4_11112" result="effect2_dropShadow_4_11112"/>
<feBlend mode="normal" in="SourceGraphic" in2="effect2_dropShadow_4_11112" result="shape"/>
</filter>
<filter id="filter2_bd_4_11112" x="221.291" y="12.2467" width="35.3779" height="69.396" filterUnits="userSpaceOnUse" color-interpolation-filters="sRGB">
<feFlood flood-opacity="0" result="BackgroundImageFix"/>
<feGaussianBlur in="BackgroundImageFix" stdDeviation="4"/>
<feComposite in2="SourceAlpha" operator="in" result="effect1_backgroundBlur_4_11112"/>
<feColorMatrix in="SourceAlpha" type="matrix" values="0 0 0 0 0 0 0 0 0 0 0 0 0 0 0 0 0 0 127 0" result="hardAlpha"/>
<feOffset dy="2"/>
<feGaussianBlur stdDeviation="6"/>
<feComposite in2="hardAlpha" operator="out"/>
<feColorMatrix type="matrix" values="0 0 0 0 0 0 0 0 0 0 0 0 0 0 0 0 0 0 0.15 0"/>
<feBlend mode="normal" in2="effect1_backgroundBlur_4_11112" result="effect2_dropShadow_4_11112"/>
<feBlend mode="normal" in="SourceGraphic" in2="effect2_dropShadow_4_11112" result="shape"/>
</filter>
<filter id="filter3_bd_4_11112" x="297.75" y="467.452" width="33.3867" height="30.9568" filterUnits="userSpaceOnUse" color-interpolation-filters="sRGB">
<feFlood flood-opacity="0" result="BackgroundImageFix"/>
<feGaussianBlur in="BackgroundImageFix" stdDeviation="4"/>
<feComposite in2="SourceAlpha" operator="in" result="effect1_backgroundBlur_4_11112"/>
<feColorMatrix in="SourceAlpha" type="matrix" values="0 0 0 0 0 0 0 0 0 0 0 0 0 0 0 0 0 0 127 0" result="hardAlpha"/>
<feOffset dy="2"/>
<feGaussianBlur stdDeviation="6"/>
<feComposite in2="hardAlpha" operator="out"/>
<feColorMatrix type="matrix" values="0 0 0 0 0 0 0 0 0 0 0 0 0 0 0 0 0 0 0.15 0"/>
<feBlend mode="normal" in2="effect1_backgroundBlur_4_11112" result="effect2_dropShadow_4_11112"/>
<feBlend mode="normal" in="SourceGraphic" in2="effect2_dropShadow_4_11112" result="shape"/>
</filter>
<filter id="filter4_bd_4_11112" x="283.728" y="471.421" width="43.4785" height="66.9144" filterUnits="userSpaceOnUse" color-interpolation-filters="sRGB">
<feFlood flood-opacity="0" result="BackgroundImageFix"/>
<feGaussianBlur in="BackgroundImageFix" stdDeviation="4"/>
<feComposite in2="SourceAlpha" operator="in" result="effect1_backgroundBlur_4_11112"/>
<feColorMatrix in="SourceAlpha" type="matrix" values="0 0 0 0 0 0 0 0 0 0 0 0 0 0 0 0 0 0 127 0" result="hardAlpha"/>
<feOffset dy="2"/>
<feGaussianBlur stdDeviation="6"/>
<feComposite in2="hardAlpha" operator="out"/>
<feColorMatrix type="matrix" values="0 0 0 0 0 0 0 0 0 0 0 0 0 0 0 0 0 0 0.15 0"/>
<feBlend mode="normal" in2="effect1_backgroundBlur_4_11112" result="effect2_dropShadow_4_11112"/>
<feBlend mode="normal" in="SourceGraphic" in2="effect2_dropShadow_4_11112" result="shape"/>
</filter>
<filter id="filter5_bd_4_11112" x="451.806" y="108.906" width="45.0146" height="48.8176" filterUnits="userSpaceOnUse" color-interpolation-filters="sRGB">
<feFlood flood-opacity="0" result="BackgroundImageFix"/>
<feGaussianBlur in="BackgroundImageFix" stdDeviation="4"/>
<feComposite in2="SourceAlpha" operator="in" result="effect1_backgroundBlur_4_11112"/>
<feColorMatrix in="SourceAlpha" type="matrix" values="0 0 0 0 0 0 0 0 0 0 0 0 0 0 0 0 0 0 127 0" result="hardAlpha"/>
<feOffset dy="2"/>
<feGaussianBlur stdDeviation="6"/>
<feComposite in2="hardAlpha" operator="out"/>
<feColorMatrix type="matrix" values="0 0 0 0 0 0 0 0 0 0 0 0 0 0 0 0 0 0 0.15 0"/>
<feBlend mode="normal" in2="effect1_backgroundBlur_4_11112" result="effect2_dropShadow_4_11112"/>
<feBlend mode="normal" in="SourceGraphic" in2="effect2_dropShadow_4_11112" result="shape"/>
</filter>
<filter id="filter6_bd_4_11112" x="169.513" y="348.08" width="49.6133" height="48.6461" filterUnits="userSpaceOnUse" color-interpolation-filters="sRGB">
<feFlood flood-opacity="0" result="BackgroundImageFix"/>
<feGaussianBlur in="BackgroundImageFix" stdDeviation="4"/>
<feComposite in2="SourceAlpha" operator="in" result="effect1_backgroundBlur_4_11112"/>
<feColorMatrix in="SourceAlpha" type="matrix" values="0 0 0 0 0 0 0 0 0 0 0 0 0 0 0 0 0 0 127 0" result="hardAlpha"/>
<feOffset dy="2"/>
<feGaussianBlur stdDeviation="6"/>
<feComposite in2="hardAlpha" operator="out"/>
<feColorMatrix type="matrix" values="0 0 0 0 0 0 0 0 0 0 0 0 0 0 0 0 0 0 0.15 0"/>
<feBlend mode="normal" in2="effect1_backgroundBlur_4_11112" result="effect2_dropShadow_4_11112"/>
<feBlend mode="normal" in="SourceGraphic" in2="effect2_dropShadow_4_11112" result="shape"/>
</filter>
</defs>
</svg>
