<svg width="659" height="388" viewBox="0 0 659 388" fill="none" xmlns="http://www.w3.org/2000/svg">
<g filter="url(#filter0_dd_4_11108)">
<path fill-rule="evenodd" clip-rule="evenodd" d="M534.705 193.176C533.702 192.122 532.659 191.103 531.577 190.12C533.818 190.303 536.046 190.363 538.252 190.306C538.468 190.908 538.694 191.505 538.933 192.097C537.507 192.406 536.096 192.766 534.705 193.176ZM633.876 184.672C639.071 159.036 622.438 133.92 596.532 127.726C594.762 101.587 575.27 78.6496 547.709 73.0646C534.169 70.321 520.793 72.1927 509.288 77.58C498.466 66.8585 484.398 59.0298 468.215 55.7505C438.438 49.7166 409.263 60.6572 391.189 81.8073C379.953 69.0059 364.453 59.5934 346.288 55.9125C323.522 51.299 301.106 56.6089 283.736 68.8182C272.146 47.6123 251.325 31.363 225.393 26.108C201.82 21.3313 178.602 26.5663 160.353 38.8403C150.683 31.7578 139.314 26.5883 126.728 24.0378C81.2789 14.828 37.1632 43.2504 28.1922 87.5209C22.4134 116.038 32.6274 144.175 52.7761 163.051C39.2846 173.942 29.4213 189.275 25.7484 207.4C17.2114 249.529 45.3519 290.786 88.6019 299.551C117.876 305.483 146.568 295.008 164.703 274.556C174.331 283.881 186.737 290.685 200.966 293.569C212.962 295.999 224.849 295.359 235.774 292.198C247.187 307.815 264.427 319.455 285.13 323.65C312.344 329.165 339.056 320.501 357.25 302.822C367.722 312.379 380.92 319.343 395.941 322.386C417.724 326.8 439.186 322.13 456.215 311.024C460.78 335.14 479.915 355.414 506.017 360.703C540.176 367.625 573.334 346.263 580.076 312.989C581.025 308.307 581.4 303.639 581.249 299.053C595.781 291.21 606.78 277.411 610.263 260.222C613.155 245.954 610.366 231.821 603.425 220.062C618.59 214.341 630.482 201.422 633.876 184.672Z" fill="white" fill-opacity="0.9" shape-rendering="crispEdges"/>
</g>
<g filter="url(#filter1_dd_4_11108)">
<path fill-rule="evenodd" clip-rule="evenodd" d="M292.191 143.207C283.221 128.254 267.138 117.663 248.106 116.177C227.671 114.582 208.967 123.882 197.994 139.08C188.354 129.892 175.489 123.81 161.02 122.68C138.076 120.889 117.184 132.026 105.87 149.824C101.211 147.979 96.1898 146.788 90.916 146.376C63.2608 144.217 39.1369 164.304 37.0337 191.243C35.9927 204.576 40.5418 217.089 48.7557 226.589C42.4137 234.659 38.323 244.56 37.4713 255.468C35.1268 285.497 58.2174 311.792 89.0456 314.198C105.973 315.52 121.713 309.365 132.855 298.574C141.25 308.786 153.781 315.736 168.198 316.861C182.744 317.997 196.312 312.979 206.213 304.046C215.116 311.974 226.685 317.186 239.615 318.195C254.654 319.37 268.757 314.642 279.529 306.005C286.952 310.552 295.575 313.47 304.907 314.198C318.368 315.249 331.078 311.572 341.322 304.596C346.82 314.168 356.962 320.986 369.009 321.926C386.398 323.284 401.77 311.927 405.519 295.854C407.005 296.109 408.517 296.298 410.051 296.418C436.396 298.475 459.377 279.339 461.381 253.677C462.645 237.493 455.264 222.58 443.032 213.254C443.397 211.669 443.649 210.038 443.779 208.37C445.234 189.736 430.948 173.414 411.845 171.84C410.866 155.119 397.316 141.223 379.711 139.849C371.15 139.181 363.077 141.586 356.632 146.115C348.282 139.807 338.022 135.715 326.722 134.832C314.074 133.845 302.09 137.031 292.191 143.207Z" fill="#C4DFFE"/>
</g>
<g filter="url(#filter2_dd_4_11108)">
<path fill-rule="evenodd" clip-rule="evenodd" d="M534.705 193.176C533.702 192.122 532.659 191.103 531.577 190.12C533.818 190.303 536.046 190.363 538.252 190.306C538.468 190.908 538.694 191.505 538.933 192.097C537.507 192.406 536.096 192.766 534.705 193.176ZM633.876 184.672C639.071 159.036 622.438 133.92 596.532 127.726C594.762 101.587 575.27 78.6496 547.709 73.0646C534.169 70.321 520.793 72.1927 509.288 77.58C498.466 66.8585 484.398 59.0298 468.215 55.7505C438.438 49.7166 409.263 60.6572 391.189 81.8073C379.953 69.0059 364.453 59.5934 346.288 55.9125C323.522 51.299 301.106 56.6089 283.736 68.8182C272.146 47.6123 251.325 31.363 225.393 26.108C201.82 21.3313 178.602 26.5663 160.353 38.8403C150.683 31.7578 139.314 26.5883 126.728 24.0378C81.2789 14.828 37.1632 43.2504 28.1922 87.5209C22.4134 116.038 32.6274 144.175 52.7761 163.051C39.2846 173.942 29.4213 189.275 25.7484 207.4C17.2114 249.529 45.3519 290.786 88.6019 299.551C117.876 305.483 146.568 295.008 164.703 274.556C174.331 283.881 186.737 290.685 200.966 293.569C212.962 295.999 224.849 295.359 235.774 292.198C247.187 307.815 264.427 319.455 285.13 323.65C312.344 329.165 339.056 320.501 357.25 302.822C367.722 312.379 380.92 319.343 395.941 322.386C417.724 326.8 439.186 322.13 456.215 311.024C460.78 335.14 479.915 355.414 506.017 360.703C540.176 367.625 573.334 346.263 580.076 312.989C581.025 308.307 581.4 303.639 581.249 299.053C595.781 291.21 606.78 277.411 610.263 260.222C613.155 245.954 610.366 231.821 603.425 220.062C618.59 214.341 630.482 201.422 633.876 184.672Z" fill="white" fill-opacity="0.9" shape-rendering="crispEdges"/>
</g>
<g filter="url(#filter3_dd_4_11108)">
<path fill-rule="evenodd" clip-rule="evenodd" d="M292.191 143.207C283.221 128.254 267.138 117.663 248.106 116.177C227.671 114.582 208.967 123.882 197.994 139.08C188.354 129.892 175.489 123.81 161.02 122.68C138.076 120.889 117.184 132.026 105.87 149.824C101.211 147.979 96.1898 146.788 90.916 146.376C63.2608 144.217 39.1369 164.304 37.0337 191.243C35.9927 204.576 40.5418 217.089 48.7557 226.589C42.4137 234.659 38.323 244.56 37.4713 255.468C35.1268 285.497 58.2174 311.792 89.0456 314.198C105.973 315.52 121.713 309.365 132.855 298.574C141.25 308.786 153.781 315.736 168.198 316.861C182.744 317.997 196.312 312.979 206.213 304.046C215.116 311.974 226.685 317.186 239.615 318.195C254.654 319.37 268.757 314.642 279.529 306.005C286.952 310.552 295.575 313.47 304.907 314.198C318.368 315.249 331.078 311.572 341.322 304.596C346.82 314.168 356.962 320.986 369.009 321.926C386.398 323.284 401.77 311.927 405.519 295.854C407.005 296.109 408.517 296.298 410.051 296.418C436.396 298.475 459.377 279.339 461.381 253.677C462.645 237.493 455.264 222.58 443.032 213.254C443.397 211.669 443.649 210.038 443.779 208.37C445.234 189.736 430.948 173.414 411.845 171.84C410.866 155.119 397.316 141.223 379.711 139.849C371.15 139.181 363.077 141.586 356.632 146.115C348.282 139.807 338.022 135.715 326.722 134.832C314.074 133.845 302.09 137.031 292.191 143.207Z" fill="#C4DFFE"/>
</g>
<defs>
<filter id="filter0_dd_4_11108" x="0.222656" y="0.305176" width="658.603" height="387.701" filterUnits="userSpaceOnUse" color-interpolation-filters="sRGB">
<feFlood flood-opacity="0" result="BackgroundImageFix"/>
<feColorMatrix in="SourceAlpha" type="matrix" values="0 0 0 0 0 0 0 0 0 0 0 0 0 0 0 0 0 0 127 0" result="hardAlpha"/>
<feOffset dy="2"/>
<feGaussianBlur stdDeviation="12"/>
<feComposite in2="hardAlpha" operator="out"/>
<feColorMatrix type="matrix" values="0 0 0 0 0 0 0 0 0 0 0 0 0 0 0 0 0 0 0.15 0"/>
<feBlend mode="normal" in2="BackgroundImageFix" result="effect1_dropShadow_4_11108"/>
<feColorMatrix in="SourceAlpha" type="matrix" values="0 0 0 0 0 0 0 0 0 0 0 0 0 0 0 0 0 0 127 0" result="hardAlpha"/>
<feOffset dy="2"/>
<feGaussianBlur stdDeviation="3"/>
<feComposite in2="hardAlpha" operator="out"/>
<feColorMatrix type="matrix" values="0 0 0 0 0 0 0 0 0 0 0 0 0 0 0 0 0 0 0.1 0"/>
<feBlend mode="normal" in2="effect1_dropShadow_4_11108" result="effect2_dropShadow_4_11108"/>
<feBlend mode="normal" in="SourceGraphic" in2="effect2_dropShadow_4_11108" result="shape"/>
</filter>
<filter id="filter1_dd_4_11108" x="12.8867" y="94" width="472.635" height="254.036" filterUnits="userSpaceOnUse" color-interpolation-filters="sRGB">
<feFlood flood-opacity="0" result="BackgroundImageFix"/>
<feColorMatrix in="SourceAlpha" type="matrix" values="0 0 0 0 0 0 0 0 0 0 0 0 0 0 0 0 0 0 127 0" result="hardAlpha"/>
<feOffset dy="2"/>
<feGaussianBlur stdDeviation="12"/>
<feComposite in2="hardAlpha" operator="out"/>
<feColorMatrix type="matrix" values="0 0 0 0 0 0 0 0 0 0 0 0 0 0 0 0 0 0 0.15 0"/>
<feBlend mode="normal" in2="BackgroundImageFix" result="effect1_dropShadow_4_11108"/>
<feColorMatrix in="SourceAlpha" type="matrix" values="0 0 0 0 0 0 0 0 0 0 0 0 0 0 0 0 0 0 127 0" result="hardAlpha"/>
<feOffset dy="2"/>
<feGaussianBlur stdDeviation="3"/>
<feComposite in2="hardAlpha" operator="out"/>
<feColorMatrix type="matrix" values="0 0 0 0 0 0 0 0 0 0 0 0 0 0 0 0 0 0 0.1 0"/>
<feBlend mode="normal" in2="effect1_dropShadow_4_11108" result="effect2_dropShadow_4_11108"/>
<feBlend mode="normal" in="SourceGraphic" in2="effect2_dropShadow_4_11108" result="shape"/>
</filter>
<filter id="filter2_dd_4_11108" x="0.222656" y="0.305176" width="658.603" height="387.701" filterUnits="userSpaceOnUse" color-interpolation-filters="sRGB">
<feFlood flood-opacity="0" result="BackgroundImageFix"/>
<feColorMatrix in="SourceAlpha" type="matrix" values="0 0 0 0 0 0 0 0 0 0 0 0 0 0 0 0 0 0 127 0" result="hardAlpha"/>
<feOffset dy="2"/>
<feGaussianBlur stdDeviation="12"/>
<feComposite in2="hardAlpha" operator="out"/>
<feColorMatrix type="matrix" values="0 0 0 0 0 0 0 0 0 0 0 0 0 0 0 0 0 0 0.15 0"/>
<feBlend mode="normal" in2="BackgroundImageFix" result="effect1_dropShadow_4_11108"/>
<feColorMatrix in="SourceAlpha" type="matrix" values="0 0 0 0 0 0 0 0 0 0 0 0 0 0 0 0 0 0 127 0" result="hardAlpha"/>
<feOffset dy="2"/>
<feGaussianBlur stdDeviation="3"/>
<feComposite in2="hardAlpha" operator="out"/>
<feColorMatrix type="matrix" values="0 0 0 0 0 0 0 0 0 0 0 0 0 0 0 0 0 0 0.1 0"/>
<feBlend mode="normal" in2="effect1_dropShadow_4_11108" result="effect2_dropShadow_4_11108"/>
<feBlend mode="normal" in="SourceGraphic" in2="effect2_dropShadow_4_11108" result="shape"/>
</filter>
<filter id="filter3_dd_4_11108" x="12.8867" y="94" width="472.635" height="254.036" filterUnits="userSpaceOnUse" color-interpolation-filters="sRGB">
<feFlood flood-opacity="0" result="BackgroundImageFix"/>
<feColorMatrix in="SourceAlpha" type="matrix" values="0 0 0 0 0 0 0 0 0 0 0 0 0 0 0 0 0 0 127 0" result="hardAlpha"/>
<feOffset dy="2"/>
<feGaussianBlur stdDeviation="12"/>
<feComposite in2="hardAlpha" operator="out"/>
<feColorMatrix type="matrix" values="0 0 0 0 0 0 0 0 0 0 0 0 0 0 0 0 0 0 0.15 0"/>
<feBlend mode="normal" in2="BackgroundImageFix" result="effect1_dropShadow_4_11108"/>
<feColorMatrix in="SourceAlpha" type="matrix" values="0 0 0 0 0 0 0 0 0 0 0 0 0 0 0 0 0 0 127 0" result="hardAlpha"/>
<feOffset dy="2"/>
<feGaussianBlur stdDeviation="3"/>
<feComposite in2="hardAlpha" operator="out"/>
<feColorMatrix type="matrix" values="0 0 0 0 0 0 0 0 0 0 0 0 0 0 0 0 0 0 0.1 0"/>
<feBlend mode="normal" in2="effect1_dropShadow_4_11108" result="effect2_dropShadow_4_11108"/>
<feBlend mode="normal" in="SourceGraphic" in2="effect2_dropShadow_4_11108" result="shape"/>
</filter>
</defs>
</svg>
