<svg width="1398" height="778" viewBox="0 0 1398 778" fill="none" xmlns="http://www.w3.org/2000/svg">
<circle cx="1212.92" cy="155.75" r="30.5" fill="#FA78C3"/>
<ellipse cx="501.347" cy="598.5" rx="19" ry="18.5" fill="#FA78C3"/>
<path d="M778.258 97.9984C796.468 106.214 817.89 98.1126 826.106 79.9025C834.322 61.6923 826.221 40.2697 808.01 32.0536C789.8 23.8376 768.378 31.9395 760.162 50.1496C751.946 68.3598 760.048 89.7824 778.258 97.9984Z" fill="#2D2D2D"/>
<path d="M780.711 55.5645C785.944 58.0136 791.924 56.0043 794.068 51.0764C796.211 46.1486 793.707 40.1684 788.473 37.7192C783.24 35.2701 777.259 37.2795 775.116 42.2073C772.972 47.1351 775.477 53.1153 780.711 55.5645Z" fill="white"/>
<path d="M782.363 51.721C785.222 53.0227 788.562 51.7934 789.822 48.9754C791.082 46.1573 789.786 42.8177 786.926 41.516C784.067 40.2144 780.727 41.4437 779.467 44.2617C778.207 47.0797 779.504 50.4194 782.363 51.721Z" fill="black"/>
<path d="M781.066 45.5863C783.239 46.6034 785.723 45.769 786.613 43.7226C787.503 41.6763 786.463 39.193 784.289 38.176C782.116 37.1589 779.633 37.9933 778.743 40.0397C777.853 42.086 778.893 44.5693 781.066 45.5863Z" fill="white"/>
<path d="M808.743 68.2114C813.976 70.6606 819.957 68.6512 822.1 63.7234C824.244 58.7956 821.739 52.8154 816.505 50.3662C811.272 47.9171 805.292 49.9264 803.148 54.8543C801.005 59.7821 803.51 65.7623 808.743 68.2114Z" fill="white"/>
<path d="M810.396 64.367C813.255 65.6687 816.595 64.4394 817.855 61.6214C819.115 58.8033 817.819 55.4637 814.959 54.162C812.1 52.8604 808.761 54.0896 807.501 56.9077C806.24 59.7257 807.537 63.0654 810.396 64.367Z" fill="black"/>
<path d="M809.098 58.2333C811.272 59.2503 813.755 58.4159 814.645 56.3696C815.535 54.3233 814.495 51.84 812.322 50.8229C810.148 49.8059 807.665 50.6403 806.775 52.6866C805.885 54.7329 806.925 57.2163 809.098 58.2333Z" fill="white"/>
<path d="M767.589 73.2591C775.041 76.6211 783.807 73.3058 787.169 65.8542C790.531 58.4026 787.215 49.6364 779.764 46.2744C772.312 42.9124 763.546 46.2277 760.184 53.6793C756.822 61.131 760.137 69.8971 767.589 73.2591Z" fill="#2D2D2D"/>
<path d="M803.95 89.6644C811.402 93.0264 820.168 89.7111 823.53 82.2595C826.892 74.8079 823.577 66.0417 816.125 62.6797C808.674 59.3177 799.907 62.633 796.545 70.0846C793.183 77.5362 796.499 86.3024 803.95 89.6644Z" fill="#2D2D2D"/>
<path d="M795.556 60.2278C787.114 56.3005 777.682 59.0299 774.49 66.3237L779.027 98.003L795.556 60.228L795.556 60.2278Z" fill="#C7EAFB"/>
<path d="M804.289 79.9855L804.289 79.9853C807.48 72.6914 803.224 63.5947 794.782 59.6675L778.253 97.4424L804.29 79.9858L804.289 79.9855Z" fill="#6E00FF"/>
<path d="M832.485 67.3586C832.511 66.7451 832.982 66.243 833.593 66.1788L842.393 65.253C844.027 65.0812 845.389 66.4873 845.165 68.1147V68.1147C844.968 69.547 843.613 70.5232 842.192 70.2568L833.494 68.6262C832.89 68.5129 832.46 67.973 832.485 67.3586V67.3586Z" fill="#F8B552"/>
<path d="M764.903 35.6606C764.577 36.3299 763.81 36.6594 763.101 36.4348L752.872 33.1967C750.973 32.5956 750.142 30.3728 751.179 28.6729V28.6729C752.093 27.1769 754.072 26.749 755.522 27.734L764.397 33.7629C765.013 34.1819 765.229 34.9901 764.903 35.6606V35.6606Z" fill="#F8B552"/>
<path d="M842.128 52.9379C842.066 52.2029 842.532 51.5268 843.242 51.3241L859.221 46.7582C861.433 46.1261 863.616 47.8416 863.526 50.1405V50.1405C863.457 51.8776 862.082 53.2791 860.346 53.3804L843.755 54.3486C842.92 54.3973 842.198 53.7716 842.128 52.9379V52.9379Z" fill="#F8B552"/>
<path d="M762.149 22.0037C761.638 22.2207 761.044 22.0536 760.721 21.6018L751.875 9.2442C750.793 7.73141 751.554 5.60279 753.35 5.11961V5.11961C754.609 4.78113 755.928 5.40253 756.468 6.5886L762.766 20.4188C763.043 21.0266 762.764 21.743 762.149 22.0037V22.0037Z" fill="#F8B552"/>
<path d="M837.928 77.5143C838.5 76.8443 839.484 76.7122 840.213 77.2076L846.652 81.5861C848.318 82.7192 848.549 85.0859 847.133 86.5193V86.5193C845.702 87.9672 843.304 87.744 842.166 86.0569L837.809 79.6026C837.375 78.959 837.423 78.1047 837.928 77.5143V77.5143Z" fill="#F8B552"/>
<path d="M761.119 42.5189C761.229 43.1653 760.835 43.7908 760.204 43.9705L754.631 45.5593C753.189 45.9705 751.727 44.973 751.584 43.4801V43.4801C751.439 41.9721 752.711 40.709 754.218 40.8636L759.983 41.455C760.558 41.5139 761.023 41.9492 761.119 42.5189V42.5189Z" fill="#F8B552"/>
<path d="M745.133 10.407C745.67 9.8304 746.63 10.2823 746.564 11.0809L746.375 13.4007C746.346 13.76 746.543 14.1027 746.867 14.2541L749.003 15.254C749.752 15.6041 749.621 16.7241 748.816 16.8577L746.717 17.2061C746.346 17.2677 746.067 17.5774 746.038 17.9603L745.871 20.1274C745.808 20.9382 744.768 21.1813 744.343 20.4847L743.049 18.3641C742.869 18.0697 742.534 17.9127 742.202 17.9668L739.78 18.3622C738.996 18.4902 738.486 17.522 739.03 16.9377L740.493 15.3657C740.75 15.0894 740.79 14.6674 740.589 14.3385L739.452 12.4755C739.016 11.7614 739.739 10.9186 740.487 11.2688L742.626 12.2698C742.948 12.4207 743.325 12.3487 743.566 12.0903L745.133 10.407Z" fill="#F8B552"/>
<path d="M777.787 5.75804C778.324 5.18147 779.284 5.6334 779.219 6.43194L779.029 8.75179C779 9.11105 779.197 9.45379 779.521 9.60522L781.658 10.6051C782.406 10.9552 782.275 12.0752 781.47 12.2087L779.371 12.5572C779 12.6187 778.721 12.9285 778.692 13.3114L778.525 15.4785C778.462 16.2892 777.423 16.5324 776.997 15.8357L775.703 13.7152C775.523 13.4208 775.189 13.2638 774.857 13.3179L772.434 13.7133C771.65 13.8413 771.14 12.873 771.684 12.2888L773.147 10.7168C773.405 10.4405 773.444 10.0185 773.243 9.68955L772.106 7.8266C771.67 7.11243 772.393 6.26968 773.141 6.61984L775.28 7.62091C775.603 7.77174 775.98 7.69973 776.22 7.44137L777.787 5.75804Z" fill="#F8B552"/>
<path d="M740.125 43.8537C740.662 43.2772 741.622 43.7291 741.557 44.5276L741.367 46.8475C741.338 47.2068 741.535 47.5495 741.859 47.7009L743.995 48.7008C744.744 49.0509 744.613 50.1709 743.808 50.3045L741.709 50.6529C741.338 50.7144 741.059 51.0242 741.03 51.4071L740.863 53.5742C740.8 54.3849 739.761 54.6281 739.335 53.9314L738.041 51.8109C737.861 51.5165 737.527 51.3595 737.195 51.4136L734.772 51.809C733.988 51.937 733.478 50.9687 734.022 50.3845L735.485 48.8125C735.742 48.5362 735.782 48.1142 735.581 47.7853L734.444 45.9223C734.008 45.2081 734.731 44.3654 735.479 44.7155L737.618 45.7166C737.941 45.8674 738.318 45.7954 738.558 45.5371L740.125 43.8537Z" fill="#F8B552"/>
<path d="M832.579 83.1496C833.116 82.5731 834.076 83.025 834.011 83.8235L833.821 86.1434C833.792 86.5027 833.989 86.8454 834.313 86.9968L836.45 87.9967C837.198 88.3468 837.067 89.4668 836.262 89.6003L834.163 89.9488C833.792 90.0103 833.513 90.3201 833.484 90.703L833.317 92.8701C833.254 93.6808 832.215 93.924 831.789 93.2273L830.495 91.1068C830.315 90.8124 829.981 90.6554 829.649 90.7095L827.226 91.1049C826.442 91.2329 825.932 90.2646 826.476 89.6804L827.939 88.1084C828.197 87.8321 828.236 87.4101 828.035 87.0812L826.898 85.2182C826.462 84.504 827.185 83.6613 827.933 84.0114L830.072 85.0125C830.395 85.1633 830.772 85.0913 831.012 84.833L832.579 83.1496Z" fill="#F8B552"/>
<path d="M837.065 39.1706C837.601 38.5941 838.561 39.046 838.496 39.8445L838.306 42.1644C838.277 42.5236 838.475 42.8664 838.798 43.0178L840.935 44.0177C841.683 44.3678 841.552 45.4878 840.748 45.6213L838.648 45.9698C838.278 46.0313 837.999 46.3411 837.969 46.724L837.802 48.8911C837.74 49.7018 836.7 49.945 836.275 49.2483L834.98 47.1278C834.801 46.8334 834.466 46.6763 834.134 46.7305L831.712 47.1259C830.927 47.2539 830.417 46.2856 830.961 45.7014L832.425 44.1294C832.682 43.8531 832.721 43.4311 832.52 43.1021L831.383 41.2392C830.947 40.525 831.67 39.6823 832.419 40.0324L834.558 41.0335C834.88 41.1843 835.257 41.1123 835.498 40.854L837.065 39.1706Z" fill="#F8B552"/>
<path d="M1344.03 252.639C1359.44 248.202 1368.33 232.118 1363.89 216.714C1359.45 201.31 1343.37 192.42 1327.96 196.857C1312.56 201.294 1303.67 217.378 1308.11 232.782C1312.54 248.186 1328.63 257.076 1344.03 252.639Z" fill="#2D2D2D"/>
<path d="M1323.24 225.503C1327.65 224.141 1330.32 219.651 1329.2 215.474C1328.07 211.298 1323.58 209.016 1319.17 210.378C1314.75 211.74 1312.09 216.23 1313.21 220.406C1314.33 224.583 1318.82 226.865 1323.24 225.503Z" fill="white"/>
<path d="M1322.22 221.726C1324.43 221.045 1325.76 218.8 1325.2 216.712C1324.64 214.623 1322.39 213.483 1320.19 214.164C1317.98 214.844 1316.65 217.089 1317.21 219.178C1317.77 221.266 1320.01 222.407 1322.22 221.726Z" fill="#231F20"/>
<path d="M1346.93 218.681C1351.35 217.319 1354.02 212.829 1352.89 208.652C1351.77 204.475 1347.28 202.194 1342.86 203.555C1338.45 204.917 1335.78 209.407 1336.9 213.584C1338.03 217.761 1342.52 220.043 1346.93 218.681Z" fill="white"/>
<path d="M1345.92 214.903C1348.12 214.223 1349.46 211.978 1348.9 209.889C1348.34 207.801 1346.09 206.66 1343.88 207.341C1341.68 208.022 1340.34 210.267 1340.9 212.355C1341.46 214.444 1343.71 215.584 1345.92 214.903Z" fill="#231F20"/>
<path d="M1335.34 220.217C1328.2 222.401 1323.77 229.182 1325.45 235.363L1344.03 252.229L1335.34 220.217L1335.34 220.217Z" fill="#C7EAFB"/>
<path d="M1350.66 227.871L1350.66 227.871C1348.98 221.69 1341.83 218.449 1334.69 220.633L1343.38 252.644L1350.66 227.871L1350.66 227.871Z" fill="#6E00FF"/>
<path d="M1312.39 220.503C1310.98 215.63 1313.8 210.543 1318.67 209.14C1323.54 207.737 1328.63 210.549 1330.03 215.421L1312.39 220.503L1312.39 220.503Z" fill="#FA03FF"/>
<path d="M1336.08 213.683C1334.68 208.811 1337.49 203.724 1342.36 202.321C1347.23 200.917 1352.32 203.73 1353.72 208.602L1336.08 213.684L1336.08 213.683Z" fill="#FA03FF"/>
<path d="M1267.91 465.775C1272.39 467.195 1277.17 464.718 1278.59 460.243C1280.01 455.768 1277.53 450.99 1273.06 449.57C1268.58 448.151 1263.8 450.628 1262.38 455.103C1260.96 459.577 1263.44 464.356 1267.91 465.775Z" fill="#FF5A00"/>
<path d="M1035.32 486.326C1040.25 486.326 1044.24 482.332 1044.24 477.405C1044.24 472.478 1040.25 468.484 1035.32 468.484C1030.4 468.484 1026.4 472.478 1026.4 477.405C1026.4 482.332 1030.4 486.326 1035.32 486.326Z" fill="#0082FF"/>
<path d="M1014.58 757.164C1035.75 765.561 1059.72 755.207 1068.12 734.037C1076.51 712.866 1066.16 688.896 1044.99 680.498C1023.82 672.101 999.849 682.455 991.451 703.626C983.053 724.796 993.407 748.766 1014.58 757.164Z" fill="#2D2D2D"/>
<path d="M1040.74 731.684C1044.1 722.869 1039.77 712.811 1031.05 709.22L999.093 712.705C998.172 712.805 998.016 714.095 998.882 714.452L1040.74 731.685L1040.74 731.684Z" fill="#C7EAFB"/>
<path d="M1018.25 742.064L1018.25 742.063C1026.97 745.654 1036.77 741.418 1040.14 732.603L998.289 715.369C997.423 715.012 996.685 716.062 997.289 716.791L1018.25 742.064L1018.25 742.064Z" fill="#6E00FF"/>
<path d="M1022.04 690.195C1027.88 692.509 1030.75 699.094 1028.45 704.894C1028.16 705.622 1027.35 705.966 1026.62 705.675C1025.89 705.385 1025.54 704.584 1025.83 703.856C1027.56 699.487 1025.38 694.528 1021.01 692.795C1016.64 691.062 1011.65 693.203 1009.92 697.547C1009.63 698.275 1008.83 698.619 1008.1 698.328C1007.37 698.038 1007.02 697.237 1007.31 696.509C1009.61 690.709 1016.21 687.88 1022.04 690.195Z" fill="white"/>
<path d="M1054.61 703.11C1060.45 705.424 1063.31 712.009 1061.01 717.809C1060.73 718.537 1059.92 718.881 1059.19 718.591C1058.46 718.3 1058.11 717.499 1058.4 716.771C1060.13 712.402 1057.95 707.443 1053.58 705.71C1049.21 703.977 1044.21 706.119 1042.49 710.462C1042.2 711.19 1041.4 711.534 1040.67 711.243C1039.93 710.953 1039.59 710.152 1039.88 709.424C1042.18 703.624 1048.78 700.795 1054.61 703.11Z" fill="white"/>
<path d="M985.045 703.772C986.198 700.866 984.785 697.547 981.856 696.385C978.927 695.223 975.632 696.646 974.47 699.577C973.308 702.508 974.73 705.802 977.659 706.964L979.422 707.664L997.023 714.645" stroke="#00C800" stroke-width="1.75802" stroke-linecap="round" stroke-linejoin="round"/>
<path d="M1067.23 708.083L1039.12 680.159L1084.48 664.6L1067.23 708.083Z" fill="#00C800" stroke="#00C800" stroke-width="0.0775596" stroke-linecap="round" stroke-linejoin="round"/>
<path d="M1081.5 672.114C1085.65 673.76 1090.35 671.731 1091.99 667.582C1093.64 663.434 1091.61 658.737 1087.46 657.091C1083.31 655.445 1078.61 657.474 1076.97 661.623C1075.32 665.772 1077.35 670.469 1081.5 672.114Z" fill="#6E00FF"/>
<path d="M1082.85 718.498C1084.61 719.929 1087.19 719.668 1088.62 717.916C1090.05 716.163 1089.79 713.582 1088.04 712.15C1086.28 710.719 1083.7 710.98 1082.27 712.732C1080.84 714.485 1081.1 717.066 1082.85 718.498Z" fill="#FF5A00"/>
<path d="M1062.77 737.964C1064.52 739.396 1067.1 739.135 1068.54 737.382C1069.97 735.63 1069.71 733.048 1067.95 731.617C1066.2 730.186 1063.62 730.446 1062.19 732.199C1060.76 733.952 1061.02 736.533 1062.77 737.964Z" fill="#FF00FF"/>
<path d="M1008.17 672.54C1010.24 673.362 1012.59 672.348 1013.41 670.274C1014.24 668.199 1013.22 665.851 1011.15 665.028C1009.07 664.205 1006.73 665.22 1005.9 667.294C1005.08 669.368 1006.09 671.717 1008.17 672.54Z" fill="#0082FF"/>
<path d="M1025.48 670.573C1027.55 671.396 1029.89 670.405 1030.7 668.36C1031.51 666.315 1030.49 663.99 1028.42 663.168C1026.34 662.345 1024 663.336 1023.19 665.381C1022.38 667.426 1023.4 669.751 1025.48 670.573Z" fill="#00C800"/>
<path d="M1331.28 674.563L1341.43 674.719L1340.81 670.548L1334.72 670.453L1333.25 662.358L1325.13 662.232L1323.67 654.137L1313.52 653.979L1314.14 658.151L1320.23 658.246L1321.7 666.341L1329.82 666.468L1331.28 674.563Z" fill="#FF5A00"/>
<path d="M485.424 71.6536L489.93 58.6058L484.276 57.6407L481.57 65.4735L470.49 63.9312L466.883 74.3719L455.801 72.8303L451.293 85.8778L456.948 86.8441L459.655 79.0094L470.736 80.5509L474.344 70.1113L485.424 71.6536Z" fill="#FF5A00"/>
<path d="M1081.25 103.262C1086.18 103.262 1090.17 99.3243 1090.17 94.4669C1090.17 89.6095 1086.18 85.6719 1081.25 85.6719C1076.33 85.6719 1072.33 89.6095 1072.33 94.4669C1072.33 99.3243 1076.33 103.262 1081.25 103.262Z" fill="#00C800"/>
<path d="M1388.27 637.59C1393.19 637.59 1397.19 633.652 1397.19 628.795C1397.19 623.938 1393.19 620 1388.27 620C1383.34 620 1379.35 623.938 1379.35 628.795C1379.35 633.652 1383.34 637.59 1388.27 637.59Z" fill="#00C800"/>
<path d="M1081.25 223.498C1086.18 223.498 1090.17 219.504 1090.17 214.577C1090.17 209.65 1086.18 205.656 1081.25 205.656C1076.33 205.656 1072.33 209.65 1072.33 214.577C1072.33 219.504 1076.33 223.498 1081.25 223.498Z" fill="#0082FF"/>
<path d="M420.707 625.78L429.264 620.32L426.447 617.181L421.309 620.458L415.63 614.508L408.782 618.876L403.101 612.926L394.543 618.385L397.36 621.524L402.498 618.247L408.179 624.197L415.027 619.829L420.707 625.78Z" fill="#0082FF"/>
<path d="M705.946 137.017L715.424 140.652L716.273 136.521L710.584 134.338L711.991 126.233L704.408 123.324L705.815 115.218L696.338 111.582L695.488 115.714L701.179 117.897L699.771 126.003L707.354 128.912L705.946 137.017Z" fill="#F8B552"/>
<path d="M1230.53 417.934C1231.06 417.357 1232.02 417.809 1231.96 418.607L1231.69 421.839C1231.66 422.198 1231.86 422.541 1232.18 422.692L1235.2 424.104C1235.95 424.454 1235.82 425.574 1235.01 425.707L1231.99 426.209C1231.62 426.27 1231.34 426.58 1231.32 426.963L1231.08 430.043C1231.01 430.854 1229.98 431.097 1229.55 430.4L1227.76 427.463C1227.58 427.169 1227.24 427.012 1226.91 427.066L1223.56 427.612C1222.78 427.74 1222.27 426.772 1222.81 426.188L1224.89 423.956C1225.15 423.68 1225.19 423.258 1224.99 422.929L1223.35 420.25C1222.91 419.535 1223.64 418.693 1224.39 419.043L1227.41 420.456C1227.73 420.606 1228.1 420.534 1228.34 420.276L1230.53 417.934Z" fill="#F8B552"/>
<path d="M1267.91 78.2831C1272.39 79.7026 1277.17 77.2255 1278.59 72.7506C1280.01 68.2756 1277.53 63.4974 1273.06 62.078C1268.58 60.6586 1263.8 63.1355 1262.38 67.6104C1260.96 72.0853 1263.44 76.8637 1267.91 78.2831Z" fill="#FF5A00"/>
<rect width="93.2153" height="15.2799" rx="2" transform="matrix(-0.455719 -0.890124 -0.890124 0.455719 950.421 155.25)" fill="#FA78C3"/>
<path d="M73.6778 199.804C95.4481 196.051 110.077 175.496 106.352 153.893C102.628 132.29 81.9601 117.82 60.1899 121.574C38.4197 125.327 23.7909 145.883 27.5154 167.485C31.24 189.088 51.9076 203.558 73.6778 199.804Z" fill="#2D2D2D"/>
<path d="M65.4364 154.643C55.9422 156.28 49.4701 164.712 50.9811 173.476L73.2625 200.031L65.4371 154.643L65.4364 154.643Z" fill="#C7EAFB"/>
<path d="M85.3628 167.548L85.3621 167.548C83.8511 158.785 74.9298 153.007 65.4355 154.644L73.261 200.031L85.3634 167.548L85.3628 167.548Z" fill="#6E00FF"/>
<path d="M79.0309 132.115C79.0744 131.814 79.4777 131.746 79.6182 132.015L83.2731 139.022C83.336 139.142 83.4697 139.208 83.6038 139.185L91.425 137.837C91.7239 137.785 91.9141 138.146 91.7024 138.364L86.1865 144.026C86.0918 144.123 86.0706 144.27 86.1339 144.39L89.8288 151.399C89.9702 151.667 89.6858 151.96 89.4137 151.826L82.318 148.336C82.1967 148.277 82.0508 148.302 81.9562 148.398L76.3964 154.075C76.1846 154.291 75.8196 154.111 75.863 153.811L76.9985 145.966C77.018 145.831 76.9486 145.7 76.8269 145.64L69.7333 142.151C69.4611 142.018 69.5193 141.614 69.8183 141.562L77.6405 140.213C77.7741 140.19 77.8777 140.084 77.8971 139.95L79.0309 132.115Z" fill="#FFE500"/>
<path d="M44.6959 138.034C44.7395 137.733 45.1427 137.665 45.2833 137.934L48.9381 144.941C49.001 145.061 49.1347 145.127 49.2688 145.104L57.09 143.756C57.3889 143.704 57.5791 144.065 57.3674 144.283L51.8516 149.945C51.7569 150.042 51.7356 150.189 51.7989 150.309L55.4938 157.318C55.6352 157.586 55.3509 157.878 55.0788 157.745L47.983 154.255C47.8617 154.196 47.7158 154.221 47.6213 154.317L42.0614 159.994C41.8496 160.21 41.4846 160.03 41.528 159.73L42.6636 151.884C42.683 151.75 42.6137 151.619 42.4919 151.559L35.3983 148.07C35.1262 147.937 35.1844 147.533 35.4833 147.481L43.3055 146.132C43.4392 146.109 43.5427 146.003 43.5622 145.869L44.6959 138.034Z" fill="#FFE500"/>
<path d="M102.707 136.467C102.354 135.895 102.473 135.15 102.988 134.717L111.327 127.702C112.234 126.939 113.617 127.229 114.141 128.292L115.112 130.265C115.573 131.201 115.158 132.332 114.201 132.747L104.4 136.998C103.782 137.266 103.061 137.04 102.707 136.467V136.467Z" fill="#FFE500"/>
<path d="M15.4174 150.755C15.5125 151.42 15.1052 152.055 14.4606 152.246L4.01183 155.341C2.87526 155.678 1.72417 154.859 1.66921 153.675L1.56727 151.478C1.5189 150.436 2.35197 149.565 3.39522 149.568L14.0785 149.591C14.752 149.592 15.3223 150.088 15.4174 150.755V150.755Z" fill="#FFE500"/>
<path d="M24.3142 140.431C23.9831 140.942 23.3421 141.155 22.7714 140.943L5.68869 134.61C4.49348 134.167 4.10854 132.667 4.9428 131.703L6.58035 129.811C7.16478 129.136 8.15179 128.983 8.91359 129.449L23.9016 138.615C24.5256 138.997 24.7121 139.818 24.3142 140.431V140.431Z" fill="#FFE500"/>
<path d="M115.502 141.043C115.582 140.33 116.186 139.791 116.905 139.793L124.215 139.812C125.356 139.815 126.215 140.852 126.005 141.974L125.648 143.883C125.436 145.016 124.241 145.672 123.172 145.242L116.375 142.507C115.788 142.271 115.431 141.672 115.502 141.043V141.043Z" fill="#FFE500"/>
<path d="M24.7233 153.664C25.3016 154.09 25.4668 154.883 25.1068 155.504L21.4421 161.83C20.8702 162.817 19.543 163.044 18.6757 162.302L17.1987 161.04C16.3226 160.291 16.3509 158.928 17.2573 158.216L23.0187 153.691C23.5164 153.3 24.2137 153.289 24.7233 153.664V153.664Z" fill="#FFE500"/>
<path d="M294.027 545.841C274.963 539.147 255.901 532.447 236.837 525.754C234.11 524.796 231.381 523.835 228.655 522.878C225.928 521.92 224.846 526.399 227.622 527.375C246.686 534.068 265.749 540.768 284.813 547.462C287.539 548.419 290.268 549.381 292.995 550.338C295.721 551.296 296.803 546.816 294.027 545.841Z" fill="#6E00FF"/>
<path d="M263.459 325.59C268.385 325.59 272.38 321.652 272.38 316.795C272.38 311.938 268.385 308 263.459 308C258.532 308 254.538 311.938 254.538 316.795C254.538 321.652 258.532 325.59 263.459 325.59Z" fill="#00C800"/>
<path d="M554.567 643.051C555.103 642.474 556.063 642.926 555.998 643.725L555.341 651.769C555.312 652.128 555.509 652.471 555.833 652.622L563.494 656.207C564.242 656.558 564.112 657.678 563.307 657.811L555.428 659.119C555.057 659.181 554.778 659.49 554.749 659.873L554.139 667.777C554.077 668.587 553.037 668.83 552.612 668.134L548.186 660.884C548.006 660.59 547.672 660.433 547.34 660.487L539.112 661.83C538.328 661.958 537.818 660.989 538.362 660.405L543.679 654.693C543.936 654.417 543.976 653.995 543.775 653.666L539.507 646.674C539.071 645.96 539.794 645.117 540.542 645.467L548.206 649.053C548.528 649.204 548.905 649.132 549.146 648.874L554.567 643.051Z" fill="#F8B552"/>
<path d="M1337.6 176.646C1339.34 177.199 1341.2 176.234 1341.76 174.492C1342.31 172.75 1341.35 170.889 1339.6 170.337C1337.86 169.784 1336 170.748 1335.45 172.491C1334.89 174.233 1335.86 176.093 1337.6 176.646Z" fill="#FF00FF"/>
<rect width="58.2683" height="9.55135" rx="2" transform="matrix(0.484561 -0.874757 -0.874757 -0.484561 734.702 710.594)" fill="#FA78C3"/>
<path d="M288.069 532.437C275.634 528.037 263.198 523.637 250.765 519.241C248.956 518.6 247.148 517.96 245.336 517.322C242.54 516.332 241.531 520.841 244.304 521.819C256.739 526.219 269.175 530.619 281.608 535.015C283.416 535.655 285.225 536.296 287.037 536.934C289.833 537.924 290.841 533.415 288.069 532.437Z" fill="#6E00FF"/>
<rect width="93.2153" height="15.2799" rx="2" transform="matrix(0.521562 0.853213 0.853213 -0.521562 318.034 119.469)" fill="#FED75A"/>
</svg>
