<svg width="606" height="720" viewBox="0 0 606 720" fill="none" xmlns="http://www.w3.org/2000/svg">
<path fill-rule="evenodd" clip-rule="evenodd" d="M261.554 457.895L256.052 450.308L246.731 451.279L242.911 459.837L248.413 467.424L257.734 466.453L261.554 457.895ZM250.613 462.492C252.618 463.387 254.969 462.487 255.864 460.482C256.759 458.477 255.859 456.126 253.854 455.231C251.849 454.336 249.498 455.236 248.603 457.241C247.708 459.246 248.608 461.597 250.613 462.492Z" fill="#C9D5DB"/>
<path d="M477.986 82.0186L485.884 87.2681L473.997 105.153L466.099 99.9036L477.986 82.0186Z" fill="#C9D5DB"/>
<g filter="url(#filter0_bd_4_11114)">
<path d="M475.352 80.2754C477.656 76.8096 482.47 75.9586 486.105 78.3746C489.74 80.7907 490.819 85.5589 488.516 89.0247L475.352 80.2754Z" fill="#C9D5DB"/>
</g>
<path d="M466.096 99.9117L473.994 105.161L470.031 111.123L463.579 112.263L462.133 105.873L466.096 99.9117Z" fill="#C9D5DB"/>
<path fill-rule="evenodd" clip-rule="evenodd" d="M472.657 86.9045C472.712 86.595 473.015 86.3993 473.333 86.4673L485.379 89.0453C485.697 89.1133 485.909 89.4194 485.854 89.7288C485.799 90.0383 485.496 90.234 485.178 90.166L473.132 87.588C472.814 87.52 472.601 87.2139 472.657 86.9045Z" fill="#C1C9D2"/>
<path fill-rule="evenodd" clip-rule="evenodd" d="M470.158 90.6686C470.214 90.3592 470.517 90.1634 470.835 90.2315L482.881 92.8094C483.199 92.8775 483.411 93.1835 483.356 93.493C483.301 93.8025 482.998 93.9982 482.68 93.9301L470.634 91.3522C470.316 91.2841 470.103 90.9781 470.158 90.6686Z" fill="#C1C9D2"/>
<path fill-rule="evenodd" clip-rule="evenodd" d="M467.653 94.4255C467.708 94.116 468.011 93.9203 468.329 93.9883L480.375 96.5663C480.693 96.6343 480.906 96.9404 480.85 97.2498C480.795 97.5593 480.492 97.755 480.174 97.687L468.128 95.109C467.81 95.041 467.597 94.7349 467.653 94.4255Z" fill="#C1C9D2"/>
<path fill-rule="evenodd" clip-rule="evenodd" d="M465.147 98.1972C465.202 97.8877 465.505 97.692 465.823 97.7601L477.869 100.338C478.187 100.406 478.4 100.712 478.344 101.022C478.289 101.331 477.986 101.527 477.668 101.459L465.622 98.8807C465.304 98.8127 465.091 98.5067 465.147 98.1972Z" fill="#C1C9D2"/>
<path fill-rule="evenodd" clip-rule="evenodd" d="M462.648 101.961C462.703 101.652 463.006 101.456 463.324 101.524L475.37 104.102C475.688 104.17 475.901 104.476 475.845 104.786C475.79 105.095 475.487 105.291 475.169 105.223L463.123 102.645C462.805 102.577 462.592 102.271 462.648 101.961Z" fill="#C1C9D2"/>
<path fill-rule="evenodd" clip-rule="evenodd" d="M460.146 105.726C460.201 105.416 460.504 105.22 460.822 105.288L472.868 107.866C473.186 107.934 473.399 108.241 473.343 108.55C473.288 108.859 472.985 109.055 472.667 108.987L460.621 106.409C460.303 106.341 460.09 106.035 460.146 105.726Z" fill="#C1C9D2"/>
<path d="M272.189 144.427L261.798 147.666L254.462 124.134L264.853 120.894L272.189 144.427Z" fill="#C9D5DB"/>
<g filter="url(#filter1_bd_4_11114)">
<path d="M275.649 143.337C277.07 147.897 274.345 152.802 269.563 154.293C264.78 155.784 259.75 153.296 258.329 148.736L275.649 143.337Z" fill="#C9D5DB"/>
</g>
<path d="M264.848 120.881L254.456 124.12L252.01 116.276L255.662 109.702L262.402 113.036L264.848 120.881Z" fill="#C9D5DB"/>
<path fill-rule="evenodd" clip-rule="evenodd" d="M271.696 136.152C271.932 136.425 271.887 136.837 271.597 137.071L260.584 145.939C260.294 146.173 259.867 146.142 259.631 145.868C259.396 145.595 259.44 145.184 259.731 144.95L270.743 136.081C271.034 135.847 271.461 135.879 271.696 136.152Z" fill="#C1C9D2"/>
<path fill-rule="evenodd" clip-rule="evenodd" d="M270.149 131.201C270.385 131.474 270.341 131.885 270.05 132.119L259.037 140.988C258.747 141.222 258.32 141.19 258.084 140.917C257.849 140.644 257.893 140.232 258.184 139.998L269.196 131.13C269.487 130.896 269.914 130.927 270.149 131.201Z" fill="#C1C9D2"/>
<path fill-rule="evenodd" clip-rule="evenodd" d="M268.611 126.249C268.847 126.523 268.802 126.934 268.512 127.168L257.499 136.037C257.209 136.271 256.782 136.239 256.546 135.966C256.311 135.693 256.355 135.281 256.646 135.047L267.658 126.179C267.949 125.944 268.376 125.976 268.611 126.249Z" fill="#C1C9D2"/>
<path fill-rule="evenodd" clip-rule="evenodd" d="M267.069 121.29C267.305 121.563 267.26 121.974 266.97 122.208L255.957 131.077C255.667 131.311 255.24 131.279 255.004 131.006C254.769 130.733 254.813 130.321 255.104 130.087L266.116 121.219C266.407 120.985 266.834 121.016 267.069 121.29Z" fill="#C1C9D2"/>
<path fill-rule="evenodd" clip-rule="evenodd" d="M265.522 116.338C265.758 116.612 265.714 117.023 265.423 117.257L254.41 126.126C254.12 126.36 253.693 126.328 253.457 126.055C253.222 125.781 253.266 125.37 253.557 125.136L264.569 116.267C264.86 116.033 265.287 116.065 265.522 116.338Z" fill="#C1C9D2"/>
<path fill-rule="evenodd" clip-rule="evenodd" d="M263.976 111.387C264.211 111.66 264.167 112.072 263.876 112.306L252.864 121.175C252.573 121.409 252.146 121.377 251.91 121.104C251.675 120.83 251.719 120.419 252.01 120.185L263.023 111.316C263.313 111.082 263.74 111.114 263.976 111.387Z" fill="#C1C9D2"/>
<path d="M480.696 481.874L492.028 486.944L479.987 513.857L468.655 508.787L480.696 481.874Z" fill="#C9D5DB"/>
<g filter="url(#filter2_bd_4_11114)">
<path d="M476.92 480.185C479.253 474.97 485.372 472.634 490.588 474.967C495.803 477.3 498.14 483.42 495.806 488.635L476.92 480.185Z" fill="#C9D5DB"/>
</g>
<path d="M468.657 508.788L479.989 513.858L475.976 522.829L467.775 525.96L464.644 517.759L468.657 508.788Z" fill="#C9D5DB"/>
<path fill-rule="evenodd" clip-rule="evenodd" d="M474.7 489.734C474.712 489.306 475.069 488.968 475.497 488.98L491.725 489.441C492.153 489.453 492.491 489.81 492.479 490.238C492.466 490.667 492.109 491.004 491.681 490.992L475.453 490.532C475.025 490.52 474.688 490.162 474.7 489.734Z" fill="#C1C9D2"/>
<path fill-rule="evenodd" clip-rule="evenodd" d="M472.17 495.398C472.183 494.97 472.54 494.632 472.968 494.645L489.196 495.105C489.624 495.117 489.961 495.474 489.949 495.902C489.937 496.331 489.58 496.668 489.152 496.656L472.924 496.196C472.496 496.184 472.158 495.826 472.17 495.398Z" fill="#C1C9D2"/>
<path fill-rule="evenodd" clip-rule="evenodd" d="M469.633 501.062C469.645 500.634 470.003 500.297 470.431 500.309L486.659 500.769C487.087 500.781 487.424 501.138 487.412 501.567C487.4 501.995 487.043 502.332 486.615 502.32L470.387 501.86C469.959 501.848 469.621 501.491 469.633 501.062Z" fill="#C1C9D2"/>
<path fill-rule="evenodd" clip-rule="evenodd" d="M467.096 506.727C467.108 506.298 467.465 505.961 467.894 505.973L484.122 506.433C484.55 506.445 484.887 506.802 484.875 507.231C484.863 507.659 484.506 507.996 484.078 507.984L467.85 507.524C467.421 507.512 467.084 507.155 467.096 506.727Z" fill="#C1C9D2"/>
<path fill-rule="evenodd" clip-rule="evenodd" d="M464.559 512.398C464.571 511.97 464.928 511.632 465.357 511.645L481.584 512.105C482.013 512.117 482.35 512.474 482.338 512.902C482.326 513.331 481.969 513.668 481.54 513.656L465.313 513.196C464.884 513.184 464.547 512.826 464.559 512.398Z" fill="#C1C9D2"/>
<path fill-rule="evenodd" clip-rule="evenodd" d="M462.03 518.062C462.042 517.634 462.399 517.296 462.827 517.309L479.055 517.769C479.483 517.781 479.821 518.138 479.809 518.566C479.797 518.995 479.439 519.332 479.011 519.32L462.783 518.86C462.355 518.848 462.018 518.491 462.03 518.062Z" fill="#C1C9D2"/>
<circle cx="530.461" cy="181.558" r="52.3975" transform="rotate(-9.73104 530.461 181.558)" fill="#BAC2CA"/>
<g filter="url(#filter3_bd_4_11114)">
<circle cx="530.459" cy="181.559" r="48.367" transform="rotate(-9.73104 530.459 181.559)" fill="#D9E4E9"/>
</g>
<path d="M577.265 182.368C575.478 171.947 565.581 164.947 555.16 166.734L529.338 171.163L532.574 190.032L577.265 182.368Z" fill="#BAC2CA"/>
<path d="M533.306 134.693C522.885 136.481 515.885 146.378 517.673 156.799L522.101 182.621L540.971 179.385L533.306 134.693Z" fill="#BAC2CA"/>
<path d="M484.644 178.832C486.431 189.254 496.328 196.253 506.75 194.466L532.571 190.038L529.335 171.168L484.644 178.832Z" fill="#BAC2CA"/>
<path d="M529.767 227.324C540.188 225.537 547.188 215.64 545.401 205.218L540.973 179.396L522.103 182.632L529.767 227.324Z" fill="#BAC2CA"/>
<path fill-rule="evenodd" clip-rule="evenodd" d="M504.418 173.377C495.785 167.272 493.736 155.324 499.842 146.691L528.631 167.052L537.942 153.888C544.047 145.255 555.995 143.206 564.628 149.311L544.269 178.098L558.252 187.987C566.885 194.093 568.934 206.04 562.828 214.673L533.215 193.73L523.319 207.722C517.214 216.355 505.266 218.404 496.633 212.298L517.577 182.684L504.418 173.377Z" fill="#BAC2CA"/>
<path fill-rule="evenodd" clip-rule="evenodd" d="M503.316 180.516C493.398 176.853 488.326 165.843 491.989 155.924L525.073 168.142L530.659 153.016C534.322 143.097 545.332 138.026 555.251 141.689L543.031 174.779L559.102 180.714C569.021 184.377 574.092 195.387 570.429 205.306L536.404 192.74L530.469 208.81C526.806 218.729 515.796 223.8 505.877 220.137L518.446 186.103L503.316 180.516ZM531.035 181.091L531.037 181.084L531.035 181.083L531.033 181.09L531.035 181.091Z" fill="#BAC2CA"/>
<path fill-rule="evenodd" clip-rule="evenodd" d="M504.122 187.716C493.594 186.745 485.845 177.423 486.816 166.894L521.938 170.133L523.418 154.081C524.389 143.552 533.711 135.804 544.24 136.775L541.002 171.894L558.054 173.466C568.583 174.437 576.331 183.76 575.36 194.289L539.241 190.958L537.668 208.017C536.697 218.546 527.375 226.294 516.846 225.323L520.177 189.197L504.122 187.716Z" fill="#BAC2CA"/>
<path fill-rule="evenodd" clip-rule="evenodd" d="M517.674 156.797C515.887 146.375 522.886 136.478 533.308 134.691L539.27 169.456L555.157 166.732C565.578 164.944 575.475 171.944 577.263 182.365L542.502 188.327L545.397 205.207C547.185 215.629 540.185 225.526 529.764 227.313L523.634 191.568L506.75 194.463C496.329 196.25 486.432 189.251 484.645 178.829L520.401 172.698L517.674 156.797Z" fill="#BAC2CA"/>
<path fill-rule="evenodd" clip-rule="evenodd" d="M511.031 200.291C501.427 204.715 490.056 200.516 485.632 190.912L517.67 176.155L510.923 161.506C506.5 151.903 510.699 140.531 520.303 136.108L535.057 168.14L550.615 160.974C560.219 156.55 571.59 160.75 576.014 170.353L543.062 185.531L550.228 201.09C554.652 210.694 550.453 222.066 540.849 226.489L525.675 193.546L511.031 200.291Z" fill="#BAC2CA"/>
<path fill-rule="evenodd" clip-rule="evenodd" d="M516.688 204.802C508.557 211.56 496.486 210.447 489.727 202.316L516.847 179.775L506.548 167.383C499.789 159.251 500.902 147.181 509.034 140.422L531.573 167.541L544.751 156.589C552.882 149.83 564.953 150.944 571.712 159.075L543.808 182.267L554.761 195.445C561.519 203.577 560.406 215.648 552.274 222.406L529.081 194.501L516.688 204.802ZM531.047 181.088L531.046 181.088L531.045 181.088L531.046 181.089L531.047 181.088Z" fill="#BAC2CA"/>
<circle cx="530.46" cy="181.556" r="13.0994" transform="rotate(-9.73104 530.46 181.556)" fill="#C9D5DB"/>
<circle cx="530.462" cy="181.56" r="11.0841" transform="rotate(-9.73104 530.462 181.56)" fill="url(#paint0_radial_4_11114)"/>
<path fill-rule="evenodd" clip-rule="evenodd" d="M547.856 17.6468L541.47 8.83989L530.65 9.96699L526.216 19.901L532.602 28.7079L543.422 27.5808L547.856 17.6468ZM535.155 22.9883C537.483 24.0272 540.212 22.9825 541.251 20.6549C542.29 18.3274 541.245 15.5983 538.917 14.5595C536.59 13.5206 533.861 14.5653 532.822 16.8928C531.783 19.2204 532.828 21.9494 535.155 22.9883Z" fill="#C9D5DB"/>
<circle cx="329.741" cy="567.247" r="75.4255" transform="rotate(-9.73104 329.741 567.247)" fill="#BAC2CA"/>
<g filter="url(#filter4_bd_4_11114)">
<circle cx="329.739" cy="567.248" r="69.6235" transform="rotate(-9.73104 329.739 567.248)" fill="#D9E4E9"/>
</g>
<path d="M397.116 568.413C394.544 553.411 380.297 543.336 365.295 545.908L328.125 552.283L332.783 579.445L397.116 568.413Z" fill="#BAC2CA"/>
<path d="M333.839 499.786C318.837 502.358 308.761 516.605 311.334 531.607L317.708 568.777L344.871 564.119L333.839 499.786Z" fill="#BAC2CA"/>
<path d="M263.788 563.323C266.361 578.324 280.607 588.4 295.609 585.827L332.779 579.453L328.121 552.29L263.788 563.323Z" fill="#BAC2CA"/>
<path d="M328.742 633.126C343.744 630.553 353.82 616.306 351.247 601.305L344.873 564.135L317.71 568.793L328.742 633.126Z" fill="#BAC2CA"/>
<path fill-rule="evenodd" clip-rule="evenodd" d="M292.252 555.466C279.825 546.677 276.876 529.479 285.664 517.052L327.107 546.361L340.509 527.411C349.297 514.984 366.496 512.035 378.923 520.823L349.617 562.261L369.745 576.497C382.172 585.286 385.122 602.484 376.333 614.911L333.705 584.763L319.46 604.904C310.672 617.331 293.473 620.281 281.046 611.492L311.195 568.863L292.252 555.466Z" fill="#BAC2CA"/>
<path fill-rule="evenodd" clip-rule="evenodd" d="M290.668 565.74C276.39 560.467 269.089 544.618 274.362 530.34L321.986 547.927L330.026 526.154C335.299 511.876 351.148 504.576 365.427 509.849L347.836 557.481L370.97 566.025C385.249 571.297 392.549 587.147 387.276 601.425L338.296 583.337L329.754 606.469C324.481 620.747 308.632 628.047 294.354 622.774L312.446 573.783L290.668 565.74ZM330.568 566.567L330.571 566.558L330.568 566.557L330.565 566.566L330.568 566.567Z" fill="#BAC2CA"/>
<path fill-rule="evenodd" clip-rule="evenodd" d="M291.826 576.103C276.669 574.706 265.516 561.286 266.913 546.13L317.47 550.792L319.601 527.685C320.999 512.529 334.418 501.376 349.575 502.773L344.913 553.326L369.459 555.59C384.616 556.988 395.769 570.408 394.372 585.564L342.379 580.769L340.114 605.325C338.716 620.481 325.297 631.635 310.14 630.237L314.936 578.235L291.826 576.103Z" fill="#BAC2CA"/>
<path fill-rule="evenodd" clip-rule="evenodd" d="M311.336 531.608C308.763 516.607 318.839 502.36 333.84 499.787L342.423 549.832L365.292 545.91C380.294 543.337 394.54 553.413 397.113 568.414L347.076 576.995L351.243 601.295C353.816 616.296 343.74 630.543 328.739 633.116L319.915 581.661L295.611 585.829C280.61 588.402 266.363 578.326 263.791 563.324L315.261 554.498L311.336 531.608Z" fill="#BAC2CA"/>
<path fill-rule="evenodd" clip-rule="evenodd" d="M301.772 594.205C287.948 600.573 271.579 594.528 265.211 580.703L311.329 559.461L301.617 538.375C295.249 524.55 301.294 508.181 315.119 501.814L336.357 547.924L358.753 537.608C372.577 531.241 388.946 537.286 395.314 551.11L347.88 572.958L358.196 595.355C364.564 609.18 358.519 625.549 344.695 631.917L322.852 584.496L301.772 594.205Z" fill="#BAC2CA"/>
<path fill-rule="evenodd" clip-rule="evenodd" d="M309.914 600.7C298.209 610.429 280.833 608.827 271.104 597.121L310.143 564.675L295.317 546.837C285.588 535.131 287.191 517.755 298.896 508.027L331.341 547.064L350.31 531.298C362.015 521.57 379.391 523.172 389.12 534.878L348.952 568.262L364.719 587.232C374.448 598.937 372.845 616.313 361.14 626.042L327.754 585.873L309.914 600.7ZM330.583 566.565L330.582 566.564L330.581 566.565L330.582 566.566L330.583 566.565Z" fill="#BAC2CA"/>
<circle cx="329.741" cy="567.243" r="18.8564" transform="rotate(-9.73104 329.741 567.243)" fill="#C9D5DB"/>
<g filter="url(#filter5_bd_4_11114)">
<circle cx="329.743" cy="567.249" r="15.9554" transform="rotate(-9.73104 329.743 567.249)" fill="url(#paint1_radial_4_11114)"/>
</g>
<path d="M262.02 0.195679L407.887 8.13453L405.208 57.3535L259.341 49.4147L262.02 0.195679Z" fill="#C9D5DB"/>
<path d="M259.685 43.1536L405.552 51.0924L405.211 57.3567L259.344 49.4178L259.685 43.1536Z" fill="url(#paint2_linear_4_11114)"/>
<ellipse cx="260.682" cy="24.8043" rx="3.58486" ry="24.6459" transform="rotate(3.11526 260.682 24.8043)" fill="#BAC2CA"/>
<ellipse cx="406.547" cy="32.7438" rx="3.58486" ry="24.6459" transform="rotate(3.11526 406.547 32.7438)" fill="#BAC2CA"/>
<rect x="282.522" y="19.2565" width="14.3394" height="8.96215" rx="4" transform="rotate(93.1153 282.522 19.2565)" fill="#BAC2CA"/>
<rect x="319.212" y="21.2537" width="14.3394" height="8.96215" rx="4" transform="rotate(93.1153 319.212 21.2537)" fill="#BAC2CA"/>
<rect x="355.901" y="23.2507" width="14.3394" height="8.96215" rx="4" transform="rotate(93.1153 355.901 23.2507)" fill="#BAC2CA"/>
<rect x="392.596" y="25.2478" width="14.3394" height="8.96215" rx="4" transform="rotate(93.1153 392.596 25.2478)" fill="#C7EAFB"/>
<rect x="302.555" y="14.0646" width="26.8865" height="12.547" rx="4" transform="rotate(93.1153 302.555 14.0646)" fill="#EBFF00"/>
<rect x="294.86" y="23.5201" width="6.27351" height="3.58486" rx="1.79243" transform="rotate(93.1153 294.86 23.5201)" fill="#BAC2CA"/>
<rect x="394.728" y="19.0751" width="26.8865" height="12.547" rx="4" transform="rotate(93.1153 394.728 19.0751)" fill="#EBFF00"/>
<rect x="387.033" y="28.5306" width="6.27351" height="3.58486" rx="1.79243" transform="rotate(93.1153 387.033 28.5306)" fill="#BAC2CA"/>
<rect x="337.108" y="22.2318" width="14.3394" height="8.96215" rx="4" transform="rotate(93.1153 337.108 22.2318)" fill="#BAC2CA"/>
<rect x="373.802" y="24.2289" width="14.3394" height="8.96215" rx="4" transform="rotate(93.1153 373.802 24.2289)" fill="#BAC2CA"/>
<path d="M335.416 369.998L486.107 325.613C503.42 320.514 522.137 325.14 535.081 337.719L570.67 372.304C573.962 375.504 572.587 381.065 568.183 382.363L357.349 444.463L335.416 369.998Z" fill="#C9D5DB"/>
<path d="M354.556 434.989L569.148 371.782L570.244 375.504C571.181 378.683 569.363 382.019 566.184 382.955L357.347 444.467L354.556 434.989Z" fill="url(#paint3_linear_4_11114)"/>
<ellipse cx="346.384" cy="407.236" rx="5.64562" ry="38.8136" transform="rotate(-16.412 346.384 407.236)" fill="#BAC2CA"/>
<rect x="371.831" y="388.7" width="22.5825" height="14.114" rx="4" transform="rotate(73.588 371.831 388.7)" fill="#BAC2CA"/>
<rect x="427.339" y="372.353" width="22.5825" height="14.114" rx="4" transform="rotate(73.588 427.339 372.353)" fill="#BAC2CA"/>
<rect x="482.847" y="356.006" width="22.5825" height="14.114" rx="4" transform="rotate(73.588 482.847 356.006)" fill="#C7EAFB"/>
<rect x="482.764" y="345.726" width="42.3421" height="19.7597" rx="4" transform="rotate(73.588 482.764 345.726)" fill="#EBFF00"/>
<rect x="476.316" y="363.809" width="9.87983" height="5.64562" rx="2.82281" transform="rotate(73.588 476.316 363.809)" fill="#BAC2CA"/>
<rect x="398.906" y="380.731" width="22.5825" height="14.114" rx="4" transform="rotate(73.588 398.906 380.731)" fill="#BAC2CA"/>
<rect x="454.414" y="364.373" width="22.5825" height="14.114" rx="4" transform="rotate(73.588 454.414 364.373)" fill="#BAC2CA"/>
<path d="M530.868 341.859C532.136 341.486 533.506 341.861 534.406 342.828L545.736 354.987C547.763 357.162 546.792 360.711 543.94 361.551L537.738 363.377C535.619 364.002 533.395 362.79 532.771 360.671L528.507 346.192C527.962 344.344 529.019 342.404 530.868 341.859Z" fill="#B8C0C8"/>
<path d="M520.44 344.939C522.483 344.337 524.627 345.505 525.229 347.548L529.39 361.674C530.014 363.794 528.802 366.017 526.683 366.642L524.312 367.34C521.91 368.048 519.455 366.398 519.203 363.907L517.693 349.027C517.506 347.181 518.66 345.463 520.44 344.939Z" fill="#B8C0C8"/>
<path fill-rule="evenodd" clip-rule="evenodd" d="M330.554 706.895L325.052 699.308L315.731 700.279L311.911 708.837L317.413 716.424L326.734 715.453L330.554 706.895ZM319.613 711.492C321.618 712.387 323.969 711.487 324.864 709.482C325.759 707.477 324.859 705.126 322.854 704.231C320.849 703.336 318.498 704.236 317.603 706.241C316.708 708.246 317.608 710.597 319.613 711.492Z" fill="#C9D5DB"/>
<g filter="url(#filter6_dd_4_11114)">
<path fill-rule="evenodd" clip-rule="evenodd" d="M394.866 277.608C394.06 276.946 393.229 276.312 392.373 275.707C393.988 275.642 395.583 275.49 397.152 275.256C397.358 275.664 397.571 276.068 397.791 276.468C396.8 276.813 395.824 277.194 394.866 277.608ZM464.897 262.867C466.361 244.119 452.295 227.652 433.267 225.498C429.717 207 413.8 192.337 393.643 190.763C383.739 189.99 374.356 192.497 366.616 197.351C357.955 190.648 347.232 186.293 335.398 185.369C313.624 183.669 293.763 194.027 282.716 210.699C273.577 202.546 261.692 197.185 248.406 196.147C231.753 194.847 216.219 200.6 204.891 210.837C194.764 196.719 178.485 186.946 159.52 185.466C142.282 184.12 126.173 189.886 114.225 200.24C106.706 196.033 98.1413 193.339 88.9373 192.621C55.6988 190.026 26.7045 214.169 24.1767 246.546C22.5488 267.396 32.2939 286.576 48.316 298.283C39.6469 307.235 33.9541 319.036 32.9196 332.287C30.5141 363.097 54.2057 390.076 85.8363 392.546C107.24 394.217 126.795 384.237 137.947 368.062C145.637 373.88 155.09 377.653 165.503 378.466C174.28 379.152 182.711 377.653 190.234 374.437C199.744 384.574 213.059 391.365 228.191 392.546C248.091 394.1 266.392 385.582 277.828 371.379C286.139 377.286 296.169 381.102 307.158 381.96C323.084 383.203 337.987 377.996 349.166 368.585C354.534 385.395 369.963 398.189 389.052 399.679C414.035 401.629 435.827 383.484 437.727 359.149C437.994 355.722 437.853 352.356 437.343 349.095C447.032 342.226 453.678 331.413 454.66 318.839C455.474 308.406 452.249 298.567 446.269 290.784C456.588 285.373 463.941 275.115 464.897 262.867Z" fill="white" fill-opacity="0.7" shape-rendering="crispEdges"/>
</g>
<defs>
<filter id="filter0_bd_4_11114" x="463.353" y="66.9996" width="38.374" height="36.025" filterUnits="userSpaceOnUse" color-interpolation-filters="sRGB">
<feFlood flood-opacity="0" result="BackgroundImageFix"/>
<feGaussianBlur in="BackgroundImageFix" stdDeviation="4"/>
<feComposite in2="SourceAlpha" operator="in" result="effect1_backgroundBlur_4_11114"/>
<feColorMatrix in="SourceAlpha" type="matrix" values="0 0 0 0 0 0 0 0 0 0 0 0 0 0 0 0 0 0 127 0" result="hardAlpha"/>
<feOffset dy="2"/>
<feGaussianBlur stdDeviation="6"/>
<feComposite in2="hardAlpha" operator="out"/>
<feColorMatrix type="matrix" values="0 0 0 0 0 0 0 0 0 0 0 0 0 0 0 0 0 0 0.15 0"/>
<feBlend mode="normal" in2="effect1_backgroundBlur_4_11114" result="effect2_dropShadow_4_11114"/>
<feBlend mode="normal" in="SourceGraphic" in2="effect2_dropShadow_4_11114" result="shape"/>
</filter>
<filter id="filter1_bd_4_11114" x="246.329" y="133.337" width="41.6963" height="35.3892" filterUnits="userSpaceOnUse" color-interpolation-filters="sRGB">
<feFlood flood-opacity="0" result="BackgroundImageFix"/>
<feGaussianBlur in="BackgroundImageFix" stdDeviation="4"/>
<feComposite in2="SourceAlpha" operator="in" result="effect1_backgroundBlur_4_11114"/>
<feColorMatrix in="SourceAlpha" type="matrix" values="0 0 0 0 0 0 0 0 0 0 0 0 0 0 0 0 0 0 127 0" result="hardAlpha"/>
<feOffset dy="2"/>
<feGaussianBlur stdDeviation="6"/>
<feComposite in2="hardAlpha" operator="out"/>
<feColorMatrix type="matrix" values="0 0 0 0 0 0 0 0 0 0 0 0 0 0 0 0 0 0 0.15 0"/>
<feBlend mode="normal" in2="effect1_backgroundBlur_4_11114" result="effect2_dropShadow_4_11114"/>
<feBlend mode="normal" in="SourceGraphic" in2="effect2_dropShadow_4_11114" result="shape"/>
</filter>
<filter id="filter2_bd_4_11114" x="464.92" y="464.062" width="43.791" height="38.5728" filterUnits="userSpaceOnUse" color-interpolation-filters="sRGB">
<feFlood flood-opacity="0" result="BackgroundImageFix"/>
<feGaussianBlur in="BackgroundImageFix" stdDeviation="4"/>
<feComposite in2="SourceAlpha" operator="in" result="effect1_backgroundBlur_4_11114"/>
<feColorMatrix in="SourceAlpha" type="matrix" values="0 0 0 0 0 0 0 0 0 0 0 0 0 0 0 0 0 0 127 0" result="hardAlpha"/>
<feOffset dy="2"/>
<feGaussianBlur stdDeviation="6"/>
<feComposite in2="hardAlpha" operator="out"/>
<feColorMatrix type="matrix" values="0 0 0 0 0 0 0 0 0 0 0 0 0 0 0 0 0 0 0.15 0"/>
<feBlend mode="normal" in2="effect1_backgroundBlur_4_11114" result="effect2_dropShadow_4_11114"/>
<feBlend mode="normal" in="SourceGraphic" in2="effect2_dropShadow_4_11114" result="shape"/>
</filter>
<filter id="filter3_bd_4_11114" x="470.085" y="123.184" width="120.749" height="120.75" filterUnits="userSpaceOnUse" color-interpolation-filters="sRGB">
<feFlood flood-opacity="0" result="BackgroundImageFix"/>
<feGaussianBlur in="BackgroundImageFix" stdDeviation="4"/>
<feComposite in2="SourceAlpha" operator="in" result="effect1_backgroundBlur_4_11114"/>
<feColorMatrix in="SourceAlpha" type="matrix" values="0 0 0 0 0 0 0 0 0 0 0 0 0 0 0 0 0 0 127 0" result="hardAlpha"/>
<feOffset dy="2"/>
<feGaussianBlur stdDeviation="6"/>
<feComposite in2="hardAlpha" operator="out"/>
<feColorMatrix type="matrix" values="0 0 0 0 0 0 0 0 0 0 0 0 0 0 0 0 0 0 0.15 0"/>
<feBlend mode="normal" in2="effect1_backgroundBlur_4_11114" result="effect2_dropShadow_4_11114"/>
<feBlend mode="normal" in="SourceGraphic" in2="effect2_dropShadow_4_11114" result="shape"/>
</filter>
<filter id="filter4_bd_4_11114" x="248.104" y="487.613" width="163.27" height="163.27" filterUnits="userSpaceOnUse" color-interpolation-filters="sRGB">
<feFlood flood-opacity="0" result="BackgroundImageFix"/>
<feGaussianBlur in="BackgroundImageFix" stdDeviation="4"/>
<feComposite in2="SourceAlpha" operator="in" result="effect1_backgroundBlur_4_11114"/>
<feColorMatrix in="SourceAlpha" type="matrix" values="0 0 0 0 0 0 0 0 0 0 0 0 0 0 0 0 0 0 127 0" result="hardAlpha"/>
<feOffset dy="2"/>
<feGaussianBlur stdDeviation="6"/>
<feComposite in2="hardAlpha" operator="out"/>
<feColorMatrix type="matrix" values="0 0 0 0 0 0 0 0 0 0 0 0 0 0 0 0 0 0 0.15 0"/>
<feBlend mode="normal" in2="effect1_backgroundBlur_4_11114" result="effect2_dropShadow_4_11114"/>
<feBlend mode="normal" in="SourceGraphic" in2="effect2_dropShadow_4_11114" result="shape"/>
</filter>
<filter id="filter5_bd_4_11114" x="301.785" y="541.291" width="55.916" height="55.916" filterUnits="userSpaceOnUse" color-interpolation-filters="sRGB">
<feFlood flood-opacity="0" result="BackgroundImageFix"/>
<feGaussianBlur in="BackgroundImageFix" stdDeviation="4"/>
<feComposite in2="SourceAlpha" operator="in" result="effect1_backgroundBlur_4_11114"/>
<feColorMatrix in="SourceAlpha" type="matrix" values="0 0 0 0 0 0 0 0 0 0 0 0 0 0 0 0 0 0 127 0" result="hardAlpha"/>
<feOffset dy="2"/>
<feGaussianBlur stdDeviation="6"/>
<feComposite in2="hardAlpha" operator="out"/>
<feColorMatrix type="matrix" values="0 0 0 0 0 0 0 0 0 0 0 0 0 0 0 0 0 0 0.15 0"/>
<feBlend mode="normal" in2="effect1_backgroundBlur_4_11114" result="effect2_dropShadow_4_11114"/>
<feBlend mode="normal" in="SourceGraphic" in2="effect2_dropShadow_4_11114" result="shape"/>
</filter>
<filter id="filter6_dd_4_11114" x="0" y="163.188" width="489.002" height="262.635" filterUnits="userSpaceOnUse" color-interpolation-filters="sRGB">
<feFlood flood-opacity="0" result="BackgroundImageFix"/>
<feColorMatrix in="SourceAlpha" type="matrix" values="0 0 0 0 0 0 0 0 0 0 0 0 0 0 0 0 0 0 127 0" result="hardAlpha"/>
<feOffset dy="2"/>
<feGaussianBlur stdDeviation="12"/>
<feComposite in2="hardAlpha" operator="out"/>
<feColorMatrix type="matrix" values="0 0 0 0 0 0 0 0 0 0 0 0 0 0 0 0 0 0 0.15 0"/>
<feBlend mode="normal" in2="BackgroundImageFix" result="effect1_dropShadow_4_11114"/>
<feColorMatrix in="SourceAlpha" type="matrix" values="0 0 0 0 0 0 0 0 0 0 0 0 0 0 0 0 0 0 127 0" result="hardAlpha"/>
<feOffset dy="2"/>
<feGaussianBlur stdDeviation="3"/>
<feComposite in2="hardAlpha" operator="out"/>
<feColorMatrix type="matrix" values="0 0 0 0 0 0 0 0 0 0 0 0 0 0 0 0 0 0 0.1 0"/>
<feBlend mode="normal" in2="effect1_dropShadow_4_11114" result="effect2_dropShadow_4_11114"/>
<feBlend mode="normal" in="SourceGraphic" in2="effect2_dropShadow_4_11114" result="shape"/>
</filter>
<radialGradient id="paint0_radial_4_11114" cx="0" cy="0" r="1" gradientUnits="userSpaceOnUse" gradientTransform="translate(530.462 181.56) rotate(90) scale(11.0841)">
<stop stop-color="#BAC2CA"/>
<stop offset="0.64" stop-color="#DDE9EE"/>
</radialGradient>
<radialGradient id="paint1_radial_4_11114" cx="0" cy="0" r="1" gradientUnits="userSpaceOnUse" gradientTransform="translate(329.743 567.249) rotate(90) scale(15.9554)">
<stop stop-color="#BAC2CA"/>
<stop offset="0.64" stop-color="#DDE9EE"/>
</radialGradient>
<linearGradient id="paint2_linear_4_11114" x1="332.618" y1="47.123" x2="332.277" y2="53.3872" gradientUnits="userSpaceOnUse">
<stop stop-color="#C9D5DB" stop-opacity="0.5"/>
<stop offset="1" stop-color="#8B8F92" stop-opacity="0.5"/>
</linearGradient>
<linearGradient id="paint3_linear_4_11114" x1="462.19" y1="403.286" x2="464.982" y2="412.763" gradientUnits="userSpaceOnUse">
<stop stop-color="#C9D5DB" stop-opacity="0.5"/>
<stop offset="1" stop-color="#8B8F92" stop-opacity="0.5"/>
</linearGradient>
</defs>
</svg>
