<svg width="618" height="744" viewBox="0 0 618 744" fill="none" xmlns="http://www.w3.org/2000/svg">
<path fill-rule="evenodd" clip-rule="evenodd" d="M298.052 484.039L293.488 477.745L285.754 478.55L282.585 485.651L287.15 491.945L294.883 491.14L298.052 484.039ZM288.974 487.859C290.638 488.601 292.589 487.855 293.331 486.191C294.074 484.527 293.327 482.577 291.663 481.834C290 481.092 288.049 481.839 287.307 483.502C286.564 485.166 287.311 487.116 288.974 487.859Z" fill="#C9D5DB"/>
<path fill-rule="evenodd" clip-rule="evenodd" d="M319.984 726.304L312.761 716.343L300.523 717.618L295.508 728.854L302.731 738.815L314.969 737.54L319.984 726.304ZM305.62 732.347C308.252 733.522 311.339 732.34 312.514 729.708C313.689 727.075 312.508 723.989 309.875 722.813C307.242 721.638 304.156 722.82 302.981 725.453C301.805 728.085 302.987 731.172 305.62 732.347Z" fill="#C9D5DB"/>
<path fill-rule="evenodd" clip-rule="evenodd" d="M101.855 152.647L95.4693 143.84L84.6493 144.967L80.2153 154.901L86.6015 163.708L97.4215 162.581L101.855 152.647ZM89.1543 157.988C91.4819 159.027 94.2109 157.982 95.2498 155.655C96.2887 153.327 95.244 150.598 92.9164 149.559C90.5889 148.521 87.8598 149.565 86.821 151.893C85.7821 154.22 86.8268 156.949 89.1543 157.988Z" fill="#C9D5DB"/>
<path d="M215.985 640.019L223.883 645.268L211.996 663.153L204.098 657.904L215.985 640.019Z" fill="#C9D5DB"/>
<g filter="url(#filter0_bd_4_11115)">
<path d="M213.351 638.275C215.655 634.81 220.469 633.959 224.104 636.375C227.739 638.791 228.818 643.559 226.515 647.025L213.351 638.275Z" fill="#C9D5DB"/>
</g>
<path d="M204.095 657.912L211.993 663.161L208.03 669.123L201.578 670.263L200.132 663.873L204.095 657.912Z" fill="#C9D5DB"/>
<path fill-rule="evenodd" clip-rule="evenodd" d="M210.656 644.904C210.711 644.595 211.014 644.399 211.332 644.467L223.378 647.045C223.696 647.113 223.908 647.419 223.853 647.729C223.798 648.038 223.495 648.234 223.177 648.166L211.131 645.588C210.813 645.52 210.6 645.214 210.656 644.904Z" fill="#C1C9D2"/>
<path fill-rule="evenodd" clip-rule="evenodd" d="M208.157 648.669C208.213 648.359 208.516 648.164 208.834 648.232L220.88 650.81C221.198 650.878 221.41 651.184 221.355 651.493C221.3 651.803 220.997 651.998 220.679 651.93L208.633 649.352C208.315 649.284 208.102 648.978 208.157 648.669Z" fill="#C1C9D2"/>
<path fill-rule="evenodd" clip-rule="evenodd" d="M205.652 652.426C205.707 652.116 206.01 651.92 206.328 651.988L218.374 654.566C218.692 654.634 218.905 654.94 218.849 655.25C218.794 655.559 218.491 655.755 218.173 655.687L206.127 653.109C205.809 653.041 205.596 652.735 205.652 652.426Z" fill="#C1C9D2"/>
<path fill-rule="evenodd" clip-rule="evenodd" d="M203.146 656.197C203.201 655.888 203.504 655.692 203.822 655.76L215.868 658.338C216.186 658.406 216.399 658.712 216.343 659.021C216.288 659.331 215.985 659.527 215.667 659.459L203.621 656.881C203.303 656.813 203.09 656.507 203.146 656.197Z" fill="#C1C9D2"/>
<path fill-rule="evenodd" clip-rule="evenodd" d="M200.647 659.961C200.702 659.652 201.005 659.456 201.323 659.524L213.369 662.102C213.687 662.17 213.9 662.476 213.844 662.786C213.789 663.095 213.486 663.291 213.168 663.223L201.122 660.645C200.804 660.577 200.591 660.271 200.647 659.961Z" fill="#C1C9D2"/>
<path fill-rule="evenodd" clip-rule="evenodd" d="M198.145 663.726C198.2 663.416 198.503 663.22 198.821 663.288L210.867 665.866C211.185 665.934 211.398 666.241 211.342 666.55C211.287 666.859 210.984 667.055 210.666 666.987L198.62 664.409C198.302 664.341 198.089 664.035 198.145 663.726Z" fill="#C1C9D2"/>
<path d="M325.957 20.1895L335.264 16.5891L343.417 37.6646L334.11 41.2649L325.957 20.1895Z" fill="#C9D5DB"/>
<g filter="url(#filter1_bd_4_11115)">
<path d="M322.86 21.3949C321.28 17.3108 323.471 12.6567 327.755 10.9997C332.038 9.34271 336.791 11.3102 338.371 15.3943L322.86 21.3949Z" fill="#C9D5DB"/>
</g>
<path d="M334.114 41.2704L343.421 37.6701L346.139 44.6952L343.202 50.9323L336.832 48.2955L334.114 41.2704Z" fill="#C9D5DB"/>
<path fill-rule="evenodd" clip-rule="evenodd" d="M326.918 27.7295C326.685 27.494 326.701 27.1151 326.953 26.8831L336.482 18.0958C336.733 17.8638 337.126 17.8667 337.358 18.1022C337.59 18.3377 337.575 18.7167 337.323 18.9487L327.794 27.736C327.542 27.9679 327.15 27.9651 326.918 27.7295Z" fill="#C1C9D2"/>
<path fill-rule="evenodd" clip-rule="evenodd" d="M328.636 32.1637C328.404 31.9282 328.42 31.5493 328.671 31.3173L338.201 22.53C338.452 22.298 338.844 22.3009 339.077 22.5364C339.309 22.772 339.293 23.1509 339.042 23.3829L329.513 32.1702C329.261 32.4021 328.869 32.3993 328.636 32.1637Z" fill="#C1C9D2"/>
<path fill-rule="evenodd" clip-rule="evenodd" d="M330.345 36.5979C330.113 36.3624 330.129 35.9835 330.38 35.7515L339.91 26.9642C340.161 26.7322 340.553 26.7351 340.786 26.9706C341.018 27.2062 341.002 27.5851 340.751 27.8171L331.222 36.6044C330.97 36.8364 330.578 36.8335 330.345 36.5979Z" fill="#C1C9D2"/>
<path fill-rule="evenodd" clip-rule="evenodd" d="M332.063 41.0414C331.831 40.8059 331.846 40.427 332.098 40.195L341.627 31.4077C341.879 31.1757 342.271 31.1786 342.503 31.4141C342.736 31.6496 342.72 32.0286 342.469 32.2605L332.939 41.0479C332.688 41.2798 332.296 41.2769 332.063 41.0414Z" fill="#C1C9D2"/>
<path fill-rule="evenodd" clip-rule="evenodd" d="M333.782 45.4756C333.55 45.2401 333.565 44.8612 333.817 44.6292L343.346 35.8419C343.598 35.6099 343.99 35.6128 344.222 35.8483C344.455 36.0838 344.439 36.4628 344.187 36.6947L334.658 45.4821C334.407 45.714 334.014 45.7111 333.782 45.4756Z" fill="#C1C9D2"/>
<path fill-rule="evenodd" clip-rule="evenodd" d="M335.5 49.9098C335.267 49.6743 335.283 49.2954 335.535 49.0634L345.064 40.2761C345.315 40.0441 345.708 40.047 345.94 40.2825C346.172 40.518 346.157 40.897 345.905 41.129L336.376 49.9163C336.124 50.1482 335.732 50.1454 335.5 49.9098Z" fill="#C1C9D2"/>
<path fill-rule="evenodd" clip-rule="evenodd" d="M108.876 676.678L106.685 669.217L99.1287 667.384L93.7631 673.012L95.9538 680.472L103.51 682.305L108.876 676.678ZM99.0427 677.234C100.361 678.491 102.449 678.441 103.706 677.123C104.964 675.804 104.914 673.716 103.595 672.459C102.277 671.202 100.189 671.251 98.9316 672.57C97.6744 673.888 97.7242 675.976 99.0427 677.234Z" fill="#C9D5DB"/>
<path d="M27.6611 2.58374L268.299 67.0624L246.542 148.259L5.90455 83.7804L27.6611 2.58374Z" fill="#C9D5DB"/>
<path d="M8.67578 73.4451L249.313 137.924L246.544 148.258L5.90676 83.7792L8.67578 73.4451Z" fill="url(#paint0_linear_4_11115)"/>
<ellipse cx="16.7838" cy="43.1806" rx="6.11353" ry="42.0305" transform="rotate(15 16.7838 43.1806)" fill="#BAC2CA"/>
<ellipse cx="257.421" cy="107.661" rx="6.11353" ry="42.0305" transform="rotate(15 257.421 107.661)" fill="#BAC2CA"/>
<rect x="55.1846" y="41.5905" width="24.4541" height="15.2838" rx="4" transform="rotate(105 55.1846 41.5905)" fill="#BAC2CA"/>
<rect x="115.709" y="57.8124" width="24.4541" height="15.2838" rx="4" transform="rotate(105 115.709 57.8124)" fill="#BAC2CA"/>
<rect x="176.237" y="74.0343" width="24.4541" height="15.2838" rx="4" transform="rotate(105 176.237 74.0343)" fill="#BAC2CA"/>
<rect x="236.771" y="90.2485" width="24.4541" height="15.2838" rx="4" transform="rotate(105 236.771 90.2485)" fill="#C7EAFB"/>
<rect x="90.4336" y="39.9598" width="45.8515" height="21.3973" rx="4" transform="rotate(105 90.4336 39.9598)" fill="#EBFF00"/>
<rect x="74.2695" y="53.0372" width="10.6987" height="6.11353" rx="3.05676" transform="rotate(105 74.2695 53.0372)" fill="#BAC2CA"/>
<rect x="242.494" y="80.6963" width="45.8515" height="21.3973" rx="4" transform="rotate(105 242.494 80.6963)" fill="#EBFF00"/>
<rect x="226.33" y="93.7737" width="10.6987" height="6.11353" rx="3.05676" transform="rotate(105 226.33 93.7737)" fill="#BAC2CA"/>
<rect x="145.235" y="65.7235" width="24.4541" height="15.2838" rx="4" transform="rotate(105 145.235 65.7235)" fill="#BAC2CA"/>
<rect x="205.768" y="81.9454" width="24.4541" height="15.2838" rx="4" transform="rotate(105 205.768 81.9454)" fill="#BAC2CA"/>
<circle cx="279.74" cy="341.247" r="75.4255" transform="rotate(-9.73104 279.74 341.247)" fill="#BAC2CA"/>
<g filter="url(#filter2_bd_4_11115)">
<circle cx="279.738" cy="341.248" r="69.6235" transform="rotate(-9.73104 279.738 341.248)" fill="#D9E4E9"/>
</g>
<path d="M347.115 342.413C344.543 327.411 330.296 317.335 315.294 319.908L278.124 326.282L282.782 353.445L347.115 342.413Z" fill="#BAC2CA"/>
<path d="M283.838 273.786C268.836 276.358 258.76 290.605 261.333 305.607L267.707 342.777L294.87 338.118L283.838 273.786Z" fill="#BAC2CA"/>
<path d="M213.787 337.323C216.36 352.324 230.607 362.4 245.608 359.827L282.778 353.453L278.12 326.29L213.787 337.323Z" fill="#BAC2CA"/>
<path d="M278.742 407.126C293.743 404.553 303.819 390.306 301.246 375.305L294.872 338.135L267.709 342.793L278.742 407.126Z" fill="#BAC2CA"/>
<path fill-rule="evenodd" clip-rule="evenodd" d="M242.251 329.466C229.824 320.677 226.875 303.479 235.663 291.052L277.106 320.361L290.508 301.411C299.296 288.984 316.495 286.035 328.922 294.823L299.616 336.261L319.744 350.497C332.171 359.286 335.121 376.484 326.332 388.911L283.704 358.763L269.459 378.904C260.671 391.331 243.472 394.281 231.045 385.492L261.194 342.863L242.251 329.466Z" fill="#BAC2CA"/>
<path fill-rule="evenodd" clip-rule="evenodd" d="M240.667 339.74C226.389 334.467 219.088 318.618 224.361 304.34L271.985 321.927L280.025 300.154C285.298 285.876 301.147 278.576 315.426 283.849L297.835 331.481L320.969 340.025C335.248 345.297 342.548 361.147 337.275 375.425L288.295 357.337L279.753 380.469C274.48 394.747 258.631 402.047 244.353 396.774L262.445 347.783L240.667 339.74ZM280.567 340.567L280.57 340.558L280.567 340.557L280.564 340.566L280.567 340.567Z" fill="#BAC2CA"/>
<path fill-rule="evenodd" clip-rule="evenodd" d="M241.825 350.103C226.668 348.706 215.515 335.286 216.912 320.13L267.469 324.792L269.6 301.685C270.998 286.529 284.417 275.376 299.574 276.773L294.912 327.326L319.459 329.59C334.615 330.988 345.768 344.408 344.371 359.564L292.378 354.769L290.113 379.325C288.715 394.481 275.296 405.635 260.14 404.237L264.935 352.235L241.825 350.103Z" fill="#BAC2CA"/>
<path fill-rule="evenodd" clip-rule="evenodd" d="M261.335 305.608C258.762 290.607 268.838 276.36 283.839 273.787L292.422 323.832L315.291 319.91C330.293 317.337 344.539 327.413 347.112 342.414L297.075 350.995L301.242 375.295C303.815 390.296 293.739 404.543 278.738 407.115L269.914 355.661L245.61 359.829C230.609 362.401 216.362 352.326 213.79 337.324L265.26 328.498L261.335 305.608Z" fill="#BAC2CA"/>
<path fill-rule="evenodd" clip-rule="evenodd" d="M251.771 368.205C237.947 374.573 221.578 368.528 215.21 354.703L261.328 333.461L251.616 312.375C245.248 298.55 251.293 282.181 265.118 275.814L286.356 321.924L308.752 311.608C322.576 305.241 338.945 311.286 345.313 325.11L297.879 346.958L308.196 369.355C314.563 383.18 308.518 399.549 294.694 405.917L272.851 358.496L251.771 368.205Z" fill="#BAC2CA"/>
<path fill-rule="evenodd" clip-rule="evenodd" d="M259.913 374.7C248.208 384.429 230.832 382.827 221.103 371.121L260.142 338.675L245.316 320.837C235.587 309.131 237.19 291.755 248.895 282.027L281.34 321.064L300.309 305.298C312.014 295.57 329.39 297.172 339.119 308.878L298.951 342.262L314.718 361.232C324.447 372.937 322.844 390.313 311.139 400.042L277.753 359.873L259.913 374.7ZM280.582 340.565L280.581 340.564L280.58 340.565L280.581 340.566L280.582 340.565Z" fill="#BAC2CA"/>
<circle cx="279.74" cy="341.243" r="18.8564" transform="rotate(-9.73104 279.74 341.243)" fill="#C9D5DB"/>
<g filter="url(#filter3_bd_4_11115)">
<circle cx="279.742" cy="341.249" r="15.9554" transform="rotate(-9.73104 279.742 341.249)" fill="url(#paint1_radial_4_11115)"/>
</g>
<path d="M115.089 344.301L105.562 347.271L98.8368 325.697L108.364 322.728L115.089 344.301Z" fill="#C9D5DB"/>
<g filter="url(#filter4_bd_4_11115)">
<path d="M118.26 343.305C119.564 347.486 117.066 351.983 112.681 353.35C108.297 354.717 103.686 352.436 102.382 348.255L118.26 343.305Z" fill="#C9D5DB"/>
</g>
<path d="M108.36 322.722L98.8336 325.692L96.5918 318.5L99.9393 312.474L106.119 315.531L108.36 322.722Z" fill="#C9D5DB"/>
<path fill-rule="evenodd" clip-rule="evenodd" d="M114.635 336.713C114.851 336.964 114.81 337.341 114.544 337.556L104.448 345.686C104.182 345.901 103.791 345.871 103.574 345.621C103.358 345.37 103.399 344.993 103.666 344.779L113.761 336.648C114.028 336.434 114.419 336.463 114.635 336.713Z" fill="#C1C9D2"/>
<path fill-rule="evenodd" clip-rule="evenodd" d="M113.217 332.174C113.433 332.425 113.392 332.802 113.126 333.017L103.03 341.147C102.764 341.362 102.373 341.332 102.156 341.082C101.94 340.831 101.981 340.454 102.248 340.24L112.343 332.109C112.61 331.895 113.001 331.924 113.217 332.174Z" fill="#C1C9D2"/>
<path fill-rule="evenodd" clip-rule="evenodd" d="M111.808 327.636C112.024 327.886 111.983 328.263 111.717 328.478L101.621 336.608C101.355 336.823 100.963 336.794 100.747 336.543C100.531 336.293 100.572 335.916 100.839 335.701L110.934 327.571C111.201 327.356 111.592 327.385 111.808 327.636Z" fill="#C1C9D2"/>
<path fill-rule="evenodd" clip-rule="evenodd" d="M110.391 323.087C110.607 323.338 110.566 323.715 110.3 323.929L100.204 332.06C99.9375 332.274 99.5464 332.245 99.3303 331.995C99.1143 331.744 99.1552 331.367 99.4216 331.153L109.517 323.022C109.784 322.808 110.175 322.837 110.391 323.087Z" fill="#C1C9D2"/>
<path fill-rule="evenodd" clip-rule="evenodd" d="M108.973 318.548C109.189 318.799 109.148 319.176 108.882 319.39L98.7861 327.521C98.5196 327.735 98.1284 327.706 97.9124 327.456C97.6963 327.205 97.7372 326.828 98.0037 326.613L108.099 318.483C108.366 318.268 108.757 318.298 108.973 318.548Z" fill="#C1C9D2"/>
<path fill-rule="evenodd" clip-rule="evenodd" d="M107.555 314.009C107.771 314.259 107.73 314.636 107.464 314.851L97.3681 322.981C97.1016 323.196 96.7104 323.167 96.4944 322.916C96.2783 322.666 96.3192 322.289 96.5857 322.074L106.681 313.944C106.948 313.729 107.339 313.758 107.555 314.009Z" fill="#C1C9D2"/>
<circle cx="320.553" cy="593.428" r="43.4556" transform="rotate(-9.73104 320.553 593.428)" fill="#BAC2CA"/>
<g filter="url(#filter5_bd_4_11115)">
<circle cx="320.552" cy="593.426" r="40.1128" transform="rotate(-9.73104 320.552 593.426)" fill="#D9E4E9"/>
</g>
<path d="M359.369 594.097C357.887 585.454 349.679 579.649 341.036 581.132L319.621 584.804L322.305 600.454L359.369 594.097Z" fill="#BAC2CA"/>
<path d="M322.912 554.557C314.269 556.04 308.464 564.248 309.946 572.891L313.619 594.306L329.268 591.622L322.912 554.557Z" fill="#BAC2CA"/>
<path d="M282.553 591.164C284.035 599.807 292.243 605.612 300.886 604.13L322.301 600.458L319.617 584.808L282.553 591.164Z" fill="#BAC2CA"/>
<path d="M319.975 631.378C328.618 629.896 334.423 621.688 332.941 613.045L329.269 591.63L313.619 594.313L319.975 631.378Z" fill="#BAC2CA"/>
<path fill-rule="evenodd" clip-rule="evenodd" d="M298.954 586.639C291.795 581.575 290.095 571.667 295.159 564.507L319.035 581.393L326.755 570.478C331.818 563.319 341.727 561.619 348.886 566.683L332.004 590.555L343.599 598.755C350.759 603.818 352.458 613.727 347.394 620.887L322.836 603.518L314.629 615.123C309.565 622.283 299.657 623.982 292.497 618.918L309.867 594.357L298.954 586.639Z" fill="#BAC2CA"/>
<path fill-rule="evenodd" clip-rule="evenodd" d="M298.041 592.561C289.814 589.523 285.609 580.392 288.646 572.165L316.083 582.298L320.716 569.753C323.754 561.527 332.885 557.321 341.111 560.359L330.977 587.802L344.305 592.723C352.531 595.761 356.737 604.893 353.699 613.119L325.478 602.697L320.557 616.023C317.519 624.25 308.388 628.456 300.161 625.418L310.585 597.193L298.041 592.561Z" fill="#BAC2CA"/>
<path fill-rule="evenodd" clip-rule="evenodd" d="M298.71 598.531C289.978 597.725 283.552 589.994 284.357 581.262L313.484 583.948L314.712 570.632C315.517 561.9 323.249 555.474 331.981 556.279L329.295 585.408L343.436 586.712C352.168 587.517 358.594 595.249 357.789 603.981L327.835 601.219L326.53 615.368C325.725 624.1 317.994 630.526 309.261 629.721L312.025 599.758L298.71 598.531Z" fill="#BAC2CA"/>
<path fill-rule="evenodd" clip-rule="evenodd" d="M309.945 572.89C308.462 564.247 314.267 556.039 322.91 554.557L327.855 583.39L341.029 581.131C349.672 579.649 357.88 585.454 359.362 594.097L330.536 599.04L332.937 613.038C334.419 621.681 328.614 629.889 319.971 631.371L314.887 601.728L300.884 604.13C292.241 605.612 284.033 599.807 282.551 591.164L312.206 586.078L309.945 572.89Z" fill="#BAC2CA"/>
<path fill-rule="evenodd" clip-rule="evenodd" d="M304.439 608.958C296.474 612.627 287.043 609.144 283.375 601.179L309.942 588.942L304.348 576.796C300.679 568.831 304.162 559.4 312.127 555.731L324.362 582.295L337.265 576.351C345.23 572.683 354.661 576.165 358.33 584.13L331.001 596.718L336.945 609.622C340.614 617.587 337.131 627.018 329.166 630.686L316.582 603.365L304.439 608.958Z" fill="#BAC2CA"/>
<path fill-rule="evenodd" clip-rule="evenodd" d="M309.13 612.703C302.386 618.308 292.375 617.385 286.77 610.641L309.259 591.95L300.718 581.674C295.113 574.93 296.036 564.919 302.78 559.314L321.471 581.803L332.402 572.718C339.146 567.113 349.157 568.036 354.762 574.78L331.619 594.015L340.703 604.946C346.309 611.69 345.385 621.701 338.641 627.306L319.406 604.163L309.13 612.703Z" fill="#BAC2CA"/>
<circle cx="320.553" cy="593.424" r="10.8639" transform="rotate(-9.73104 320.553 593.424)" fill="#C9D5DB"/>
<circle cx="320.553" cy="593.426" r="9.19253" transform="rotate(-9.73104 320.553 593.426)" fill="url(#paint2_radial_4_11115)"/>
<path d="M61.8848 436.505L162.921 449.461C180.823 451.756 196.098 463.521 202.888 480.244L211.62 501.749C213.348 506.003 209.852 510.541 205.298 509.957L54.9385 490.677L61.8848 436.505Z" fill="#C9D5DB"/>
<path d="M55.8193 483.787L211.933 503.805L211.812 504.748C211.39 508.035 208.384 510.358 205.097 509.936L54.9353 490.681L55.8193 483.787Z" fill="url(#paint3_linear_4_11115)"/>
<ellipse cx="58.41" cy="463.596" rx="3.97202" ry="27.3077" transform="rotate(7.307 58.41 463.596)" fill="#BAC2CA"/>
<rect x="80.0469" y="458.856" width="15.8881" height="9.93006" rx="4" transform="rotate(97.307 80.0469 458.856)" fill="#BAC2CA"/>
<rect x="120.428" y="464.034" width="15.8881" height="9.93006" rx="4" transform="rotate(97.307 120.428 464.034)" fill="#BAC2CA"/>
<rect x="160.808" y="469.217" width="15.8881" height="9.93006" rx="4" transform="rotate(97.307 160.808 469.217)" fill="#C7EAFB"/>
<rect x="163.665" y="462.574" width="29.7902" height="13.9021" rx="4" transform="rotate(97.307 163.665 462.574)" fill="#EBFF00"/>
<rect x="154.396" y="472.397" width="6.95104" height="3.97202" rx="1.98601" transform="rotate(97.307 154.396 472.397)" fill="#BAC2CA"/>
<rect x="99.7441" y="461.384" width="15.8881" height="9.93006" rx="4" transform="rotate(97.307 99.7441 461.384)" fill="#BAC2CA"/>
<rect x="140.127" y="466.557" width="15.8881" height="9.93006" rx="4" transform="rotate(97.307 140.127 466.557)" fill="#BAC2CA"/>
<path d="M195.744 473.695C196.666 473.814 197.442 474.443 197.749 475.321L200.973 484.548C201.953 487.355 199.637 490.213 196.688 489.835L195.255 489.651C193.064 489.37 191.516 487.366 191.797 485.175L192.996 475.818C193.169 474.473 194.399 473.523 195.744 473.695Z" fill="#B8C0C8"/>
<path d="M188.156 472.729C189.643 472.919 190.693 474.279 190.503 475.765L189.285 485.259C189.032 487.233 187.227 488.628 185.253 488.375C183.016 488.088 181.589 485.838 182.284 483.692L185.23 474.585C185.632 473.342 186.861 472.563 188.156 472.729Z" fill="#B8C0C8"/>
<g filter="url(#filter6_dd_4_11115)">
<path fill-rule="evenodd" clip-rule="evenodd" d="M414.885 134.648C405.437 118.903 388.5 107.751 368.457 106.187C346.941 104.507 327.245 114.297 315.687 130.297C305.533 120.617 291.982 114.21 276.741 113.02C252.572 111.133 230.564 122.867 218.649 141.618C213.744 139.676 208.457 138.422 202.904 137.988C173.777 135.714 148.369 156.871 146.154 185.243C145.058 199.282 149.845 212.457 158.491 222.461C151.811 230.961 147.503 241.388 146.606 252.877C144.137 284.504 168.456 312.199 200.925 314.734C218.753 316.125 235.331 309.643 247.066 298.279C255.908 309.04 269.109 316.364 284.299 317.55C299.617 318.746 313.906 313.461 324.334 304.055C333.71 312.406 345.896 317.896 359.515 318.959C375.361 320.196 390.218 315.213 401.566 306.11C409.382 310.896 418.46 313.966 428.285 314.734C442.461 315.84 455.846 311.968 466.635 304.622C472.425 314.706 483.108 321.888 495.797 322.879C514.111 324.309 530.299 312.35 534.25 295.424C535.816 295.693 537.409 295.892 539.025 296.018C566.772 298.184 590.977 278.03 593.087 251.002C594.417 233.959 586.646 218.253 573.766 208.431C574.15 206.761 574.415 205.044 574.552 203.286C576.085 183.661 561.038 166.469 540.918 164.813C539.887 147.201 525.616 132.565 507.073 131.117C498.058 130.413 489.556 132.945 482.769 137.714C473.974 131.066 463.164 126.754 451.259 125.825C437.937 124.785 425.312 128.142 414.885 134.648Z" fill="white" fill-opacity="0.7" shape-rendering="crispEdges"/>
</g>
<defs>
<filter id="filter0_bd_4_11115" x="201.352" y="625" width="38.374" height="36.0249" filterUnits="userSpaceOnUse" color-interpolation-filters="sRGB">
<feFlood flood-opacity="0" result="BackgroundImageFix"/>
<feGaussianBlur in="BackgroundImageFix" stdDeviation="4"/>
<feComposite in2="SourceAlpha" operator="in" result="effect1_backgroundBlur_4_11115"/>
<feColorMatrix in="SourceAlpha" type="matrix" values="0 0 0 0 0 0 0 0 0 0 0 0 0 0 0 0 0 0 127 0" result="hardAlpha"/>
<feOffset dy="2"/>
<feGaussianBlur stdDeviation="6"/>
<feComposite in2="hardAlpha" operator="out"/>
<feColorMatrix type="matrix" values="0 0 0 0 0 0 0 0 0 0 0 0 0 0 0 0 0 0 0.15 0"/>
<feBlend mode="normal" in2="effect1_backgroundBlur_4_11115" result="effect2_dropShadow_4_11115"/>
<feBlend mode="normal" in="SourceGraphic" in2="effect2_dropShadow_4_11115" result="shape"/>
</filter>
<filter id="filter1_bd_4_11115" x="310.347" y="0.412109" width="40.0244" height="34.9828" filterUnits="userSpaceOnUse" color-interpolation-filters="sRGB">
<feFlood flood-opacity="0" result="BackgroundImageFix"/>
<feGaussianBlur in="BackgroundImageFix" stdDeviation="4"/>
<feComposite in2="SourceAlpha" operator="in" result="effect1_backgroundBlur_4_11115"/>
<feColorMatrix in="SourceAlpha" type="matrix" values="0 0 0 0 0 0 0 0 0 0 0 0 0 0 0 0 0 0 127 0" result="hardAlpha"/>
<feOffset dy="2"/>
<feGaussianBlur stdDeviation="6"/>
<feComposite in2="hardAlpha" operator="out"/>
<feColorMatrix type="matrix" values="0 0 0 0 0 0 0 0 0 0 0 0 0 0 0 0 0 0 0.15 0"/>
<feBlend mode="normal" in2="effect1_backgroundBlur_4_11115" result="effect2_dropShadow_4_11115"/>
<feBlend mode="normal" in="SourceGraphic" in2="effect2_dropShadow_4_11115" result="shape"/>
</filter>
<filter id="filter2_bd_4_11115" x="198.104" y="261.613" width="163.27" height="163.269" filterUnits="userSpaceOnUse" color-interpolation-filters="sRGB">
<feFlood flood-opacity="0" result="BackgroundImageFix"/>
<feGaussianBlur in="BackgroundImageFix" stdDeviation="4"/>
<feComposite in2="SourceAlpha" operator="in" result="effect1_backgroundBlur_4_11115"/>
<feColorMatrix in="SourceAlpha" type="matrix" values="0 0 0 0 0 0 0 0 0 0 0 0 0 0 0 0 0 0 127 0" result="hardAlpha"/>
<feOffset dy="2"/>
<feGaussianBlur stdDeviation="6"/>
<feComposite in2="hardAlpha" operator="out"/>
<feColorMatrix type="matrix" values="0 0 0 0 0 0 0 0 0 0 0 0 0 0 0 0 0 0 0.15 0"/>
<feBlend mode="normal" in2="effect1_backgroundBlur_4_11115" result="effect2_dropShadow_4_11115"/>
<feBlend mode="normal" in="SourceGraphic" in2="effect2_dropShadow_4_11115" result="shape"/>
</filter>
<filter id="filter3_bd_4_11115" x="251.784" y="315.291" width="55.916" height="55.916" filterUnits="userSpaceOnUse" color-interpolation-filters="sRGB">
<feFlood flood-opacity="0" result="BackgroundImageFix"/>
<feGaussianBlur in="BackgroundImageFix" stdDeviation="4"/>
<feComposite in2="SourceAlpha" operator="in" result="effect1_backgroundBlur_4_11115"/>
<feColorMatrix in="SourceAlpha" type="matrix" values="0 0 0 0 0 0 0 0 0 0 0 0 0 0 0 0 0 0 127 0" result="hardAlpha"/>
<feOffset dy="2"/>
<feGaussianBlur stdDeviation="6"/>
<feComposite in2="hardAlpha" operator="out"/>
<feColorMatrix type="matrix" values="0 0 0 0 0 0 0 0 0 0 0 0 0 0 0 0 0 0 0.15 0"/>
<feBlend mode="normal" in2="effect1_backgroundBlur_4_11115" result="effect2_dropShadow_4_11115"/>
<feBlend mode="normal" in="SourceGraphic" in2="effect2_dropShadow_4_11115" result="shape"/>
</filter>
<filter id="filter4_bd_4_11115" x="90.3828" y="333.305" width="40.2227" height="34.4409" filterUnits="userSpaceOnUse" color-interpolation-filters="sRGB">
<feFlood flood-opacity="0" result="BackgroundImageFix"/>
<feGaussianBlur in="BackgroundImageFix" stdDeviation="4"/>
<feComposite in2="SourceAlpha" operator="in" result="effect1_backgroundBlur_4_11115"/>
<feColorMatrix in="SourceAlpha" type="matrix" values="0 0 0 0 0 0 0 0 0 0 0 0 0 0 0 0 0 0 127 0" result="hardAlpha"/>
<feOffset dy="2"/>
<feGaussianBlur stdDeviation="6"/>
<feComposite in2="hardAlpha" operator="out"/>
<feColorMatrix type="matrix" values="0 0 0 0 0 0 0 0 0 0 0 0 0 0 0 0 0 0 0.15 0"/>
<feBlend mode="normal" in2="effect1_backgroundBlur_4_11115" result="effect2_dropShadow_4_11115"/>
<feBlend mode="normal" in="SourceGraphic" in2="effect2_dropShadow_4_11115" result="shape"/>
</filter>
<filter id="filter5_bd_4_11115" x="268.433" y="543.307" width="104.238" height="104.239" filterUnits="userSpaceOnUse" color-interpolation-filters="sRGB">
<feFlood flood-opacity="0" result="BackgroundImageFix"/>
<feGaussianBlur in="BackgroundImageFix" stdDeviation="4"/>
<feComposite in2="SourceAlpha" operator="in" result="effect1_backgroundBlur_4_11115"/>
<feColorMatrix in="SourceAlpha" type="matrix" values="0 0 0 0 0 0 0 0 0 0 0 0 0 0 0 0 0 0 127 0" result="hardAlpha"/>
<feOffset dy="2"/>
<feGaussianBlur stdDeviation="6"/>
<feComposite in2="hardAlpha" operator="out"/>
<feColorMatrix type="matrix" values="0 0 0 0 0 0 0 0 0 0 0 0 0 0 0 0 0 0 0.15 0"/>
<feBlend mode="normal" in2="effect1_backgroundBlur_4_11115" result="effect2_dropShadow_4_11115"/>
<feBlend mode="normal" in="SourceGraphic" in2="effect2_dropShadow_4_11115" result="shape"/>
</filter>
<filter id="filter6_dd_4_11115" x="121.999" y="84" width="495.235" height="264.995" filterUnits="userSpaceOnUse" color-interpolation-filters="sRGB">
<feFlood flood-opacity="0" result="BackgroundImageFix"/>
<feColorMatrix in="SourceAlpha" type="matrix" values="0 0 0 0 0 0 0 0 0 0 0 0 0 0 0 0 0 0 127 0" result="hardAlpha"/>
<feOffset dy="2"/>
<feGaussianBlur stdDeviation="12"/>
<feComposite in2="hardAlpha" operator="out"/>
<feColorMatrix type="matrix" values="0 0 0 0 0 0 0 0 0 0 0 0 0 0 0 0 0 0 0.15 0"/>
<feBlend mode="normal" in2="BackgroundImageFix" result="effect1_dropShadow_4_11115"/>
<feColorMatrix in="SourceAlpha" type="matrix" values="0 0 0 0 0 0 0 0 0 0 0 0 0 0 0 0 0 0 127 0" result="hardAlpha"/>
<feOffset dy="2"/>
<feGaussianBlur stdDeviation="3"/>
<feComposite in2="hardAlpha" operator="out"/>
<feColorMatrix type="matrix" values="0 0 0 0 0 0 0 0 0 0 0 0 0 0 0 0 0 0 0.1 0"/>
<feBlend mode="normal" in2="effect1_dropShadow_4_11115" result="effect2_dropShadow_4_11115"/>
<feBlend mode="normal" in="SourceGraphic" in2="effect2_dropShadow_4_11115" result="shape"/>
</filter>
<linearGradient id="paint0_linear_4_11115" x1="128.995" y1="105.684" x2="126.225" y2="116.018" gradientUnits="userSpaceOnUse">
<stop stop-color="#C9D5DB" stop-opacity="0.5"/>
<stop offset="1" stop-color="#8B8F92" stop-opacity="0.5"/>
</linearGradient>
<radialGradient id="paint1_radial_4_11115" cx="0" cy="0" r="1" gradientUnits="userSpaceOnUse" gradientTransform="translate(279.742 341.249) rotate(90) scale(15.9554)">
<stop stop-color="#BAC2CA"/>
<stop offset="0.64" stop-color="#DDE9EE"/>
</radialGradient>
<radialGradient id="paint2_radial_4_11115" cx="0" cy="0" r="1" gradientUnits="userSpaceOnUse" gradientTransform="translate(320.553 593.426) rotate(90) scale(9.19253)">
<stop stop-color="#BAC2CA"/>
<stop offset="0.64" stop-color="#DDE9EE"/>
</radialGradient>
<linearGradient id="paint3_linear_4_11115" x1="134.122" y1="493.827" x2="133.238" y2="500.722" gradientUnits="userSpaceOnUse">
<stop stop-color="#C9D5DB" stop-opacity="0.5"/>
<stop offset="1" stop-color="#8B8F92" stop-opacity="0.5"/>
</linearGradient>
</defs>
</svg>
