<svg width="546" height="305" viewBox="0 0 546 305" fill="none" xmlns="http://www.w3.org/2000/svg">
<path d="M350.069 147.657C361.421 189.27 404.271 213.829 445.778 202.509C487.284 191.19 511.73 148.28 500.377 106.668L350.069 147.657Z" fill="#231F20"/>
<path d="M287.243 213.46C280.431 188.487 295.101 162.737 320.01 155.945L332.345 201.162L287.243 213.46Z" fill="#231F20"/>
<path d="M500.376 106.623C507.189 131.595 492.519 157.345 467.61 164.137L455.275 118.921L500.376 106.623Z" fill="#231F20"/>
<path d="M467.622 164.214L455.29 118.943L320.058 155.894L332.389 201.166L467.622 164.214Z" fill="#231F20"/>
<path d="M434.282 169.377C439.9 194.642 424.032 219.689 398.84 225.324L388.667 179.579L434.282 169.377Z" fill="#231F20"/>
<path d="M403.638 179.131C409.256 204.396 393.388 229.443 368.197 235.078L358.023 189.333L403.638 179.131Z" fill="#6E00FF"/>
<path d="M375.288 184.248C380.906 209.513 365.038 234.56 339.846 240.194L329.673 194.45L375.288 184.248Z" fill="#231F20"/>
<path d="M344.505 193.762C350.123 219.027 334.255 244.074 309.064 249.709L298.891 203.965L344.505 193.762Z" fill="#6E00FF"/>
<path d="M370.418 108.314C382.591 152.935 428.538 179.269 473.044 167.131C517.55 154.993 543.763 108.983 531.59 64.3626L370.418 108.314Z" fill="#231F20"/>
<path d="M303.052 178.873C295.748 152.095 311.478 124.484 338.187 117.201L351.413 165.685L303.052 178.873Z" fill="#231F20"/>
<path d="M531.589 64.3143C538.894 91.0918 523.164 118.703 496.454 125.986L483.228 77.5015L531.589 64.3143Z" fill="#231F20"/>
<path d="M496.468 126.068L483.245 77.5254L338.239 117.147L351.462 165.69L496.468 126.068Z" fill="#231F20"/>
<path d="M460.717 131.604C466.741 158.695 449.726 185.552 422.713 191.594L411.805 142.543L460.717 131.604Z" fill="#231F20"/>
<path d="M427.858 142.063C433.882 169.154 416.867 196.011 389.855 202.053L378.946 153.002L427.858 142.063Z" fill="#C7EAFB"/>
<path d="M397.459 147.549C403.483 174.64 386.468 201.498 359.455 207.539L348.547 158.489L397.459 147.549Z" fill="#231F20"/>
<path d="M364.451 157.752C370.475 184.843 353.46 211.7 326.448 217.742L315.539 168.691L364.451 157.752Z" fill="#C7EAFB"/>
<path d="M195.932 147.617C184.579 189.229 141.729 213.788 100.223 202.469C58.7166 191.149 34.2708 148.24 45.6236 106.627L195.932 147.617Z" fill="#231F20"/>
<path d="M258.757 213.42C265.57 188.447 250.9 162.697 225.991 155.905L213.656 201.121L258.757 213.42Z" fill="#231F20"/>
<path d="M45.6223 106.583C38.81 131.556 53.48 157.306 78.3891 164.098L90.7237 118.881L45.6223 106.583Z" fill="#231F20"/>
<path d="M213.634 201.09L225.966 155.819L90.7334 118.868L78.4018 164.139L213.634 201.09Z" fill="#231F20"/>
<path d="M111.715 169.335C106.097 194.6 121.965 219.647 147.156 225.282L157.33 179.537L111.715 169.335Z" fill="#231F20"/>
<path d="M142.359 179.089C136.741 204.354 152.609 229.401 177.801 235.036L187.974 189.291L142.359 179.089Z" fill="#6E00FF"/>
<path d="M170.709 184.205C165.091 209.47 180.959 234.517 206.151 240.152L216.324 194.407L170.709 184.205Z" fill="#231F20"/>
<path d="M201.492 193.722C195.874 218.987 211.742 244.034 236.934 249.668L247.107 203.924L201.492 193.722Z" fill="#6E00FF"/>
<path d="M175.582 108.271C163.409 152.891 117.462 179.225 72.9559 167.088C28.4497 154.95 2.237 108.94 14.4103 64.3193L175.582 108.271Z" fill="#231F20"/>
<path d="M242.948 178.83C250.253 152.052 234.523 124.442 207.813 117.158L194.587 165.643L242.948 178.83Z" fill="#231F20"/>
<path d="M14.4092 64.2721C7.10464 91.0496 22.8348 118.661 49.5443 125.944L62.7704 77.4593L14.4092 64.2721Z" fill="#231F20"/>
<path d="M194.564 165.61L207.787 117.066L62.7808 77.4447L49.5579 125.988L194.564 165.61Z" fill="#231F20"/>
<path d="M85.2788 131.56C79.2548 158.651 96.2697 185.508 123.282 191.55L134.191 142.499L85.2788 131.56Z" fill="#231F20"/>
<path d="M118.138 142.018C112.114 169.109 129.129 195.966 156.141 202.008L167.05 152.957L118.138 142.018Z" fill="#C7EAFB"/>
<path d="M148.538 147.504C142.514 174.595 159.528 201.453 186.541 207.494L197.449 158.444L148.538 147.504Z" fill="#231F20"/>
<path d="M181.545 157.709C175.521 184.8 192.536 211.657 219.549 217.699L230.457 168.648L181.545 157.709Z" fill="#C7EAFB"/>
<path fill-rule="evenodd" clip-rule="evenodd" d="M273.845 263.113C273.622 263.115 273.398 263.116 273.174 263.116C272.95 263.116 272.726 263.115 272.502 263.113H217.981C206.935 263.113 197.981 254.159 197.981 243.113V189.718C197.963 189.041 197.954 188.363 197.954 187.683C197.954 146.022 231.631 112.25 273.174 112.25C314.716 112.25 348.393 146.022 348.393 187.683C348.393 187.847 348.393 188.011 348.392 188.175C348.412 188.24 348.422 188.308 348.422 188.38V243.113C348.422 254.158 339.468 263.113 328.422 263.113H273.845Z" fill="#2D2D2D"/>
<path d="M241.221 181.111C252.818 181.111 262.218 171.684 262.218 160.055C262.218 148.425 252.818 138.998 241.221 138.998C229.625 138.998 220.225 148.425 220.225 160.055C220.225 171.684 229.625 181.111 241.221 181.111Z" fill="white"/>
<path d="M241.221 170.584C247.02 170.584 251.721 165.87 251.721 160.055C251.721 154.239 247.02 149.525 241.221 149.525C235.422 149.525 230.722 154.239 230.722 160.055C230.722 165.87 235.422 170.584 241.221 170.584Z" fill="#231F20"/>
<path d="M234.07 158.666C238.637 158.666 242.339 154.954 242.339 150.374C242.339 145.794 238.637 142.081 234.07 142.081C229.503 142.081 225.801 145.794 225.801 150.374C225.801 154.954 229.503 158.666 234.07 158.666Z" fill="white"/>
<path d="M231.717 229.551C248.716 229.551 262.497 215.731 262.497 198.683C262.497 181.636 248.716 167.816 231.717 167.816C214.718 167.816 200.938 181.636 200.938 198.683C200.938 215.731 214.718 229.551 231.717 229.551Z" fill="#2D2D2D"/>
<path d="M305.179 181.11C316.775 181.11 326.175 171.683 326.175 160.054C326.175 148.425 316.775 138.998 305.179 138.998C293.582 138.998 284.182 148.425 284.182 160.054C284.182 171.683 293.582 181.11 305.179 181.11Z" fill="white"/>
<path d="M305.178 170.583C310.977 170.583 315.678 165.869 315.678 160.054C315.678 154.239 310.977 149.525 305.178 149.525C299.379 149.525 294.679 154.239 294.679 160.054C294.679 165.869 299.379 170.583 305.178 170.583Z" fill="#231F20"/>
<path d="M298.029 158.666C302.596 158.666 306.298 154.954 306.298 150.374C306.298 145.794 302.596 142.081 298.029 142.081C293.462 142.081 289.76 145.794 289.76 150.374C289.76 154.954 293.462 158.666 298.029 158.666Z" fill="white"/>
<path d="M314.684 229.551C331.683 229.551 345.464 215.731 345.464 198.683C345.464 181.636 331.683 167.816 314.684 167.816C297.685 167.816 283.904 181.636 283.904 198.683C283.904 215.731 297.685 229.551 314.684 229.551Z" fill="#2D2D2D"/>
<path d="M273.173 175.421C254.879 175.421 240.049 189.149 240.049 206.083L273.175 263.124V175.421H273.173Z" fill="#C7EAFB"/>
<path d="M306.301 206.083C306.301 189.149 291.47 175.421 273.177 175.421V263.124L306.303 206.083H306.301Z" fill="#6E00FF"/>
<path d="M345.489 147.148H337.611C337.468 147.148 337.33 147.162 337.193 147.182C332.109 135.748 320.856 127.778 307.822 127.778C290.849 127.778 276.896 141.29 275.652 158.374C273.728 157.955 271.728 158.005 269.827 158.518C268.652 141.366 254.67 127.778 237.65 127.778C224.628 127.778 213.385 135.732 208.293 147.148H200.738C199.119 147.148 197.805 148.495 197.805 150.156C197.805 151.816 199.119 153.163 200.738 153.163H206.273C205.698 155.633 205.391 158.207 205.391 160.856C205.391 179.095 219.863 193.934 237.65 193.934C254.056 193.934 267.638 181.312 269.651 165.044C271.517 163.918 273.818 163.799 275.781 164.712C277.651 181.14 291.305 193.934 307.82 193.934C325.607 193.934 340.079 179.095 340.079 160.856C340.079 158.207 339.772 155.633 339.197 153.163H345.489C347.108 153.163 348.422 151.816 348.422 150.156C348.422 148.495 347.108 147.148 345.489 147.148ZM237.65 187.919C223.097 187.919 211.257 175.779 211.257 160.856C211.257 145.933 223.097 133.793 237.65 133.793C252.204 133.793 264.044 145.933 264.044 160.856C264.044 175.779 252.204 187.919 237.65 187.919ZM307.822 187.919C293.268 187.919 281.428 175.779 281.428 160.856C281.428 145.933 293.268 133.793 307.822 133.793C322.375 133.793 334.215 145.933 334.215 160.856C334.215 175.779 322.375 187.919 307.822 187.919Z" fill="#EBFF00"/>
</svg>
