<svg width="460" height="257" viewBox="0 0 460 257" fill="none" xmlns="http://www.w3.org/2000/svg">
<path d="M316.507 120.44C291.401 146.686 292.253 188.339 318.413 213.476C344.572 238.613 386.132 237.716 411.238 211.47L316.507 120.44Z" fill="#231F20"/>
<path d="M241.871 103.378C256.933 87.6346 281.863 87.0961 297.556 102.176L270.285 130.682L241.871 103.378Z" fill="#231F20"/>
<path d="M411.236 211.492C396.174 227.236 371.243 227.774 355.551 212.694L382.822 184.188L411.236 211.492Z" fill="#231F20"/>
<path d="M355.547 212.712L382.816 184.182L297.568 102.215L270.299 130.744L355.547 212.712Z" fill="#231F20"/>
<path d="M337.363 190.81C321.594 205.83 296.672 205.184 281.698 189.37L310.249 162.174L337.363 190.81Z" fill="#231F20"/>
<path d="M317.058 172.83C301.289 187.849 276.368 187.204 261.393 171.389L289.944 144.193L317.058 172.83Z" fill="#6E00FF"/>
<path d="M301.088 154.501C285.319 169.521 260.398 168.875 245.423 153.06L273.974 125.865L301.088 154.501Z" fill="#231F20"/>
<path d="M280.896 136.316C265.127 151.336 240.205 150.69 225.231 134.875L253.782 107.679L280.896 136.316Z" fill="#6E00FF"/>
<path d="M353.669 118.143C326.748 146.286 327.661 190.95 355.712 217.903C383.762 244.857 428.325 243.894 455.246 215.752L353.669 118.143Z" fill="#231F20"/>
<path d="M273.638 99.8483C289.788 82.9667 316.521 82.3893 333.348 98.5587L304.105 129.125L273.638 99.8483Z" fill="#231F20"/>
<path d="M455.243 215.775C439.093 232.657 412.36 233.234 395.534 217.065L424.776 186.498L455.243 215.775Z" fill="#231F20"/>
<path d="M395.529 217.083L424.769 186.491L333.359 98.5999L304.119 129.192L395.529 217.083Z" fill="#231F20"/>
<path d="M376.031 193.599C359.122 209.705 332.4 209.012 316.343 192.054L346.957 162.893L376.031 193.599Z" fill="#231F20"/>
<path d="M354.26 174.319C337.351 190.424 310.628 189.732 294.571 172.774L325.186 143.613L354.26 174.319Z" fill="#C7EAFB"/>
<path d="M337.136 154.665C320.227 170.771 293.504 170.078 277.447 153.12L308.062 123.959L337.136 154.665Z" fill="#231F20"/>
<path d="M315.483 135.166C298.574 151.271 271.852 150.579 255.795 133.621L286.409 104.46L315.483 135.166Z" fill="#C7EAFB"/>
<path d="M184.513 124.421C207.014 152.948 202.208 194.325 173.776 216.838C145.343 239.352 104.053 234.478 81.5507 205.951L184.513 124.421Z" fill="#231F20"/>
<path d="M260.434 114.571C246.935 97.4595 222.166 94.5359 205.111 108.042L229.552 139.025L260.434 114.571Z" fill="#231F20"/>
<path d="M81.5532 205.981C95.0521 223.093 119.821 226.017 136.876 212.511L112.435 181.527L81.5532 205.981Z" fill="#231F20"/>
<path d="M229.521 139.064L205.082 108.048L112.431 181.475L136.87 212.49L229.521 139.064Z" fill="#231F20"/>
<path d="M157.057 192.467C171.326 208.927 196.195 210.668 212.605 196.358L186.771 166.555L157.057 192.467Z" fill="#231F20"/>
<path d="M178.98 176.51C193.249 192.97 218.118 194.711 234.528 180.402L208.694 150.598L178.98 176.51Z" fill="#6E00FF"/>
<path d="M196.619 159.793C210.888 176.253 235.757 177.995 252.168 163.685L226.334 133.882L196.619 159.793Z" fill="#231F20"/>
<path d="M218.452 143.623C232.72 160.083 257.589 161.825 274 147.515L248.166 117.712L218.452 143.623Z" fill="#6E00FF"/>
<path d="M147.737 118.579C171.865 149.168 166.711 193.535 136.224 217.675C105.736 241.816 61.4616 236.59 37.3335 206.002L147.737 118.579Z" fill="#231F20"/>
<path d="M229.145 108.017C214.67 89.6684 188.111 86.5336 169.823 101.015L196.031 134.238L229.145 108.017Z" fill="#231F20"/>
<path d="M37.3362 206.034C51.8108 224.383 78.3697 227.517 96.6579 213.036L70.4498 179.813L37.3362 206.034Z" fill="#231F20"/>
<path d="M195.999 134.28L169.793 101.022L70.4451 179.756L96.6507 213.013L195.999 134.28Z" fill="#231F20"/>
<path d="M118.298 191.542C133.598 209.192 160.265 211.059 177.861 195.715L150.16 163.758L118.298 191.542Z" fill="#231F20"/>
<path d="M141.804 174.432C157.104 192.082 183.77 193.95 201.367 178.605L173.666 146.648L141.804 174.432Z" fill="#C7EAFB"/>
<path d="M160.72 156.507C176.02 174.157 202.686 176.024 220.283 160.68L192.582 128.723L160.72 156.507Z" fill="#231F20"/>
<path d="M184.129 139.169C199.429 156.818 226.096 158.686 243.692 143.342L215.991 111.384L184.129 139.169Z" fill="#C7EAFB"/>
<path fill-rule="evenodd" clip-rule="evenodd" d="M248.627 181.426C248.438 181.428 248.249 181.429 248.059 181.429C247.87 181.429 247.681 181.428 247.492 181.426H197.945C190.638 181.426 184.713 175.484 184.713 168.154V119.7C184.696 119.091 184.688 118.48 184.688 117.867C184.688 82.7627 213.06 54.3052 248.059 54.3052C283.059 54.3052 311.431 82.7627 311.431 117.867C311.431 118.161 311.429 118.454 311.425 118.747C311.447 118.837 311.459 118.93 311.459 119.026V168.154C311.459 175.484 305.535 181.426 298.227 181.426H248.627Z" fill="#2D2D2D"/>
<path d="M221.14 112.329C230.91 112.329 238.83 104.386 238.83 94.5866C238.83 84.7876 230.91 76.844 221.14 76.844C211.37 76.844 203.45 84.7876 203.45 94.5866C203.45 104.386 211.37 112.329 221.14 112.329Z" fill="white"/>
<path d="M221.141 103.459C226.026 103.459 229.986 99.4867 229.986 94.5868C229.986 89.6868 226.026 85.7146 221.141 85.7146C216.255 85.7146 212.295 89.6868 212.295 94.5868C212.295 99.4867 216.255 103.459 221.141 103.459Z" fill="#231F20"/>
<path d="M215.114 93.4173C218.962 93.4173 222.081 90.2888 222.081 86.4297C222.081 82.5706 218.962 79.4421 215.114 79.4421C211.267 79.4421 208.147 82.5706 208.147 86.4297C208.147 90.2888 211.267 93.4173 215.114 93.4173Z" fill="white"/>
<path d="M213.133 153.146C227.454 153.146 239.064 141.501 239.064 127.137C239.064 112.772 227.454 101.127 213.133 101.127C198.811 101.127 187.201 112.772 187.201 127.137C187.201 141.501 198.811 153.146 213.133 153.146Z" fill="#2D2D2D"/>
<path d="M275.025 112.329C284.794 112.329 292.714 104.386 292.714 94.5866C292.714 84.7876 284.794 76.844 275.025 76.844C265.255 76.844 257.335 84.7876 257.335 94.5866C257.335 104.386 265.255 112.329 275.025 112.329Z" fill="white"/>
<path d="M275.025 103.459C279.911 103.459 283.871 99.4867 283.871 94.5868C283.871 89.6868 279.911 85.7146 275.025 85.7146C270.14 85.7146 266.18 89.6868 266.18 94.5868C266.18 99.4867 270.14 103.459 275.025 103.459Z" fill="#231F20"/>
<path d="M269.001 93.4173C272.848 93.4173 275.968 90.2888 275.968 86.4297C275.968 82.5706 272.848 79.4421 269.001 79.4421C265.153 79.4421 262.034 82.5706 262.034 86.4297C262.034 90.2888 265.153 93.4173 269.001 93.4173Z" fill="white"/>
<path d="M283.031 153.146C297.353 153.146 308.963 141.501 308.963 127.137C308.963 112.772 297.353 101.127 283.031 101.127C268.71 101.127 257.1 112.772 257.1 127.137C257.1 141.501 268.71 153.146 283.031 153.146Z" fill="#2D2D2D"/>
<path d="M248.052 107.535C232.64 107.535 220.146 119.103 220.146 133.371L248.054 181.435V107.535H248.052Z" fill="#C7EAFB"/>
<path d="M275.962 133.371C275.962 119.103 263.468 107.535 248.056 107.535V181.435L275.964 133.371H275.962Z" fill="#6E00FF"/>
<path d="M308.884 84.0346H302.247C302.126 84.0346 302.009 84.0464 301.894 84.0633C297.611 74.4286 288.13 67.7131 277.149 67.7131C262.85 67.7131 251.095 79.0981 250.047 93.4936C248.426 93.1405 246.741 93.1828 245.139 93.6153C244.149 79.1623 232.369 67.7131 218.031 67.7131C207.059 67.7131 197.587 74.4151 193.297 84.0346H186.932C185.568 84.0346 184.461 85.1699 184.461 86.5687C184.461 87.9676 185.568 89.1028 186.932 89.1028H191.596C191.111 91.1842 190.853 93.3534 190.853 95.5851C190.853 110.954 203.045 123.457 218.031 123.457C231.852 123.457 243.294 112.822 244.991 99.1143C246.563 98.1649 248.502 98.0652 250.156 98.8339C251.731 112.677 263.234 123.457 277.148 123.457C292.133 123.457 304.326 110.954 304.326 95.5851C304.326 93.3534 304.067 91.1842 303.583 89.1028H308.884C310.248 89.1028 311.355 87.9676 311.355 86.5687C311.355 85.1699 310.248 84.0346 308.884 84.0346ZM218.031 118.389C205.769 118.389 195.795 108.159 195.795 95.5851C195.795 83.0108 205.769 72.7814 218.031 72.7814C230.292 72.7814 240.267 83.0108 240.267 95.5851C240.267 108.159 230.292 118.389 218.031 118.389ZM277.149 118.389C264.888 118.389 254.913 108.159 254.913 95.5851C254.913 83.0108 264.888 72.7814 277.149 72.7814C289.41 72.7814 299.385 83.0108 299.385 95.5851C299.385 108.159 289.41 118.389 277.149 118.389Z" fill="#EBFF00"/>
</svg>
