<svg width="671" height="679" viewBox="0 0 671 679" fill="none" xmlns="http://www.w3.org/2000/svg">
<circle cx="351.833" cy="306.979" r="216.063" transform="rotate(28.9341 351.833 306.979)" fill="url(#paint0_radial_4_11117)"/>
<path d="M208.724 552.361L196.934 545.843L232.077 450.266C232.604 448.832 231.868 447.241 230.434 446.714C229 446.186 227.409 446.922 226.882 448.356L192.033 543.136L167.121 529.364C165.783 528.625 164.098 529.11 163.358 530.448C162.619 531.786 163.104 533.471 164.442 534.21L192.167 549.537C192.167 549.537 192.173 549.54 192.174 549.541C192.178 549.543 192.18 549.544 192.183 549.546L206.046 557.209C207.384 557.949 209.069 557.464 209.808 556.126C210.548 554.788 210.062 553.103 208.725 552.363L208.724 552.361Z" fill="#2D2D2D"/>
<path d="M310.094 560.661L283.125 569.765L265.749 470.288C265.486 468.783 264.052 467.775 262.547 468.038C261.041 468.301 260.033 469.735 260.296 471.24L277.819 571.555L265.055 575.863C263.607 576.352 262.829 577.924 263.317 579.372C263.806 580.82 265.378 581.599 266.826 581.11L281.834 576.043C281.834 576.043 281.84 576.041 281.843 576.04C281.845 576.039 281.849 576.038 281.851 576.037L311.867 565.904C313.315 565.415 314.093 563.844 313.604 562.396C313.115 560.947 311.544 560.169 310.095 560.658L310.094 560.661Z" fill="#2D2D2D"/>
<path d="M410.84 370.546C415.713 414.526 455.316 446.229 499.296 441.356C543.276 436.482 574.979 396.88 570.105 352.9L410.84 370.546Z" fill="#231F20"/>
<path d="M336.506 427.147C333.582 400.759 352.604 376.998 378.992 374.075L384.285 421.854L336.506 427.147Z" fill="#231F20"/>
<path d="M570.103 352.9C573.027 379.287 554.005 403.048 527.618 405.972L522.324 358.193L570.103 352.9Z" fill="#231F20"/>
<path d="M527.645 405.984L522.349 358.206L379.012 374.096L384.309 421.874L527.645 405.984Z" fill="#231F20"/>
<path d="M492.943 405.945C494.627 432.441 474.514 455.285 448.019 456.97L444.968 408.995L492.943 405.945Z" fill="#231F20"/>
<path d="M460.251 410.934C461.935 437.431 441.822 460.274 415.327 461.959L412.276 413.985L460.251 410.934Z" fill="#6E00FF"/>
<path d="M430.631 411.588C432.316 438.085 412.202 460.928 385.708 462.614L382.657 414.639L430.631 411.588Z" fill="#231F20"/>
<path d="M397.84 416.312C399.525 442.809 379.411 465.652 352.916 467.337L349.866 419.363L397.84 416.312Z" fill="#6E00FF"/>
<path d="M268.74 291.942C228.905 311.207 180.994 294.533 161.73 254.697C142.465 214.862 159.139 166.951 198.975 147.686L268.74 291.942Z" fill="#231F20"/>
<path d="M260.348 384.998C284.249 373.439 294.253 344.694 282.694 320.793L239.418 341.723L260.348 384.998Z" fill="#231F20"/>
<path d="M198.978 147.687C175.077 159.246 165.072 187.992 176.632 211.892L219.908 190.962L198.978 147.687Z" fill="#231F20"/>
<path d="M239.427 341.702L282.704 320.775L219.924 190.943L176.647 211.869L239.427 341.702Z" fill="#231F20"/>
<path d="M195.086 241.242C171.752 253.909 163.105 283.091 175.77 306.424L218.019 283.491L195.086 241.242Z" fill="#231F20"/>
<path d="M208.251 271.579C184.917 284.245 176.27 313.428 188.935 336.76L231.184 313.828L208.251 271.579Z" fill="#6E00FF"/>
<path d="M223.455 297.014C200.122 309.681 191.475 338.863 204.139 362.196L246.388 339.263L223.455 297.014Z" fill="#231F20"/>
<path d="M236.891 327.298C213.557 339.964 204.91 369.146 217.575 392.479L259.824 369.546L236.891 327.298Z" fill="#6E00FF"/>
<path d="M437.787 333.938C443.013 381.097 485.477 415.092 532.636 409.866C579.795 404.64 613.789 362.176 608.564 315.017L437.787 333.938Z" fill="#231F20"/>
<path d="M358.072 394.63C354.937 366.335 375.333 340.857 403.629 337.722L409.304 388.954L358.072 394.63Z" fill="#231F20"/>
<path d="M608.557 315.014C611.692 343.309 591.296 368.788 563.001 371.922L557.325 320.69L608.557 315.014Z" fill="#231F20"/>
<path d="M563.041 371.939L557.361 320.708L403.665 337.747L409.345 388.978L563.041 371.939Z" fill="#231F20"/>
<path d="M525.822 371.895C527.628 400.307 506.061 424.802 477.651 426.609L474.38 375.167L525.822 371.895Z" fill="#231F20"/>
<path d="M490.773 377.245C492.579 405.657 471.012 430.151 442.602 431.958L439.331 380.516L490.773 377.245Z" fill="#C7EAFB"/>
<path d="M459.007 377.947C460.813 406.359 439.246 430.853 410.837 432.66L407.565 381.218L459.007 377.947Z" fill="#231F20"/>
<path d="M423.843 383.011C425.649 411.422 404.082 435.917 375.672 437.724L372.401 386.282L423.843 383.011Z" fill="#C7EAFB"/>
<path d="M285.41 249.652C242.696 270.309 191.322 252.43 170.665 209.715C150.009 167 167.888 115.627 210.603 94.9701L285.41 249.652Z" fill="#231F20"/>
<path d="M276.411 349.433C302.039 337.038 312.767 306.215 300.372 280.587L253.969 303.03L276.411 349.433Z" fill="#231F20"/>
<path d="M210.604 94.9697C184.975 107.365 174.248 138.188 186.643 163.816L233.046 141.373L210.604 94.9697Z" fill="#231F20"/>
<path d="M253.979 303.009L300.383 280.57L233.066 141.354L186.661 163.793L253.979 303.009Z" fill="#231F20"/>
<path d="M206.438 195.289C181.418 208.871 172.146 240.162 185.726 265.181L231.029 240.591L206.438 195.289Z" fill="#231F20"/>
<path d="M220.553 227.817C195.532 241.399 186.261 272.69 199.841 297.71L245.143 273.119L220.553 227.817Z" fill="#C7EAFB"/>
<path d="M236.849 255.09C211.828 268.672 202.556 299.963 216.137 324.982L261.439 300.392L236.849 255.09Z" fill="#231F20"/>
<path d="M251.266 287.564C226.246 301.146 216.974 332.438 230.554 357.457L275.856 332.866L251.266 287.564Z" fill="#C7EAFB"/>
<path d="M413.059 359.056L277.633 284.191L240.201 351.904L375.627 426.768L413.059 359.056Z" fill="#2D2D2D"/>
<path d="M375.624 426.77L240.198 351.905L202.767 419.617L338.193 494.482L375.624 426.77Z" fill="#2D2D2D"/>
<path d="M307.885 389.322C345.281 409.995 392.356 396.438 413.029 359.041C433.702 321.645 420.145 274.57 382.748 253.898C345.352 233.225 298.277 246.782 277.604 284.178C256.931 321.574 270.489 368.649 307.885 389.322Z" fill="#2D2D2D"/>
<path d="M233.047 524.761C270.443 545.434 317.518 531.877 338.191 494.481C358.864 457.084 345.307 410.01 307.91 389.337C270.514 368.664 223.439 382.221 202.767 419.617C182.094 457.014 195.651 504.088 233.047 524.761Z" fill="#2D2D2D"/>
<path fill-rule="evenodd" clip-rule="evenodd" d="M443.183 395.676C452.612 400.889 464.481 397.471 469.694 388.042C474.906 378.612 471.488 366.743 462.059 361.531C459.482 360.107 456.724 359.327 453.969 359.138C455.309 359.507 456.626 360.038 457.896 360.74C466.557 365.528 469.697 376.43 464.909 385.091C460.129 393.737 449.256 396.881 440.602 392.128L440.141 392.962L438.468 392.037L438.472 392.041L441.793 393.877L441.41 394.57C441.975 394.966 442.566 395.335 443.183 395.676ZM431.089 366.701C428.86 370.733 427.882 375.12 428.028 379.413L396.069 361.747L395.329 363.086L379.859 354.533L378.33 357.299L393.8 365.852L393.8 365.852L378.329 357.3L376.8 360.066L392.269 368.617L390.264 372.244L438.892 399.125L438.934 399.05C439.508 399.433 440.103 399.795 440.718 400.135C452.61 406.709 467.579 402.398 474.153 390.507C480.727 378.615 476.416 363.646 464.524 357.072C452.632 350.498 437.663 354.809 431.089 366.701ZM426.325 385.324L429.53 387.096L429.531 387.098L426.324 385.326L426.325 385.324ZM443.023 387.644C449.221 391.071 457.024 388.824 460.45 382.626C463.876 376.428 461.629 368.626 455.431 365.199C454.191 364.513 452.886 364.055 451.565 363.81C451.602 363.83 451.638 363.849 451.674 363.869C457.525 367.104 459.647 374.47 456.412 380.321C453.177 386.173 445.811 388.294 439.96 385.059C439.81 384.976 439.662 384.89 439.517 384.802C440.481 385.92 441.656 386.889 443.023 387.644ZM451.953 377.856C450.079 381.245 445.814 382.473 442.425 380.6C439.036 378.727 437.808 374.461 439.681 371.072C441.554 367.684 445.82 366.455 449.209 368.328C452.598 370.202 453.826 374.467 451.953 377.856Z" fill="#FEF138"/>
<mask id="mask0_4_11117" style="mask-type:alpha" maskUnits="userSpaceOnUse" x="376" y="353" width="102" height="51">
<path fill-rule="evenodd" clip-rule="evenodd" d="M443.183 395.679C452.612 400.892 464.481 397.473 469.694 388.044C474.906 378.615 471.488 366.746 462.059 361.534C459.482 360.11 456.724 359.33 453.969 359.141C455.309 359.509 456.626 360.041 457.896 360.743C466.557 365.531 469.697 376.433 464.909 385.094C460.129 393.74 449.256 396.884 440.602 392.13L440.141 392.965L438.468 392.04L438.472 392.044L441.793 393.88L441.41 394.573C441.975 394.969 442.566 395.338 443.183 395.679ZM431.089 366.704C428.86 370.736 427.882 375.123 428.028 379.416L396.069 361.75L395.329 363.089L379.859 354.536L378.33 357.302L393.8 365.855L393.8 365.855L378.329 357.303L376.8 360.068L392.269 368.62L390.264 372.247L438.892 399.128L438.934 399.053C439.508 399.436 440.103 399.798 440.718 400.138C452.61 406.712 467.579 402.401 474.153 390.509C480.727 378.618 476.416 363.648 464.524 357.075C452.632 350.501 437.663 354.812 431.089 366.704ZM426.325 385.327L429.53 387.099L429.531 387.101L426.324 385.329L426.325 385.327ZM443.023 387.647C449.221 391.074 457.024 388.827 460.45 382.629C463.876 376.431 461.629 368.628 455.431 365.202C454.191 364.516 452.886 364.058 451.565 363.813C451.602 363.832 451.638 363.852 451.674 363.872C457.525 367.107 459.647 374.473 456.412 380.324C453.177 386.176 445.811 388.297 439.96 385.062C439.81 384.979 439.662 384.893 439.517 384.805C440.481 385.923 441.656 386.891 443.023 387.647ZM451.953 377.859C450.079 381.248 445.814 382.476 442.425 380.603C439.036 378.73 437.808 374.464 439.681 371.075C441.554 367.687 445.82 366.458 449.209 368.331C452.598 370.205 453.826 374.47 451.953 377.859Z" fill="#FEF138"/>
</mask>
<g mask="url(#mask0_4_11117)">
<circle cx="377.716" cy="362.518" r="4.42652" transform="rotate(28.9341 377.716 362.518)" fill="#FF7EF2"/>
<circle cx="389.674" cy="356.494" r="4.42652" transform="rotate(28.9341 389.674 356.494)" fill="#FF7EF2"/>
<circle cx="395.964" cy="374.53" r="4.42652" transform="rotate(28.9341 395.964 374.53)" fill="#FF7EF2"/>
<circle cx="412.297" cy="383.559" r="4.42652" transform="rotate(28.9341 412.297 383.559)" fill="#FF7EF2"/>
<circle cx="408.464" cy="367.362" r="4.42652" transform="rotate(28.9341 408.464 367.362)" fill="#FF7EF2"/>
<circle cx="426.428" cy="380.228" r="4.42652" transform="rotate(28.9341 426.428 380.228)" fill="#FF7EF2"/>
<circle cx="429.716" cy="388.746" r="4.42652" transform="rotate(28.9341 429.716 388.746)" fill="#FF7EF2"/>
<circle cx="441.523" cy="389.601" r="4.42652" transform="rotate(28.9341 441.523 389.601)" fill="#FF7EF2"/>
<circle cx="452.301" cy="357.458" r="4.42652" transform="rotate(28.9341 452.301 357.458)" fill="#FF7EF2"/>
<circle cx="435.657" cy="365.695" r="3.09125" transform="rotate(28.9341 435.657 365.695)" fill="#FF7EF2"/>
<circle cx="436.215" cy="378.074" r="3.09125" transform="rotate(28.9341 436.215 378.074)" fill="#FF7EF2"/>
<circle cx="454.234" cy="372.997" r="3.09125" transform="rotate(28.9341 454.234 372.997)" fill="#FF7EF2"/>
<circle cx="462.7" cy="369.213" r="3.09125" transform="rotate(28.9341 462.7 369.213)" fill="#FF7EF2"/>
<circle cx="473.73" cy="384.885" r="3.09125" transform="rotate(28.9341 473.73 384.885)" fill="#FF7EF2"/>
<circle cx="461.017" cy="397.461" r="3.09125" transform="rotate(28.9341 461.017 397.461)" fill="#FF7EF2"/>
</g>
<path d="M311.869 324.173C302.766 340.641 307.709 360.804 322.91 369.207L390.596 367.692L311.87 324.172L311.869 324.173Z" fill="#C7EAFB"/>
<path d="M350.975 308.677C334.81 302.325 316.126 311.374 309.245 328.887L392.968 361.783L350.976 308.675L350.975 308.677Z" fill="#6E00FF"/>
<rect x="393.175" y="359.983" width="3.54477" height="12.1383" transform="rotate(28.9341 393.175 359.983)" fill="#FF7EF2"/>
<path d="M444.149 315.826C444.261 314.912 445.027 314.218 445.948 314.196L466.491 313.711C467.696 313.682 468.608 314.791 468.348 315.968L466.908 322.47C466.678 323.506 465.629 324.139 464.606 323.86L445.407 318.619C444.517 318.376 443.941 317.517 444.053 316.601L444.149 315.826Z" fill="#FFE500"/>
<path d="M267.974 246.611C267.505 247.404 266.526 247.733 265.673 247.385L246.65 239.615C245.534 239.159 245.141 237.778 245.851 236.803L249.771 231.42C250.395 230.562 251.61 230.401 252.436 231.066L267.937 243.548C268.656 244.126 268.841 245.144 268.371 245.938L267.974 246.611Z" fill="#FFE500"/>
<path d="M457.108 296.814C456.898 295.952 457.326 295.062 458.132 294.689L492.593 278.726C493.74 278.195 495.071 278.94 495.218 280.196L496.395 290.301C496.506 291.25 495.878 292.127 494.945 292.33L459.742 299.971C458.758 300.185 457.783 299.576 457.544 298.598L457.108 296.814Z" fill="#FFE500"/>
<path d="M290.729 242.132C289.904 242.405 288.999 242.069 288.552 241.324L271.521 212.915C270.855 211.804 271.503 210.369 272.778 210.135L279.792 208.847C280.685 208.683 281.566 209.189 281.874 210.043L292.512 239.534C292.866 240.516 292.34 241.598 291.349 241.926L290.729 242.132Z" fill="#FFE500"/>
<path d="M454.372 338.969C454.767 338.109 455.746 337.683 456.644 337.982L470.349 342.534C471.45 342.899 471.95 344.174 471.391 345.19L468.334 350.749C467.769 351.775 466.406 352.029 465.51 351.273L454.488 341.978C453.85 341.44 453.65 340.543 453.998 339.784L454.372 338.969Z" fill="#FFE500"/>
<path d="M277.566 260.526C277.81 261.441 277.326 262.393 276.444 262.735L262.98 267.957C261.898 268.377 260.701 267.712 260.485 266.573L259.3 260.341C259.081 259.189 259.971 258.126 261.143 258.138L275.56 258.281C276.394 258.289 277.121 258.853 277.336 259.659L277.566 260.526Z" fill="#FFE500"/>
<path d="M337.348 257.329C348.489 263.486 352.565 277.473 346.445 288.549C345.676 289.94 343.973 290.425 342.574 289.652C341.175 288.879 340.68 287.179 341.448 285.788C346.059 277.444 342.947 266.907 334.603 262.296C326.26 257.685 315.654 260.707 311.071 269.002C310.303 270.392 308.6 270.878 307.201 270.105C305.802 269.332 305.306 267.631 306.075 266.241C312.195 255.165 326.206 251.173 337.348 257.329Z" fill="white"/>
<path d="M404.947 294.674C416.089 300.831 420.165 314.818 414.044 325.894C413.276 327.284 411.573 327.77 410.174 326.997C408.775 326.223 408.279 324.523 409.048 323.133C413.659 314.789 410.546 304.251 402.203 299.641C393.859 295.03 383.254 298.052 378.671 306.346C377.902 307.737 376.199 308.222 374.8 307.449C373.401 306.676 372.906 304.976 373.674 303.586C379.795 292.51 393.806 288.517 404.947 294.674Z" fill="white"/>
<path d="M341.468 400.417L337.613 405.324L341.123 410.512L335.258 408.38L331.42 413.311L331.624 407.074L325.743 404.918L331.749 403.191L331.953 396.955L335.462 402.143L341.468 400.417Z" fill="#FFE500"/>
<path d="M296.688 401.549L297.321 405.062L300.873 405.534L297.732 407.231L298.381 410.746L295.793 408.288L292.636 409.983L294.18 406.759L291.591 404.301L295.144 404.773L296.688 401.549Z" fill="#FFE500"/>
<rect width="94.7781" height="15.5361" rx="2.03353" transform="matrix(0.0318102 -0.999494 -0.999494 -0.0318102 528.324 461.792)" fill="#FA78C3"/>
<path d="M317.311 144.271L324.98 137.363L321.629 134.687L317.025 138.833L310.333 133.816L304.196 139.343L297.503 134.326L289.834 141.232L293.184 143.91L297.789 139.763L304.483 144.78L310.619 139.254L317.311 144.271Z" fill="#FF5A00"/>
<path d="M541.476 266.581L549.851 260.549L546.812 257.524L541.784 261.144L535.678 255.428L528.976 260.254L522.869 254.538L514.493 260.568L517.531 263.595L522.561 259.973L528.668 265.69L535.37 260.865L541.476 266.581Z" fill="#00C800"/>
<path d="M424.169 197.88L433.123 203.012L434.622 198.994L429.247 195.913L431.927 187.99L424.762 183.882L427.441 175.959L418.487 170.825L416.988 174.844L422.365 177.926L419.685 185.85L426.849 189.958L424.169 197.88Z" fill="#FF5A00"/>
<path d="M249.078 99.5828C253.462 102.006 258.981 100.417 261.404 96.0329C263.828 91.6488 262.239 86.1301 257.855 83.7066C253.471 81.2831 247.952 82.8724 245.528 87.2565C243.105 91.6406 244.694 97.1593 249.078 99.5828Z" fill="#0082FF"/>
<path d="M348.45 201.549C352.834 203.972 358.325 202.433 360.714 198.111C363.104 193.788 361.487 188.32 357.103 185.896C352.719 183.473 347.228 185.012 344.838 189.334C342.449 193.656 344.066 199.125 348.45 201.549Z" fill="#00C800"/>
<path d="M440.607 320.018L433.109 315.56C432.973 315.48 432.833 315.414 432.691 315.356C434.304 301.627 428.091 287.696 415.685 280.32C399.531 270.716 378.627 275.644 367.803 291.155C366.208 289.668 364.276 288.584 362.178 287.996C370.738 271.052 365.096 250.244 348.897 240.613C336.503 233.244 321.314 234.431 310.026 242.385L302.835 238.11C301.294 237.194 299.283 237.729 298.346 239.304C297.409 240.88 297.9 242.902 299.441 243.818L304.71 246.951C302.769 248.97 301.024 251.239 299.529 253.753C289.238 271.064 294.639 293.336 311.569 303.401C327.183 312.684 347.232 308.39 358.328 294.09C360.739 294.076 362.996 295.266 364.35 297.243C356.859 313.893 362.636 333.761 378.355 343.106C395.285 353.172 417.431 347.277 427.723 329.967C429.217 327.453 430.378 324.836 431.224 322.166L437.213 325.727C438.754 326.643 440.765 326.108 441.702 324.532C442.638 322.957 442.148 320.934 440.607 320.018ZM314.963 297.692C301.111 289.457 296.692 271.236 305.113 257.072C313.533 242.909 331.652 238.087 345.503 246.322C359.355 254.557 363.774 272.779 355.354 286.942C346.933 301.105 328.815 305.927 314.963 297.692ZM381.751 337.399C367.899 329.164 363.48 310.942 371.9 296.779C380.321 282.616 398.439 277.793 412.291 286.029C426.143 294.264 430.562 312.485 422.141 326.648C413.721 340.812 395.602 345.634 381.751 337.399Z" fill="#EBFF00"/>
<defs>
<radialGradient id="paint0_radial_4_11117" cx="0" cy="0" r="1" gradientUnits="userSpaceOnUse" gradientTransform="translate(351.833 306.979) rotate(90) scale(216.063)">
<stop stop-color="#FED75A"/>
<stop offset="1" stop-color="#FED75A" stop-opacity="0"/>
</radialGradient>
</defs>
</svg>
