<svg width="1358" height="449" viewBox="0 0 1358 449" fill="none" xmlns="http://www.w3.org/2000/svg">
<g filter="url(#filter0_dd_4_11104)">
<path fill-rule="evenodd" clip-rule="evenodd" d="M421.513 251.553C420.733 250.734 419.922 249.941 419.081 249.177C420.825 249.319 422.559 249.366 424.276 249.321C424.443 249.789 424.62 250.253 424.805 250.714C423.694 250.954 422.596 251.234 421.513 251.553ZM498.683 244.935C502.725 224.987 489.782 205.442 469.621 200.623C468.243 180.285 453.076 162.438 431.631 158.092C421.095 155.957 410.687 157.414 401.734 161.606C393.313 153.264 382.367 147.173 369.774 144.621C346.605 139.926 323.904 148.439 309.84 164.895C301.096 154.933 289.035 147.608 274.899 144.744C257.185 141.154 239.744 145.285 226.227 154.784C217.209 138.284 201.008 125.64 180.829 121.551C162.486 117.834 144.419 121.908 130.218 131.459C122.694 125.949 113.848 121.927 104.055 119.942C68.69 112.776 34.3622 134.892 27.3816 169.34C22.885 191.53 30.8325 213.424 46.5103 228.111C36.0121 236.586 28.3372 248.518 25.4793 262.621C18.8363 295.403 40.7333 327.506 74.3874 334.326C97.1658 338.942 119.492 330.792 133.603 314.878C141.095 322.134 150.749 327.429 161.822 329.673C171.157 331.564 180.407 331.066 188.909 328.605C197.789 340.756 211.204 349.813 227.312 353.077C248.487 357.368 269.271 350.627 283.428 336.873C291.577 344.31 301.847 349.729 313.535 352.097C330.487 355.532 347.188 351.897 360.439 343.254C363.992 362.019 378.881 377.795 399.192 381.911C425.772 387.297 451.573 370.674 456.82 344.783C457.558 341.14 457.85 337.507 457.732 333.939C469.039 327.835 477.597 317.098 480.307 303.724C482.557 292.622 480.387 281.624 474.986 272.474C486.787 268.023 496.042 257.97 498.683 244.935Z" fill="white" fill-opacity="0.9" shape-rendering="crispEdges"/>
</g>
<g filter="url(#filter1_dd_4_11104)">
<path fill-rule="evenodd" clip-rule="evenodd" d="M1091.38 104.002C1078.58 82.6629 1055.63 67.5492 1028.47 65.4287C999.304 63.1519 972.61 76.4246 956.951 98.1139C943.193 85.001 924.834 76.3216 904.185 74.7095C871.442 72.1531 841.627 88.0462 825.48 113.446C818.832 110.813 811.665 109.113 804.139 108.525C764.672 105.444 730.244 134.111 727.243 172.555C725.757 191.584 732.249 209.441 743.972 222.998C734.921 234.515 729.083 248.645 727.867 264.212C724.522 307.067 757.474 344.592 801.47 348.027C825.627 349.913 848.09 341.129 863.991 325.729C875.971 340.303 893.854 350.221 914.43 351.827C935.187 353.448 954.551 346.286 968.681 333.539C981.386 344.852 997.896 352.29 1016.35 353.731C1037.81 355.407 1057.94 348.66 1073.31 336.334C1083.9 342.824 1096.21 346.987 1109.53 348.027C1128.74 349.527 1146.88 344.279 1161.5 334.323C1169.34 347.983 1183.82 357.712 1201.01 359.055C1225.82 360.992 1247.76 344.786 1253.11 321.847C1255.23 322.211 1257.39 322.481 1259.58 322.652C1297.18 325.587 1329.97 298.278 1332.83 261.655C1334.64 238.56 1324.1 217.277 1306.65 203.968C1307.17 201.706 1307.53 199.379 1307.71 196.997C1309.79 170.405 1289.4 147.111 1262.14 144.866C1260.74 121.003 1241.41 101.172 1216.28 99.2101C1204.06 98.2562 1192.54 101.689 1183.34 108.153C1171.43 99.1498 1156.79 93.3105 1140.66 92.0514C1122.61 90.6423 1105.51 95.1896 1091.38 104.002Z" fill="#C4DFFE"/>
</g>
<path d="M568.03 376.955H553.343L536.461 267.111C536.207 265.462 534.666 264.332 533.019 264.585C531.373 264.839 530.243 266.381 530.496 268.03L547.238 376.957H516.203C514.536 376.957 513.185 378.31 513.185 379.979C513.185 381.647 514.536 383 516.203 383H550.743C550.743 383 550.75 383 550.752 383C550.756 383 550.758 383 550.763 383H568.033C569.699 383 571.051 381.647 571.051 379.979C571.051 378.31 569.699 376.957 568.033 376.957L568.03 376.955Z" fill="#2D2D2D"/>
<path d="M637.134 376.955H606.099L622.841 268.028C623.094 266.38 621.964 264.837 620.318 264.583C618.671 264.33 617.13 265.461 616.876 267.109L599.994 376.953H585.307C583.64 376.953 582.288 378.306 582.288 379.975C582.288 381.643 583.64 382.996 585.307 382.996H602.576C602.576 382.996 602.583 382.996 602.588 382.996C602.59 382.996 602.594 382.996 602.596 382.996H637.136C638.803 382.996 640.155 381.643 640.155 379.975C640.155 378.306 638.803 376.953 637.136 376.953L637.134 376.955Z" fill="#2D2D2D"/>
<path d="M479.546 175.386C519.955 190.282 540.651 235.145 525.772 275.595C510.891 316.044 466.072 336.76 425.662 321.867L479.548 175.386H479.546Z" fill="#231F20"/>
<path d="M550.389 118.326C526.145 109.389 499.251 121.819 490.323 146.088L534.225 162.268L550.389 118.324V118.326Z" fill="#231F20"/>
<path d="M425.66 321.867C449.905 330.804 476.798 318.374 485.726 294.105L441.825 277.925L425.66 321.87V321.867Z" fill="#2D2D2D"/>
<path d="M534.186 162.281L490.286 146.096L441.778 277.924L485.679 294.11L534.186 162.281Z" fill="#231F20"/>
<path d="M674.619 171C632.93 185.711 611.05 231.465 625.746 273.194C640.442 314.924 686.151 336.826 727.84 322.115L674.619 171Z" fill="#231F20"/>
<path d="M602.718 111.425C627.731 102.599 655.155 115.74 663.973 140.778L618.682 156.761L602.716 111.425H602.718Z" fill="#231F20"/>
<path d="M727.837 322.116C702.824 330.942 675.4 317.8 666.582 292.763L711.873 276.78L727.839 322.116H727.837Z" fill="#2D2D2D"/>
<path d="M666.579 292.77L711.867 276.788L663.967 140.786L618.678 156.768L666.579 292.77Z" fill="#231F20"/>
<path d="M701.931 159.767C661.726 179.398 645.031 227.938 664.646 268.185C684.258 308.429 732.75 325.141 772.957 305.507L701.933 159.767H701.931Z" fill="#231F20"/>
<path d="M622.741 108.223C646.865 96.4436 675.96 106.469 687.728 130.616L644.049 151.945L622.741 108.223Z" fill="#231F20"/>
<path d="M772.955 305.507C748.831 317.287 719.736 307.262 707.968 283.114L751.647 261.785L772.955 305.507Z" fill="#2D2D2D"/>
<path d="M707.977 283.072L751.658 261.746L687.745 130.575L644.064 151.901L707.977 283.072Z" fill="#231F20"/>
<path d="M706.955 141.392C675.101 177.33 678.386 232.311 714.286 264.194C750.189 296.08 805.116 292.791 836.968 256.855L706.952 141.392H706.955Z" fill="#231F20"/>
<path d="M607.342 122.703C626.455 101.14 659.409 99.168 680.95 118.3L646.347 157.343L607.342 122.705V122.703Z" fill="#231F20"/>
<path d="M836.968 256.853C817.855 278.415 784.901 280.388 763.359 261.256L797.963 222.213L836.968 256.851V256.853Z" fill="#2D2D2D"/>
<path d="M763.357 261.254L797.962 222.212L680.95 118.295L646.345 157.337L763.357 261.254Z" fill="#231F20"/>
<path d="M707.35 123.511C684.979 166.296 701.494 219.134 744.237 241.527C786.981 263.92 839.766 247.389 862.137 204.604L707.35 123.509V123.511Z" fill="#231F20"/>
<path d="M605.653 129.446C619.077 103.775 650.748 93.8557 676.393 107.293L652.089 153.774L605.653 129.446Z" fill="#231F20"/>
<path d="M862.137 204.606C848.714 230.276 817.043 240.195 791.397 226.759L815.702 180.277L862.137 204.606Z" fill="#2D2D2D"/>
<path d="M791.384 226.733L815.69 180.253L676.387 107.262L652.08 153.742L791.384 226.733Z" fill="#231F20"/>
<path d="M451.344 159.767C491.549 179.398 508.244 227.938 488.63 268.185C469.017 308.429 420.525 325.141 380.318 305.507L451.342 159.767H451.344Z" fill="#231F20"/>
<path d="M530.534 108.223C506.41 96.4436 477.315 106.469 465.547 130.616L509.226 151.945L530.534 108.223Z" fill="#231F20"/>
<path d="M380.32 305.507C404.444 317.287 433.539 307.262 445.307 283.114L401.628 261.785L380.32 305.507Z" fill="#2D2D2D"/>
<path d="M509.258 151.945L465.577 130.619L401.664 261.79L445.345 283.116L509.258 151.945Z" fill="#231F20"/>
<path d="M446.32 141.392C478.174 177.33 474.889 232.311 438.988 264.194C403.086 296.08 348.158 292.791 316.307 256.855L446.322 141.392H446.32Z" fill="#231F20"/>
<path d="M545.933 122.703C526.82 101.14 493.865 99.168 472.324 118.3L506.928 157.343L545.933 122.705V122.703Z" fill="#231F20"/>
<path d="M316.307 256.853C335.419 278.415 368.374 280.388 389.915 261.256L355.312 222.213L316.307 256.851V256.853Z" fill="#2D2D2D"/>
<path d="M506.93 157.341L472.325 118.299L355.313 222.216L389.918 261.259L506.93 157.341Z" fill="#231F20"/>
<path d="M445.924 123.511C468.295 166.296 451.781 219.134 409.037 241.527C366.294 263.92 313.509 247.389 291.138 204.604L445.924 123.509V123.511Z" fill="#231F20"/>
<path d="M547.622 129.446C534.198 103.775 502.527 93.8557 476.882 107.293L501.186 153.774L547.622 129.446Z" fill="#231F20"/>
<path d="M291.138 204.606C304.561 230.276 336.232 240.195 361.878 226.759L337.573 180.277L291.138 204.606Z" fill="#2D2D2D"/>
<path d="M501.2 153.782L476.894 107.303L337.59 180.294L361.896 226.774L501.2 153.782Z" fill="#231F20"/>
<path d="M661.024 84.4385H492.312V168.877H661.024V84.4385Z" fill="#2D2D2D"/>
<path d="M661.024 168.878H492.312V253.316H661.024V168.878Z" fill="#2D2D2D"/>
<path d="M576.636 168.876C623.224 168.876 660.991 131.072 660.991 84.4381C660.991 37.8042 623.224 0 576.636 0C530.048 0 492.281 37.8042 492.281 84.4381C492.281 131.072 530.048 168.876 576.636 168.876Z" fill="#2D2D2D"/>
<path d="M576.667 337.754C623.254 337.754 661.021 299.95 661.021 253.316C661.021 206.682 623.254 168.878 576.667 168.878C530.079 168.878 492.312 206.682 492.312 253.316C492.312 299.95 530.079 337.754 576.667 337.754Z" fill="#2D2D2D"/>
<path d="M540.804 77.0729C553.808 77.0729 564.351 66.5202 564.351 53.5027C564.351 40.4853 553.808 29.9326 540.804 29.9326C527.799 29.9326 517.257 40.4853 517.257 53.5027C517.257 66.5202 527.799 77.0729 540.804 77.0729Z" fill="white"/>
<path d="M540.803 65.2891C547.306 65.2891 552.577 60.0123 552.577 53.503C552.577 46.9936 547.306 41.7168 540.803 41.7168C534.3 41.7168 529.028 46.9936 529.028 53.503C529.028 60.0123 534.3 65.2891 540.803 65.2891Z" fill="#231F20"/>
<path d="M532.782 51.949C537.904 51.949 542.056 47.793 542.056 42.6664C542.056 37.5397 537.904 33.3838 532.782 33.3838C527.661 33.3838 523.509 37.5397 523.509 42.6664C523.509 47.793 527.661 51.949 532.782 51.949Z" fill="white"/>
<path d="M530.145 131.297C549.208 131.297 564.663 115.828 564.663 96.7453C564.663 77.6628 549.208 62.1934 530.145 62.1934C511.081 62.1934 495.627 77.6628 495.627 96.7453C495.627 115.828 511.081 131.297 530.145 131.297Z" fill="#2D2D2D"/>
<path d="M612.529 77.0729C625.534 77.0729 636.076 66.5202 636.076 53.5027C636.076 40.4853 625.534 29.9326 612.529 29.9326C599.525 29.9326 588.982 40.4853 588.982 53.5027C588.982 66.5202 599.525 77.0729 612.529 77.0729Z" fill="white"/>
<path d="M612.529 65.2891C619.032 65.2891 624.304 60.0123 624.304 53.503C624.304 46.9936 619.032 41.7168 612.529 41.7168C606.027 41.7168 600.755 46.9936 600.755 53.503C600.755 60.0123 606.027 65.2891 612.529 65.2891Z" fill="#231F20"/>
<path d="M604.511 51.949C609.632 51.949 613.784 47.793 613.784 42.6664C613.784 37.5397 609.632 33.3838 604.511 33.3838C599.389 33.3838 595.237 37.5397 595.237 42.6664C595.237 47.793 599.389 51.949 604.511 51.949Z" fill="white"/>
<path d="M623.188 131.297C642.251 131.297 657.706 115.828 657.706 96.7453C657.706 77.6628 642.251 62.1934 623.188 62.1934C604.124 62.1934 588.67 77.6628 588.67 96.7453C588.67 115.828 604.124 131.297 623.188 131.297Z" fill="#2D2D2D"/>
<path d="M576.635 70.7041C556.12 70.7041 539.488 86.0715 539.488 105.027L576.637 168.877V70.7041H576.635Z" fill="#C7EAFB"/>
<path d="M613.786 105.027C613.786 86.0715 597.155 70.7041 576.64 70.7041V168.877L613.789 105.027H613.786Z" fill="#6E00FF"/>
<path d="M652.822 40.487H644.53C644.38 40.487 644.234 40.5017 644.089 40.5228C638.738 28.5092 626.893 20.1357 613.173 20.1357C595.308 20.1357 580.621 34.3317 579.312 52.2815C577.286 51.8412 575.181 51.8939 573.18 52.4331C571.943 34.4117 557.225 20.1357 539.31 20.1357C525.603 20.1357 513.768 28.4924 508.408 40.487H500.455C498.751 40.487 497.368 41.9026 497.368 43.6468C497.368 45.391 498.751 46.8066 500.455 46.8066H506.282C505.677 49.4018 505.354 52.1066 505.354 54.8894C505.354 74.0525 520.587 89.643 539.31 89.643C556.579 89.643 570.875 76.3823 572.995 59.2899C574.958 58.106 577.381 57.9817 579.447 58.9402C581.415 76.2012 595.787 89.643 613.171 89.643C631.895 89.643 647.127 74.0525 647.127 54.8894C647.127 52.1066 646.804 49.4018 646.199 46.8066H652.822C654.527 46.8066 655.91 45.391 655.91 43.6468C655.91 41.9026 654.527 40.487 652.822 40.487ZM539.31 83.3234C523.991 83.3234 511.529 70.5683 511.529 54.8894C511.529 39.2104 523.991 26.4553 539.31 26.4553C554.63 26.4553 567.092 39.2104 567.092 54.8894C567.092 70.5683 554.63 83.3234 539.31 83.3234ZM613.173 83.3234C597.854 83.3234 585.391 70.5683 585.391 54.8894C585.391 39.2104 597.854 26.4553 613.173 26.4553C628.492 26.4553 640.955 39.2104 640.955 54.8894C640.955 70.5683 628.492 83.3234 613.173 83.3234Z" fill="#EBFF00"/>
<g filter="url(#filter2_dd_4_11104)">
<path fill-rule="evenodd" clip-rule="evenodd" d="M373.8 212.67C366.821 201.035 354.306 192.794 339.496 191.638C323.596 190.396 309.041 197.633 300.503 209.459C293.002 202.309 282.991 197.576 271.732 196.697C253.877 195.303 237.619 203.97 228.816 217.82C225.191 216.385 221.283 215.458 217.18 215.137C195.66 213.457 176.889 229.088 175.252 250.05C174.442 260.425 177.982 270.162 184.374 277.555C179.44 283.834 176.257 291.538 175.594 300.025C173.77 323.392 191.738 343.852 215.726 345.725C228.898 346.753 241.146 341.964 249.816 333.566C256.348 341.512 266.098 346.919 277.316 347.795C288.635 348.679 299.193 344.774 306.898 337.823C313.825 343.992 322.827 348.048 332.89 348.834C344.591 349.747 355.563 346.069 363.946 339.35C369.722 342.888 376.431 345.158 383.693 345.725C394.168 346.543 404.059 343.681 412.031 338.251C416.309 345.699 424.201 351.003 433.574 351.735C447.105 352.792 459.065 343.956 461.983 331.45C463.14 331.648 464.317 331.795 465.511 331.888C486.01 333.489 503.893 318.599 505.452 298.63C506.435 286.038 500.692 274.433 491.174 267.176C491.457 265.944 491.653 264.676 491.754 263.38C492.886 248.88 481.77 236.179 466.905 234.955C466.145 221.942 455.601 211.128 441.901 210.058C435.239 209.538 428.958 211.41 423.943 214.934C417.446 210.025 409.462 206.841 400.669 206.155C390.828 205.386 381.503 207.866 373.8 212.67Z" fill="#C4DFFE"/>
</g>
<g filter="url(#filter3_bdd_4_11104)">
<path fill-rule="evenodd" clip-rule="evenodd" d="M809.472 281.463C809.713 281.195 809.951 280.924 810.187 280.652C810.531 280.852 810.878 281.048 811.228 281.24C810.64 281.306 810.054 281.38 809.472 281.463ZM784.103 386.995C773.186 394.515 759.848 398.917 745.458 398.874C708.641 398.765 678.882 369.604 678.989 333.742C679.018 324.109 681.199 314.971 685.087 306.761C665.36 297.193 651.832 277.326 651.9 254.409C651.996 222.238 678.847 196.238 711.874 196.336C716.074 196.349 720.171 196.783 724.124 197.597C734.803 188.655 748.706 183.269 763.894 183.314C779.393 183.36 793.519 189.054 804.226 198.389C813.097 191.434 824.382 187.285 836.658 187.322C848.91 187.358 860.15 191.557 868.972 198.54C877.224 193.127 887.17 189.98 897.868 190.012C910.496 190.05 922.05 194.51 930.989 201.882C939.813 197.723 949.721 195.404 960.184 195.436C965.478 195.451 970.625 196.068 975.558 197.218C987.406 186.869 1003.08 180.594 1020.24 180.645C1035 180.689 1048.62 185.4 1059.65 193.339C1066.88 187.435 1076.21 183.892 1086.39 183.922C1109.3 183.99 1127.81 202.134 1127.75 224.447C1127.72 232.148 1125.49 239.34 1121.63 245.453C1124.11 250.649 1125.48 256.441 1125.46 262.545C1125.44 270.712 1122.92 278.306 1118.63 284.649C1121.26 291.065 1122.7 298.072 1122.68 305.406C1122.59 336.053 1097.01 360.821 1065.55 360.727C1063.64 360.722 1061.75 360.625 1059.89 360.44C1052.68 372.38 1039.33 380.377 1024.08 380.331C1012.61 380.297 1002.24 375.717 994.767 368.346C983.183 387.719 961.602 400.712 936.929 400.639C918.146 400.583 901.199 392.965 889.119 380.754C883.765 382.086 878.153 382.786 872.371 382.769C867.864 382.756 863.462 382.307 859.208 381.464C848.455 391.357 833.937 397.404 817.977 397.356C805.388 397.319 793.719 393.495 784.103 386.995Z" fill="white" fill-opacity="0.9" shape-rendering="crispEdges"/>
</g>
<defs>
<filter id="filter0_dd_4_11104" x="0.291992" y="96.5938" width="523.13" height="312.33" filterUnits="userSpaceOnUse" color-interpolation-filters="sRGB">
<feFlood flood-opacity="0" result="BackgroundImageFix"/>
<feColorMatrix in="SourceAlpha" type="matrix" values="0 0 0 0 0 0 0 0 0 0 0 0 0 0 0 0 0 0 127 0" result="hardAlpha"/>
<feOffset dy="2"/>
<feGaussianBlur stdDeviation="12"/>
<feComposite in2="hardAlpha" operator="out"/>
<feColorMatrix type="matrix" values="0 0 0 0 0 0 0 0 0 0 0 0 0 0 0 0 0 0 0.15 0"/>
<feBlend mode="normal" in2="BackgroundImageFix" result="effect1_dropShadow_4_11104"/>
<feColorMatrix in="SourceAlpha" type="matrix" values="0 0 0 0 0 0 0 0 0 0 0 0 0 0 0 0 0 0 127 0" result="hardAlpha"/>
<feOffset dy="2"/>
<feGaussianBlur stdDeviation="3"/>
<feComposite in2="hardAlpha" operator="out"/>
<feColorMatrix type="matrix" values="0 0 0 0 0 0 0 0 0 0 0 0 0 0 0 0 0 0 0.1 0"/>
<feBlend mode="normal" in2="effect1_dropShadow_4_11104" result="effect2_dropShadow_4_11104"/>
<feBlend mode="normal" in="SourceGraphic" in2="effect2_dropShadow_4_11104" result="shape"/>
</filter>
<filter id="filter1_dd_4_11104" x="703.033" y="43.1758" width="654" height="342.036" filterUnits="userSpaceOnUse" color-interpolation-filters="sRGB">
<feFlood flood-opacity="0" result="BackgroundImageFix"/>
<feColorMatrix in="SourceAlpha" type="matrix" values="0 0 0 0 0 0 0 0 0 0 0 0 0 0 0 0 0 0 127 0" result="hardAlpha"/>
<feOffset dy="2"/>
<feGaussianBlur stdDeviation="12"/>
<feComposite in2="hardAlpha" operator="out"/>
<feColorMatrix type="matrix" values="0 0 0 0 0 0 0 0 0 0 0 0 0 0 0 0 0 0 0.15 0"/>
<feBlend mode="normal" in2="BackgroundImageFix" result="effect1_dropShadow_4_11104"/>
<feColorMatrix in="SourceAlpha" type="matrix" values="0 0 0 0 0 0 0 0 0 0 0 0 0 0 0 0 0 0 127 0" result="hardAlpha"/>
<feOffset dy="2"/>
<feGaussianBlur stdDeviation="3"/>
<feComposite in2="hardAlpha" operator="out"/>
<feColorMatrix type="matrix" values="0 0 0 0 0 0 0 0 0 0 0 0 0 0 0 0 0 0 0.1 0"/>
<feBlend mode="normal" in2="effect1_dropShadow_4_11104" result="effect2_dropShadow_4_11104"/>
<feBlend mode="normal" in="SourceGraphic" in2="effect2_dropShadow_4_11104" result="shape"/>
</filter>
<filter id="filter2_dd_4_11104" x="151.138" y="169.5" width="378.423" height="208.32" filterUnits="userSpaceOnUse" color-interpolation-filters="sRGB">
<feFlood flood-opacity="0" result="BackgroundImageFix"/>
<feColorMatrix in="SourceAlpha" type="matrix" values="0 0 0 0 0 0 0 0 0 0 0 0 0 0 0 0 0 0 127 0" result="hardAlpha"/>
<feOffset dy="2"/>
<feGaussianBlur stdDeviation="12"/>
<feComposite in2="hardAlpha" operator="out"/>
<feColorMatrix type="matrix" values="0 0 0 0 0 0 0 0 0 0 0 0 0 0 0 0 0 0 0.15 0"/>
<feBlend mode="normal" in2="BackgroundImageFix" result="effect1_dropShadow_4_11104"/>
<feColorMatrix in="SourceAlpha" type="matrix" values="0 0 0 0 0 0 0 0 0 0 0 0 0 0 0 0 0 0 127 0" result="hardAlpha"/>
<feOffset dy="2"/>
<feGaussianBlur stdDeviation="3"/>
<feComposite in2="hardAlpha" operator="out"/>
<feColorMatrix type="matrix" values="0 0 0 0 0 0 0 0 0 0 0 0 0 0 0 0 0 0 0.1 0"/>
<feBlend mode="normal" in2="effect1_dropShadow_4_11104" result="effect2_dropShadow_4_11104"/>
<feBlend mode="normal" in="SourceGraphic" in2="effect2_dropShadow_4_11104" result="shape"/>
</filter>
<filter id="filter3_bdd_4_11104" x="615.9" y="156.645" width="547.846" height="291.994" filterUnits="userSpaceOnUse" color-interpolation-filters="sRGB">
<feFlood flood-opacity="0" result="BackgroundImageFix"/>
<feGaussianBlur in="BackgroundImageFix" stdDeviation="4"/>
<feComposite in2="SourceAlpha" operator="in" result="effect1_backgroundBlur_4_11104"/>
<feColorMatrix in="SourceAlpha" type="matrix" values="0 0 0 0 0 0 0 0 0 0 0 0 0 0 0 0 0 0 127 0" result="hardAlpha"/>
<feMorphology radius="4" operator="dilate" in="SourceAlpha" result="effect2_dropShadow_4_11104"/>
<feOffset dy="12"/>
<feGaussianBlur stdDeviation="16"/>
<feComposite in2="hardAlpha" operator="out"/>
<feColorMatrix type="matrix" values="0 0 0 0 0 0 0 0 0 0 0 0 0 0 0 0 0 0 0.15 0"/>
<feBlend mode="normal" in2="effect1_backgroundBlur_4_11104" result="effect2_dropShadow_4_11104"/>
<feColorMatrix in="SourceAlpha" type="matrix" values="0 0 0 0 0 0 0 0 0 0 0 0 0 0 0 0 0 0 127 0" result="hardAlpha"/>
<feOffset dy="1"/>
<feGaussianBlur stdDeviation="4"/>
<feComposite in2="hardAlpha" operator="out"/>
<feColorMatrix type="matrix" values="0 0 0 0 0 0 0 0 0 0 0 0 0 0 0 0 0 0 0.15 0"/>
<feBlend mode="normal" in2="effect2_dropShadow_4_11104" result="effect3_dropShadow_4_11104"/>
<feBlend mode="normal" in="SourceGraphic" in2="effect3_dropShadow_4_11104" result="shape"/>
</filter>
</defs>
</svg>
