<svg width="571" height="383" viewBox="0 0 571 383" fill="none" xmlns="http://www.w3.org/2000/svg">
<path d="M276.893 376.955H262.205L245.323 267.111C245.07 265.462 243.529 264.332 241.882 264.585C240.235 264.839 239.105 266.381 239.359 268.03L256.1 376.957H225.065C223.399 376.957 222.047 378.31 222.047 379.979C222.047 381.647 223.399 383 225.065 383H259.605C259.605 383 259.612 383 259.614 383C259.618 383 259.621 383 259.625 383H276.895C278.562 383 279.913 381.647 279.913 379.979C279.913 378.31 278.562 376.957 276.895 376.957L276.893 376.955Z" fill="#2D2D2D"/>
<path d="M345.996 376.955H314.961L331.703 268.028C331.956 266.38 330.827 264.837 329.18 264.583C327.533 264.33 325.992 265.461 325.739 267.109L308.856 376.953H294.169C292.502 376.953 291.15 378.306 291.15 379.975C291.15 381.643 292.502 382.996 294.169 382.996H311.439C311.439 382.996 311.445 382.996 311.45 382.996C311.452 382.996 311.456 382.996 311.459 382.996H345.999C347.665 382.996 349.017 381.643 349.017 379.975C349.017 378.306 347.665 376.953 345.999 376.953L345.996 376.955Z" fill="#2D2D2D"/>
<path d="M188.408 175.386C228.818 190.282 249.513 235.145 234.635 275.595C219.753 316.044 174.934 336.76 134.524 321.867L188.41 175.386H188.408Z" fill="#231F20"/>
<path d="M259.252 118.326C235.007 109.389 208.113 121.819 199.186 146.088L243.087 162.268L259.252 118.324V118.326Z" fill="#231F20"/>
<path d="M134.522 321.867C158.767 330.804 185.661 318.374 194.589 294.105L150.687 277.925L134.522 321.87V321.867Z" fill="#2D2D2D"/>
<path d="M243.049 162.281L199.148 146.096L150.641 277.924L194.541 294.11L243.049 162.281Z" fill="#231F20"/>
<path d="M383.481 171C341.792 185.711 319.912 231.465 334.608 273.194C349.304 314.924 395.013 336.826 436.702 322.115L383.481 171Z" fill="#231F20"/>
<path d="M311.58 111.425C336.594 102.599 364.018 115.74 372.835 140.778L327.545 156.761L311.578 111.425H311.58Z" fill="#231F20"/>
<path d="M436.699 322.116C411.686 330.942 384.262 317.8 375.444 292.763L420.735 276.78L436.702 322.116H436.699Z" fill="#2D2D2D"/>
<path d="M375.441 292.77L420.729 276.788L372.829 140.786L327.541 156.768L375.441 292.77Z" fill="#231F20"/>
<path d="M410.794 159.767C370.589 179.398 353.893 227.938 373.508 268.185C393.121 308.429 441.613 325.141 481.82 305.507L410.796 159.767H410.794Z" fill="#231F20"/>
<path d="M331.604 108.223C355.727 96.4436 384.822 106.469 396.59 130.616L352.911 151.945L331.604 108.223Z" fill="#231F20"/>
<path d="M481.817 305.507C457.693 317.287 428.598 307.262 416.83 283.114L460.509 261.785L481.817 305.507Z" fill="#2D2D2D"/>
<path d="M416.839 283.072L460.521 261.746L396.607 130.575L352.926 151.901L416.839 283.072Z" fill="#231F20"/>
<path d="M415.817 141.392C383.963 177.33 387.248 232.311 423.148 264.194C459.051 296.08 513.979 292.791 545.83 256.855L415.815 141.392H415.817Z" fill="#231F20"/>
<path d="M316.204 122.703C335.317 101.14 368.272 99.168 389.813 118.3L355.209 157.343L316.204 122.705V122.703Z" fill="#231F20"/>
<path d="M545.83 256.853C526.718 278.415 493.763 280.388 472.222 261.256L506.825 222.213L545.83 256.851V256.853Z" fill="#2D2D2D"/>
<path d="M472.219 261.254L506.824 222.212L389.812 118.295L355.207 157.337L472.219 261.254Z" fill="#231F20"/>
<path d="M416.213 123.511C393.841 166.296 410.356 219.134 453.1 241.527C495.843 263.92 548.628 247.389 570.999 204.604L416.213 123.509V123.511Z" fill="#231F20"/>
<path d="M314.516 129.446C327.939 103.775 359.61 93.8557 385.255 107.293L360.951 153.774L314.516 129.446Z" fill="#231F20"/>
<path d="M571 204.606C557.576 230.276 525.905 240.195 500.26 226.759L524.564 180.277L571 204.606Z" fill="#2D2D2D"/>
<path d="M500.247 226.733L524.553 180.253L385.249 107.262L360.943 153.742L500.247 226.733Z" fill="#231F20"/>
<path d="M160.207 159.767C200.411 179.398 217.107 227.938 197.492 268.185C177.88 308.429 129.388 325.141 89.1807 305.507L160.204 159.767H160.207Z" fill="#231F20"/>
<path d="M239.396 108.223C215.272 96.4436 186.177 106.469 174.409 130.616L218.088 151.945L239.396 108.223Z" fill="#231F20"/>
<path d="M89.1826 305.507C113.306 317.287 142.402 307.262 154.169 283.114L110.49 261.785L89.1826 305.507Z" fill="#2D2D2D"/>
<path d="M218.121 151.945L174.439 130.619L110.526 261.79L154.207 283.116L218.121 151.945Z" fill="#231F20"/>
<path d="M155.182 141.392C187.036 177.33 183.751 232.311 147.851 264.194C111.948 296.08 57.0206 292.791 25.1689 256.855L155.184 141.392H155.182Z" fill="#231F20"/>
<path d="M254.795 122.703C235.682 101.14 202.728 99.168 181.187 118.3L215.79 157.343L254.795 122.705V122.703Z" fill="#231F20"/>
<path d="M25.1689 256.853C44.2817 278.415 77.2364 280.388 98.7775 261.256L64.1738 222.213L25.1689 256.851V256.853Z" fill="#2D2D2D"/>
<path d="M215.792 157.341L181.188 118.299L64.1756 222.216L98.7806 261.259L215.792 157.341Z" fill="#231F20"/>
<path d="M154.787 123.511C177.158 166.296 160.643 219.134 117.9 241.527C75.1564 263.92 22.3712 247.389 0 204.604L154.787 123.509V123.511Z" fill="#231F20"/>
<path d="M256.484 129.446C243.06 103.775 211.389 93.8557 185.744 107.293L210.048 153.774L256.484 129.446Z" fill="#231F20"/>
<path d="M0 204.606C13.4236 230.276 45.0947 240.195 70.7398 226.759L46.4355 180.277L0 204.606Z" fill="#2D2D2D"/>
<path d="M210.062 153.782L185.756 107.303L46.452 180.294L70.758 226.774L210.062 153.782Z" fill="#231F20"/>
<path d="M369.886 84.4385H201.174V168.877H369.886V84.4385Z" fill="#2D2D2D"/>
<path d="M369.886 168.878H201.174V253.316H369.886V168.878Z" fill="#2D2D2D"/>
<path d="M285.499 168.876C332.087 168.876 369.854 131.072 369.854 84.4381C369.854 37.8042 332.087 0 285.499 0C238.911 0 201.144 37.8042 201.144 84.4381C201.144 131.072 238.911 168.876 285.499 168.876Z" fill="#2D2D2D"/>
<path d="M285.529 337.754C332.117 337.754 369.884 299.95 369.884 253.316C369.884 206.682 332.117 168.878 285.529 168.878C238.941 168.878 201.174 206.682 201.174 253.316C201.174 299.95 238.941 337.754 285.529 337.754Z" fill="#2D2D2D"/>
<path d="M249.666 77.0729C262.671 77.0729 273.213 66.5202 273.213 53.5027C273.213 40.4853 262.671 29.9326 249.666 29.9326C236.661 29.9326 226.119 40.4853 226.119 53.5027C226.119 66.5202 236.661 77.0729 249.666 77.0729Z" fill="white"/>
<path d="M249.665 65.2891C256.168 65.2891 261.44 60.0123 261.44 53.503C261.44 46.9936 256.168 41.7168 249.665 41.7168C243.162 41.7168 237.891 46.9936 237.891 53.503C237.891 60.0123 243.162 65.2891 249.665 65.2891Z" fill="#231F20"/>
<path d="M241.645 51.949C246.766 51.949 250.918 47.793 250.918 42.6664C250.918 37.5397 246.766 33.3838 241.645 33.3838C236.523 33.3838 232.371 37.5397 232.371 42.6664C232.371 47.793 236.523 51.949 241.645 51.949Z" fill="white"/>
<path d="M239.007 131.297C258.071 131.297 273.525 115.828 273.525 96.7453C273.525 77.6628 258.071 62.1934 239.007 62.1934C219.943 62.1934 204.489 77.6628 204.489 96.7453C204.489 115.828 219.943 131.297 239.007 131.297Z" fill="#2D2D2D"/>
<path d="M321.392 77.0729C334.396 77.0729 344.939 66.5202 344.939 53.5027C344.939 40.4853 334.396 29.9326 321.392 29.9326C308.387 29.9326 297.845 40.4853 297.845 53.5027C297.845 66.5202 308.387 77.0729 321.392 77.0729Z" fill="white"/>
<path d="M321.392 65.2891C327.895 65.2891 333.166 60.0123 333.166 53.503C333.166 46.9936 327.895 41.7168 321.392 41.7168C314.889 41.7168 309.617 46.9936 309.617 53.503C309.617 60.0123 314.889 65.2891 321.392 65.2891Z" fill="#231F20"/>
<path d="M313.373 51.949C318.495 51.949 322.647 47.793 322.647 42.6664C322.647 37.5397 318.495 33.3838 313.373 33.3838C308.251 33.3838 304.1 37.5397 304.1 42.6664C304.1 47.793 308.251 51.949 313.373 51.949Z" fill="white"/>
<path d="M332.05 131.297C351.114 131.297 366.568 115.828 366.568 96.7453C366.568 77.6628 351.114 62.1934 332.05 62.1934C312.986 62.1934 297.532 77.6628 297.532 96.7453C297.532 115.828 312.986 131.297 332.05 131.297Z" fill="#2D2D2D"/>
<path d="M285.497 70.7041C264.982 70.7041 248.351 86.0715 248.351 105.027L285.499 168.877V70.7041H285.497Z" fill="#C7EAFB"/>
<path d="M322.649 105.027C322.649 86.0715 306.017 70.7041 285.502 70.7041V168.877L322.651 105.027H322.649Z" fill="#6E00FF"/>
<path d="M361.685 40.487H353.392C353.242 40.487 353.096 40.5017 352.952 40.5228C347.6 28.5092 335.755 20.1357 322.035 20.1357C304.17 20.1357 289.483 34.3317 288.174 52.2815C286.149 51.8412 284.043 51.8939 282.042 52.4331C280.805 34.4117 266.087 20.1357 248.173 20.1357C234.465 20.1357 222.63 28.4924 217.271 40.487H209.318C207.614 40.487 206.23 41.9026 206.23 43.6468C206.23 45.391 207.614 46.8066 209.318 46.8066H215.145C214.539 49.4018 214.216 52.1066 214.216 54.8894C214.216 74.0525 229.449 89.643 248.173 89.643C265.441 89.643 279.737 76.3823 281.857 59.2899C283.821 58.106 286.243 57.9817 288.31 58.9402C290.277 76.2012 304.65 89.643 322.033 89.643C340.757 89.643 355.99 74.0525 355.99 54.8894C355.99 52.1066 355.667 49.4018 355.061 46.8066H361.685C363.389 46.8066 364.772 45.391 364.772 43.6468C364.772 41.9026 363.389 40.487 361.685 40.487ZM248.173 83.3234C232.853 83.3234 220.391 70.5683 220.391 54.8894C220.391 39.2104 232.853 26.4553 248.173 26.4553C263.492 26.4553 275.954 39.2104 275.954 54.8894C275.954 70.5683 263.492 83.3234 248.173 83.3234ZM322.035 83.3234C306.716 83.3234 294.254 70.5683 294.254 54.8894C294.254 39.2104 306.716 26.4553 322.035 26.4553C337.355 26.4553 349.817 39.2104 349.817 54.8894C349.817 70.5683 337.355 83.3234 322.035 83.3234Z" fill="#EBFF00"/>
</svg>
