<svg width="1745" height="416" viewBox="0 0 1745 416" fill="none" xmlns="http://www.w3.org/2000/svg">
<g filter="url(#filter0_dd_4_11107)">
<path fill-rule="evenodd" clip-rule="evenodd" d="M1479.23 70.8265C1466.43 49.4872 1443.48 34.3735 1416.32 32.2529C1387.16 29.9761 1360.46 43.2488 1344.8 64.9382C1331.05 51.8252 1312.69 43.1458 1292.04 41.5337C1259.3 38.9773 1229.48 54.8704 1213.33 80.2699C1206.69 77.6368 1199.52 75.9371 1191.99 75.3494C1152.53 72.2681 1118.1 100.935 1115.1 139.379C1113.61 158.408 1120.1 176.265 1131.83 189.822C1122.77 201.34 1116.94 215.469 1115.72 231.036C1112.38 273.891 1145.33 311.416 1189.32 314.851C1213.48 316.737 1235.94 307.953 1251.84 292.553C1263.82 307.127 1281.71 317.045 1302.28 318.651C1323.04 320.272 1342.4 313.11 1356.53 300.363C1369.24 311.676 1385.75 319.114 1404.2 320.555C1425.67 322.231 1445.79 315.484 1461.16 303.158C1471.76 309.648 1484.06 313.811 1497.38 314.851C1516.59 316.351 1534.73 311.103 1549.35 301.147C1557.2 314.808 1571.67 324.537 1588.86 325.879C1613.68 327.816 1635.61 311.61 1640.97 288.672C1643.09 289.035 1645.24 289.305 1647.43 289.476C1685.03 292.411 1717.83 265.102 1720.69 228.48C1722.49 205.385 1711.96 184.101 1694.5 170.792C1695.02 168.53 1695.38 166.203 1695.57 163.822C1697.64 137.229 1677.26 113.936 1649.99 111.69C1648.6 87.827 1629.26 67.9959 1604.13 66.0343C1591.92 65.0804 1580.4 68.5131 1571.2 74.9773C1559.28 65.9741 1544.64 60.1347 1528.51 58.8756C1510.46 57.4665 1493.36 62.0138 1479.23 70.8265Z" fill="#C4DFFE"/>
</g>
<g filter="url(#filter1_dd_4_11107)">
<path fill-rule="evenodd" clip-rule="evenodd" d="M534.705 216.176C533.702 215.122 532.659 214.103 531.577 213.12C533.818 213.303 536.046 213.363 538.252 213.306C538.468 213.908 538.694 214.505 538.933 215.097C537.507 215.406 536.096 215.766 534.705 216.176ZM633.876 207.672C639.071 182.036 622.438 156.92 596.532 150.726C594.762 124.587 575.27 101.65 547.709 96.0646C534.169 93.321 520.793 95.1927 509.288 100.58C498.466 89.8585 484.398 82.0298 468.215 78.7505C438.438 72.7166 409.263 83.6572 391.189 104.807C379.953 92.0059 364.453 82.5934 346.288 78.9125C323.522 74.299 301.106 79.6089 283.736 91.8182C272.146 70.6123 251.325 54.363 225.393 49.108C201.82 44.3313 178.602 49.5663 160.353 61.8403C150.683 54.7578 139.314 49.5883 126.728 47.0378C81.2789 37.828 37.1632 66.2504 28.1922 110.521C22.4134 139.038 32.6274 167.175 52.7761 186.051C39.2846 196.942 29.4213 212.275 25.7484 230.4C17.2114 272.529 45.3519 313.786 88.6019 322.551C117.876 328.483 146.568 318.008 164.703 297.556C174.331 306.881 186.737 313.685 200.966 316.569C212.962 318.999 224.849 318.359 235.774 315.198C247.187 330.815 264.427 342.455 285.13 346.65C312.344 352.165 339.056 343.501 357.25 325.822C367.722 335.379 380.92 342.343 395.941 345.386C417.724 349.8 439.186 345.13 456.215 334.024C460.78 358.14 479.915 378.414 506.017 383.703C540.176 390.625 573.334 369.263 580.076 335.989C581.025 331.307 581.4 326.639 581.249 322.053C595.781 314.21 606.78 300.411 610.263 283.222C613.155 268.954 610.366 254.821 603.425 243.062C618.59 237.341 630.482 224.422 633.876 207.672Z" fill="white" fill-opacity="0.9" shape-rendering="crispEdges"/>
</g>
<g filter="url(#filter2_dd_4_11107)">
<path fill-rule="evenodd" clip-rule="evenodd" d="M292.191 166.207C283.221 151.254 267.138 140.663 248.106 139.177C227.671 137.582 208.967 146.882 197.994 162.08C188.354 152.892 175.489 146.81 161.02 145.68C138.076 143.889 117.184 155.026 105.87 172.824C101.211 170.979 96.1898 169.788 90.916 169.376C63.2608 167.217 39.1369 187.304 37.0337 214.243C35.9927 227.576 40.5418 240.089 48.7557 249.589C42.4137 257.659 38.323 267.56 37.4713 278.468C35.1268 308.497 58.2174 334.792 89.0456 337.198C105.973 338.52 121.713 332.365 132.855 321.574C141.25 331.786 153.781 338.736 168.198 339.861C182.744 340.997 196.312 335.979 206.213 327.046C215.116 334.974 226.685 340.186 239.615 341.195C254.654 342.37 268.757 337.642 279.529 329.005C286.952 333.552 295.575 336.47 304.907 337.198C318.368 338.249 331.078 334.572 341.322 327.596C346.82 337.168 356.962 343.986 369.009 344.926C386.398 346.284 401.77 334.927 405.519 318.854C407.005 319.109 408.517 319.298 410.051 319.418C436.396 321.475 459.377 302.339 461.381 276.677C462.645 260.493 455.264 245.58 443.032 236.254C443.397 234.669 443.649 233.038 443.779 231.37C445.234 212.736 430.948 196.414 411.845 194.84C410.866 178.119 397.316 164.223 379.711 162.849C371.15 162.181 363.077 164.586 356.632 169.115C348.282 162.807 338.022 158.715 326.722 157.832C314.074 156.845 302.09 160.031 292.191 166.207Z" fill="#C4DFFE"/>
</g>
<g filter="url(#filter3_dd_4_11107)">
<path fill-rule="evenodd" clip-rule="evenodd" d="M534.705 216.176C533.702 215.122 532.659 214.103 531.577 213.12C533.818 213.303 536.046 213.363 538.252 213.306C538.468 213.908 538.694 214.505 538.933 215.097C537.507 215.406 536.096 215.766 534.705 216.176ZM633.876 207.672C639.071 182.036 622.438 156.92 596.532 150.726C594.762 124.587 575.27 101.65 547.709 96.0646C534.169 93.321 520.793 95.1927 509.288 100.58C498.466 89.8585 484.398 82.0298 468.215 78.7505C438.438 72.7166 409.263 83.6572 391.189 104.807C379.953 92.0059 364.453 82.5934 346.288 78.9125C323.522 74.299 301.106 79.6089 283.736 91.8182C272.146 70.6123 251.325 54.363 225.393 49.108C201.82 44.3313 178.602 49.5663 160.353 61.8403C150.683 54.7578 139.314 49.5883 126.728 47.0378C81.2789 37.828 37.1632 66.2504 28.1922 110.521C22.4134 139.038 32.6274 167.175 52.7761 186.051C39.2846 196.942 29.4213 212.275 25.7484 230.4C17.2114 272.529 45.3519 313.786 88.6019 322.551C117.876 328.483 146.568 318.008 164.703 297.556C174.331 306.881 186.737 313.685 200.966 316.569C212.962 318.999 224.849 318.359 235.774 315.198C247.187 330.815 264.427 342.455 285.13 346.65C312.344 352.165 339.056 343.501 357.25 325.822C367.722 335.379 380.92 342.343 395.941 345.386C417.724 349.8 439.186 345.13 456.215 334.024C460.78 358.14 479.915 378.414 506.017 383.703C540.176 390.625 573.334 369.263 580.076 335.989C581.025 331.307 581.4 326.639 581.249 322.053C595.781 314.21 606.78 300.411 610.263 283.222C613.155 268.954 610.366 254.821 603.425 243.062C618.59 237.341 630.482 224.422 633.876 207.672Z" fill="white" fill-opacity="0.9" shape-rendering="crispEdges"/>
</g>
<g filter="url(#filter4_dd_4_11107)">
<path fill-rule="evenodd" clip-rule="evenodd" d="M292.191 166.207C283.221 151.254 267.138 140.663 248.106 139.177C227.671 137.582 208.967 146.882 197.994 162.08C188.354 152.892 175.489 146.81 161.02 145.68C138.076 143.889 117.184 155.026 105.87 172.824C101.211 170.979 96.1898 169.788 90.916 169.376C63.2608 167.217 39.1369 187.304 37.0337 214.243C35.9927 227.576 40.5418 240.089 48.7557 249.589C42.4137 257.659 38.323 267.56 37.4713 278.468C35.1268 308.497 58.2174 334.792 89.0456 337.198C105.973 338.52 121.713 332.365 132.855 321.574C141.25 331.786 153.781 338.736 168.198 339.861C182.744 340.997 196.312 335.979 206.213 327.046C215.116 334.974 226.685 340.186 239.615 341.195C254.654 342.37 268.757 337.642 279.529 329.005C286.952 333.552 295.575 336.47 304.907 337.198C318.368 338.249 331.078 334.572 341.322 327.596C346.82 337.168 356.962 343.986 369.009 344.926C386.398 346.284 401.77 334.927 405.519 318.854C407.005 319.109 408.517 319.298 410.051 319.418C436.396 321.475 459.377 302.339 461.381 276.677C462.645 260.493 455.264 245.58 443.032 236.254C443.397 234.669 443.649 233.038 443.779 231.37C445.234 212.736 430.948 196.414 411.845 194.84C410.866 178.119 397.316 164.223 379.711 162.849C371.15 162.181 363.077 164.586 356.632 169.115C348.282 162.807 338.022 158.715 326.722 157.832C314.074 156.845 302.09 160.031 292.191 166.207Z" fill="#C4DFFE"/>
</g>
<g filter="url(#filter5_bdd_4_11107)">
<path fill-rule="evenodd" clip-rule="evenodd" d="M1197.33 248.287C1197.57 248.019 1197.81 247.749 1198.04 247.476C1198.39 247.676 1198.73 247.872 1199.08 248.064C1198.49 248.13 1197.91 248.205 1197.33 248.287ZM1171.96 353.819C1161.04 361.339 1147.7 365.741 1133.31 365.698C1096.5 365.589 1066.74 336.428 1066.84 300.567C1066.87 290.933 1069.05 281.796 1072.94 273.585C1053.21 264.017 1039.69 244.151 1039.75 221.233C1039.85 189.062 1066.7 163.062 1099.73 163.161C1103.93 163.173 1108.03 163.607 1111.98 164.421C1122.66 155.48 1136.56 150.093 1151.75 150.138C1167.25 150.184 1181.37 155.878 1192.08 165.213C1200.95 158.258 1212.24 154.109 1224.51 154.146C1236.76 154.182 1248 158.381 1256.83 165.364C1265.08 159.951 1275.02 156.805 1285.72 156.836C1298.35 156.874 1309.9 161.334 1318.84 168.707C1327.67 164.548 1337.58 162.229 1348.04 162.26C1353.33 162.276 1358.48 162.892 1363.41 164.042C1375.26 153.694 1390.93 147.419 1408.1 147.47C1422.86 147.513 1436.48 152.225 1447.5 160.164C1454.73 154.26 1464.07 150.716 1474.24 150.747C1497.15 150.815 1515.67 168.958 1515.6 191.271C1515.58 198.973 1513.34 206.164 1509.49 212.278C1511.96 217.473 1513.33 223.265 1513.31 229.37C1513.29 237.537 1510.78 245.13 1506.48 251.473C1509.12 257.89 1510.56 264.896 1510.54 272.23C1510.44 302.877 1484.87 327.645 1453.4 327.552C1451.49 327.546 1449.6 327.449 1447.74 327.265C1440.53 339.205 1427.19 347.201 1411.94 347.156C1400.46 347.122 1390.09 342.541 1382.62 335.17C1371.04 354.543 1349.46 367.536 1324.78 367.463C1306 367.407 1289.05 359.79 1276.97 347.579C1271.62 348.91 1266.01 349.611 1260.23 349.594C1255.72 349.58 1251.32 349.131 1247.06 348.288C1236.31 358.181 1221.79 364.228 1205.83 364.181C1193.24 364.143 1181.57 360.32 1171.96 353.819Z" fill="white" fill-opacity="0.9" shape-rendering="crispEdges"/>
</g>
<path d="M828.28 376.955H813.592L796.71 267.11C796.457 265.462 794.915 264.331 793.268 264.585C791.622 264.838 790.492 266.381 790.745 268.029L807.487 376.957H776.452C774.785 376.957 773.434 378.31 773.434 379.978C773.434 381.646 774.785 383 776.452 383H810.992C810.992 383 810.999 383 811.001 383C811.005 383 811.007 383 811.012 383H828.282C829.948 383 831.3 381.646 831.3 379.978C831.3 378.31 829.948 376.957 828.282 376.957L828.28 376.955Z" fill="#2D2D2D"/>
<path d="M897.383 376.955H866.348L883.09 268.028C883.343 266.379 882.213 264.836 880.567 264.583C878.92 264.329 877.379 265.46 877.125 267.109L860.243 376.953H845.556C843.889 376.953 842.537 378.306 842.537 379.974C842.537 381.642 843.889 382.995 845.556 382.995H862.826C862.826 382.995 862.832 382.995 862.837 382.995C862.839 382.995 862.843 382.995 862.845 382.995H897.385C899.052 382.995 900.404 381.642 900.404 379.974C900.404 378.306 899.052 376.953 897.385 376.953L897.383 376.955Z" fill="#2D2D2D"/>
<path d="M739.795 175.385C780.204 190.281 800.9 235.145 786.021 275.594C771.14 316.043 726.321 336.76 685.911 321.866L739.797 175.385H739.795Z" fill="#231F20"/>
<path d="M810.638 118.325C786.394 109.389 759.5 121.819 750.572 146.087L794.474 162.268L810.638 118.323V118.325Z" fill="#231F20"/>
<path d="M685.909 321.866C710.154 330.803 737.047 318.373 745.975 294.104L702.074 277.924L685.909 321.869V321.866Z" fill="#2D2D2D"/>
<path d="M794.435 162.281L750.535 146.096L702.027 277.924L745.928 294.11L794.435 162.281Z" fill="#231F20"/>
<path d="M934.868 170.999C893.179 185.709 871.299 231.463 885.995 273.193C900.691 314.923 946.4 336.825 988.089 322.114L934.868 170.999Z" fill="#231F20"/>
<path d="M862.967 111.424C887.98 102.598 915.404 115.739 924.222 140.777L878.931 156.76L862.965 111.424H862.967Z" fill="#231F20"/>
<path d="M988.086 322.114C963.073 330.94 935.649 317.799 926.831 292.761L972.122 276.779L988.088 322.114H988.086Z" fill="#2D2D2D"/>
<path d="M926.828 292.769L972.116 276.787L924.216 140.785L878.928 156.767L926.828 292.769Z" fill="#231F20"/>
<path d="M962.18 159.766C921.975 179.397 905.28 227.937 924.895 268.184C944.507 308.428 992.999 325.14 1033.21 305.506L962.182 159.766H962.18Z" fill="#231F20"/>
<path d="M882.99 108.222C907.114 96.4427 936.209 106.468 947.977 130.615L904.298 151.944L882.99 108.222Z" fill="#231F20"/>
<path d="M1033.2 305.506C1009.08 317.286 979.985 307.261 968.217 283.113L1011.9 261.784L1033.2 305.506Z" fill="#2D2D2D"/>
<path d="M968.226 283.07L1011.91 261.745L947.994 130.574L904.313 151.9L968.226 283.07Z" fill="#231F20"/>
<path d="M967.204 141.391C935.35 177.329 938.635 232.311 974.535 264.194C1010.44 296.079 1065.37 292.791 1097.22 256.855L967.201 141.391H967.204Z" fill="#231F20"/>
<path d="M867.591 122.702C886.704 101.14 919.658 99.1676 941.199 118.299L906.596 157.342L867.591 122.705V122.702Z" fill="#231F20"/>
<path d="M1097.22 256.853C1078.1 278.415 1045.15 280.388 1023.61 261.256L1058.21 222.213L1097.22 256.851V256.853Z" fill="#2D2D2D"/>
<path d="M1023.61 261.254L1058.21 222.212L941.199 118.295L906.594 157.337L1023.61 261.254Z" fill="#231F20"/>
<path d="M967.599 123.511C945.228 166.296 961.743 219.134 1004.49 241.527C1047.23 263.92 1100.01 247.389 1122.39 204.604L967.599 123.509V123.511Z" fill="#231F20"/>
<path d="M865.902 129.445C879.326 103.775 910.997 93.8552 936.642 107.292L912.338 153.773L865.902 129.445Z" fill="#231F20"/>
<path d="M1122.39 204.605C1108.96 230.276 1077.29 240.195 1051.65 226.758L1075.95 180.277L1122.39 204.605Z" fill="#2D2D2D"/>
<path d="M1051.63 226.732L1075.94 180.252L936.636 107.261L912.329 153.741L1051.63 226.732Z" fill="#231F20"/>
<path d="M711.593 159.766C751.798 179.397 768.494 227.937 748.879 268.184C729.266 308.428 680.774 325.14 640.567 305.506L711.591 159.766H711.593Z" fill="#231F20"/>
<path d="M790.783 108.222C766.659 96.4427 737.564 106.468 725.796 130.615L769.475 151.944L790.783 108.222Z" fill="#231F20"/>
<path d="M640.569 305.506C664.693 317.286 693.788 307.261 705.556 283.113L661.877 261.784L640.569 305.506Z" fill="#2D2D2D"/>
<path d="M769.507 151.944L725.826 130.618L661.913 261.789L705.594 283.115L769.507 151.944Z" fill="#231F20"/>
<path d="M706.569 141.391C738.423 177.329 735.138 232.311 699.237 264.194C663.335 296.079 608.407 292.791 576.556 256.855L706.571 141.391H706.569Z" fill="#231F20"/>
<path d="M806.182 122.702C787.069 101.14 754.114 99.1676 732.573 118.299L767.177 157.342L806.182 122.705V122.702Z" fill="#231F20"/>
<path d="M576.556 256.853C595.668 278.415 628.623 280.388 650.164 261.256L615.561 222.213L576.556 256.851V256.853Z" fill="#2D2D2D"/>
<path d="M767.179 157.341L732.574 118.298L615.562 222.216L650.167 261.258L767.179 157.341Z" fill="#231F20"/>
<path d="M706.173 123.511C728.545 166.296 712.03 219.134 669.286 241.527C626.543 263.92 573.758 247.389 551.387 204.604L706.173 123.509V123.511Z" fill="#231F20"/>
<path d="M807.871 129.445C794.447 103.775 762.776 93.8552 737.131 107.292L761.435 153.773L807.871 129.445Z" fill="#231F20"/>
<path d="M551.387 204.605C564.81 230.276 596.481 240.195 622.127 226.758L597.822 180.277L551.387 204.605Z" fill="#2D2D2D"/>
<path d="M761.449 153.782L737.143 107.302L597.839 180.293L622.145 226.773L761.449 153.782Z" fill="#231F20"/>
<path d="M921.273 84.438H752.561V168.876H921.273V84.438Z" fill="#2D2D2D"/>
<path d="M921.273 168.878H752.561V253.317H921.273V168.878Z" fill="#2D2D2D"/>
<path d="M836.885 168.876C883.473 168.876 921.24 131.072 921.24 84.4381C921.24 37.8042 883.473 0 836.885 0C790.297 0 752.53 37.8042 752.53 84.4381C752.53 131.072 790.297 168.876 836.885 168.876Z" fill="#2D2D2D"/>
<path d="M836.916 337.755C883.503 337.755 921.271 299.95 921.271 253.317C921.271 206.683 883.503 168.878 836.916 168.878C790.328 168.878 752.561 206.683 752.561 253.317C752.561 299.95 790.328 337.755 836.916 337.755Z" fill="#2D2D2D"/>
<path d="M801.053 77.0729C814.057 77.0729 824.6 66.5202 824.6 53.5027C824.6 40.4853 814.057 29.9326 801.053 29.9326C788.048 29.9326 777.506 40.4853 777.506 53.5027C777.506 66.5202 788.048 77.0729 801.053 77.0729Z" fill="white"/>
<path d="M801.052 65.2886C807.555 65.2886 812.826 60.0118 812.826 53.5025C812.826 46.9932 807.555 41.7163 801.052 41.7163C794.549 41.7163 789.277 46.9932 789.277 53.5025C789.277 60.0118 794.549 65.2886 801.052 65.2886Z" fill="#231F20"/>
<path d="M793.031 51.949C798.153 51.949 802.305 47.793 802.305 42.6664C802.305 37.5397 798.153 33.3838 793.031 33.3838C787.91 33.3838 783.758 37.5397 783.758 42.6664C783.758 47.793 787.91 51.949 793.031 51.949Z" fill="white"/>
<path d="M790.394 131.297C809.458 131.297 824.912 115.827 824.912 96.7448C824.912 77.6623 809.458 62.1929 790.394 62.1929C771.33 62.1929 755.876 77.6623 755.876 96.7448C755.876 115.827 771.33 131.297 790.394 131.297Z" fill="#2D2D2D"/>
<path d="M872.778 77.0729C885.783 77.0729 896.325 66.5202 896.325 53.5027C896.325 40.4853 885.783 29.9326 872.778 29.9326C859.774 29.9326 849.231 40.4853 849.231 53.5027C849.231 66.5202 859.774 77.0729 872.778 77.0729Z" fill="white"/>
<path d="M872.778 65.2886C879.281 65.2886 884.553 60.0118 884.553 53.5025C884.553 46.9932 879.281 41.7163 872.778 41.7163C866.276 41.7163 861.004 46.9932 861.004 53.5025C861.004 60.0118 866.276 65.2886 872.778 65.2886Z" fill="#231F20"/>
<path d="M864.76 51.949C869.881 51.949 874.033 47.793 874.033 42.6664C874.033 37.5397 869.881 33.3838 864.76 33.3838C859.638 33.3838 855.486 37.5397 855.486 42.6664C855.486 47.793 859.638 51.949 864.76 51.949Z" fill="white"/>
<path d="M883.437 131.297C902.5 131.297 917.955 115.827 917.955 96.7448C917.955 77.6623 902.5 62.1929 883.437 62.1929C864.373 62.1929 848.919 77.6623 848.919 96.7448C848.919 115.827 864.373 131.297 883.437 131.297Z" fill="#2D2D2D"/>
<path d="M836.884 70.7036C816.369 70.7036 799.737 86.071 799.737 105.026L836.886 168.876V70.7036H836.884Z" fill="#C7EAFB"/>
<path d="M874.035 105.026C874.035 86.071 857.404 70.7036 836.889 70.7036V168.876L874.038 105.026H874.035Z" fill="#6E00FF"/>
<defs>
<filter id="filter0_dd_4_11107" x="1090.89" y="10" width="654" height="342.036" filterUnits="userSpaceOnUse" color-interpolation-filters="sRGB">
<feFlood flood-opacity="0" result="BackgroundImageFix"/>
<feColorMatrix in="SourceAlpha" type="matrix" values="0 0 0 0 0 0 0 0 0 0 0 0 0 0 0 0 0 0 127 0" result="hardAlpha"/>
<feOffset dy="2"/>
<feGaussianBlur stdDeviation="12"/>
<feComposite in2="hardAlpha" operator="out"/>
<feColorMatrix type="matrix" values="0 0 0 0 0 0 0 0 0 0 0 0 0 0 0 0 0 0 0.15 0"/>
<feBlend mode="normal" in2="BackgroundImageFix" result="effect1_dropShadow_4_11107"/>
<feColorMatrix in="SourceAlpha" type="matrix" values="0 0 0 0 0 0 0 0 0 0 0 0 0 0 0 0 0 0 127 0" result="hardAlpha"/>
<feOffset dy="2"/>
<feGaussianBlur stdDeviation="3"/>
<feComposite in2="hardAlpha" operator="out"/>
<feColorMatrix type="matrix" values="0 0 0 0 0 0 0 0 0 0 0 0 0 0 0 0 0 0 0.1 0"/>
<feBlend mode="normal" in2="effect1_dropShadow_4_11107" result="effect2_dropShadow_4_11107"/>
<feBlend mode="normal" in="SourceGraphic" in2="effect2_dropShadow_4_11107" result="shape"/>
</filter>
<filter id="filter1_dd_4_11107" x="0.222656" y="23.3052" width="658.603" height="387.701" filterUnits="userSpaceOnUse" color-interpolation-filters="sRGB">
<feFlood flood-opacity="0" result="BackgroundImageFix"/>
<feColorMatrix in="SourceAlpha" type="matrix" values="0 0 0 0 0 0 0 0 0 0 0 0 0 0 0 0 0 0 127 0" result="hardAlpha"/>
<feOffset dy="2"/>
<feGaussianBlur stdDeviation="12"/>
<feComposite in2="hardAlpha" operator="out"/>
<feColorMatrix type="matrix" values="0 0 0 0 0 0 0 0 0 0 0 0 0 0 0 0 0 0 0.15 0"/>
<feBlend mode="normal" in2="BackgroundImageFix" result="effect1_dropShadow_4_11107"/>
<feColorMatrix in="SourceAlpha" type="matrix" values="0 0 0 0 0 0 0 0 0 0 0 0 0 0 0 0 0 0 127 0" result="hardAlpha"/>
<feOffset dy="2"/>
<feGaussianBlur stdDeviation="3"/>
<feComposite in2="hardAlpha" operator="out"/>
<feColorMatrix type="matrix" values="0 0 0 0 0 0 0 0 0 0 0 0 0 0 0 0 0 0 0.1 0"/>
<feBlend mode="normal" in2="effect1_dropShadow_4_11107" result="effect2_dropShadow_4_11107"/>
<feBlend mode="normal" in="SourceGraphic" in2="effect2_dropShadow_4_11107" result="shape"/>
</filter>
<filter id="filter2_dd_4_11107" x="12.8867" y="117" width="472.635" height="254.036" filterUnits="userSpaceOnUse" color-interpolation-filters="sRGB">
<feFlood flood-opacity="0" result="BackgroundImageFix"/>
<feColorMatrix in="SourceAlpha" type="matrix" values="0 0 0 0 0 0 0 0 0 0 0 0 0 0 0 0 0 0 127 0" result="hardAlpha"/>
<feOffset dy="2"/>
<feGaussianBlur stdDeviation="12"/>
<feComposite in2="hardAlpha" operator="out"/>
<feColorMatrix type="matrix" values="0 0 0 0 0 0 0 0 0 0 0 0 0 0 0 0 0 0 0.15 0"/>
<feBlend mode="normal" in2="BackgroundImageFix" result="effect1_dropShadow_4_11107"/>
<feColorMatrix in="SourceAlpha" type="matrix" values="0 0 0 0 0 0 0 0 0 0 0 0 0 0 0 0 0 0 127 0" result="hardAlpha"/>
<feOffset dy="2"/>
<feGaussianBlur stdDeviation="3"/>
<feComposite in2="hardAlpha" operator="out"/>
<feColorMatrix type="matrix" values="0 0 0 0 0 0 0 0 0 0 0 0 0 0 0 0 0 0 0.1 0"/>
<feBlend mode="normal" in2="effect1_dropShadow_4_11107" result="effect2_dropShadow_4_11107"/>
<feBlend mode="normal" in="SourceGraphic" in2="effect2_dropShadow_4_11107" result="shape"/>
</filter>
<filter id="filter3_dd_4_11107" x="0.222656" y="23.3052" width="658.603" height="387.701" filterUnits="userSpaceOnUse" color-interpolation-filters="sRGB">
<feFlood flood-opacity="0" result="BackgroundImageFix"/>
<feColorMatrix in="SourceAlpha" type="matrix" values="0 0 0 0 0 0 0 0 0 0 0 0 0 0 0 0 0 0 127 0" result="hardAlpha"/>
<feOffset dy="2"/>
<feGaussianBlur stdDeviation="12"/>
<feComposite in2="hardAlpha" operator="out"/>
<feColorMatrix type="matrix" values="0 0 0 0 0 0 0 0 0 0 0 0 0 0 0 0 0 0 0.15 0"/>
<feBlend mode="normal" in2="BackgroundImageFix" result="effect1_dropShadow_4_11107"/>
<feColorMatrix in="SourceAlpha" type="matrix" values="0 0 0 0 0 0 0 0 0 0 0 0 0 0 0 0 0 0 127 0" result="hardAlpha"/>
<feOffset dy="2"/>
<feGaussianBlur stdDeviation="3"/>
<feComposite in2="hardAlpha" operator="out"/>
<feColorMatrix type="matrix" values="0 0 0 0 0 0 0 0 0 0 0 0 0 0 0 0 0 0 0.1 0"/>
<feBlend mode="normal" in2="effect1_dropShadow_4_11107" result="effect2_dropShadow_4_11107"/>
<feBlend mode="normal" in="SourceGraphic" in2="effect2_dropShadow_4_11107" result="shape"/>
</filter>
<filter id="filter4_dd_4_11107" x="12.8867" y="117" width="472.635" height="254.036" filterUnits="userSpaceOnUse" color-interpolation-filters="sRGB">
<feFlood flood-opacity="0" result="BackgroundImageFix"/>
<feColorMatrix in="SourceAlpha" type="matrix" values="0 0 0 0 0 0 0 0 0 0 0 0 0 0 0 0 0 0 127 0" result="hardAlpha"/>
<feOffset dy="2"/>
<feGaussianBlur stdDeviation="12"/>
<feComposite in2="hardAlpha" operator="out"/>
<feColorMatrix type="matrix" values="0 0 0 0 0 0 0 0 0 0 0 0 0 0 0 0 0 0 0.15 0"/>
<feBlend mode="normal" in2="BackgroundImageFix" result="effect1_dropShadow_4_11107"/>
<feColorMatrix in="SourceAlpha" type="matrix" values="0 0 0 0 0 0 0 0 0 0 0 0 0 0 0 0 0 0 127 0" result="hardAlpha"/>
<feOffset dy="2"/>
<feGaussianBlur stdDeviation="3"/>
<feComposite in2="hardAlpha" operator="out"/>
<feColorMatrix type="matrix" values="0 0 0 0 0 0 0 0 0 0 0 0 0 0 0 0 0 0 0.1 0"/>
<feBlend mode="normal" in2="effect1_dropShadow_4_11107" result="effect2_dropShadow_4_11107"/>
<feBlend mode="normal" in="SourceGraphic" in2="effect2_dropShadow_4_11107" result="shape"/>
</filter>
<filter id="filter5_bdd_4_11107" x="1003.75" y="123.469" width="547.846" height="291.994" filterUnits="userSpaceOnUse" color-interpolation-filters="sRGB">
<feFlood flood-opacity="0" result="BackgroundImageFix"/>
<feGaussianBlur in="BackgroundImageFix" stdDeviation="4"/>
<feComposite in2="SourceAlpha" operator="in" result="effect1_backgroundBlur_4_11107"/>
<feColorMatrix in="SourceAlpha" type="matrix" values="0 0 0 0 0 0 0 0 0 0 0 0 0 0 0 0 0 0 127 0" result="hardAlpha"/>
<feMorphology radius="4" operator="dilate" in="SourceAlpha" result="effect2_dropShadow_4_11107"/>
<feOffset dy="12"/>
<feGaussianBlur stdDeviation="16"/>
<feComposite in2="hardAlpha" operator="out"/>
<feColorMatrix type="matrix" values="0 0 0 0 0 0 0 0 0 0 0 0 0 0 0 0 0 0 0.15 0"/>
<feBlend mode="normal" in2="effect1_backgroundBlur_4_11107" result="effect2_dropShadow_4_11107"/>
<feColorMatrix in="SourceAlpha" type="matrix" values="0 0 0 0 0 0 0 0 0 0 0 0 0 0 0 0 0 0 127 0" result="hardAlpha"/>
<feOffset dy="1"/>
<feGaussianBlur stdDeviation="4"/>
<feComposite in2="hardAlpha" operator="out"/>
<feColorMatrix type="matrix" values="0 0 0 0 0 0 0 0 0 0 0 0 0 0 0 0 0 0 0.15 0"/>
<feBlend mode="normal" in2="effect2_dropShadow_4_11107" result="effect3_dropShadow_4_11107"/>
<feBlend mode="normal" in="SourceGraphic" in2="effect3_dropShadow_4_11107" result="shape"/>
</filter>
</defs>
</svg>
