<svg width="465" height="436" viewBox="0 0 465 436" fill="none" xmlns="http://www.w3.org/2000/svg">
<circle cx="232.442" cy="218.121" r="179.737" transform="rotate(13.9868 232.442 218.121)" fill="url(#paint0_radial_4_11116)"/>
<path d="M363.868 134.61L361.055 141.172L366.466 145.872L359.354 145.245L356.566 151.829L354.951 144.874L347.815 144.226L353.943 140.545L352.329 133.591L357.739 138.291L363.868 134.61Z" fill="#FF7EF2"/>
<path d="M216.515 25.274L220.772 34.3376L230.741 33.0465L223.456 39.9176L227.759 48.9753L218.965 44.1867L211.634 51.0638L213.488 41.2088L204.693 36.4202L214.662 35.129L216.515 25.274Z" fill="#FF7EF2"/>
<path d="M171.389 74.5617L177.827 64.6632L173.334 62.6932L169.468 68.6351L160.59 65.0642L155.437 72.9846L146.558 69.414L140.119 79.3118L144.612 81.2829L148.479 75.3395L157.358 78.9101L162.511 70.9908L171.389 74.5617Z" fill="#FF5A00"/>
<path d="M455.272 143.622L462.749 134.484L458.497 132.036L454.007 137.522L445.571 133.005L439.586 140.317L431.149 135.801L423.67 144.939L427.922 147.387L432.413 141.9L440.851 146.417L446.835 139.106L455.272 143.622Z" fill="#00C800"/>
<path d="M305.327 102.287L316.739 105.317L317.21 100.434L310.359 98.6135L310.983 89.0647L301.851 86.6389L302.474 77.089L291.062 74.057L290.591 78.9412L297.443 80.7619L296.82 90.3119L305.951 92.7383L305.327 102.287Z" fill="#FF5A00"/>
<path d="M82.5723 45.581C88.0197 46.9378 93.5859 43.421 95.0045 37.7258C96.4231 32.0306 93.1568 26.3137 87.7094 24.9569C82.262 23.6 76.6957 27.1169 75.2771 32.812C73.8586 38.5072 77.1249 44.2241 82.5723 45.581Z" fill="#0082FF"/>
<path d="M222.722 129.062C228.17 130.419 233.736 126.902 235.154 121.207C236.573 115.512 233.307 109.795 227.859 108.438C222.412 107.081 216.846 110.598 215.427 116.293C214.008 121.989 217.275 127.706 222.722 129.062Z" fill="#00C800"/>
<path d="M240.847 91.1671C225.465 91.4391 213.198 103.171 213.449 117.369L242.149 164.703L240.849 91.1671L240.847 91.1671Z" fill="#2D2D2D"/>
<path d="M283.222 139.552C291.463 127.987 287.989 111.373 275.461 102.444L232.773 162.336L283.222 139.552Z" fill="#2D2D2D"/>
<path d="M219.743 97.0583C207.646 100.382 200.326 112.13 203.394 123.296L235.635 154.891L219.744 97.0579L219.743 97.0583Z" fill="#C7EAFB"/>
<path d="M258.42 116.584C256.875 105.107 245.544 97.1582 233.11 98.8301L241.103 158.272L258.42 116.584Z" fill="#6E00FF"/>
<path d="M272.721 99.912C261.382 94.543 248.172 98.6757 243.216 109.142L247.055 154.119L272.722 99.9126L272.721 99.912Z" fill="#C7EAFB"/>
<path d="M292.581 143.945C300.571 135.563 299.688 121.749 290.608 113.092L249.221 156.501L292.581 143.945Z" fill="#6E00FF"/>
<path d="M294.865 216.895L172.097 186.316L156.808 247.699L279.575 278.278L294.865 216.895Z" fill="#2D2D2D"/>
<path d="M218.192 262.99C252.092 271.435 286.42 250.798 294.864 216.897C303.308 182.996 282.672 148.669 248.771 140.225C214.87 131.78 180.542 152.417 172.098 186.318C163.654 220.219 184.291 254.546 218.192 262.99Z" fill="#2D2D2D"/>
<path d="M156.774 217.962C188.877 214.458 212.06 185.595 208.557 153.493C205.053 121.391 176.19 98.2073 144.088 101.71L156.776 217.962L156.774 217.962Z" fill="#231F20"/>
<path d="M197.994 272.28C178.733 274.383 161.414 260.472 159.312 241.212L194.188 237.406L197.994 272.282L197.994 272.28Z" fill="#231F20"/>
<path d="M144.088 101.707C163.348 99.6049 180.667 113.515 182.769 132.776L147.893 136.581L144.088 101.705L144.088 101.707Z" fill="#C7EAFB"/>
<path d="M194.161 237.391L159.286 241.2L147.858 136.574L182.734 132.765L194.161 237.391Z" fill="#231F20"/>
<path d="M290.357 252.755C262.685 234.505 255.048 197.278 273.298 169.606C291.548 141.933 328.775 134.297 356.448 152.547L290.357 252.755Z" fill="#231F20"/>
<path d="M227.25 283.03C243.853 293.98 266.188 289.397 277.138 272.794L247.075 252.967L227.248 283.029L227.25 283.03Z" fill="#231F20"/>
<path d="M356.446 152.545C339.843 141.595 317.508 146.177 306.558 162.78L336.62 182.608L356.448 152.545L356.446 152.545Z" fill="#C7EAFB"/>
<path d="M306.556 162.775L336.617 182.602L277.135 272.787L247.074 252.96L306.556 162.775Z" fill="#231F20"/>
<path d="M315.133 266.364C289.432 244.806 286.072 206.493 307.633 180.791C329.192 155.09 367.504 151.73 393.206 173.291L315.135 266.365L315.133 266.364Z" fill="#231F20"/>
<path d="M248.176 289.48C263.597 302.416 286.584 300.401 299.52 284.98L271.598 261.558L248.176 289.48Z" fill="#231F20"/>
<path d="M393.205 173.292C377.784 160.356 354.797 162.37 341.861 177.792L369.783 201.214L393.205 173.292Z" fill="#6E00FF"/>
<path d="M341.86 177.823L369.784 201.244L299.525 285.015L271.6 261.595L341.86 177.823Z" fill="#231F20"/>
<path d="M310.135 276.767C293.463 244.868 305.809 205.494 337.706 188.824C369.605 172.152 408.979 184.498 425.65 216.395L310.133 276.767L310.135 276.767Z" fill="#231F20"/>
<path d="M234.265 272.297C244.268 291.436 267.891 298.843 287.031 288.839L268.92 254.184L234.265 272.295L234.265 272.297Z" fill="#231F20"/>
<path d="M425.65 216.396C415.646 197.257 392.023 189.85 372.884 199.853L390.995 234.508L425.65 216.398L425.65 216.396Z" fill="#C7EAFB"/>
<path d="M372.883 199.854L390.994 234.508L287.031 288.843L268.919 254.189L372.883 199.854Z" fill="#231F20"/>
<path d="M307.184 289.84C298.653 254.682 320.238 219.265 355.396 210.734C390.554 202.202 425.971 223.787 434.502 258.945L307.184 289.842L307.184 289.84Z" fill="#231F20"/>
<path d="M234.257 267.091C239.376 288.186 260.626 301.137 281.721 296.018L272.452 257.822L234.257 267.091Z" fill="#231F20"/>
<path d="M434.504 258.939C429.384 237.845 408.134 224.893 387.04 230.013L396.309 268.208L434.504 258.939Z" fill="#6E00FF"/>
<path d="M387.023 230.034L396.294 268.228L281.709 296.04L272.439 257.846L387.023 230.034Z" fill="#231F20"/>
<path d="M122.224 217.312C155.035 210.327 175.973 178.067 168.988 145.254C162.003 112.443 129.743 91.5054 96.9303 98.4909L122.223 217.311L122.224 217.312Z" fill="#231F20"/>
<path d="M170.516 269.134C150.828 273.324 131.472 260.763 127.281 241.076L162.927 233.487L170.516 269.134Z" fill="#231F20"/>
<path d="M96.9316 98.4922C116.619 94.3015 135.975 106.863 140.166 126.55L104.52 134.138L96.9316 98.4922Z" fill="#6E00FF"/>
<path d="M162.951 233.493L127.304 241.078L104.548 134.138L140.195 126.553L162.951 233.493Z" fill="#231F20"/>
<path d="M120.477 229.527C150.164 209.175 157.73 168.611 137.379 138.926C117.027 109.239 76.4622 101.674 46.7776 122.025L120.479 229.528L120.477 229.527Z" fill="#231F20"/>
<path d="M189.581 261.167C171.769 273.377 147.431 268.838 135.22 251.026L167.47 228.915L189.581 261.165L189.581 261.167Z" fill="#231F20"/>
<path d="M46.7773 122.026C64.5895 109.815 88.9269 114.354 101.138 132.166L68.8877 154.277L46.7769 122.027L46.7773 122.026Z" fill="#C7EAFB"/>
<path d="M167.471 228.915L135.22 251.025L68.8903 154.273L101.141 132.163L167.471 228.915Z" fill="#231F20"/>
<path d="M116.951 242.456C140.977 215.408 138.527 174.004 111.479 149.978C84.4306 125.951 43.0268 128.401 19.0006 155.45L116.951 242.458L116.951 242.456Z" fill="#231F20"/>
<path d="M192.029 256.573C177.613 272.801 152.77 274.272 136.542 259.855L162.644 230.471L192.029 256.573Z" fill="#231F20"/>
<path d="M19.0019 155.444C33.4181 139.216 58.2605 137.745 74.4888 152.161L48.3866 181.546L19.0019 155.444Z" fill="#6E00FF"/>
<path d="M162.656 230.468L136.553 259.851L48.4021 181.54L74.5053 152.157L162.656 230.468Z" fill="#231F20"/>
<path d="M204.256 319.818C238.179 328.268 272.48 307.818 280.868 274.142C289.256 240.466 268.555 206.317 234.632 197.867C200.708 189.417 166.408 209.867 158.02 243.543C149.632 277.219 170.332 311.368 204.256 319.818Z" fill="#2D2D2D"/>
<path d="M189.041 267.808C198.505 270.165 208.087 264.404 210.444 254.941C212.801 245.478 207.04 235.896 197.577 233.539C188.114 231.182 178.532 236.942 176.175 246.405C173.818 255.869 179.578 265.451 189.041 267.808Z" fill="white"/>
<path d="M191.175 259.241C195.907 260.42 200.699 257.54 201.877 252.808C203.056 248.076 200.176 243.284 195.444 242.105C190.712 240.927 185.92 243.807 184.741 248.539C183.563 253.271 186.443 258.063 191.175 259.241Z" fill="#231F20"/>
<path d="M187.754 248.092C191.481 249.02 195.255 246.752 196.183 243.025C197.111 239.298 194.843 235.524 191.116 234.596C187.389 233.668 183.615 235.936 182.687 239.663C181.759 243.39 184.027 247.164 187.754 248.092Z" fill="white"/>
<path d="M171.689 304.402C185.561 307.857 199.608 299.413 203.063 285.541C206.518 271.669 198.074 257.622 184.202 254.167C170.33 250.711 156.283 259.156 152.828 273.028C149.372 286.9 157.817 300.947 171.689 304.402Z" fill="#2D2D2D"/>
<path d="M179.504 294.92C191.39 297.881 203.425 290.645 206.386 278.76C209.346 266.874 202.111 254.839 190.225 251.879C178.34 248.918 166.305 256.153 163.344 268.039C160.384 279.924 167.619 291.96 179.504 294.92Z" fill="#2D2D2D"/>
<path d="M241.234 280.808C250.697 283.166 260.28 277.405 262.637 267.942C264.994 258.479 259.233 248.897 249.77 246.539C240.307 244.182 230.725 249.943 228.368 259.406C226.011 268.869 231.771 278.451 241.234 280.808Z" fill="white"/>
<path d="M243.368 272.242C248.1 273.421 252.892 270.54 254.07 265.808C255.249 261.076 252.368 256.285 247.636 255.106C242.904 253.927 238.113 256.808 236.934 261.54C235.756 266.272 238.636 271.063 243.368 272.242Z" fill="#231F20"/>
<path d="M239.948 261.093C243.675 262.021 247.449 259.753 248.377 256.026C249.306 252.299 247.037 248.525 243.31 247.597C239.583 246.669 235.809 248.937 234.881 252.664C233.953 256.391 236.222 260.165 239.948 261.093Z" fill="white"/>
<path d="M239.392 321.266C253.265 324.721 267.311 316.277 270.767 302.405C274.222 288.532 265.778 274.486 251.905 271.03C238.033 267.575 223.986 276.02 220.531 289.892C217.076 303.764 225.52 317.811 239.392 321.266Z" fill="#2D2D2D"/>
<path d="M236.893 309.215C248.779 312.175 260.814 304.94 263.774 293.054C266.735 281.169 259.5 269.133 247.614 266.173C235.728 263.212 223.693 270.448 220.733 282.333C217.772 294.219 225.007 306.254 236.893 309.215Z" fill="#2D2D2D"/>
<path d="M216.991 266.763C202.062 263.045 187.177 271.202 183.745 284.981L199.216 338.131L216.992 266.764L216.991 266.763Z" fill="#C7EAFB"/>
<path d="M237.809 298.448C241.242 284.669 231.922 270.483 216.994 266.764L199.217 338.131L237.811 298.449L237.809 298.448Z" fill="#6E00FF"/>
<path d="M320.753 296.24L317.94 302.802L323.35 307.502L316.239 306.875L313.451 313.459L311.836 306.504L304.699 305.856L310.828 302.175L309.214 295.221L314.624 299.921L320.753 296.24Z" fill="#FF7EF2"/>
<path d="M103.252 273.234L107.509 282.298L117.478 281.006L110.194 287.878L114.496 296.935L105.702 292.147L98.3715 299.024L100.225 289.169L91.4304 284.38L101.399 283.089L103.252 273.234Z" fill="#FF7EF2"/>
<path d="M111.373 231.683L117.811 221.784L113.317 219.814L109.451 225.756L100.573 222.185L95.4208 230.106L86.5416 226.535L80.1021 236.433L84.5957 238.404L88.4626 232.461L97.3418 236.031L102.495 228.112L111.373 231.683Z" fill="#FF5A00"/>
<path d="M412.156 305.251L419.634 296.113L415.382 293.665L410.892 299.151L402.456 294.634L396.471 301.946L388.034 297.43L380.554 306.568L384.807 309.016L389.298 303.529L397.735 308.046L403.72 300.735L412.156 305.251Z" fill="#00C800"/>
<path d="M352.171 300.012L363.584 303.042L364.055 298.158L357.203 296.338L357.828 286.789L348.695 284.363L349.319 274.814L337.907 271.782L337.435 276.666L344.288 278.487L343.664 288.036L352.796 290.463L352.171 300.012Z" fill="#FF5A00"/>
<path d="M39.4551 207.209C44.9025 208.566 50.4687 205.049 51.8873 199.354C53.3059 193.659 50.0396 187.942 44.5922 186.585C39.1448 185.228 33.5785 188.745 32.1599 194.44C30.7414 200.135 34.0077 205.852 39.4551 207.209Z" fill="#0082FF"/>
<path d="M90.5635 338.477C96.0109 339.834 101.577 336.317 102.996 330.622C104.414 324.927 101.148 319.21 95.7006 317.853C90.2532 316.497 84.6869 320.013 83.2684 325.708C81.8498 331.404 85.1161 337.121 90.5635 338.477Z" fill="#00C800"/>
<defs>
<radialGradient id="paint0_radial_4_11116" cx="0" cy="0" r="1" gradientUnits="userSpaceOnUse" gradientTransform="translate(232.442 218.121) rotate(90) scale(179.737)">
<stop stop-color="#FED75A"/>
<stop offset="1" stop-color="#FED75A" stop-opacity="0"/>
</radialGradient>
</defs>
</svg>
