<svg width="659" height="397" viewBox="0 0 659 397" fill="none" xmlns="http://www.w3.org/2000/svg">
<g filter="url(#filter0_dd_3_20974)">
<path fill-rule="evenodd" clip-rule="evenodd" d="M24.4004 167.407C24.3327 190.189 33.4826 210.903 48.4302 226.197C40.2975 239.985 35.6266 255.961 35.5759 273.002C35.4205 325.275 78.7977 367.779 132.462 367.939C147.351 367.983 161.468 364.763 174.098 358.97C189.26 366.368 206.364 370.553 224.472 370.607C251.523 370.687 276.389 361.534 295.925 346.192C299.178 346.609 302.495 346.829 305.863 346.839C315.259 346.867 324.267 345.259 332.605 342.29C349.026 354.81 369.69 362.299 392.156 362.366C414.688 362.433 435.451 355.024 451.969 342.537C453.899 342.724 455.856 342.823 457.835 342.829C470.077 342.865 481.477 339.346 491.005 333.269C501.889 343.949 516.958 350.581 533.626 350.631C566.537 350.728 593.367 325.128 594.091 293.218C616.05 278.722 630.512 254.248 630.594 226.458C630.626 215.767 628.527 205.555 624.687 196.202C630.95 186.957 634.609 175.889 634.644 163.984C634.691 148.374 628.498 134.164 618.352 123.595C620.218 118.879 621.247 113.758 621.263 108.402C621.333 84.8702 601.806 65.7354 577.647 65.6636C561.655 65.616 547.642 73.9343 539.976 86.3899C527.64 75.1617 511.087 68.2689 492.874 68.2147C487.854 68.1998 482.956 68.7051 478.236 69.6787C461.762 57.0064 440.972 49.4171 418.354 49.3498C393.935 49.2772 371.593 57.9857 354.48 72.4241C343.983 66.9384 331.992 63.8115 319.25 63.7736C312.855 63.7546 306.644 64.5148 300.712 65.9625C287.368 45.9273 264.231 32.6439 237.886 32.5656C223.782 32.5237 210.575 36.2719 199.281 42.8262C188.029 37.7348 175.494 34.8764 162.274 34.837C125.11 34.7265 93.2256 56.9278 79.9879 88.4976C47.5446 100.782 24.5073 131.45 24.4004 167.407Z" fill="white" fill-opacity="0.9" shape-rendering="crispEdges"/>
</g>
<defs>
<filter id="filter0_dd_3_20974" x="0.399902" y="10.5653" width="658.245" height="386.042" filterUnits="userSpaceOnUse" color-interpolation-filters="sRGB">
<feFlood flood-opacity="0" result="BackgroundImageFix"/>
<feColorMatrix in="SourceAlpha" type="matrix" values="0 0 0 0 0 0 0 0 0 0 0 0 0 0 0 0 0 0 127 0" result="hardAlpha"/>
<feOffset dy="2"/>
<feGaussianBlur stdDeviation="12"/>
<feComposite in2="hardAlpha" operator="out"/>
<feColorMatrix type="matrix" values="0 0 0 0 0 0 0 0 0 0 0 0 0 0 0 0 0 0 0.15 0"/>
<feBlend mode="normal" in2="BackgroundImageFix" result="effect1_dropShadow_3_20974"/>
<feColorMatrix in="SourceAlpha" type="matrix" values="0 0 0 0 0 0 0 0 0 0 0 0 0 0 0 0 0 0 127 0" result="hardAlpha"/>
<feOffset dy="2"/>
<feGaussianBlur stdDeviation="3"/>
<feComposite in2="hardAlpha" operator="out"/>
<feColorMatrix type="matrix" values="0 0 0 0 0 0 0 0 0 0 0 0 0 0 0 0 0 0 0.1 0"/>
<feBlend mode="normal" in2="effect1_dropShadow_3_20974" result="effect2_dropShadow_3_20974"/>
<feBlend mode="normal" in="SourceGraphic" in2="effect2_dropShadow_3_20974" result="shape"/>
</filter>
</defs>
</svg>
