<svg width="709" height="395" viewBox="0 0 709 395" fill="none" xmlns="http://www.w3.org/2000/svg">
<g filter="url(#filter0_dd_3_20299)">
<path fill-rule="evenodd" clip-rule="evenodd" d="M24.3927 144.46C24.2892 179.254 44.8275 209.417 74.7778 223.944C68.8728 236.411 65.5608 250.285 65.5173 264.913C65.3555 319.361 110.538 363.635 166.435 363.801C183.965 363.853 200.467 359.561 214.867 351.964C227.117 358.022 240.968 361.454 255.642 361.498C279.874 361.57 301.916 352.389 318.242 337.369C324.7 338.649 331.383 339.33 338.226 339.35C340.726 339.358 343.205 339.277 345.66 339.111C363.766 355.996 388.301 366.401 415.344 366.481C448.241 366.579 477.518 351.377 496.074 327.752C505.141 332.749 515.612 335.615 526.771 335.648C549.923 335.717 570.185 323.577 581.134 305.449C583.96 305.729 586.827 305.876 589.727 305.885C637.496 306.027 676.332 268.422 676.47 221.892C676.503 210.757 674.317 200.119 670.317 190.377C676.84 180.748 680.652 169.219 680.689 156.819C680.716 147.551 678.632 138.757 674.878 130.869C680.734 121.587 684.125 110.668 684.16 98.9756C684.261 65.0983 656.149 37.5515 621.37 37.4481C610.333 37.4153 599.951 40.1501 590.917 44.9818C576.396 37.0611 559.663 32.5243 541.841 32.4713C515.775 32.3938 491.982 41.9214 473.994 57.6341C466.504 55.8878 458.689 54.9523 450.653 54.9284C434.77 54.8812 419.73 58.4007 406.333 64.713C392.761 53.5178 375.218 46.7451 356.044 46.6881C344.561 46.6539 333.649 49.0315 323.814 53.3314C312.165 46.5572 298.556 42.6476 284.007 42.6043C270.229 42.5634 257.274 45.9944 246.013 52.052C231.308 42.2992 213.557 36.5761 194.429 36.5193C171.37 36.4507 150.262 44.6286 134.048 58.2034C128.047 56.9674 121.826 56.3086 115.449 56.2896C65.3053 56.1405 24.5379 95.6156 24.3927 144.46Z" fill="white" fill-opacity="0.9" shape-rendering="crispEdges"/>
</g>
<defs>
<filter id="filter0_dd_3_20299" x="0.39209" y="10.4707" width="707.768" height="382.011" filterUnits="userSpaceOnUse" color-interpolation-filters="sRGB">
<feFlood flood-opacity="0" result="BackgroundImageFix"/>
<feColorMatrix in="SourceAlpha" type="matrix" values="0 0 0 0 0 0 0 0 0 0 0 0 0 0 0 0 0 0 127 0" result="hardAlpha"/>
<feOffset dy="2"/>
<feGaussianBlur stdDeviation="12"/>
<feComposite in2="hardAlpha" operator="out"/>
<feColorMatrix type="matrix" values="0 0 0 0 0 0 0 0 0 0 0 0 0 0 0 0 0 0 0.15 0"/>
<feBlend mode="normal" in2="BackgroundImageFix" result="effect1_dropShadow_3_20299"/>
<feColorMatrix in="SourceAlpha" type="matrix" values="0 0 0 0 0 0 0 0 0 0 0 0 0 0 0 0 0 0 127 0" result="hardAlpha"/>
<feOffset dy="2"/>
<feGaussianBlur stdDeviation="3"/>
<feComposite in2="hardAlpha" operator="out"/>
<feColorMatrix type="matrix" values="0 0 0 0 0 0 0 0 0 0 0 0 0 0 0 0 0 0 0.1 0"/>
<feBlend mode="normal" in2="effect1_dropShadow_3_20299" result="effect2_dropShadow_3_20299"/>
<feBlend mode="normal" in="SourceGraphic" in2="effect2_dropShadow_3_20299" result="shape"/>
</filter>
</defs>
</svg>
